<?xml version="1.0" encoding="utf-8" ?>
<svg baseProfile="full" height="300mm" version="1.1" viewBox="0,0,200,300" width="200mm" xmlns="http://www.w3.org/2000/svg" xmlns:ev="http://www.w3.org/2001/xml-events" xmlns:xlink="http://www.w3.org/1999/xlink"><defs /><rect fill="#222222" height="300" width="200" x="0" y="0" /><text fill="#FFFFFF" style="font-size:12px; font-family:Arial; font-weight:bold;" x="10" y="20">Over 10km Workouts</text><text fill="#FFFFFF" style="font-size:4px; font-family:Arial" x="10" y="280">ATHLETE</text><text fill="#FFFFFF" style="font-size:9px; font-family:Arial" x="10" y="290">heigao</text><text fill="#FFFFFF" style="font-size:4px; font-family:Arial" x="120" y="280">STATISTICS</text><text fill="#FFFFFF" style="font-size:3px; font-family:Arial" x="120" y="285">Number: 8</text><text fill="#FFFFFF" style="font-size:3px; font-family:Arial" x="120" y="290">Weekly: 1.3</text><text fill="#FFFFFF" style="font-size:3px; font-family:Arial" x="141" y="285">Total: 113.6 km</text><text fill="#FFFFFF" style="font-size:3px; font-family:Arial" x="141" y="290">Avg: 14.2 km</text><text fill="#FFFFFF" style="font-size:3px; font-family:Arial" x="167" y="285">Min: 10.0 km</text><text fill="#FFFFFF" style="font-size:3px; font-family:Arial" x="167" y="290">Max: 33.3 km</text><polyline fill="none" points="17.23167100502178,44.87242006555607 17.352886598557234,45.08347822613723 17.53470998897683,45.21538945069187 18.059977561235428,45.268153913581045 18.88828411733266,45.21538945069187 19.999427058617584,45.241771684086416 22.181307743070647,45.004331444899435 24.039946844801307,44.898802349183825 26.605676908860914,44.63497933918552 27.75722504791338,44.63497933918552 29.858295336714946,44.529450026820996 31.636124042677693,44.661361657548696 32.46443059889134,44.81965548680455 33.19172416033689,45.05709596950328 35.00995806406718,45.92770839316654 35.19178145448677,46.1651474142418 35.27259185013827,46.58726045594085 35.27259185013827,46.93022657345864 35.17157885548659,47.98550283603254 35.21198405348696,48.67142908889218 35.333199646905996,49.067154584103264 35.57563083420973,49.51564242708264 35.83826462016441,49.779458283184795 36.14130360423587,49.99051068967674 37.27264914440457,50.30708883542684 37.71710632077884,50.49175916335662 38.20196869515348,50.91386205847084 38.56561547587626,51.36234529988724 38.92926225659903,51.73168360085401 39.53534022462554,52.153783588306396 39.97979740111623,52.338452021518606 40.323241582955234,52.417595577731845 40.909116951865144,52.443976755443146 41.43438452400733,52.36483321078413 41.717220909078605,52.31207082841138 42.666743058827706,51.73168360085401 42.969782042782754,51.62615844939137 43.596062609693035,51.52063323598122 44.000114588299766,51.54701454516908 44.68700295186136,51.67892103281338 45.61632250272669,51.70530231880548 45.838551090913825,51.81082742392027 45.91936148679815,51.99549620899779 45.97996928344946,52.443976755443146 45.97996928344946,53.18264816066949 45.89915888779797,53.657506749004824 45.63652510161046,54.36979228263954 45.57591730484273,54.63360102428123 45.61632250272669,54.923790193483 45.73753809637856,55.477786399191245 45.71733549737837,56.05816154785862 45.75774069514591,56.58577369550767 45.272878320887685,57.40356946809334 44.90923154016491,57.746514976694016 44.62639515509363,58.115840178274084 44.44457176479045,58.16860085942608 43.25261842785403,58.16860085942608 42.48491966840811,58.08945983181184 41.454587123007514,57.8784169213759 40.161620791535825,57.50909123259771 39.676758417044766,57.456330358050764 38.76764146517962,57.456330358050764 37.212041347520426,57.8784169213759 36.68677377537824,58.16860085942608 36.44434258819092,58.3532631220005 35.999885411700234,58.77534758207912 34.565500887692906,60.41091551669524 33.777599529363215,61.096794421449886 33.37354755064007,61.413353034469765 32.626051390194334,61.83543031923182 32.08058121916838,62.04646859051718 31.211869465070777,62.33664580954064 29.25221736880485,62.679581919830525 27.494591261842288,63.497350007950445 26.98952628846746,63.813904399459716 26.48446131532546,64.23597605561372 25.43392617092468,65.2911508664547 24.605619614827447,65.87149437605694 24.039946844801307,66.58373158074392 23.656097465078346,67.2959659674525 23.45407147577498,68.00819753624091 23.3530584811233,68.95783524455328 23.373261079890653,69.74919617475825 23.494476673542522,70.1712539151631 23.837920855381526,70.77796018327354 24.363188427640125,71.4110428049753 24.868253400782123,71.78033997272723 25.99959894095082,72.80909237409651 26.98952628846746,73.44216785287426 27.71681985014584,73.78508280774986 28.080466630868614,74.02248508621415 28.44411341159139,74.3390209703939 29.11079917626921,75.07760253590823 29.413838160340674,75.34138093206275 29.878497935598716,75.55240337071882 31.27247726195492,75.92169204328093 32.060378620168194,76.21184689739312 32.92909037414938,76.60751185385743 33.51496574317571,76.97679836212774 33.73719433136284,77.21419643159606 34.02003071643412,77.60985918523511 34.525095689692535,78.53306889535452 34.96955286629964,79.50902829830011 35.292794449138455,80.4322282695939 35.55542823520955,80.9333919857454 35.87866981816478,81.32904656574829 36.50495038495865,81.88296151699615 37.07062315498479,82.54238185583381 37.4948777325917,82.77977258668398 38.14136089826934,82.88527947758848 39.15149084490258,82.91165619069943 41.51519491977524,82.59513537862222 42.00005729414988,82.59513537862222 42.626337861060165,82.67426563381741 43.13140283420216,82.75339585429174 43.71727820322849,82.91165619069943 45.15166272735223,83.59744937445794 45.75774069514591,83.8348387141159 46.060779679217376,83.88759185816161 46.96989663108252,83.96672154530825 47.394151208689436,83.94034498678229 48.08103957225103,83.80846213625045 48.909346128464676,83.43918964086333 49.95988127286546,82.8061493151472 50.54575664177537,82.62151213425386 51.252847604453564,82.64788888595649 52.202369754202664,82.83252603982692 53.41452569013927,82.77977258668398 54.42465563653968,82.88527947758848 54.78830241737887,82.99078630673466 55.37417778628878,83.22817644626775 55.636811572359875,83.43918964086333 55.859040160663426,83.72933237958932 55.91964795743115,84.09860427989042 55.81863496277947,84.49425190406328 55.616608973476104,84.83714580831293 55.1923543959856,85.23279180956888 55.071138802333735,85.52293165780429 55.071138802333735,85.70756586326752 55.15194919810165,85.99770494645054 55.51559597882442,86.70986253202136 55.73782456701156,86.92087164604163 56.020660952082835,87.0 56.36410513392184,86.94724776789371 56.6469415188767,86.81536711995432 58.44497282372322,85.99770494645054 58.78841700556222,85.91857615199115 59.23287418205291,85.91857615199115 59.414697572472505,85.8658236029878 59.5763183637755,85.76031845872058 60.141991133918054,85.12728629421326 60.4450301178731,84.62613425220479 61.071310684783384,83.17542310898716 61.35414706973825,82.35774440440582 61.475362663390115,81.85658465317101 61.51576786127407,81.40817737743782 61.51576786127407,81.06527694240503 61.41475486662239,80.61686769573134 61.495565262273885,80.0101945844217 61.455160064506344,79.19250150407606 61.495565262273885,78.00552106926625 61.455160064506344,77.42521667509573 61.43495746550616,76.26460227517236 61.495565262273885,74.70831213195925 61.59657825692557,73.60043637476338 61.616780855925754,72.99373961871606 61.51576786127407,72.38704081803735 61.13191848155111,71.67482657343498 61.051108085899614,71.38466440681077 61.15212108043488,71.14725864981301 61.25313407520298,70.98898797118454 61.35414706973825,70.93623104740982 61.657186053693295,70.83071715349797 61.75819904834498,70.85709563276032 62.10164323018398,70.98898797118454 61.657186053693295,70.75158169239876 61.455160064506344,70.75158169239876 60.80867689859588,70.90985257974535 60.6268535082927,70.88347410821007 60.364219722221605,70.69882469906588 59.93996514461469,70.25038963128463 59.758141754195094,69.85471070262429 59.596520962775685,69.27438003408315 59.596520962775685,68.77318386027764 59.65712875954341,68.4830170165369 59.85915474896319,68.03457642911235 60.22280152968597,67.48061886697542 60.78847429971211,66.95303865151072 61.71779385046102,66.18804459267994 62.16225102706812,65.66046058903157 62.36427701637149,65.21201297017979 62.424884813139215,64.4206320939993 62.36427701637149,63.97218138645985 61.81880684522912,62.62682256077824 61.63698345492594,62.36302553350106 61.17232367943507,61.78267071284063 61.03090548689943,61.51887244846148 60.970297690015286,61.20231402100762 60.99050028901547,60.56919549588929 60.929892492247745,60.27901542773179 60.84908209647983,60.120735193413566 60.66725870617665,60.01521495984343 60.101585936150514,59.85693449358223 57.41464027832262,58.801727828002186 55.59640637447592,57.957558041773154 54.54587123019155,57.56185209166142 54.06100885570049,57.456330358050764 53.47513348679058,57.4299499149929 52.646826930576935,57.53547166407225 51.495278791640885,57.4299499149929 50.76798523007892,57.4299499149929 49.87907087709755,57.53547166407225 48.58610454550944,57.8256561550661 47.51536680222489,57.983938407487585 47.21232781826984,57.957558041773154 47.07090962585062,57.852036540120025 46.80827583966311,57.4299499149929 46.040577080333605,56.55939312482951 45.87895628879778,56.29558720566274 45.7779432941461,55.92625826923177 45.79814589302987,55.29312118672533 45.6971328984946,54.65998187715013 45.71733549737837,54.47531582569354 45.75774069514591,54.18512593345076 45.97996928344946,53.57836373796454 46.040577080333605,53.28817239968339 46.060779679217376,52.99798059355817 46.000171882333234,52.1010211440298 46.02037448133342,51.94273371830059 46.14159007498529,51.652539743023226 46.52543945459183,51.20405722466239 46.606249850359745,50.99300624108582 46.626452449243516,50.6764293017477 46.444629058940336,47.563393073534826 46.46483165782411,47.35233782090654 46.52543945459183,47.11490036602481 46.626452449243516,46.956608555454295 46.788073240662925,46.7983166056074 47.05070702685043,46.69278856177698 47.394151208689436,46.64002451655688 49.0507643208839,46.50811433610215 50.727580032194965,46.24429368496931 52.485206139157526,45.848561983322725 53.35391789325513,45.743033382474096 56.14187654561829,45.241771684086416 58.76821440656204,44.898802349183825 59.87935734784696,44.661361657548696 62.48549260990694,44.212861718813656 63.11177317670081,44.05456735590997 63.71785114472732,43.97542012222402 64.00068752968218,43.896272853788105 64.22291611798573,43.73797821244807 64.36433431040496,43.50053598942759 64.38453690940514,43.289475972705986 64.12190312333405,42.33970283443341 63.85926933714654,41.07333085361461 63.758256342611276,40.67758778220741 63.515825155423954,40.12354602036066 63.07136797893327,39.33205483062193 62.28346662048716,38.32949432671012 62.04103543353267,38.118428245870746 61.657186053693295,37.907361917430535 61.25313407520298,37.77544533650507 60.929892492247745,37.749062008733745 60.30361192545388,37.77544533650507 58.28335203230381,38.25034457536822 57.7782870590454,38.38226080828463 57.03079089859966,38.72524256116594 56.52572592534125,38.83077527678688 55.859040160663426,38.804392103658756 53.737767272861674,38.303111080182134 52.222572353086434,37.66991200209304 51.75791257759556,37.379695013471064 51.252847604453564,37.010327260155464 49.83866567921359,35.82306863316626 48.828535732696764,35.13709341197682 48.303268160438165,34.556650798011106 47.737595390412025,34.081741812304244 46.99009922996629,33.79151903746242 45.515309508075006,33.263840065992554 44.76781334762927,33.07915206045436 44.28295097325463,33.0 43.57586001069285,33.026384023964056 38.64642587164417,33.52767974513699 37.919132310082205,33.55406369174307 36.34332959353924,33.52767974513699 34.3028671015054,33.76513512564998 33.11091376456898,33.738751209981274 31.373490256490186,33.84428684951854 30.242144716437906,33.870670749791316 29.79768753994722,33.94982242725382 28.38350561482366,34.42473176102794 27.110741882119328,34.635802173797856 26.56527171097696,34.6621859579609 25.51473656669259,34.556650798011106 24.039946844801307,34.50388319478952 22.241915539838374,34.6621859579609 20.94894920825027,34.92602358708973 19.898414063849486,35.21624453245022 19.110512705519795,35.45369768513774 18.58524513337761,35.74391777947312 17.39329179644119,36.746492686652346 16.908429422066547,37.24777804577025 16.22154105838854,38.25034457536822 16.05992026696913,38.593326579692075 15.958907272433862,38.883541611299734 15.655868288362399,40.14992900012294 15.615463090594858,40.75673646609357 15.635665689478628,40.941416593195754 15.736678684130311,41.17886219227512 16.22154105838854,41.864814385800855 16.645795635995455,42.682677045915625 17.171063208254054,44.10733215902292 17.23167100502178,44.39753829954134 17.272076202905737,44.81965548680455 17.37308919755742,45.03071370914404 17.494304791209288,45.16262497250864 17.63572298362851,45.241771684086416 17.95896456646733,45.294536139103" stroke="#4dd2ff" stroke-linecap="round" stroke-linejoin="round" stroke-width="0.5"><title>2024-10-04 11.0km</title><desc>12569133374</desc></polyline><polyline fill="none" points="137.74991051689722,45.428546697919955 138.75807043898385,45.32322364383435 139.9073727503419,45.1389081505622 141.35912303824443,45.007254111013026 141.923692594748,45.007254111013026 142.89152612001635,44.84926913616073 145.613557910081,44.55962965467188 145.89584268827457,44.58596053603105 146.52090184006374,44.79660744697321 146.6418810307514,44.69128402233764 146.86367621365935,44.638622286875034 148.4162424937822,44.53329876958742 149.3034232252976,44.50696788066125 150.2309303538641,44.612291413373896 151.6221910463646,44.53329876958742 151.9044758246746,44.55962965467188 152.2069238013355,44.66495315657812 153.69900048628915,45.507538947989815 155.13058757572435,46.086814387046616 155.251566766412,46.2974595380947 155.29189316334669,46.560765629590605 155.27172996487934,47.140037672259496 155.17091397265904,48.298576153916656 155.29189316334669,48.983163562821574 155.53385154460557,49.50976748671383 155.83629952126648,49.8520592093555 156.19923709332943,50.089030020011705 156.88478584040422,50.29967047808168 157.57033458759543,50.40499061453738 157.77196657203604,50.51031068923476 158.11474094551522,50.79994057623844 158.61882090661675,51.48451845285308 158.92126888327766,51.80047659302363 159.48583843978122,52.24808300686709 159.92942880559713,52.48505065684731 160.171387186856,52.59036951205053 160.43350876658224,52.61669921615976 161.52232148253825,52.51138037646888 161.86509585613385,52.379731739871204 162.71195019083098,51.85313622893591 163.67978371609934,51.64249759238737 163.9015788990073,51.64249759238737 164.4459852570435,51.82680641289335 164.7887596305227,51.90579584951047 165.79691955272574,51.80047659302363 165.95822514034808,51.82680641289335 166.05904113256838,52.16909372077498 166.0187147357501,53.38025895798637 165.65577716368716,54.407110045533045 165.59528756840155,54.67040425076266 165.73642995744012,55.35496737838548 165.8170827513095,56.566111137057305 165.39365558396094,57.38231210822414 164.6879436383024,58.11952270127949 164.50647485232912,58.198509371097316 164.2040268756682,58.22483825328527 162.10705423750915,58.0668649020954 160.19155038520694,57.51395707880147 159.20355366147123,57.355983102475875 158.2962097314885,57.46129910211312 156.98560183262452,57.85623355099233 156.40086907777004,58.35648260659946 155.392709155567,59.541277444935986 154.3643860348966,60.56809331801196 153.7796532799257,61.06833482252841 153.17475732672028,61.48958974587731 152.38839258730877,61.963500354089774 151.74317023705225,62.200455189318745 151.2592534745345,62.332096629514126 149.3034232252976,62.621707458238234 147.81134654046036,63.25358400953701 147.20645058713853,63.64850572559226 145.53290511621162,65.25451176096976 144.5852347894106,65.9390345599968 143.96017563762143,66.72886531816039 143.5972380656749,67.54502012062585 143.43593247816898,68.62444497135584 143.43593247816898,69.67753613711102 143.5569116687402,70.1777522785851 144.12148122524377,71.07287242427992 144.5852347894106,71.70471925399033 145.8555162914563,72.91575280018151 146.6418810307514,73.33697994628164 147.9726521280827,73.91616565988807 148.43640569236595,74.28473741460766 149.18244403472636,75.12718430071254 149.72685039264616,75.5484062625037 150.25109355221502,75.75901687316946 151.23909027606715,75.94330095491023 152.08594461064786,76.23288984438113 152.9327989454614,76.65410921403964 153.6788372878218,77.23328423505882 154.06193805823568,77.70715331811516 154.64667081309017,78.73386537771148 155.21124036959372,80.33973657850584 155.63466753682587,81.07685297960415 157.14690742013045,82.65637794257782 157.32837620622013,82.78800439610495 157.6106609844137,82.84065495050163 158.41718892217614,82.89330548954604 159.30436965380795,82.8143296752678 160.0705711945193,82.63005264032108 161.24003670434467,82.49842607107712 162.87325577822048,82.57740202423884 163.4983149302425,82.70902853563894 164.80892282899003,83.44613521739666 165.5347979729995,83.73571201507002 165.95822514034808,83.81468742439756 166.86556907033082,83.86733767797705 167.71242340502795,83.81468742439756 168.43829854903743,83.63041141538997 170.07151762302965,82.65637794257782 170.41429199650884,82.55107671035512 171.09984074358363,82.55107671035512 172.18865345965605,82.78800439610495 173.7412197397789,82.76167911311495 174.668726868229,82.99860652118514 175.27362282166723,83.23553361689846 175.63656039361376,83.49878557892225 175.85835557652172,83.81468742439756 175.87851877487265,84.10426362817816 175.77770278265234,84.49913951767667 175.61639719514642,84.73606463475153 175.1123172340449,85.15726407176408 174.93084844807163,85.49948788725305 174.9711748448899,85.84171105104906 175.4550916076405,86.78940256459464 175.57607079821173,86.92102599069767 175.83819237805437,87.0 176.28178274375387,86.89470131316921 178.37875538202934,85.94701035491016 178.74169295397587,85.84171105104906 179.3465889072977,85.81538621544314 179.5482208917383,85.68376197955513 179.7901792731136,85.39418832115189 180.29425923421513,84.6834146357578 181.0201343782246,83.34083444791031 181.2620927594835,82.70902853563894 181.48388794250786,81.84029177876073 181.5645407361444,81.18215507584682 181.5040511408588,77.91776139839203 181.5645407361444,77.07532759621972 181.58470393461175,74.23208435314882 181.72584632365033,73.38963327014062 181.7056831252994,72.75779236570816 181.58470393461175,72.36289067209873 181.28225595806725,71.86268061424198 180.39507522643544,70.91491036963998 179.95148486061953,70.28306076249282 179.70952647936065,69.62488172549638 179.66920008242596,68.80873637092009 179.81034247158095,68.09789707385062 180.15311684506014,67.46603755980323 180.53621761559043,67.07112423503713 181.5645407361444,66.28129498152703 182.048457498895,65.80739576276392 182.31057907862123,65.41247879217553 182.43155826930888,65.12287246210326 182.51221106306184,64.54365840146784 182.41139507095795,63.72748996465816 181.7056831252994,62.46373797315755 181.06046077504288,61.594903322446044 180.99997117975727,61.30529083842703 180.97980798128992,60.41012202722777 180.9193183860043,60.199493423482636 180.8185023936676,60.06785042065894 178.217449794407,59.12001795320248 175.53574440139346,57.96154925740848 174.3259524947498,57.46129910211312 173.8420357319992,57.355983102475875 172.6524070238229,57.48762809240725 171.05951434676535,57.355983102475875 169.62792725721374,57.51395707880147 168.59960413654335,57.82990461475856 168.07536097697448,57.935220336628845 167.43013862683438,57.987878174331854 167.10752745170612,57.85623355099233 166.68410028424114,57.22433801605075 165.89773554506246,56.38180717876821 165.75659315579105,56.01319869495637 165.7767563543748,55.22332082562207 165.69610356062185,54.407110045533045 165.97838833881542,53.53823643042415 166.09936752950307,52.95898501900956 166.09936752950307,51.90579584951047 166.22034672019072,51.64249759238737 166.7042634828249,51.16855975697399 166.76475307811052,50.90526041931298 166.58328429213725,48.193254782425356 166.28083631547634,47.613986136057065 165.83724594966043,47.32435111228551 165.83724594966043,47.3770120604313 166.09936752950307,47.429672993166605 166.22034672019072,47.50866436328215 166.3211627122946,47.50866436328215 166.42197870463133,47.113707165408414 166.52279469673522,46.87673242989695 166.7042634828249,46.74507966400415 167.0470378563041,46.639757381766685 167.97454498475417,46.50810444218223 168.96254170848988,46.45544323930517 170.01102802762762,46.27112890774151 171.8257158875931,46.21846763542271 172.93469180201646,45.79717690104735 173.31779257243033,45.69185406304314 175.67688679054845,45.32322364383435 176.846352300141,45.059915738369455 177.75369623024017,44.92826164093276 179.87083206686657,44.53329876958742 181.06046077504288,44.42797519064334 183.8631453588605,43.875025387606 184.18575653398875,43.664377395878546 184.2664093277417,43.506391240036464 184.28657252620906,43.29574281600071 183.74216616817284,41.057588055409724 183.45988138986286,40.24131290867808 182.85498543665744,39.267044167994754 182.048457498895,38.31910194287775 181.78633591905236,38.08211560494965 181.5645407361444,37.97678824332252 181.06046077504288,37.89779268151324 180.63703360781074,37.924124539262266 179.85066886839923,38.08211560494965 178.51989777118433,38.26643833925482 177.99565461161546,38.424429103848524 176.90684189554304,38.845737129988265 176.36243553762324,38.97739568550605 175.4550916076405,38.81940540726646 174.1243205103092,38.47709266116726 172.69273342075758,37.950456393227796 171.70473669702187,37.371154715132434 170.0513544245623,36.00188877637265 168.88188891473692,35.2909196526889 168.21650336612947,34.52728301506431 167.6922602065606,34.158629683210165 165.11137080565095,33.23699304323236 164.1032108834479,33.10533028007194 163.29668294568546,33.10533028007194 158.65914730355144,33.5529832811153 156.09842110110912,33.5529832811153 154.162754050456,33.81630805468012 150.15027755999472,33.97430273354985 149.6461975990096,34.053300020765164 149.0614648440387,34.26395928385318 148.09363131877035,34.553615366938175 147.14596099185292,34.711609397258144 144.5852347894106,34.60628005917533 142.83103652473073,34.658944735943805 140.93569587101229,35.00126475856814 139.7662303611869,35.317251892673085 139.10084481257945,35.55424187856261 138.63709124841262,35.81756371818483 137.68942092149518,36.6601910112804 136.88289298373275,37.50281435153738 136.29816022887826,38.37176553107565 136.0763650459703,38.845737129988265 135.71342747390736,40.79427389726334 135.7739170693094,41.13658222765662 136.23767063347623,41.66320915448887 136.4191394195659,41.952853306152974 137.04419857123867,43.40106705891958 137.46762573870365,44.98092329148494 137.58860492927488,45.1389081505622 137.77007371524815,45.24423131268122 139.50410878146067,45.29689287071233 141.88336619792972,44.92826164093276 144.02066523302346,44.77027659659507 145.53290511621162,44.77027659659507 146.68220742768608,44.87559997491189 147.9726521280827,44.77027659659507 148.57754808140453,44.822938293538755 149.8478295833338,44.612291413373896 151.40039586357307,44.77027659659507 152.46904538106173,44.95459246815881 153.69900048628915,45.349554413187434 154.86846599599812,45.79717690104735 155.17091397265904,46.00782239175169 155.3120563616976,46.35012078733416 155.37254595709965,46.797740781941684 155.251566766412,47.90362069269759 155.27172996487934,48.32490648709063 155.4935251477873,49.167475111738895 155.7959731244482,49.64141822645615 155.99760510888882,49.82572910003364 156.32021628401708,50.01003978450899 157.44935539690778,50.29967047808168 157.79212977038696,50.45765065962041 158.2962097314885,50.90526041931298 158.941432081745,51.72148711002956 159.64714402728714,52.22175324865384 160.23187678214163,52.40606147487415 160.8972623308655,52.45872093339858 161.44166868878528,52.43239120604994 161.78444306226447,52.32707225829654 162.71195019083098,51.774146769195795 163.4176621363731,51.53717818144651 163.82092610525433,51.53717818144651 164.889575622743,51.66882743542374 165.61545076675247,51.616167745392886 166.119530727854,51.48451845285308 166.48246829991695,51.273879384069005 166.62361068907194,51.036910136419465 166.64377388742287,50.74728063150542 166.44214190309867,48.245915475839865 166.42197870463133,47.40334252874891 166.58328429213725,47.008385099325096 166.76475307811052,46.82407133509696 166.9462218642002,46.718749099251 172.63224382535554,45.95516104216222 174.668726868229,45.48120820187614 176.7858627048554,45.1389081505622 179.18528331979178,44.638622286875034 180.79833919531666,44.42797519064334 183.64135017595254,43.927687346949824 184.00428774801549,43.796032419704716 184.24624612927437,43.55905330744281 184.28657252620906,43.13775633588375 184.04461414483376,42.32149064185796 183.7220029697055,40.89959960686974 183.23808620707132,39.82000815574429 183.01629102416337,39.42503405248863 182.67351665056776,39.00372738507576 181.9476415066747,38.26643833925482 181.54437753767706,37.97678824332252 181.18143996573053,37.845128954344545 180.41523842490278,37.79246521179448 178.62071376328822,38.13477926263295 177.75369623024017,38.37176553107565 176.846352300141,38.76674195032683 176.42292513290886,38.872068848853814 175.89868197334,38.81940540726646 174.30578929628246,38.424429103848524 173.47909816005267,38.18744290486211 172.49110143631697,37.73980145370297 171.80555268912576,37.31849083361158 170.01102802762762,35.843895880985656 169.0230313038919,35.23825516128272 168.35764575516805,34.421953568889876 167.87372899253387,34.07963244218263 166.24050991854165,33.47398577378772 165.3331659885589,33.18432794950786 164.58712764608208,33.02633257585694 163.63945731928106,33.0 159.6269808288198,33.36865570988448 157.77196657203604,33.605648266675416 156.72348025278188,33.5529832811153 155.02977158350404,33.68464571608638 154.14259085210506,33.81630805468012 152.67067736550234,33.81630805468012 150.15027755999472,33.9479702966928 149.72685039264616,34.02696759554965" stroke="#4dd2ff" stroke-linecap="round" stroke-linejoin="round" stroke-width="0.5"><title>2024-10-02 15.0km</title><desc>12553125943</desc></polyline><polyline fill="none" points="67.0,141.16833772641257 65.30997001496144,141.33996608796588 64.81409295351477,141.35316825608606 63.86281859065639,141.45878553175862 63.23538230883423,141.4719876825402 62.61806596699171,141.53799840738793 61.69715142430505,141.604009084047 61.07983508246252,141.63041334115405 59.278485757124145,141.81524292493123 58.88380809593946,141.81524292493123 58.003373313345946,141.90765757492773 56.70802098949207,141.9604659038814 55.96926536731189,142.10568864925153 55.29122938535875,142.11889070545294 54.815592203929555,142.18490095737798 54.43103448278271,142.21130504464963 53.56071964016883,142.21130504464963 53.17616191908019,142.23770912415057 52.46776611695532,142.23770912415057 52.164167916052975,142.1981030019524 51.56709145428613,142.06608246910764 51.23313343327027,142.02647627162514 50.11994003003929,141.9604659038814 49.76574212894775,141.98687005678948 49.07758620689856,141.97366798128496 48.32871064468054,141.90765757492773 47.97451274364721,141.93406174327538 46.33508245879784,141.9604659038814 45.69752623687964,141.89445548783988 44.57421289355261,141.947263824557 43.54197901050793,141.90765757492773 42.732383808121085,141.93406174327538 42.50974512746325,141.90765757492773 42.44902548729442,141.85484921510943 42.408545727143064,141.7756366174217 42.29722638684325,141.22114648779825 42.196026986523066,140.36300028827827 42.1251874063164,139.13517692682217 42.034107946034055,138.44864475810027 42.013868066016585,138.11857935720036 41.96326836582739,137.73570198041125 41.841829085489735,137.14157869831251 41.639430284907576,136.3230024386503 41.639430284907576,135.94011744688032 41.669790104962885,135.45160665149888 41.659670164925046,135.27996709589206 41.6191904048319,135.13473337081814 41.58883058466017,135.08192104923364 41.53823088458739,134.65942136447848 41.447151424363256,134.22371649355773 41.345952023984864,133.3919104460947 41.19415292353369,132.73174146121892 41.143553223402705,132.0187535350342 41.0625937031582,131.6886646251951 40.9816341829719,131.0812978774411 40.88043478259351,130.6587794688312 40.86019490257604,130.31548180567916 40.70839580212487,129.73451355547877 40.54647676163586,128.66499404478236 40.48575712146703,127.83313677569822 40.435157421277836,127.42380736883206 40.36431784107117,125.8524933748995 40.31371814094018,125.41674599439284 40.30359820090234,125.08663294206053 40.080959520244505,123.99064895056654 40.01011994003784,123.8453970614355 39.919040479755495,123.80578286929085 39.76724137936253,123.81898760192416 39.4940029985155,123.93783010882908 39.41304347827099,123.93783010882908 39.30172413797118,123.88501123621973 38.42128935531946,123.1323389426907 37.64205397304613,122.59093920156738 36.862818590714596,121.89107618734852 36.54910044983262,121.65338562729448 35.89130434783874,121.08556675569707 35.55734632688109,120.76864304152696 35.39542728639208,120.58377036101592 35.17278860573424,120.22722912213067 34.80847076466307,119.54055313808931 34.70727136434289,119.31606177943468 34.64655172411585,119.07836443810083 34.6566716642119,118.77463914653345 34.595952023984864,118.45770731777884 34.565592203929555,118.37847418672754 34.555472263891716,118.41809076094069 34.26199400308542,118.52373487387376 33.9381559221074,118.53694037930836 33.62443778110901,118.6161733712579 33.43215892056469,118.64258435315423 32.84520239883568,118.65578984114836 32.14692653674865,118.70861177399638 31.65104947530199,118.76143367586337 31.28673163423082,118.74822820326517 31.013493253441993,118.76143367586337 30.173538230883423,118.86707738695259 29.586581709154416,118.89348829539085 27.926911544287577,119.03874815368908 27.481634182971902,119.05195358375204 26.368440779624507,119.17080236745096 26.28748125938,119.15759695477755 26.226761619211175,119.11798070511577 26.166041979042348,119.10477528467891 25.842203898122534,119.17080236745096 24.34445277362829,119.23682940185972 22.846701649250463,119.3952940874442 22.482383808121085,119.52734777951991 22.118065967049915,119.69901729042613 21.915667166467756,119.83107053818094 21.773988006054424,119.93671299723064 21.571589205414057,120.14799754443811 21.065592203929555,120.78184821848117 20.508995502314065,121.32325881105498 20.347076461825054,121.44210460400063 20.24587706150487,121.48171983352222 20.164917541260365,121.48171983352222 20.07383808097802,121.42889952364203 20.013118440809194,121.36287409275246 19.89167916047154,121.11197701498895 19.658920539775863,120.74223268176866 19.608320839644875,120.62338596727932 19.577961019531358,120.47812865931337 19.56784107949352,120.17440807805542 19.77023988007568,119.2632402021045 19.780359820171725,118.98592641407595 19.75,118.78784461522446 19.669040479755495,118.58976238168543 19.54760119947605,118.37847418672754 19.132683658215683,117.7710178709167 19.112443778140005,117.65216724395577 19.132683658215683,117.18996887355752 19.092203898064326,117.01829459025612 19.0314842578955,116.8730314801287 18.920164917595685,116.68815081999492 18.687406296900008,116.46365236637939 18.626686656672973,116.38441748469631 18.555847076466307,116.13350656716648 18.49512743629748,115.75053592714539 18.444527736166492,115.59206484208698 18.393928035977297,115.51282919522055 18.312968515849207,115.43359347880323 17.95877061475767,115.26191585457127 17.58433283364866,115.03741385320609 17.0378560720128,114.9317656593339 16.633058470848482,114.91855962639966 16.430659670208115,114.85252943273372 16.268740629719105,114.74688102243817 16.056221889099106,114.50917164704879 15.691904047969729,114.20543097844347 15.600824587745592,114.11298796338087 15.408545727143064,113.70359632977488 15.368065967049915,113.55832788439147 15.337706146994606,113.32061537838308 15.165667166467756,113.13572744085832 14.943028485809918,112.63388684392703 14.821589205472264,112.22448850064393 14.770989505283069,111.86791423679097 14.679910045000724,111.61699076210061 14.447151424363256,111.14155489677796 14.376311844098382,111.07552193960873 14.103073463309556,110.9170426452547 14.001874062989373,110.78497635405802 13.850074962538201,110.40198301657801 13.647676161956042,109.96616103471024 13.404797601280734,109.34544124510285 13.3440779610537,109.16054516330041 13.252998500771355,108.84357957026805 13.16191904048901,108.57944072564715 13.080959520302713,108.2492660826465 13.0,107.56249895554356 13.030359820171725,106.4530948630927 13.070839580206666,105.80593617711565 13.182158920564689,104.88141571733286 13.222638680716045,104.30028372291417 13.31371814099839,103.50782497171167 13.384557721205056,102.38516316059395 13.485757121467032,101.61910355440341 13.586956521787215,101.1039908519233 13.66791604203172,100.40396118359786 13.748875562276226,99.90204977653048 13.769115442293696,99.59825993698905 13.748875562276226,99.06992734502273 13.758995502314065,98.8850102069191 13.850074962538201,98.26421418588143 13.920914542803075,97.97362734669878 14.001874062989373,97.88116770161287 14.143553223402705,97.81512503998965 14.497751124436036,97.7622908758567 14.912668665696401,97.7622908758567 16.19790104951244,97.81512503998965 16.6937781109591,97.81512503998965 17.543853073497303,97.88116770161287 17.989130434871186,97.86795917317795 18.930284857575316,97.8943762281342 19.648800599738024,97.96041883178987 20.377436281880364,97.98683585969411 21.33883058471838,97.98683585969411 22.94790104951244,98.05287839566881 23.818215892126318,98.13212937501521 24.33433283364866,98.09250389404042 24.496251874079462,98.11892088328023 24.66829085460631,98.184963322572 24.7188905547373,98.2113802847307 24.759370314888656,98.29063112485892 24.809970015019644,98.5812169430792 24.830209895095322,98.89821858651703 24.779610194964334,99.6775095589619 24.779610194964334,99.9680909106828 24.70877061475767,100.40396118359786 24.739130434812978,100.53604266877664 24.809970015019644,100.61529146706016 25.03260869567748,100.68133207916253 25.04272863571532,100.72095642320346 25.03260869567748,100.77378885488724 25.09332833584631,100.68133207916253 25.164167916052975,100.65491584013216 25.326086956541985,100.66812396063324 25.498125937127043,100.73416453404207 25.58920539735118,100.80020505913126 25.781484257953707,101.05115861359081 26.024362818629015,101.19644719456846 26.11544227891136,101.27569541283447 26.206521739193704,101.40777562194125 26.226761619211175,101.52664764485962 26.226761619211175,101.61910355440341 26.196401799097657,101.71155936925061 26.09520239883568,101.85684688684705 25.96364317840198,101.92288659018232 25.700524737650994,101.98892624527798 25.58920539735118,102.02855001510034 25.315967016562354,102.33233167243452 25.194527736166492,102.53044959358522 25.154047976015136,102.7021514400767 25.123688155959826,103.27008598922839 25.123688155959826,103.83801696380397 25.022488755639642,104.32669889475801 25.03260869567748,104.48518976343621 25.133808095997665,104.63047281521722 25.275487256410997,104.72292554454907 25.477886056993157,104.80217066575278 25.862443778140005,104.84179320021212 26.024362818629015,104.88141571733286 26.46964017994469,105.15877284983435 26.874437781167217,105.33046969514544 27.16791604203172,105.42292170727887 27.41079460270703,105.40971428278863 27.653673163440544,105.31726225711463 28.05847076466307,105.07952804181696 28.23050974518992,105.00028316423413 28.655547226429917,104.8682082135856 29.282983508252073,104.73613306956395 29.434782608703244,104.64368035377265 29.69790104951244,104.41915193531895 30.001499250356574,103.99650869087054 30.092578710638918,103.79839398855984 30.092578710638918,103.63990191355697 30.0318590705283,103.32291692838044 30.02173913049046,103.13800850611005 30.0318590705283,102.9530997049369 30.06221889058361,102.86064516225451 30.102698650676757,102.78139833595196 30.20389805099694,102.67573579265445 30.91229385312181,101.97571831814275 31.205772113986313,101.65872748661786 31.30697151424829,101.46060765147558 31.337331334361807,101.31531949586497 31.347451274399646,101.15682305931841 31.30697151424829,100.97191019813908 31.2563718141173,100.86624553584988 31.185532233910635,100.77378885488724 30.983133433270268,100.61529146706016 30.325337331334595,100.27187950505322 29.981259370339103,100.13979763317911 29.82946026988793,100.12658943534916 29.4752623688546,100.1662140230037 28.979385307407938,100.1662140230037 28.817466266918927,100.1926304051085 28.696026986523066,100.23225496379746 28.59482758626109,100.311504028934 28.534107946092263,100.40396118359786 28.483508245903067,100.54925080663816 28.453148425847758,100.77378885488724 28.4126686656964,100.89266171302006 28.179910045000724,101.31531949586497 28.129310344869737,101.4473996470042 28.068590704642702,101.88326277397573 28.068590704642702,102.29270803598047 28.09895052475622,102.41157889307942" stroke="#4dd2ff" stroke-linecap="round" stroke-linejoin="round" stroke-width="0.5"><title>2024-09-28 11.2km</title><desc>12519663855</desc></polyline><polyline fill="none" points="154.43190661468543,104.28645429307653 154.96674920397345,104.54124130650598 155.48249027237762,104.65705347451149 155.8263176510809,104.79602798451378 156.55217545095365,105.00448956243054 156.91510435089003,105.16662618999544 157.7555712768808,105.25927563046571 158.27131234516855,105.42141204459767 158.61513972398825,105.56038600562897 158.7870534134563,105.67619756360364 158.92076406080741,105.88465819328849 158.95896710292436,106.13944310239458 158.92076406080741,106.5795253370743 158.90166253980715,107.7144696390169 158.69154580822214,108.71043568538153 158.63424124510493,109.35896895981568 158.50053059775382,110.12330895723426 158.4432260346366,111.65197989494482 158.34771842940245,112.2773417980934 158.3095153872855,113.06483169022249 158.15670321893413,114.06077019985241 158.0993986558169,114.94089763984084 157.90838344523218,116.90958926502208 157.81287584011443,117.44229061491205 157.8319773611147,117.67389944018214 157.73646975588053,119.73520577361342 157.488149982295,121.42592379263078 157.488149982295,121.93545235402416 157.52635302429553,122.5839413102949 157.488149982295,122.72290294681443 157.33533781394362,123.07030660154123 157.25893172970973,123.74195189905004 157.08701804024167,125.45579485484632 157.01061195600778,127.37806011320208 156.9342058718903,128.09600971041073 156.9342058718903,128.42024413947365 156.89600282988977,129.06871136803238 156.78139370353892,130.27300188559457 156.47576936671976,131.87099119686172 156.3802617614856,133.1447413435235 156.1128404668998,134.53427739845938 155.99823134054895,135.2985179767129 155.73081004596315,136.87330722925253 155.50159179326147,137.96175701892935 155.36788114602678,138.8186174412258 155.23417049867567,139.21230879607901 155.0813583303243,139.907056292388 155.0049522462068,140.6944337739842 154.48921117791906,142.75549495867745 154.29819596745074,143.7512807023013 154.1835868410999,144.42285424197325 154.1835868410999,144.49232723377645 154.29819596745074,144.51548489215202 154.41280509368517,144.51548489215202 154.6038203041535,144.44601190865797 154.75663247250486,144.21443511689722 155.0813583303243,142.7786528248107 155.11956137244124,141.69023012000252 155.25327201979235,141.2039116142696 155.29147506179288,140.5786431687011 155.40608418814372,140.1617964163015 155.5588963564951,139.05020068815793 155.73081004596315,138.21649970280123 155.8263176510809,137.42911214185006 155.96002829854842,136.73435575178883 156.170145030017,135.97012084248126 156.30385567736812,135.32167673509684 156.49487088783644,134.32584762612532 156.66678457718808,133.02894622203894 156.81959674553946,132.51944686438947 157.04881499824114,130.87514433448086 157.1443226033589,130.527754688781 157.35443933482748,129.62453869183082 157.39264237706084,129.25398731995665 157.56455606641248,128.46656329926918 157.6982667137636,126.8917056471837 157.71736823488027,126.08111215449753 157.77467279799748,125.50211472410592 157.81287584011443,125.0852355017123 157.90838344523218,124.73783546376217 157.8892819242319,124.41359486576403 157.9656880084658,123.85775257687783 157.98478952946607,123.23242809364456 157.9656880084658,122.53762074261613 158.13760169781744,121.19431945760152 158.19490626105107,120.01313303777715 158.19490626105107,119.22567141937907 158.2522108241683,118.947743024386 158.32861690828577,118.80877867717936 158.34771842940245,118.554010448177 158.42412451363634,118.3687242527958 158.34771842940245,118.27608108859567 158.32861690828577,118.18343788002676 158.32861690828577,117.7433820337028 158.36681995051913,117.55809506223886 158.48142907663714,117.3033251867746 158.40502299251966,117.1180377939163 158.42412451363634,116.19159816889442 158.50053059775382,115.07986476448423 158.5196321188705,114.45451191782195 158.69154580822214,112.74057153452304 158.7297488503391,111.95308032278263 158.88256101869047,110.54022041059216 159.01627166604158,109.79904387252463 159.0735762291588,108.80308342911303 159.2836929607438,107.66814551211428 159.37920056586154,106.67217410099693 159.45560665009543,106.30157877905003 159.57021577644628,106.09311859843729 159.70392642368097,106.00046955725702 159.91404315514956,105.9309827472025 160.2960735760862,105.95414501993218 160.96462681284174,106.11628085182747 161.5376724442467,106.20892983756494 162.39724089135416,106.44055210794613 163.39051998581272,106.64901191418176 165.62539794843178,106.99644442558929 166.44676335330587,107.08909298994695 166.96250442159362,107.2049036329845 167.91758047393523,107.34387631312711 168.75804740004241,107.43652471115638 169.44570215779822,107.39020051773696 170.0187477892032,107.43652471115638 171.41315882548224,107.45968680373335 172.3300318357069,107.59865930088563 173.47612309863325,107.80711785952735 175.13795542973094,107.9229280728614 176.20764060830697,108.08506225512247 177.96498054475524,108.10822427002131 178.5380261761602,108.22403430312988 181.2886452069506,108.61778789731034 183.23700035363436,108.61778789731034 184.21117792709265,108.73359762546897 184.76512203738093,108.71043568538153 185.56738592137117,108.80308342911303 186.69437566318084,108.77992149736383 186.86628935253248,108.75675956279156 186.9235939156497,108.71043568538153 187.0,108.43249218809069 186.96179695776664,108.20087230208446 186.88539087364916,108.15454829159717 186.789883268415,108.1313862822135 185.37637071101926,108.17771029824507 182.20551821717527,108.08506225512247 181.95719844347332,108.061900237386 181.68977714888752,107.9229280728614 181.38415281206835,107.8766039958864 180.75380261754617,107.9460901072016 179.7796250442043,107.89976603575633 178.76724442862906,107.78395580856886 178.15599575510714,107.80711785952735 175.30986911908258,107.48284889351635 175.06154934549704,107.36703841682174 174.5458082772093,107.41336261581455 174.01096568792127,107.34387631312711 173.22780332504772,107.32071420672582 170.64909798360895,106.9501201267849 169.8659356207354,106.9269579732354 168.7771489211591,106.78798499361437 168.24230633163825,106.78798499361437 167.68836222134996,106.64901191418176 167.01980898471083,106.62584972461627 165.64449946931563,106.39422767602082 164.89954014855903,106.3479032330506 163.35231694369577,106.09311859843729 162.60735762293916,105.88465819328849 160.0859568446176,105.35192502661084 159.79943402891513,105.18978855431487 159.70392642368097,105.07397670522914 159.03537318704184,104.98132717599219 158.6533427661052,105.00448956243054 158.40502299251966,104.95816478681809 157.10611956135835,104.54124130650598 156.81959674553946,104.42542906932067 154.37460205156822,103.75371672616166 152.3880438626511,103.05883943469962 152.15882561018225,102.9198636769579 151.10824195249006,102.50293580480502 150.6689069684362,102.38712234757259 150.17226742126513,102.17865794982936 149.54191722674295,101.85437955138332 149.00707463745493,101.66907736538269 148.56773965340108,101.4606121940451 147.93738945876248,101.22898396248638 147.45985143259168,100.99735545359727 146.90590732218698,100.78888955860748 146.46657233813312,100.58042343890702 145.89352670672815,100.3719570946705 145.66430845414288,100.25614236191905 143.5822426599916,99.37594812760653 142.32154227094725,98.91268639598275 139.43721259280574,97.68503744291957 138.7877608772833,97.49973126391706 138.27201980899554,97.19860834455176 137.52706048812252,96.94381166211679 136.0180403253762,96.29523677463294 135.00565970991738,95.90145810361719 134.7764414573321,95.83196766674519 134.33710647327825,95.80880418219022 133.26742129470222,95.5076786311547 133.11460912623443,95.48451510786253 133.0,95.577169184573 133.0,95.64665971294744 133.07640608411748,95.71615021646721 133.53484258928802,95.78564069488493 134.642730809981,96.17941960165626 135.29218252561986,96.48054410718032 135.92253272014204,96.89748495660024 137.83268482494168,97.68503744291957 138.8450654402841,98.00932282903523 140.12486735056154,98.61156567567377 140.58330385561567,98.79687078976713 141.44287230272312,99.07482812825765 142.56986204453278,99.58441554497404 143.37212592852302,99.8623717520968 145.49239476467483,100.76572666749416 146.21825256454758,100.99735545359727 147.13512557477225,101.41428656996868 147.91828793776222,101.66907736538269 149.1025822426891,102.2018206717621 150.70711001055315,102.8272131163103 151.54757693666033,103.22097769258835 152.23523169429973,103.45260353958292 152.86558188893832,103.73055419001321 153.68694729392882,103.96217942700605 154.4510081358021,104.26329182062182 155.48249027237762,104.54124130650598 156.64768305618782,104.98132717599219 158.29041386616882,105.35192502661084 158.74885037145577,105.51406136307924 158.93986558180768,105.72252216744528 158.97806862392463,105.83833362838777 159.01627166604158,106.11628085182747 158.93986558180768,106.8111471637967 158.80615493445657,107.66814551211428 158.76795189245604,108.20087230208446 158.6533427661052,109.01154069023323" stroke="#4dd2ff" stroke-linecap="round" stroke-linejoin="round" stroke-width="0.5"><title>2024-08-18 10.0km</title><desc>12174630002</desc></polyline><polyline fill="none" points="20.754218623507768,164.77027659518353 21.722052574390545,164.84926913469099 24.28277990256902,164.77027659518353 25.694204414263368,164.533298768205 26.33942704810761,164.48063698635087 27.95248363283463,164.48063698635087 30.15027322957758,164.32265154841298 31.07778076583054,164.40164428483695 32.02545150928199,164.55962965328945 33.35622319160029,165.24423131122603 34.50552600831725,165.66552334238077 34.9491165690124,165.90249967570708 35.11042222753167,166.16580634612183 35.17091184959281,166.5607656279899 35.17091184959281,167.00838509769528 35.09025902021676,167.6139861343545 35.11042222753167,168.03527260792907 35.27172788605094,168.82518208278634 35.47335995908361,169.24646571591438 35.83629769063555,169.72040862217546 36.17907221498899,169.9573796063487 36.72347881225869,170.1680202189309 37.650986348395236,170.29967047617538 37.95343445811886,170.4576506577141 38.195392945897765,170.6682906835922 38.98175803082995,171.69515727275575 39.48583821358625,172.06377461657394 39.74795990868006,172.16909371878137 40.43350895715412,172.32707225624472 41.50215894449502,172.24808300494624 41.76428063958883,172.16909371878137 42.69178817584179,171.66882743348833 43.2966843949398,171.431858706841 43.69994854123797,171.37919894741208 44.56696645542979,171.53717817949655 45.71626927214675,171.64249759042286 45.83724851591978,171.72148710815236 45.89773813786451,171.90579584760417 45.95822775980923,172.59036951005692 45.917901345179416,173.30127016766346 45.817085308604874,173.77520237653516 45.65577965020202,174.3281217066833 45.63561644288711,174.5124277719151 45.69610606471542,175.77623569668503 45.77675889397506,176.22383220477786 45.77675889397506,176.38180717662908 45.2928419187665,177.25066703892662 44.64761928480584,177.9615492552257 44.50647683360148,178.04053599458712 43.61929571197834,178.1195226991258 42.83293062692974,178.09319380141096 41.64330139569938,177.9088914097665 40.937589139794,177.61927298370574 40.25204009131994,177.43497010586725 39.264042933122255,177.27699606009992 38.417188226245344,177.40864110790426 37.066253336612135,177.77724672853947 36.70331560494378,178.0142070853035 35.997603349154815,178.64609984205163 35.25156467873603,179.4096339577809 34.082098654937,180.69973595207557 32.751326972502284,181.70021683510276 31.985125094652176,182.0951419656776 31.218923216918483,182.27944006287726 29.98896757105831,182.4637379709893 29.484887388302013,182.5953792182554 28.79933833971154,182.8060050131462 27.91215721820481,183.200927713071 27.287097791675478,183.59584954484308 26.58138553588651,184.14873865095433 25.65387799963355,185.07021671351686 24.423922353773378,186.04434552634484 24.121474244166166,186.43926110801112 23.91984217101708,186.7551929483452 23.71821009798441,187.1501069674705 23.51657802495174,187.70298513599846 23.435925195692107,188.33484381675953 23.456088403007016,189.46691839587584 23.51657802495174,189.99346228134527 23.677883683354594,190.44102337077493 24.121474244166166,191.04654542302887 24.86751291458495,191.88900749232562 25.532898755860515,192.5208514519909 26.057142145815305,192.9420795240294 26.68220157234464,193.28432660542603 27.6097091085976,193.60024640958 27.871830803574994,193.75820610340452 28.73884871788323,194.5480024892895 29.34374493721407,195.15351070082397 29.70668266864959,195.41677450407587 30.069620400317945,195.54840626106306 30.956801521941088,195.75901687171427 32.0456147165969,196.10125858745596 32.85214300896041,196.52247826573148 33.31589677708689,196.9173708173912 33.8401401671581,197.4438928694144 34.586178837460466,198.52325825285516 34.989442983758636,199.41833682371362 35.211238264106214,200.28708529032883 35.47335995908361,200.7346207399678 36.03792976378463,201.39275908224226 36.5016835317947,201.73499006748898 37.0259269218659,202.39312474563485 37.34853823890444,202.6037273335678 37.97359766543377,202.7090285349259 38.578493884648196,202.68270324035257 39.22371651860885,202.630052639739 40.33269292069599,202.41945008258335 42.22803440771531,202.31414871154993 43.337010809686035,202.5774020235258 43.69994854123797,202.7353538256575 44.486313626286574,203.18288317760744 45.65577965020202,203.60408625530545 46.079207003698684,203.6830617224332 47.208346612984315,203.60408625530545 47.793079625000246,203.49878557844204 48.135854149237275,203.52511075347138 48.35764942958485,203.47246039952734 48.92221923416946,203.20920839885366 50.051358843571506,202.55107670970028 50.535275819012895,202.36679940477188 51.14017203822732,202.39312474563485 51.724905050126836,202.5774020235258 52.128169196425006,202.6563779420103 53.015350317931734,202.55107670970028 54.00334747612942,202.68270324035257 55.07199746358674,202.97228126843402 55.49542481696699,203.20920839885366 55.71722009743098,203.49878557844204 55.83819934120402,203.89366279853857 55.81803613388911,204.1305887139606 55.7575465120608,204.36751431718585 55.57607764622662,204.65708963004 55.05183425627183,205.15726407144393 54.97118142689578,205.34153851466544 54.93085501238238,205.57846252112358 54.95101821969729,205.7890613757918 55.41477198782377,206.73675316710433 55.555914438911714,206.89470131312555 55.7575465120608,207.0 56.10032103629783,206.97367533408396 56.3019531093305,206.89470131312555 56.5439115971094,206.78940256459464 57.12864460912533,206.3682069532515 58.540069120703265,205.7890613757918 58.82235402299557,205.736411685255 59.18529175454751,205.7890613757918 59.4474134495249,205.68376197924954 59.689371937303804,205.47316300131206 60.09263608348556,204.9203395095974 60.354757778462954,204.4991395172401 60.51606343686581,204.1042636277125 60.75802192452829,203.70938687046873 61.2822653145995,202.4457754157629 61.40324455848895,202.0508950138028 61.56455021700822,201.12950403451396 61.54438700969331,200.7346207399678 61.50406059506349,200.31341093589435 61.50406059506349,199.28670790181786 61.5242238023784,198.36530274811957 61.62503983883653,197.4702189314994 61.56455021700822,196.10125858745596 61.604876631638035,195.54840626106306 61.604876631638035,194.33739045912807 61.665366253466345,192.8367725986609 61.62503983883653,192.5208514519909 61.38308135117404,191.99431497324258 60.43541060772259,190.99389141253778 60.11279929080047,190.59898584199254 59.870840803021565,190.2567336454522 59.74986155924853,189.99346228134527 59.608719107927755,189.49324562682887 59.62888231535908,188.86139101994922 59.74986155924853,188.20320677479322 60.072472876054235,187.51869260215608 60.57655305881053,186.91315866014338 61.262102107401006,186.3866057472478 61.98797757050488,185.70208465345786 62.16944643633906,185.3334952918376 62.37107850937173,184.64897018566262 62.33075209474191,183.91178638524434 62.149283228907734,183.200927713071 61.86699832661543,182.64803569008654 61.463734180433676,182.06881365067966 61.04030682693701,181.56857493189455 60.93949079036247,181.35794768633787 60.879001168417744,180.93669245424098 60.89916437584907,180.43645058322 60.81851154647302,180.1468362317828 60.7378587173298,180.01519319036743 60.55638985161204,179.88355005264748 58.6610483644763,179.19900418097677 55.35428236576263,177.6719309141481 54.225142756477,177.25066703892662 53.88236823223997,177.1716799523565 53.29763522022404,177.22433801395528 52.6322493791813,177.3559831003222 51.200661660172045,177.22433801395528 49.80940035590902,177.3559831003222 48.4987918806728,177.61927298370574 47.672100381110795,177.82990461266309 47.36965227150358,177.8825624812598 47.1680201983545,177.85623354889685 47.006714539951645,177.75091778073693 46.80508246680256,177.30332507741696 46.34132869867608,176.69775670369563 45.938064552494325,176.2501613763743 45.817085308604874,176.06585709395586 45.77675889397506,175.82889416730904 45.79692210140638,174.93369806802366 45.69610606471542,174.4334394813486 45.75659568677656,174.17014492883754 46.01871738175396,173.51190685933398 46.09937021089718,173.2486109561869 46.1195334183285,172.85366637790867 46.059043796383776,172.300742509673 46.03888058906887,171.8268064109434 46.059043796383776,171.69515727275575 46.18002304015681,171.5108483171789 46.542960771825165,171.19488966767676 46.663940015714616,170.95792031585006 46.62361360096838,169.03582402285247 46.56312397914007,168.1932547807519 46.542960771825165,167.24535965948598 46.56312397914007,167.0873766530567 46.64377680828329,166.90306296988274 46.80508246680256,166.69241852893902 46.946224917890504,166.6134267999587 47.409978686016984,166.4817738410784 48.35764942958485,166.40278201941692 50.3134805385489,166.1394756964146 52.672575793694705,165.7181847768079 55.37444557307754,165.4022159387241 57.330276682158,164.9545924666745 58.64088515716139,164.79660744551802 59.608719107927755,164.55962965328945 60.89916437584907,164.50696787929337 62.411404924001545,164.2963206285349 63.29858604550827,164.13833502848865 63.82282943557948,163.95401831947675 64.06478792335838,163.79603241830773 64.20593037456274,163.6117153580417 64.30674641102087,163.37473600266094 64.34707282565068,162.97976971566095 64.28658320370596,162.74278952657187 64.1252775453031,162.242496989551 63.863155850209296,160.74161101829668 63.45989170402754,159.89900287125784 63.11711717979051,159.34603912674356 62.45173133863136,158.50342443322006 62.22993605828378,158.26643833857088 61.483897387748584,157.79246521103778 61.16128607082646,157.71346956829075 60.657205888070166,157.68713767960435 60.13296249799896,157.73980145307723 58.49974270595703,158.08211560428026 57.85452007211279,158.29277014225954 56.8261964994017,158.7930736799899 56.463258767849766,158.8984005629609 56.12048424361274,158.87206884799525 55.17281350004487,158.63508323968563 54.12432672001887,158.29277014225954 53.277472013025545,157.95045639257296 51.92653712327592,157.16049909566937 51.745068257441744,157.0025072193821 51.664415428298526,156.81818318810838 51.724905050126836,156.6865230499825 52.007189952535555,156.4758666282287 51.56359939172398,156.6865230499825 51.402293733204715,156.6865230499825 51.200661660172045,156.63385896770342 50.11184846551623,155.7912315512658 48.84156640502624,154.97493247201783 48.70042395382188,154.81693867333524 48.37781263689976,154.31662406072428 48.216506978380494,154.15862968303554 47.69226358830929,153.84264051073114 46.885735296062194,153.52665078242717 45.99855417443905,153.39498823165195 45.21218908939045,153.13166284044564 44.526640040799975,153.0 43.86125419975724,153.0 41.03840517636854,153.28965812144452 36.9856005073525,153.63198075362016 35.191075056791306,153.63198075362016 34.10226186213549,153.7373106630548 33.35622319160029,153.6583132368105 32.63034772849642,153.68464571604272 31.037454351084307,153.8163080545637 30.10994681494776,153.78997559455456 29.626029839506373,153.89530541139538 29.04129682749044,154.15862968303554 28.21460532792844,154.44828593601414 27.327424206305295,154.6062800589716 26.097468560445122,154.63261239926214 24.081147829419933,154.47461829947133 22.831028976361267,154.5272830148606 21.31878842820879,154.76427404290007 19.161325246095657,155.36991636065068 18.77822430722881,155.5279096729355 18.374960161047056,155.76489938078157 17.628921490628272,156.44953455803625 17.366799795650877,156.7918511681346 17.024025271297432,157.10783515236108 16.822393198264763,157.34482277565985 16.479618674027734,157.87146081918036 16.096517735160887,158.50342443322006 15.773906418238766,159.58302379712404 15.652927174349315,160.50462787644938 15.652927174349315,160.87326818420843 15.693253588979132,161.03125665598782 16.17717056442052,161.5578838914662 16.499781881342642,162.16350330364367 16.661087539745495,162.6374648977362 16.84255640557967,163.0324319373758 17.00386206409894,163.55905330606038 17.427289417479187,165.16523894535203 17.770063941716217,165.5865311618254 18.092675258754753,166.19213699190004 18.25398091727402,166.40278201941692 18.495939404936507,166.5870962158515 18.858877136488445,166.82407133349625 19.504099770332687,167.06104613842035" stroke="#4dd2ff" stroke-linecap="round" stroke-linejoin="round" stroke-width="0.5"><title>2024-08-04 11.0km</title><desc>12056370003</desc></polyline><polyline fill="none" points="186.6977491961443,188.95180420314864 186.5369774919236,187.24007789210737 186.37620578776114,183.2206765931187 186.3569131832628,181.44164496720623 186.2411575562728,179.74647858502067 186.06752411575872,175.65941102601937 186.02893890673295,174.24943102563702 186.04180064308457,173.11638625861087 186.0032154340879,172.62958977924063 185.585209003184,172.75548581666953 184.45980707395938,172.83102330641123 182.37620578779024,172.87298853551692 181.79099678454804,172.92334676987593 177.54019292604062,173.0660281937926 176.26688102894695,173.13317227040534 175.12861736334162,173.13317227040534 174.33118971058866,173.2087092626316 171.3472668810282,173.33460402854325 170.51768488742528,173.35138997644754 169.8295819935738,173.30942509746092 168.3569131832628,173.36817591942236 168.27974276526948,173.2758531721629 168.2990353697678,173.34299700310294 167.51446945336647,173.46889147418915 167.02572347267414,173.46889147418915 166.69131832796847,173.41014075542262 166.36977491961443,173.40174779067456 165.57877813503728,173.45210556067832 165.25723472665413,173.3849618575041 164.8906752411567,173.44371260206754 164.47909967845771,173.4604985180631 164.33762057876447,173.40174779067456 164.02250803855713,173.14156527443993 163.91961414791876,173.12477926513384 163.55948553053895,173.34299700310294 163.28295819935738,173.45210556067832 162.9485530546517,173.51924918523582 162.4726688102819,173.80460871243486 162.13826366560534,174.13193112731096 161.71382636658382,174.30818088450542 161.61093247585814,174.40050196967422 161.32154340835405,174.5263941190242 160.60771704179933,175.0215672249251 159.61736334403395,175.8944043222 159.48874598069233,176.02868577340632 159.42443729905062,176.23010736059587 158.90353697747923,176.56580843375923 158.1832797427487,177.5477227921947 158.01607717038132,177.87502384223262 157.765273311903,178.0764389445394 157.3022508038557,178.5883658123348 156.7106109324668,179.32687520965555 156.51768488745438,179.64577405495584 155.823151125398,180.47658113994112 155.7073954983789,180.560500378273 155.5401929260115,180.57728421122374 155.33440514467657,180.51854077446114 154.72990353696514,180.21643072073493 154.02250803855713,180.12411899800645 153.50803858521977,179.65416610586908 153.36655948552652,179.38561986702553 153.3601286173507,179.14224875188302 153.2379421221849,179.05832743824794 153.21221864951076,178.86530795080398 153.03215434082085,178.403736977034 153.0643086816708,178.386952507979 153.03215434082085,178.386952507979 153.0064308681758,178.10161578257976 152.79421221863595,177.6987850474252 152.5241157556302,177.58968456968068 152.09324758840376,176.50706088781953 151.99035369773628,176.15457434830023 151.87459807071718,175.45798743427076 151.91318327971385,174.47603729244292 152.14469453375204,172.19314804279202 152.21543408359867,171.58883861570575 152.292604501592,171.44615351600441 152.26045016074204,171.2447151237211 152.4147909967869,169.68354358766373 152.4726688102819,169.38976999818988 152.5948553054477,169.29744084491176 153.03215434082085,169.26386657048715 153.4180064308457,169.33940866027842 156.89710610933253,169.45691837993218 158.15112540192786,169.46531192210023 158.56913183277356,169.5240666829959 159.10289389066747,169.49888607855974 159.4180064308748,169.55764080504377 159.61093247588724,169.5408537464864 159.67524115755805,169.49049254128477 159.73954983922886,169.5408537464864 159.765273311903,169.6415760241689 159.65594855305972,170.2207256871734 159.33440514467657,171.43776026380147 159.26366559485905,171.85742136960107 159.18649517683662,174.49282290621704 159.2379421221849,176.0454709326732 159.33440514467657,176.3140328131376 159.03858520899666,176.46509831817093 158.89710610930342,176.58259343586178 158.1704180064262,177.58129221664785 158.01607717038132,177.88341615227546 157.74598070737557,178.11000805947333 157.26366559482994,178.66389561909818 156.72347266881843,179.33526730724043 156.13826366560534,180.10733503245137 156.08038585208124,180.25839054559765 155.99035369773628,180.30035033975219 155.72025723470142,180.560500378273 155.55948553053895,180.57728421122374 155.3601286173507,180.53532461966824 154.72347266881843,180.21643072073493 154.1189710610779,180.16607889039005 153.99035369773628,180.12411899800645 153.5337620578648,179.7045183856426 153.36655948552652,179.46954070175707 153.19935691315914,179.35205149874673 153.10289389066747,179.20099359839878 153.03858520899666,179.03315102021588 152.87138263665838,179.06671957513026 152.34405144694028,179.31848311084468 152.2861736334453,179.41918821564832 152.30546623794362,179.56185347808787 152.97427652729675,181.07240507304596 152.96784565917915,181.17310709811863 152.8842443729809,181.22345804435463 152.81350482313428,181.3912942125462 152.7684887459618,181.72696507545334 152.78778135048924,181.93675836715556 152.9421221864759,182.35634264832697 152.92282958197757,182.59970012495614 152.83922829583753,182.73396587694515 152.42765273310943,183.0024964379918 152.32475884244195,183.15354432610548 152.0032154340588,183.30459181641345 151.74598070740467,183.65703441348887 150.588424437301,184.3870871896179 148.2990353697387,185.746471046823 147.56591639871476,186.04855197331563 147.50803858519066,186.0569430874384 147.36655948552652,185.9982052627056 147.19935691318824,185.9898141399717 146.1768488745729,186.11568085203544 145.26366559485905,186.12407195633568 144.74276527328766,186.19959183996616 144.45337620575447,186.19120074668535 144.26045016077114,186.2247651124053 143.98392282958957,186.18280965218582 143.40514469449408,186.24993837378497 143.07073954981752,186.19959183996616 142.74919614146347,186.19120074668535 142.5241157556302,186.08211642248352 142.0675241157296,185.34369400340074 141.7073954983789,185.01643557304124 140.56913183277356,183.30459181641345 140.25401929256623,182.63326659242375 139.48231511254562,181.47521211244748 138.98713826364838,180.64441949382672 138.19614147910033,179.4779327784745 138.13183279740042,179.31848311084468 138.1704180064262,179.31009101077507 138.16398713825038,179.28491470326844 138.13826366557623,179.31848311084468 138.15755627010367,179.3016989095122 138.118971061107,179.29330680698695 138.1704180064262,179.4024040437871 138.08038585208124,179.33526730724043 137.295819935709,178.09322350446746 136.9935691318242,177.740746714353 136.10610932475538,176.33921042492875 135.74598070737557,175.98672285367502 135.73954983922886,175.6678036603189 135.527331189689,175.39084607977566 135.411575562699,175.13906530033637 135.1221864951658,174.75299929135872 134.96784565915004,174.46764448372414 134.8327974276326,173.96407371204987 134.8199356913101,173.60317860534633 134.56913183280267,173.31781807570223 134.24758842441952,172.87298853551692 134.15755627010367,172.47851416948106 134.07395498393453,172.30225878834972 133.75241157555138,172.10082340361623 133.67524115752894,172.10921655879065 133.63022508038557,172.0672507706986 133.39228295817156,171.3957939842876 133.45016077169566,171.3118613331062 133.39228295817156,171.32864787316794 133.3601286173216,171.28668151380043 133.0,170.32144677054384 133.18649517683662,169.85141353440486 133.42443729902152,168.5000465160265 133.43729903537314,166.71216418564654 133.38585209002485,166.06582680529755 133.5852090032131,165.42787627145663 133.7009646302031,165.19284007478564 133.8295819935738,165.08371579877348 134.13183279740042,164.9745913150473 134.50482315113186,164.74794749284774 135.50803858519066,163.9337011841235 135.90675241156714,163.66508130820512 136.5369774919527,163.43003788425267 137.18649517683662,163.2873324781176 137.1736334405141,163.69026447501528 137.0,163.9672785801049 137.03215434082085,164.1435595864059 137.10289389066747,164.26947425904655 137.7073954983789,164.28626286116923 138.14469453375204,164.3366286380333 138.54340836009942,164.45414861197787 138.63987138262019,164.53809130300215 138.63987138262019,165.12568669874236 138.9935691318242,166.8128914328081 138.92282958197757,167.6690658886546 138.92926045015338,168.3321726126087 138.83922829580843,168.50844019829674 138.54983922827523,168.7014945513074 138.54340836009942,168.91972912415076 138.7106109324668,169.07081411105173 138.92926045015338,169.1547500428569 139.03858520902577,169.11278209230295 139.27652733118157,168.92812274497192 139.37942122184904,168.90294187880863 139.45016077169566,168.92812274497192 139.5273311897181,169.04563330755263 139.7009646302031,169.5240666829959 139.96463022506214,169.9101678996485 139.99035369776539,169.89338094428967 139.96463022506214,169.92695485007062 140.45337620578357,170.55646194368455 140.98713826367748,170.87540956646262 141.04501607714337,170.95934285652766 141.04501607714337,171.06845594993138 140.9356913183001,171.21953527490405 140.4726688102528,171.4125804997857 140.234726688097,171.59723184581162 140.21543408356956,171.74830977755846 140.56913183277356,172.14278916712283 140.56270096459775,172.27707940395703 139.32797427652986,173.59478566885082 139.11575562699,173.9305021700311 138.78135048228432,174.35014503253478 138.4147909967869,174.6606787736855 138.1125401929021,174.83692690572934 136.78778135048924,175.46638009803792 136.71704180061352,175.47477276060818 136.7106109324668,175.3740607288746 136.74276527331676,175.3740607288746 136.2411575562437,175.86922651510395 135.90032154342043,176.0706486624149 135.86173633439466,176.14618178524324 135.97749196141376,176.18814458829002 136.08038585208124,176.2888551902579 137.01929260449833,177.74913904405184 137.27652733118157,178.03447752321517 137.48231511251652,178.34499131385382 138.16398713825038,179.43597238259827 140.27974276526948,182.66683304023172 140.56913183277356,183.27941726229983 140.8842443729809,183.75773190059772 141.03858520902577,183.9423435011231 141.25723472671234,183.93395207761932 141.08360128616914,183.95912634441993 141.03215434082085,183.91716922694104 141.173633440485,184.1689114714536 141.74598070740467,185.0667831454084 142.1189710610488,185.4192149145092 142.54340836012852,186.07372531201327 142.63987138262019,186.14085416128364 142.81350482316338,186.19120074668535 143.45659163987148,186.2247651124053 144.04180064308457,186.17441855646393 144.33118971061776,186.21637402280612 144.5305466237769,186.16602745952332 144.78778135048924,186.18280965218582 145.37942122187815,186.11568085203544 146.33762057876447,186.11568085203544 147.31511254017823,185.98142301599728 147.46302250801818,185.9982052627056 147.46302250801818,186.03176974135567 147.56591639871476,186.06533420033884 148.3504823151161,185.71290640124425 151.61093247588724,183.73255754537968 151.81028938904637,183.581511182143 152.01607717043953,183.27941726229983 152.2990353697678,183.1451527871941 152.48553054660442,182.9437554851902 152.8842443729809,182.67522464910508 152.9356913183001,182.53256713108203 152.9421221864759,182.35634264832697 152.77491961416672,181.894799770198 152.75562700961018,181.70178982889774 152.80064308681176,181.3912942125462 152.94855305468081,181.15632343953985 152.9421221864759,181.05562138500682 152.26045016074204,179.52828521298215 152.78135048231343,179.26813049211705 153.10289389066747,179.20938571440274 153.42443729905062,179.52828521298215 153.57234726689057,179.72969450894743 154.02250803855713,180.12411899800645 154.74919614146347,180.21643072073493 155.38585208999575,180.5269326976886 155.55948553053895,180.560500378273 155.72668810287723,180.54371654045462 155.83601286172052,180.46818920936494 156.0610932475829,180.22482268815293 156.1704180064262,180.04019912114381 156.5819935691543,179.52828521298215 156.74276527331676,179.25973838470964 157.32797427652986,178.54640476558416 157.7588424436981,178.05126209542505 158.00964630226372,177.84984690470446 158.1832797427487,177.51415334812555 158.95498392282752,176.49866837636364 159.4630225080473,176.18814458829002 159.75241157558048,176.43152824032586 159.83601286172052,176.46509831817093 159.91961414788966,176.45670580054139 160.5369774919527,175.97833026605076 161.2379421221558,175.51673605495307 161.95176848873962,175.16424342800747 162.5948553054768,174.9292471396293 164.43408360125613,174.5599653121717 165.057877813495,174.5012157112542 167.01929260449833,174.03121673712667 168.13826366557623,173.96407371204987 168.67202572347014,173.89693060837817 171.7073954983789,173.82978742606429 173.14790996783995,173.76264416513004 174.72347266881843,173.75425125200127 174.72347266881843,173.7206795871316 175.4180064308748,173.6367503390029 177.67524115755805,173.59478566885082 179.7009646302322,173.51924918523582 184.7556270096684,173.2842461553446 185.55305466236314,173.26746018777703 185.69453376205638,173.29263913729665 185.75241157555138,173.41014075542262 185.823151125398,174.85371241384564 186.01607717041043,179.8639669799959 186.00964630226372,180.7954735923522 186.03536977493786,180.81225735652697 186.13826366557623,182.30599269664526 186.1832797427778,184.60526207789007 186.2861736334453,186.18280965218582 186.32475884244195,188.62456635747367 186.38263665596605,188.97697626779336 187.0,196.71266752188603" stroke="#ff0000" stroke-linecap="round" stroke-linejoin="round" stroke-width="0.5"><title>2024-05-01 33.3km</title><desc>11306235000</desc></polyline><polyline fill="none" points="48.426751592429355,260.61276372059365 48.73449547437485,260.7309381458326 48.95172645000275,260.92001704605354 49.11464968160726,261.27453938670806 49.18706000666134,261.5817914517538 49.1508548441343,261.770869354732 49.11464968160726,261.88904293163796 48.9155212873593,262.2199284862727 48.444854173692875,262.6453517736518 48.33623868599534,262.83442843012745 48.318136104615405,262.9526012278948 48.35434126725886,263.23621558952436 48.71639289299492,264.01615251279145 48.87931612471584,264.18159319357073 49.06034193770029,264.22886192837905 49.241367750568315,264.22886192837905 49.440496144932695,264.18159319357073 50.4361381160561,263.70890508400043 51.576600737520494,263.30711910191167 51.8119342942955,263.23621558952436 52.210191082791425,263.23621558952436 52.37311431451235,263.1653120458359 52.75326852162834,262.763524709997 53.151525310240686,262.17265916288306 53.477371773449704,261.60542620171327 53.89373114320915,260.7309381458326 54.05665437481366,260.2582399256935 54.255782769061625,259.33647441258654 54.291987931588665,259.0292180711258 54.255782769061625,258.201986550921 54.27388535044156,257.1856677332107 54.32819309423212,256.47660430108954 54.364398256875575,255.55481717990187 54.27388535044156,253.40396007998788 54.38250083802268,252.17488600400975 54.38250083802268,251.39489182944817 54.3100905129686,251.06398407042434 54.05665437481366,250.61489388324844 53.151525310240686,249.57489075472404 52.77137110300828,249.00761349480308 52.572242708760314,248.5585175825545 52.53603754611686,248.36942419278785 52.53603754611686,248.10942042003444 52.62655045255087,247.4712275644124 52.78947368415538,247.0930380140635 52.95239691587631,246.78575835149968 53.13342272886075,246.5730259345437 53.65839758643415,246.10028622564278 54.56352665100712,245.43844830563467 54.78075762663502,245.1548026514938 54.90747569571249,244.89479369699256 54.97988602076657,244.65842155649443 55.070398927317,244.06748968987085 55.052296345937066,243.76020426364266 54.97988602076657,243.4765556583152 54.78075762663502,243.0274443463859 54.527321488480084,242.27104352077004 54.32819309423212,241.91647941280098 53.91183372447267,241.53827683848795 53.80321823677514,241.37281293340493 53.74891049286816,241.16007337733754 53.69460274896119,240.12000928675116 53.62219242367428,239.9545439267531 53.495474354713224,239.8836301489937 52.53603754611686,239.57633675204124 52.06537043256685,239.4817848198727 51.21454911166802,239.17449065732944 50.508548441226594,238.796281653631 49.76634260814171,238.4417099072598 48.26382836070843,237.803478799382 47.72075092198793,237.59073453555175 47.44921220256947,237.5434579943685 46.8699296010891,237.56709626673546 46.18203151191119,237.6852875763434 45.05967147171032,237.59073453555175 44.35367080126889,237.63801106295432 43.339926248881966,237.803478799382 41.65638618846424,238.15805194886343 41.384847469162196,238.15805194886343 41.22192423744127,238.06349918519845 40.76935970492195,237.30707508065097 40.15387194103096,236.62156267165847 40.09956419712398,236.47973215428647 40.06335903459694,236.21970921532193 40.09956419712398,235.55783075156796 40.06335903459694,235.0141428387724 40.3348977540154,234.02131670365634 40.40730807906948,233.31215143681038 40.35300033527892,232.83937285996217 40.37110291654244,232.7211779992067 40.443513241712935,232.55570504863863 40.805564867681824,232.2011195828527 40.8779751927359,231.964728839288 40.89607777411584,230.61729498478235 40.82366744894534,230.00267229504243 40.805564867681824,229.19893139741907 40.84177003020886,228.6079428877856 40.91418035549577,228.34790725758648 41.14951391215436,227.99331254060962 41.4029500503093,227.87511412838649 42.25377137120813,227.78055533619772 43.05028494808357,227.59143758557911 44.78813275217544,227.4495991270669 47.6302380154375,226.85860420721292 48.571572242770344,226.66948537543067 48.93362386862282,226.66948537543067 49.313778075855225,226.5985657563142 49.96547100238968,226.40944661966932 51.395574924652465,226.29124704665446 52.336909151868895,226.0784875968675 53.00670465978328,225.9839277512947 53.40496144827921,225.8893678503373 54.74455246410798,225.72388789021352 56.337579617858864,225.44020756344253 56.55481059337035,225.3220072799886 56.68152866244782,225.13288664638822 56.77204156899825,224.754644713772 56.68152866244782,224.4473224903195 56.69963124382775,224.32912147928437 56.77204156899825,224.32912147928437 57.1159906135872,224.37640189401282 57.44183707679622,224.32912147928437 57.76768354012165,224.28184105051332 58.021119678160176,224.18728015158558 58.401273885392584,223.9981581872562 59.921890714089386,223.07618543528952 60.42876299028285,222.8634217439103 61.13476366084069,222.48517448855273 61.370097217615694,222.2487695034797 61.47871270531323,222.083285807661 61.7502514248481,221.35042739953496 62.021790144150145,220.85397303734499 62.29332886368502,220.5939249042858 62.56486758298706,220.49936184285616 63.08984244056046,220.45208029140485 63.48809922893997,220.54664338057046 63.83204827364534,220.7357693924714 64.03117666777689,220.877613755918 64.35702313110232,221.1849427819543 64.82769024476875,221.49227122236334 65.6966141469311,221.87052080644935 66.25779416703153,221.98872361959366 66.49312772380654,222.01236417180917 66.85517934965901,221.9650830639439 66.98189741873648,221.87052080644935 67.0,221.8232396569947 66.81897418713197,221.8941613760253 66.13107609795406,221.94144250475802 65.76902447210159,221.91780194215244 65.15353670809418,221.77595849359932 64.77338250086177,221.61047431261977 64.32081796857528,221.2558647817059 63.56050955422688,220.8066915897507 63.035534696653485,220.61756566101394 62.63727790827397,220.64120641420595 62.42004693264607,220.75941012834664 62.0579953067936,221.04309868883865 61.84076433128212,221.42134932652698 61.71404626220465,221.8941613760253 61.6054307743907,222.1305668809946 61.370097217615694,222.437893519309 61.080455916933715,222.65065777194104 59.016761649399996,223.6671942160756 58.129735165974125,224.21092038143252 57.4237344955327,224.37640189401282 56.75393898761831,224.37640189401282 56.55481059337035,224.25820083099825 56.464297686936334,224.09271919708408 56.301374455331825,223.17074698572105 56.1384512236109,222.74521957195248 55.81260476040188,222.05964526585012 55.55916862224694,221.70503672253108 55.396245390642434,221.42134932652698 54.94368085823953,220.85397303734499 54.509218907216564,220.57028414415254 54.3100905129686,220.33387635201507 54.16526986262761,220.2393131380668 53.53167951724026,220.09746821322187 53.042909822426736,220.09746821322187 52.42742205830291,220.2393131380668 51.84813945693895,220.33387635201507 50.96111297351308,220.5939249042858 50.200804559281096,220.94853589078411 49.63962453906424,221.1140207509743 49.3680858197622,221.1140207509743 47.86557157232892,220.78305086080218 47.358699296135455,220.64120641420595 46.399262487422675,220.2393131380668 45.71136439824477,219.86105972790392 45.15018437814433,219.4355235810799 44.281260476098396,218.63173001777614 43.84679852507543,218.30075503308035 43.57525980565697,218.0643439138512 43.10459269199055,217.78065011328727 42.79684880992863,217.56787943541713 42.59772041568067,217.35510847673868 42.32618169626221,216.95320701108722 41.89171974535566,216.64586992037948 40.82366744894534,216.24396668716508 39.97284612816293,215.88934535546286 39.17633255117107,215.77113807162095 37.38417700305581,215.84206245231326 36.750586657668464,215.96026968416118 35.501508548506536,216.07847682938154 34.99463627219666,216.07847682938154 34.01709688233677,216.24396668716508 33.13007039902732,216.29124947242963 31.356017432175577,216.29124947242963 30.48709353012964,216.36217362436582 29.61816962796729,216.5276631910092 28.87596379488241,216.48038047505543 27.626885685604066,216.57494589319685 25.979550787829794,216.57494589319685 25.6899094870314,216.64586992037948 24.929601072799414,216.95320701108722 24.404626215226017,217.11869597117766 23.119342943420634,217.33146724176186 22.77539389883168,217.33146724176186 21.073751257150434,217.21326101500017 19.80657056660857,217.23690226726467 17.88769694941584,217.5442382316105 17.507542742183432,217.6860854022234 17.163593697710894,217.70972658519167 16.638618840137497,217.87521476893744 16.149849145207554,218.0643439138512 15.317130405688658,218.6080889699224 14.303385853185318,219.4355235810799 13.633590345387347,220.4047987260128 13.343949044588953,221.1140207509743 13.072410325170495,222.5324554440158 13.0,223.02890463925723 13.10861548781395,223.24166811219766 13.416359369759448,223.54899263319385 13.615487764007412,223.8326762865472 13.88702648342587,224.32912147928437 14.502514247433282,225.84208787904936 14.647334897890687,226.48036632195 14.774052966851741,226.66948537543067 14.90077103592921,226.7876846713334 15.208514917991124,226.8349643653928 16.1136439825641,226.74040496330417 16.511900771176443,226.76404481907957 17.59805564873386,226.57492587639717 19.118672477430664,226.43308652388805 20.150519611197524,226.31488696816086 22.141803553444333,226.19668732583523 23.48139456915669,226.0312076810078 24.187395239714533,225.960287781214 24.857190747512504,226.125767498801 25.454575930256397,226.0312076810078 25.74421723105479,226.0312076810078 26.178679182077758,226.125767498801 26.64934629574418,226.05484764071298 27.80791149858851,226.17304738698294 28.622527656843886,226.504006215735 29.183707676827908,226.81132452005113 30.468990948749706,227.37867985098273 30.577606436563656,227.4732388788252 30.66811934299767,227.68599648859526 30.70432450552471,228.08787120805937 30.68622192426119,228.70250119490083 30.613811599090695,229.22257089272898 30.63191418047063,229.90811475027294 30.68622192426119,230.12086914811516 30.83104257460218,230.42818056052784 30.97586322494317,230.61729498478235 31.120683875284158,230.7354913873569 31.627556151594035,230.99552316810878 32.08012068399694,231.1373585081601 32.74991619179491,231.2555545296491 33.07576265512034,231.39738964104617 33.31109621189535,231.63378121615096 33.944686557282694,232.5084270315565 34.342943345662206,232.81573389473488 34.596379483817145,232.95756763413374 35.1756620851811,233.1466790925624 35.99027824343648,233.17031800925906 36.44284277583938,233.1466790925624 36.66007375123445,233.0757623216341 37.05833053984679,232.79209492610244 37.402279584435746,232.57934405194828 38.0539725109702,232.4375099800236 38.325511230388656,232.4375099800236 39.08581964473706,232.5320660418074 40.04525645321701,232.5320660418074 40.15387194103096,232.57934405194828 40.26248742872849,232.7211779992067 40.37110291654244,233.3594292182679 40.37110291654244,233.8794838997419 40.29869259148836,234.2340656756569 40.08146161586046,234.80139489573776 40.00905129068997,235.13233601920365 40.1176667783875,235.72330062213587 40.09956419712398,236.4088168488961 40.17197452229448,236.7397546741704 40.15387194103096,236.85794659012754 39.93664096551947,237.21252181814634 39.73751257127151,237.66164932138054 39.41166610806249,237.99258457611722 39.14012738852762,238.37079546439054 38.97720415692311,238.4417099072598 38.70566543750465,238.48898618508247 38.379818974179216,238.48898618508247 37.78243379155174,238.39443361542362 36.515253101009876,238.15805194886343 35.30238015425857,237.75620232056826 34.54207173991017,237.63801106295432 34.08950720762368,237.63801106295432 33.36540395580232,237.73256407598092 32.840429098228924,237.87439349158376 32.26114649686497,238.08713738134247 32.04391552135348,238.22896648517053 31.156889037927613,238.8908339877089 30.63191418047063,239.50542280809896 30.233657391858287,240.19092296052258 30.088836741517298,240.38002593813871 29.328528327168897,241.0418846139073 28.622527656843886,241.46736375702312 27.71739859203808,241.82192885232507 26.993295340333134,242.05830514956324 25.364063023822382,242.34195624888525 24.495139121776447,242.6728819010459 23.771035869955085,242.98016939869558 23.48139456915669,243.1456316549593 22.97452229296323,243.54746785633324 22.06939322827384,244.4693235947343 21.562520952080376,244.89479369699256 20.983238350600004,245.27298840132426 20.747904793825,245.46208542097884 20.60308414348401,245.67481930310896 20.422058330615982,246.00573811763024 20.241032517631538,246.5730259345437 20.132417029934004,247.23485919937957 20.11431444855407,247.82577946253878 20.2048273551045,248.96034029980365 20.259135098895058,249.19670613645576 20.458263493143022,249.57489075472404 20.820315118995495,250.14216601969383 21.363392557832412,250.80398464080645 22.250419041258283,251.513073007387 22.81159906135872,251.8676160218747 23.64431780099403,252.245794378352 24.151190077187493,252.5530636402109 24.440831377869472,252.7894242125476 25.201139792217873,253.5457757168624 25.49078109289985,253.8057707275293 25.943345625302754,254.01849360625783" stroke="#4dd2ff" stroke-linecap="round" stroke-linejoin="round" stroke-width="0.5"><title>2023-12-26 11.0km</title><desc>10436709260</desc></polyline><polyline fill="none" points="168.42675159242935,260.61276372059365 168.73449547437485,260.7309381458326 168.95172645000275,260.9436518929724 169.11464968160726,261.27453938670806 169.18706000666134,261.5817914517538 169.1508548441343,261.770869354732 169.09654710022733,261.95994703624456 168.87931612471584,262.26719779585255 168.49916191759985,262.57444797035714 168.37244384852238,262.763524709997 168.3181361046154,262.9526012278948 168.35434126725886,263.2125810784055 168.73449547437485,264.06342129597033 168.87931612471584,264.18159319357073 169.0603419377003,264.22886192837905 169.40429098228924,264.18159319357073 170.4361381160561,263.70890508400043 171.5766007375205,263.30711910191167 171.83003687567543,263.23621558952436 172.17398592014797,263.23621558952436 172.35501173313241,263.1653120458359 172.62655045255087,262.9289666753466 173.0972175662173,262.2435631427652 173.49547435471322,261.5817914517538 173.8575259806821,260.825477623599 174.05665437481366,260.2818748695863 174.29198793158866,259.1473936563707 174.25578276906163,257.23293851786 174.34629567549564,256.3347912406607 174.36439825687557,255.4839102600963 174.27388535044156,253.40396007998788 174.38250083802268,252.19852213228296 174.38250083802268,251.3476193339302 174.27388535044156,250.99307517663692 174.05665437481366,250.61489388324844 173.1696278913878,249.59852726393729 172.77137110300828,249.00761349480308 172.5722427087603,248.53488092093903 172.51793496485334,248.20396729491767 172.62655045255087,247.4712275644124 172.80757626553532,247.04576425792766 172.97049949713983,246.78575835149968 173.1696278913878,246.5493889819627 173.65839758643415,246.10028622564278 174.5454240697436,245.43844830563467 174.78075762663502,245.1548026514938 174.9074756957125,244.89479369699256 174.97988602076657,244.65842155649443 175.070398927317,244.09112700608966 175.05229634593707,243.76020426364266 174.96178343950305,243.4765556583152 174.78075762663502,243.0274443463859 174.59973181365058,242.43650650446943 174.4730137445731,242.1764931682119 174.27388535044156,241.84556649769365 173.91183372447267,241.5146391481103 173.80321823677514,241.37281293340493 173.74891049286816,241.1127978824079 173.6946027489612,240.16728507273365 173.62219242367428,239.9781818456686 173.49547435471322,239.8836301489937 172.0291652699234,239.45814682812488 171.25075427419506,239.17449065732944 170.41803553467616,238.7490054658556 169.7482400268782,238.4417099072598 168.26382836070843,237.803478799382 167.72075092198793,237.59073453555175 167.44921220256947,237.5434579943685 166.79751927603502,237.56709626673546 166.21823667443823,237.6852875763434 165.05967147171032,237.59073453555175 164.3536708012689,237.63801106295432 163.28561850485858,237.82711703363748 161.69259135099128,238.15805194886343 161.42105263168924,238.18169013108127 161.3124371438753,238.15805194886343 161.22192423744127,238.06349918519845 160.75125712377485,237.2834367701871 160.17197452229448,236.64520107908174 160.09956419712398,236.47973215428647 160.06335903459694,236.21970921532193 160.09956419712398,235.55783075156796 160.06335903459694,235.0141428387724 160.3348977540154,233.97403911620495 160.40730807906948,233.31215143681038 160.35300033527892,232.76845595390478 160.38920549792238,232.65026104118442 160.4797184043564,232.5084270315565 160.84177003020886,232.153841461899 160.8779751927359,231.964728839288 160.89607777411584,230.61729498478235 160.82366744894534,230.00267229504243 160.80556486768182,229.12801289054914 160.84177003020886,228.5370241211931 160.89607777411584,228.39518649425008 161.11330874962732,228.04059188124666 161.24002681858838,227.94603318614827 161.43915521295276,227.87511412838649 162.25377137120813,227.78055533619772 163.1589004357811,227.59143758557911 164.8243379149353,227.42595937187434 167.557827690267,226.85860420721292 168.5534696613904,226.66948537543067 169.31377807585523,226.5985657563142 169.94736842112616,226.40944661966932 171.39557492465246,226.29124704665446 172.3369091518689,226.0784875968675 172.91619175334927,226.00756771792658 173.51357693597674,225.86572786641773 174.81696278916206,225.7002478820068 176.33757961785886,225.44020756344253 176.55481059337035,225.3220072799886 176.68152866244782,225.13288664638822 176.77204156899825,224.80192500387784 176.7539389876183,224.66008409200003 176.6634260811843,224.47096268220048 176.69963124382775,224.35276168835117 176.8082467315253,224.32912147928437 177.1159906135872,224.37640189401282 177.47804223932326,224.32912147928437 177.8038887026487,224.28184105051332 178.05732484080363,224.18728015158558 179.9218907140894,223.07618543528952 180.44686557154637,222.8634217439103 181.09855849808082,222.48517448855273 181.35199463635217,222.2487695034797 181.51491786795668,222.01236417180917 181.7683540059952,221.3267867503164 182.00368756288663,220.877613755918 182.14850821322761,220.71212865313282 182.32953402621206,220.5939249042858 182.54676500172354,220.49936184285616 182.85450888366904,220.45208029140485 183.08984244056046,220.45208029140485 183.3432785787154,220.47572106886946 183.5062018103199,220.54664338057046 183.97686892386992,220.83033231529407 184.3389205498388,221.1849427819543 184.93630573246628,221.56319308692764 185.7871270533651,221.8941613760253 186.20348642312456,221.98872361959366 186.6198457927676,221.98872361959366 186.855179349659,221.9650830639439 186.98189741873648,221.87052080644935 187.0,221.8232396569947 186.81897418713197,221.8941613760253 186.13107609795406,221.94144250475802 185.80522963462863,221.91780194215244 185.15353670809418,221.77595849359932 184.7914850822417,221.6341149203945 184.32081796857528,221.2558647817059 183.54240697284695,220.78305086080218 183.03553469665349,220.61756566101394 182.69158565206453,220.64120641420595 182.4562520951731,220.71212865313282 182.09420046932064,221.0194579945528 181.8226617500186,221.4449899619358 181.73214884346817,221.8468802334246 181.6054307743907,222.1305668809946 181.40630238014273,222.41425302944845 181.08045591693372,222.65065777194104 179.0167616494,223.64355390636774 178.16594032850116,224.18728015158558 177.45993965805974,224.37640189401282 176.8263493127888,224.40004209625477 176.60911833727732,224.28184105051332 176.46429768693633,224.1163594409154 176.30137445533182,223.17074698572105 175.9755279920064,222.36697203933727 175.7582970164949,221.9650830639439 175.541066040867,221.68139612529194 175.3781428092625,221.3977086875966 174.97988602076657,220.877613755918 174.50921890721656,220.57028414415254 174.3100905129686,220.33387635201507 174.14716728124768,220.2393131380668 173.45926919218618,220.09746821322187 172.98860207851976,220.09746821322187 172.4274220583029,220.2393131380668 171.86624203820247,220.33387635201507 170.96111297351308,220.57028414415254 170.09218907146715,220.99581729674537 169.54911163263023,221.1376614314504 167.88367415359244,220.78305086080218 167.3949044586625,220.64120641420595 166.3268521623686,220.1920315103198 165.7294669795083,219.86105972790392 165.1320817968808,219.4355235810799 164.64331210195087,218.96270432315941 163.77438819978852,218.253472836921 163.5933623869205,218.0643439138512 163.1407978545176,217.8279324480245 162.81495139130857,217.56787943541713 162.63392557832412,217.4023909362295 162.28997653373517,216.92956571726245 161.89171974535566,216.64586992037948 159.93664096551947,215.88934535546286 159.17633255117107,215.77113807162095 157.4565873281099,215.84206245231326 156.73248407652136,215.96026968416118 155.48340596724302,216.07847682938154 155.0127388535766,216.07847682938154 153.98089171980973,216.24396668716508 153.0395574924769,216.29124947242963 151.3741200134391,216.29124947242963 150.3784780423157,216.3858150014712 149.60006704670377,216.5276631910092 148.89406637626234,216.48038047505543 147.64498826686759,216.57494589319685 145.94334562530275,216.59858723903017 145.58129399945028,216.66951125579362 144.9114984915359,216.95320701108722 144.40462621522602,217.11869597117766 143.51759973191656,217.2841847614327 143.0831377808936,217.33146724176186 141.1280590010574,217.21326101500017 139.77036540396512,217.23690226726467 137.86959436815232,217.5442382316105 137.5437479048269,217.6860854022234 137.14549111633096,217.73336776471115 136.31277237681206,217.99342051053827 135.33523298695218,218.58444791864895 134.93697619845625,218.93906332387996 134.55682199134026,219.22275508647726 134.2128729467513,219.55372817894386 133.95943680859637,219.9556231636816 133.70600067055784,220.2393131380668 133.39825678849593,220.94853589078411 133.21723097551148,221.7523179067066 133.0,223.00526423600968 133.09051290655043,223.21802774016396 133.57928260136396,223.7617554199678 133.88702648342587,224.32912147928437 134.48441166616976,225.81844788817398 134.62923231651075,226.45672642465797 134.71974522306118,226.5985657563142 134.88266845454928,226.76404481907957 134.95507877983619,226.81132452005113 135.20851491799112,226.8349643653928 136.1136439825641,226.74040496330417 136.51190077117644,226.76404481907957 137.67046597390436,226.5512859929877 140.71169963129796,226.2676071215974 142.21421387873124,226.19668732583523 144.078779752017,225.9839277512947 144.33221589005552,225.9839277512947 144.8571907475125,226.125767498801 145.3821656050859,226.05484764071298 145.7442172310548,226.0312076810078 146.14247401955072,226.125767498801 146.5950385518372,226.05484764071298 147.8079114985885,226.17304738698294 148.62252765684389,226.504006215735 149.12939993303735,226.7876846713334 150.3784780423157,227.33140031636867 150.55950385518372,227.4495991270669 150.65001676173415,227.61507731654274 150.7043245055247,228.08787120805937 150.6862219242612,228.72614076301397 150.6138115990907,229.19893139741907 150.63191418047063,229.90811475027294 150.7043245055247,230.19178721823846 150.86724773712922,230.47545918736432 151.08447871275712,230.7118521137454 151.66376131412107,231.01916240008723 152.08012068399694,231.1373585081601 152.80422393570188,231.27919372350152 153.05766007385682,231.39738964104617 153.25678846798837,231.5628637800255 153.9446865572827,232.48478801787132 154.54207173991017,232.93392868619412 154.75930271542165,233.05212339111313 155.21186724770814,233.1466790925624 155.99027824343648,233.17031800925906 156.44284277583938,233.1466790925624 156.66007375123445,233.0757623216341 157.0583305398468,232.79209492610244 157.40227958443575,232.57934405194828 158.0539725109702,232.4375099800236 158.37981897417922,232.4375099800236 159.1220248072641,232.5320660418074 160.08146161586046,232.55570504863863 160.15387194103096,232.57934405194828 160.24438484746497,232.6975390167063 160.37110291654244,233.3594292182679 160.37110291654244,233.8794838997419 160.31679517263547,234.18678815056046 160.08146161586046,234.80139489573776 160.00905129068997,235.13233601920365 160.1176667783875,235.72330062213587 160.09956419712398,236.4088168488961 160.17197452229448,236.85794659012754 159.97284612816293,237.14160683490627 159.7375125712715,237.66164932138054 159.4297686892096,237.968946366178 159.2125377136981,238.27624282545003 159.08581964473706,238.39443361542362 158.79617834405508,238.48898618508247 158.48843446199317,238.48898618508247 157.29366409650538,238.3235191518179 156.51525310100988,238.15805194886343 155.3385853167856,237.77984056172136 154.81361045932863,237.66164932138054 154.4877639960032,237.63801106295432 154.07140462624375,237.63801106295432 153.36540395580232,237.73256407598092 152.84042909822892,237.87439349158376 152.29735165950842,238.08713738134247 152.062018102617,238.20532830989396 151.12068387528416,238.9144720625918 150.63191418047063,239.50542280809896 150.14314448542427,240.30911234754603 149.9259135099128,240.54549086169573 149.31042574590538,241.0418846139073 148.62252765684389,241.46736375702312 147.77170633594505,241.7982912035368 146.95709017768968,242.05830514956324 145.3097552799154,242.36559381795814 144.44083137786947,242.6728819010459 143.7891384512186,242.95653191966994 143.4813945691567,243.1456316549593 142.9383171304362,243.59474263781158 142.06939322827384,244.49296085204696 141.59872611472383,244.8711564985715 141.01944351324346,245.24935125830234 140.747904793825,245.46208542097884 140.603084143484,245.67481930310896 140.42205833061598,246.00573811763024 140.24103251763154,246.5730259345437 140.132417029934,247.1639486222848 140.09621186729055,247.7312323658698 140.132417029934,248.2276040050201 140.24103251763154,249.12579642183846 140.367750586709,249.4330716268014 140.78410995646846,250.07125672067923 141.01944351324346,250.40216651606897 141.3633925578324,250.80398464080645 142.23231645999476,251.513073007387 142.8659068052657,251.89125219508423 143.6262152196141,252.22215825709281 144.18739523971453,252.57669971299765 145.47267851163633,253.78213483469153 145.94334562530275,254.01849360625783" stroke="#4dd2ff" stroke-linecap="round" stroke-linejoin="round" stroke-width="0.5"><title>2023-12-26 11.0km</title><desc>10437350044</desc></polyline></svg>