<?xml version="1.0" encoding="utf-8" ?>
<svg baseProfile="full" height="300mm" version="1.1" viewBox="0,0,200,300" width="200mm" xmlns="http://www.w3.org/2000/svg" xmlns:ev="http://www.w3.org/2001/xml-events" xmlns:xlink="http://www.w3.org/1999/xlink"><defs /><rect fill="#222222" height="300" width="200" x="0" y="0" /><text fill="#FFFFFF" style="font-size:12px; font-family:Arial; font-weight:bold;" x="10" y="20">Over 10km Workouts</text><text fill="#FFFFFF" style="font-size:4px; font-family:Arial" x="10" y="280">ATHLETE</text><text fill="#FFFFFF" style="font-size:9px; font-family:Arial" x="10" y="290">heigao</text><text fill="#FFFFFF" style="font-size:4px; font-family:Arial" x="120" y="280">STATISTICS</text><text fill="#FFFFFF" style="font-size:3px; font-family:Arial" x="120" y="285">Number: 5</text><text fill="#FFFFFF" style="font-size:3px; font-family:Arial" x="120" y="290">Weekly: 1.2</text><text fill="#FFFFFF" style="font-size:3px; font-family:Arial" x="141" y="285">Total: 76.3 km</text><text fill="#FFFFFF" style="font-size:3px; font-family:Arial" x="141" y="290">Avg: 15.3 km</text><text fill="#FFFFFF" style="font-size:3px; font-family:Arial" x="167" y="285">Min: 10.0 km</text><text fill="#FFFFFF" style="font-size:3px; font-family:Arial" x="167" y="290">Max: 33.3 km</text><polyline fill="none" points="42.57587548648007,49.04860572409234 43.2889989388641,49.388321742007975 43.976653696619906,49.542737966025015 44.435090201557614,49.728037312685046 45.402900601387955,50.005986083240714 45.886805801303126,50.222168253327254 47.00742836936843,50.345700840611244 47.69508312700782,50.56188272614963 48.15351963217836,50.74718134084833 48.38273788476363,50.901596751471516 48.561018747859634,51.179544257727684 48.6119561373489,51.51925746985944 48.561018747859634,52.106033782765735 48.535550053115,53.61929285203223 48.255394411156885,54.9472475805087 48.17898832692299,55.81195861307788 48.00070746371057,56.831078609626275 47.92430137959309,58.86930652658339 47.796957905986346,59.70312239747727 47.74602051649708,60.753108920296654 47.542270958656445,62.08102693312685 47.465864874538966,63.254530186444754 47.21117792709265,65.87945235337247 47.08383445360232,66.58972081987304 47.10930314823054,66.89853258689982 46.98195967450738,69.64694103147485 46.650866643176414,71.90123172351741 46.650866643176414,72.58060313871829 46.70180403254926,73.4452550803835 46.650866643176414,73.63053726241924 46.447117085335776,74.09374213538831 46.34524230635725,74.98926919873338 46.11602405377198,77.27439313978539 46.01414927490987,79.83741348425974 45.91227449593134,80.79467961390037 45.91227449593134,81.22699218595517 45.861337106558494,82.09161515737651 45.70852493820712,83.69733584747883 45.301025822525844,85.8279882624629 45.173682348802686,87.52632179137436 44.81712062261067,89.37903653128888 44.66430845414288,90.39802396894083 44.30774672795087,92.49774297233671 44.00212239124812,93.94900935856276 43.823841528152116,95.0914899216441 43.64556066505611,95.61641172811505 43.44181110721547,96.54274172318401 43.33993632835336,97.59257836532197 42.65228157059755,100.34065994489356 42.397594623384066,101.66837426973507 42.244782454916276,102.56380565598374 42.244782454916276,102.65643631169223 42.397594623384066,102.68731318952632 42.55040679173544,102.68731318952632 42.80509373906534,102.59468254487729 43.008843296789564,102.28591348917689 43.44181110721547,100.3715370997379 43.492748496704735,98.92030682667973 43.67102935980074,98.27188215235947 43.72196674917359,97.43819089158205 43.87477891764138,96.88239522173535 44.0785284753656,95.40026758419117 44.30774672795087,94.28866627041134 44.435090201557614,93.23881618914311 44.613371064770035,92.31247433571843 44.89352670684457,91.29349445665139 45.071807569940574,90.42890231346246 45.32649451715406,89.1011301681574 45.55571276973933,87.37192829605192 45.75946232757997,86.69259581918595 46.06508666439913,84.50019244596479 46.192430138005875,84.03700625168858 46.47258577996399,82.83271825575503 46.52352316956967,82.3386497599422 46.752741422038525,81.28875106570194 46.93102228513453,79.1889408628922 46.95649097999558,78.10814953933004 47.03289706411306,77.33615296546486 47.08383445360232,76.78031400227337 47.21117792709265,76.31711395169259 47.18570923246443,75.88479315434233 47.287584011326544,75.14367010249407 47.31305270618759,74.30990412487881 47.287584011326544,73.38349432349787 47.51680226391181,71.5924259434687 47.59320834814571,70.0175107170362 47.59320834814571,68.96756189249572 47.6696144323796,68.59699069918133 47.771489211241715,68.41170490291552 47.796957905986346,68.07201393088326 47.89883268496487,67.8249656703847 47.796957905986346,67.7014414514706 47.771489211241715,67.57791717335931 47.771489211241715,66.99117604494677 47.82242660073098,66.74412674966152 47.97523876908235,66.40443358235643 47.873363990103826,66.15738372522173 47.89883268496487,64.92213089184952 48.00070746371057,63.43981968596927 48.026176158571616,62.60601589042926 48.255394411156885,60.32076204603072 48.30633180052973,59.27077376371017 48.51008135837037,57.38696054747561 48.68836222146638,56.39872516336618 48.76476830570027,55.07077790546464 49.04492394765839,53.557527349476004 49.17226742126513,52.2295654680056 49.274142200360075,51.73543837206671 49.42695436871145,51.45749146459275 49.60523523169104,51.33395940967603 49.88539087364916,51.24131032958394 50.39476476830896,51.27219335990958 51.286169083905406,51.48837446910329 52.050229925778694,51.611906450096285 53.19632118858863,51.920736143918475 54.520693314494565,52.19868255223264 57.50053059798665,52.66192590078572 58.59568447119091,52.785457319929264 59.283339228946716,52.939871510636294 60.55677396536339,53.125168417493114 61.67739653354511,53.24869961486547 62.59426954376977,53.186934023629874 63.35833038564306,53.24869961486547 65.21754510083701,53.279582404968096 66.44004244776443,53.464879067847505 67.96816413162742,53.742823812703136 70.1839405731298,53.89723743047216 71.61018747789785,54.11341634017299 73.9533073931234,54.14429902669508 74.71736823499668,54.29871240418288 78.38486027601175,54.82371719641378 80.98266713833436,54.82371719641378 82.28157056949567,54.978130167291965 83.02016271674074,54.9472475805087 84.08984789531678,55.07077790546464 85.59250088431872,55.03989532982814 85.821719136904,55.00901275037904 85.89812522102147,54.9472475805087 86.0,54.57665625077789 85.94906261051074,54.26782973611262 85.84718783164863,54.20606438879622 85.71984435804188,54.1751817096374 83.8351609481033,54.23694706434617 79.60735762293916,54.11341634017299 79.27626459149178,54.0825336498674 78.91970286529977,53.89723743047216 78.5122037496185,53.8354719945055 77.67173682351131,53.92812014295487 76.37283339235,53.86635471432237 75.02299257169943,53.71194107810152 74.20799434022047,53.742823812703136 70.41315882559866,53.31046519134543 70.08206579415128,53.15605122243869 69.39441103639547,53.21781682109577 68.68128758401144,53.125168417493114 67.63707110018004,53.094285608967766 64.19879731163383,52.600160169036826 63.15458082780242,52.569277297647204 61.70286522828974,52.38397999148583 60.98974177567288,52.38397999148583 60.25114962866064,52.19868255223264 59.35974531318061,52.1677996328217 57.52599929261487,51.858970234694425 56.53272019815631,51.79720431074384 54.4697559250053,51.45749146459275 53.47647683066316,51.179544257727684 50.11460912635084,50.46923336881446 49.7325787054142,50.25305140574346 49.60523523169104,50.09863560696249 48.71383091621101,49.975102901342325 48.20445702166762,50.005986083240714 47.873363990103826,49.94421971574775 46.14149274851661,49.388321742007975 45.75946232757997,49.233905425760895 42.49946940224618,48.33828896822524 39.8507251504343,47.41178591293283 39.54510081373155,47.22648490261054 38.1443226034753,46.67058107306366 37.55854262469802,46.51616313008708 36.896356561686844,46.238210599753074 36.055889635696076,45.80583940184442 35.34276618331205,45.558769820519956 34.75698620453477,45.280816258717095 33.916519278544,44.97197861666791 33.27980191016104,44.663140604796354 32.541209763032384,44.385186078143306 31.955429784255102,44.107231251866324 31.191368942381814,43.82927612622734 30.885744605679065,43.674856482539326 28.10965688014403,42.501264170132345 26.42872302804608,41.88358186130063 22.582950123935007,40.24671659056912 21.717014503083192,39.99964168522274 21.0293597454438,39.59814445939264 20.03608065098524,39.25841554949875 18.024053767323494,38.39364903283422 16.674212946672924,37.86861080484232 16.36858860985376,37.77595688900328 15.782808631076477,37.74507224292029 14.356561726308428,37.34357150818687 14.15281216846779,37.31268681047368 14.0,37.43622557944036 14.0,37.528879617282655 14.101874778978527,37.62153362194658 14.71312345250044,37.71418759317021 16.190307746757753,38.239226135541685 17.056243367609568,38.64072547623073 17.89671029371675,39.196646608790616 20.443579766666517,40.24671659056912 21.79342058720067,40.6790971053706 23.49982313415967,41.48208756756503 24.111071807681583,41.729161053022835 25.257163070491515,42.099770837667165 26.75981605949346,42.77922072663205 27.829501238069497,43.14982900279574 30.656526353093795,44.35430222330615 31.62433675280772,44.663140604796354 32.84683409985155,45.21904875995824 33.89105058379937,45.558769820519956 35.470109656918794,46.26909422900644 37.609480014187284,47.10295082174707 38.730102582252584,47.627970256784465 39.64697559259366,47.9368047194439 40.487442518700846,48.30740558667458 41.582596392021514,48.616239235998364 42.60134418110829,49.017722427495755 43.976653696619906,49.388321742007975 45.53024407511111,49.975102901342325 47.72055182175245,50.46923336881446 48.331800495274365,50.685415150772315 48.58648744248785,50.96336288994644 48.637424831977114,51.117778171173995 48.68836222146638,51.48837446910329 48.58648744248785,52.41486288505257 48.408206579391845,53.557527349476004 48.357269190019,54.26782973611262 48.20445702166762,55.348720920301275" stroke="#4dd2ff" stroke-linecap="round" stroke-linejoin="round" stroke-width="0.5"><title>2024-08-18 10.0km</title><desc>12174630002</desc></polyline><polyline fill="none" points="124.33895816467702,49.69370212692593 125.62940343248192,49.799025512926164 129.0437065367587,49.69370212692593 130.9256058856845,49.37773169093998 131.78590273077134,49.307515981810866 133.9366448437795,49.307515981810866 136.8670309727313,49.096868731227005 138.10370768769644,49.20219237978745 139.36726867896505,49.412839537719265 141.14163092221133,50.325641748306225 142.67403467767872,50.88736445651739 143.2654887586832,51.20333290094277 143.48056297004223,51.55440846149577 143.56121579941828,52.08102083731501 143.56121579941828,52.677846796941594 143.45367869362235,53.48531484580599 143.48056297004223,54.04703014391998 143.69563718140125,55.100242777058156 143.9644799453672,55.661954287890694 144.448396920925,56.293878162890906 144.9054296198301,56.609839475146146 145.6313050830504,56.890693625231506 146.86798179789912,57.06622730157687 147.27124594408087,57.276867543609114 147.5938572611194,57.557720911470824 148.6423440411454,58.92687636366463 149.31445095140953,59.41836615544162 149.66394654486794,59.558791625051526 150.57801194279455,59.76942967499781 152.00287859269883,59.66411067327135 152.35237418604083,59.558791625051526 153.58905090100598,58.891769911322626 154.39557919325307,58.57581160913105 154.93326472153421,58.50559859655914 156.08928860723972,58.71623757266207 157.6216923627071,58.85666345391655 157.78299802122638,58.96198281086981 157.863650850486,59.20772779680556 157.94430367974564,60.12049268007104 157.8905351269059,61.06836022355128 157.7561137448065,61.70026983538992 157.5410395335639,62.437495608915924 157.514155257144,62.68323702922498 157.59480808628723,64.36831426226126 157.70234519196674,64.96510960638989 157.70234519196674,65.17574290218181 157.05712255823892,66.33422271856398 156.19682571303565,67.28206567364396 156.0086357779801,67.38738132611616 154.82572761597112,67.49269693216775 153.7772408358287,67.45759173521947 152.19106852752157,67.21185521302687 151.25011885305867,66.82569731160766 150.33605345513206,66.57996014115633 149.01872391090728,66.36932808012352 147.88958430162165,66.54485481053416 146.0883377820719,67.03632897138596 145.60442080663051,67.3522761137574 144.66347113216761,68.19479978940217 143.66875290486496,69.2128452770412 142.1094648730941,70.9329812694341 140.33510262996424,72.26695578014187 139.3135001262417,72.79352262090833 138.29189762240276,73.03925341716968 136.6519567614887,73.28498396133364 135.97984985110816,73.46050562433084 135.06578445294872,73.74134001752827 133.88287629093975,74.26790361742314 133.04946372227278,74.79446605980047 132.10851404780988,75.53165153460577 130.87183733272832,76.76028895136551 129.23189647169784,78.05912736845494 128.82863232551608,78.58568147735787 128.5597895613173,79.00692393112695 128.29094679723494,79.53347595663217 128.02210403315257,80.27064684798825 127.91456692758948,81.11312508903211 127.94145120389294,82.62255786116293 128.02210403315257,83.32461637513188 128.23717824439518,83.92136449436657 128.82863232551608,84.72872723071487 129.82335055281874,85.85200998977234 130.71053167444188,86.69446860265452 131.40952286100946,87.25610603204404 132.24293542979285,87.71243547390623 133.479612144758,88.13366187944484 133.8291077381,88.34427480454906 134.9851316238055,89.397336652386 135.791659916169,90.20468093443196 136.27557689149398,90.55569933875813 136.7594938670518,90.73120834807924 137.94240202917717,91.01202249561902 139.39415295538493,91.46834478327946 140.46952401194721,92.02997102098016 141.08786236937158,92.55649442318827 141.786853556172,93.25852382589073 142.78157178324182,94.69767767046869 143.31925731163938,95.89111576495634 143.61498435214162,97.04944705378148 143.9644799453672,97.64616098662373 144.71723968500737,98.52367877632787 145.33557804243173,98.97998675664712 146.03456922911573,99.85749966085132 146.46471765183378,100.13830311143829 147.29813022061717,100.27870471324422 148.10465851286426,100.24360432047979 148.96495535806753,100.17340351965686 150.44359056081157,99.89260011012084 152.9707125435816,99.75219828207628 154.44934774620924,100.10320269805379 154.93326472153421,100.31380510088638 155.98175150167663,100.91051090347173 157.5410395335639,101.47211500706908 158.1056093382649,101.57741562991578 159.611128817196,101.47211500706908 160.39077283325605,101.33171410458453 160.84780553227756,101.36681433796184 161.1435325727798,101.29661386605585 161.89629231218714,100.9456111984764 163.40181179146748,100.06810227961978 164.04703442531172,99.82239920635766 164.85356271767523,99.85749966085132 165.63320673350245,100.10320269805379 166.1708922619,100.20850392268039 167.35380042390898,100.06810227961978 168.67112996813376,100.24360432047979 170.09599661803804,100.62970835792657 170.66056642262265,100.9456111984764 170.9562934631249,101.33171410458453 171.11759912164416,101.8582170647278 171.09071484510787,102.17411828528566 171.01006201596465,102.49001908958599 170.76810352830216,102.87611950671999 170.06911234161817,103.5430187619204 169.96157523593865,103.78871801955393 169.9078066830989,104.1046166948363 169.93469095951878,104.38541516772239 170.55302931705955,105.64900422281062 170.74121925188228,105.85960175082437 171.01006201596465,106.0 171.46709471498616,105.96490044544043 171.73593747906853,105.85960175082437 172.05854879610706,105.71920341945952 172.8381928120507,105.157609271002 174.72009216086008,104.38541516772239 175.09647203062195,104.31521558035456 175.58038900606334,104.38541516772239 175.92988459928893,104.24501597233757 176.25249591632746,103.9642173350876 176.7901814446086,103.22711934613471 177.1396770379506,102.6655193563347 177.3547512491932,102.13901817028818 177.67736256611533,101.6125158273062 178.37635375279933,99.92770055434084 178.5376594113186,99.40119335174677 178.7527336225612,98.17267204602831 178.72584934625775,97.64616098662373 178.67208079330157,97.0845479145355 178.67208079330157,95.71561053575715 178.69896506983787,94.48707033084065 178.83338645182084,93.2936252420186 178.7527336225612,91.46834478327946 178.80650217540096,90.73120834807924 178.80650217540096,89.11652061218047 178.88715500454418,87.11569679822423 178.83338645182084,86.69446860265452 178.51077513489872,85.99241996434284 177.2472141435137,84.6585218833934 176.81706572102848,84.13198112267128 176.49445440410636,83.67564486061747 176.3331487455871,83.32461637513188 176.14495881064795,82.65766083578637 176.17184308706783,81.81518802659411 176.3331487455871,80.93760903306247 176.7632971680723,80.02492346953659 177.43540407845285,79.21754488020088 178.34946947649587,78.5154743296589 179.31730342726223,77.60277953794866 179.55926191504113,77.11132705579803 179.8281046791235,76.19862691420713 179.77433612628374,75.21571518032579 179.53237763850484,74.26790361742314 179.15599776885938,73.53071425345843 178.61831224057823,72.75841820091591 178.05374243599363,72.09143324254546 177.91932105377782,71.810596915122 177.8386682245182,71.24892327233101 177.86555250105448,70.58193411095999 177.75801539537497,70.19578164238192 177.65047828981187,70.02025758716627 177.40851980203297,69.84473340354452 174.88139781937934,68.93200557465025 170.4723764876835,66.89590788554051 168.966857008636,66.33422271856398 168.5098243096145,66.22890660313715 167.73018029367086,66.29911735195492 166.84299917216413,66.47464413377747 164.93421554681845,66.29911735195492 163.07920047442894,66.47464413377747 161.33172250760254,66.82569731160766 160.22946717473678,67.10653948356048 159.82620302855503,67.17674997502763 159.55736026447266,67.14164473187702 159.34228605323005,67.00122370765894 159.07344328903127,66.4044334365608 158.4551049314905,65.59700893826084 157.91741940320935,65.00021516850393 157.7561137448065,64.75447612527933 157.70234519196674,64.43852555641206 157.72922946850304,63.24493075736973 157.59480808628723,62.57791930847452 157.67546091566328,62.22685990513128 158.02495650900528,61.349209145773784 158.13249361456838,60.998147941572824 158.15937789098825,60.47155517054489 158.07872506172862,59.73432334623067 158.05184078542516,59.10240854791482 158.07872506172862,58.92687636366463 158.2400307202479,58.68113108957186 158.72394769568928,58.259852890245384 158.88525335420854,57.94389375447645 158.83148480125237,55.38109869713662 158.75083197210915,54.25767304102192 158.72394769568928,52.993812879314646 158.75083197210915,52.78316887073743 158.85836907778867,52.53741729319154 159.07344328903127,52.256558038599906 159.261633223854,52.1512357332831 159.87997158139478,51.97569845477119 161.1435325727798,51.870376025894075 163.75130738469306,51.51930092855764 166.89676772488747,50.95757970242994 170.49926076410338,50.53628791830852 173.10703557613306,49.93945662223268 174.85451354284305,49.72880992735736 176.14495881064795,49.412839537719265 177.86555250105448,49.34262383906753 179.88187323196325,49.061760838056216 181.06478139408864,48.85111337133276 181.76377258077264,48.605357759297476 182.08638389781117,48.39470989108668 182.2745738326339,48.14895381072711 182.40899521461688,47.83298133689095 182.46276376757305,47.30635962088127 182.38211093831342,46.99038603542431 182.1670367270708,46.323329319406184 181.81754113349598,44.322148024395574 181.27985560533125,43.198670495025 180.82282290642615,42.4613855023199 179.935641784803,41.337899244288565 179.63991474430077,41.02191778476117 178.6451965169981,40.38995361470734 178.21504809439648,40.28462609105918 177.54294118401594,40.24951690614398 176.84394999733195,40.319735270764795 174.66632360802032,40.77615413905005 173.80602676281705,41.057026856346056 172.43492866586894,41.72409823999624 171.95101169042755,41.86453408395755 171.49397899140604,41.82942513067974 170.23041800002102,41.51344431958569 168.83243562665302,41.057026856346056 167.70329601725098,40.60060852342576 165.90204949770123,39.547332127564005 165.66009100992233,39.33667629251431 165.55255390435923,39.09091091748269 165.63320673350245,38.91536406664818 166.00958660326432,38.63448883764795 165.41813252214342,38.91536406664818 165.20305831090081,38.91536406664818 164.93421554681845,38.845145290280925 163.4824646206107,37.721642068368965 161.78875520674046,36.63324329601892 161.6005652716849,36.422584897780325 161.17041684919968,35.75549874763237 160.95534263784066,35.544839577385574 160.25635145115666,35.12352068097971 159.1809803947108,34.702201043241075 157.99807223246899,34.526650975545635 156.9495854525594,34.17555045391782 156.03552005439997,34.0 155.14833893289324,34.0 151.38454023504164,34.38621082859754 145.9808006763924,34.842641004841425 143.58810007560533,34.842641004841425 142.13634914939757,34.983080884077935 141.14163092221133,34.87775098242855 140.17379697132856,34.91286095471878 138.0499391348567,35.08841073940857 136.81326241989154,35.05330079274427 136.1680397859309,35.19374054852233 135.38839576998726,35.544839577385574 134.28614043723792,35.93104791469523 133.10323227499612,36.141706745300326 131.46329141384922,36.176816532344674 128.7748637725599,35.96615773263329 127.10803863510955,36.03637735315715 125.09171790420078,36.35236539054313 122.21510032808874,37.15988848086272 121.70429907634389,37.37054623059521 121.16661354806274,37.68653250770876 120.17189532076009,38.59937941071985 119.8223997275345,39.0558015575225 119.36536702839658,39.477113536486286 119.09652426443063,39.793097034227685 118.63949156540912,40.495281092240475 118.12869031354785,41.337899244288565 117.69854189094622,42.77736506283691 117.53723623242695,44.0061705019325 117.53723623242695,44.497690912292455 117.5910047852667,44.70834220798861 118.23622741911095,45.410511855297955 118.66637584171258,46.21800440485822 118.88145005295519,46.84995319698646 119.12340854073409,47.376575916510774 119.33848275209311,48.07873774142354 119.90305255667772,50.22031859381241 120.36008525558282,50.78204154910054 120.79023367830086,51.589515989195206 121.00530788965989,51.870376025894075 121.32791920658201,52.11612828781654 121.8118361820234,52.43209511133318 122.67213302711025,52.7480615178938" stroke="#4dd2ff" stroke-linecap="round" stroke-linejoin="round" stroke-width="0.5"><title>2024-08-04 11.0km</title><desc>12056370003</desc></polyline><polyline fill="none" points="85.59699892820208,161.9357389375291 85.38263665593695,159.65343718947406 85.16827438373002,154.29423545748432 85.14255091105588,151.92219328960346 84.98821007504012,149.66197144669422 84.75669882103102,144.21254803468764 84.70525187568273,142.33257470084936 84.7224008574849,140.8218483448145 84.67095391213661,140.17278637232084 84.11361200429383,140.34064775555453 82.61307609864161,140.44136440854345 79.83494105041609,140.49731804735347 79.05466237940709,140.56446235983458 73.38692390138749,140.75470425839012 71.68917470530141,140.84422969387379 70.17148981781793,140.84422969387379 69.10825294748065,140.94494568350638 65.12968917473336,141.11280537138373 64.02357984994887,141.13518663526338 63.106109324784484,141.0792334632788 61.14255091105588,141.15756789256557 61.039657020388404,141.03447089621477 61.06538049306255,141.12399600413482 60.01929260449833,141.29185529891402 59.36763129691826,141.29185529891402 58.921757770644035,141.21352100723016 58.49303322620108,141.20233038756123 57.43837084673578,141.269474080902 57.009646302234614,141.17994914333394 56.52090032157139,141.2582834694258 55.97213290462969,141.28066469074838 55.7834941050678,141.20233038756123 55.36334405146772,140.85542036592233 55.22615219725412,140.8330390201736 54.74598070740467,141.12399600413482 54.377277599152876,141.269474080902 53.93140407287865,141.35899891364534 53.29689174704254,141.73947828324162 52.85101822082652,142.17590816974553 52.285101822111756,142.41090784600237 52.14790996783995,142.53400262622745 51.7620578778442,142.70185882536316 50.81028938907548,143.3620896332286 49.48981779208407,144.5258724295927 49.318327974295244,144.7049143645345 49.232583065429935,144.9734764807945 48.53804930334445,145.42107791167655 47.57770632370375,146.7302970562523 47.354769560537534,147.1666984563053 47.02036441589007,147.4352519260501 46.403001071856124,148.11782108311309 45.614147909975145,149.1025002795359 45.35691318329191,149.52769873993384 44.430868167226436,150.63544151991664 44.27652733118157,150.7473338376949 44.053590568044456,150.76971228163166 43.77920685958816,150.69138769927667 42.973204715992324,150.28857429431082 42.030010718124686,150.16549199733709 41.34405144696939,149.53888814115635 41.1554126473784,149.18082648936252 41.146838156477315,148.8563316691725 40.983922829589574,148.74443658432574 40.94962486604345,148.48707726773864 40.70953912110417,147.87164930270956 40.75241157558048,147.84927001063625 40.70953912110417,147.84927001063625 40.67524115758715,147.46882104343968 40.39228295820067,146.93171339656692 40.03215434084996,146.78624609290273 39.45766345120501,145.34274785042362 39.320471597020514,144.8727657977288 39.16613076097565,143.94398324569192 39.21757770632394,142.63471638991905 39.52625937835546,139.59086405705602 39.62057877818006,138.7851181542719 39.72347266881843,138.5948713546677 39.68060021434212,138.3262868316233 39.88638799573528,136.24472478354437 39.963558413728606,135.85302666424832 40.12647374064545,135.72992112654902 40.70953912110417,135.68515542730893 41.22400857449975,135.78587821370456 45.8628081457864,135.9425578399023 47.534833869256545,135.95374922946212 48.092175777070224,136.03208891065879 48.80385852092877,135.99851477141056 49.22400857452885,136.07685440672503 49.48124330121209,136.054471661977 49.5669882101065,135.98732338837726 49.652733119000914,136.054471661977 49.68703108254704,136.18876803221792 49.54126473743236,136.9609675828906 49.11254019290209,138.58368035173044 49.0182207931648,139.14322849280143 48.91532690249733,142.65709720828454 48.98392282961868,144.72729457689275 49.11254019290209,145.08537708417862 48.718113612005254,145.28679775755882 48.52947481244337,145.44345791447995 47.56055734193069,146.77505628886138 47.354769560537534,147.17788820302667 46.99464094321593,147.4800107459596 46.35155412647873,148.2185274921285 45.63129689177731,149.1136897429824 44.85101822082652,150.14311337660183 44.773847802804084,150.34452072746353 44.653804930334445,150.40046711966716 44.293676312983735,150.7473338376949 44.079314040747704,150.76971228163166 43.813504823163385,150.71376615955523 42.96463022509124,150.28857429431082 42.158628081466304,150.22143852051522 41.98713826367748,150.16549199733709 41.37834941051551,149.60602451418526 41.1554126473784,149.29272093567124 40.932475884241285,149.13606866499322 40.80385852092877,148.93465813119838 40.71811361203436,148.71086802695208 40.495176848897245,148.7556261001664 39.792068595968885,149.09131081445958 39.71489817794645,149.2255842875311 39.7406216506206,149.4158046374505 40.63236870311084,151.4298734307231 40.62379421223886,151.5641427974915 40.5123258306412,151.63127739247284 40.41800643087481,151.85505895005917 40.357984994654544,152.3026201005996 40.38370846735779,152.5823444895359 40.589496248663636,153.1417901977693 40.56377277598949,153.46626683326758 40.45230439445004,153.6452878359196 39.90353697750834,154.00332858398906 39.76634512329474,154.20472576814063 39.33762057876447,154.40612242188217 38.99464094321593,154.87604588465183 37.4512325830874,155.8494495861596 34.398713826347375,157.66196139575914 33.42122186496272,158.06473596442083 33.34405144696939,158.07592411658698 33.1554126474075,157.99760701694322 32.93247588427039,157.98641885329562 31.569131832802668,158.1542411360424 30.35155412647873,158.16542927511182 29.657020364393247,158.2661224532858 29.271168274397496,158.2549343289138 29.01393354771426,158.29968681653554 28.645230439462466,158.243746202912 27.87352625935455,158.3332511650442 27.427652733109426,158.2661224532858 26.998928188637365,158.2549343289138 26.698821007506922,158.1094885633065 26.09003215431585,157.1249253378628 25.609860664524604,156.68858076405013 24.092175777070224,154.40612242188217 23.672025723470142,153.51102212323167 22.643086816737195,151.9669494832633 21.98285101822694,150.8592259917641 20.928188638819847,149.30391037130175 20.842443729925435,149.09131081445958 20.89389067524462,149.08012134770252 20.885316184343537,149.04655293768883 20.851018220797414,149.09131081445958 20.876741693500662,149.06893187934475 20.825294748152373,149.0577424093135 20.89389067524462,149.2032053917137 20.773847802804084,149.1136897429824 19.727759914298076,147.45763133928995 19.324758842441952,146.98766228579916 18.141479099693242,145.11894723323348 17.66130760984379,144.64896380489517 17.65273311897181,144.22373821375368 17.36977491961443,143.85446143969602 17.21543408362777,143.51875373377698 16.82958199357381,143.00399905514496 16.62379421220976,142.62352597829886 16.443729903548956,141.95209828273073 16.42658092174679,141.4709048071236 16.092175777070224,141.0904241009339 15.663451232598163,140.49731804735347 15.543408360157628,139.9713522259699 15.431939978618175,139.73634505113296 15.003215434087906,139.46776453815255 14.900321543420432,139.47895541171602 14.840300107229268,139.42300102759327 14.523043944267556,138.5277253123786 14.60021436228999,138.41581511080585 14.523043944267556,138.4381971642215 14.480171489791246,138.38224201840058 14.0,137.0952623607227 14.248660235811258,136.4685513791992 14.565916398743866,134.6667286880329 14.583065380516928,132.28288558086206 14.514469453395577,131.42110240706097 14.780278670950793,130.57050169527793 14.934619506966555,130.25712009971176 15.106109324784484,130.11162106502888 15.509110396553297,129.96612175339396 16.006430868175812,129.66392999046366 17.344051446940284,128.57826824549556 17.875669882108923,128.22010841093288 18.715969989279984,127.90671717900113 19.58199356912519,127.71644330415438 19.56484458738123,128.25368596668704 19.33333333337214,128.6230381068017 19.37620578779024,128.85807944853877 19.470525187556632,129.02596567873115 20.27652733118157,129.04835048155655 20.859592711698497,129.1155048507062 21.39121114683803,129.2721981493014 21.51982851017965,129.38412173733377 21.51982851017965,130.16758226498496 21.99142550912802,132.41718857707747 21.897106109332526,133.55875451820611 21.90568060023361,134.44289681681403 21.78563772776397,134.67792026438838 21.39978563771001,134.93532606840745 21.39121114683803,135.22630549886526 21.614147909975145,135.42775214806898 21.90568060023361,135.5396667238092 22.051446945377393,135.48370945639908 22.368703108251793,135.23749699329346 22.505894962494494,135.20392250507575 22.600214362260886,135.23749699329346 22.703108252957463,135.3941777434011 22.93461950699566,136.03208891065879 23.286173633445287,136.54689053285983 23.320471597020514,136.524507925722 23.286173633445287,136.5692731334202 23.93783494105446,137.40861592491274 24.649517684913008,137.8338794219453 24.726688102906337,137.94579047537263 24.726688102906337,138.0912745999085 24.580921757762553,138.29271369986964 23.963558413699502,138.55010733304516 23.6463022508251,138.79630912774883 23.620578778121853,138.99774637007795 24.092175777070224,139.5237188894971 24.08360128616914,139.70277253860695 22.437299035402248,141.45971422513685 22.15434083598666,141.90733622670086 21.70846730977064,142.46686004337244 21.21972132907831,142.88090503157582 20.81672025725129,143.11590254097246 19.050375133985654,143.95517346404813 18.95605573419016,143.9663636808109 18.94748124331818,143.83208097182796 18.990353697765386,143.83208097182796 18.321543408354046,144.4923020201386 17.867095391236944,144.76086488321744 17.815648445888655,144.86157571365766 17.969989281904418,144.91752611771517 18.10718113614712,145.051806920339 19.35905680601718,146.99885205872852 19.702036441594828,147.3793033642869 19.97642015008023,147.79332175180025 20.885316184343537,149.24796317679284 23.70632368704537,153.5557773869732 24.092175777070224,154.37255634973553 24.512325830670306,155.0103092007921 24.718113612063462,155.25645800149505 25.009646302292822,155.24526943682577 24.778135048254626,155.27883512589324 24.709539121133275,155.2228923025832 24.89817792069516,155.55854862859997 25.661307609872892,156.7557108605397 26.1586280814372,157.225619886005 26.724544480181066,158.09830041601526 26.853161843522685,158.18780554837576 27.08467309756088,158.2549343289138 27.942122186505003,158.29968681653554 28.7224008574849,158.2325580752804 29.108252947509754,158.28849869707483 29.37406216506497,158.22136994602624 29.717041800671723,158.243746202912 30.5058949625236,158.1542411360424 31.783494105067803,158.1542411360424 33.08681672025705,157.9752306879891 33.284030010720016,157.99760701694322 33.284030010720016,158.0423596551409 33.42122186496272,158.08711226711603 34.46730975352693,157.6172085349899 38.814576634555124,154.97674339383957 39.080385852081235,154.7753482428525 39.35476956059574,154.37255634973553 39.73204715969041,154.19353704959212 39.98070739550167,153.9250073135845 40.5123258306412,153.56696619880677 40.58092175776255,153.37675617477362 40.589496248663636,153.1417901977693 40.36655948555563,152.52639969359734 40.34083601285238,152.26905310519214 40.40085744910175,151.85505895005917 40.59807073959382,151.5417645860507 40.589496248663636,151.40749518000666 39.68060021434212,149.37104695064045 40.37513397645671,149.02417398948455 40.80385852092877,148.94584761920123 41.23258306540083,149.37104695064045 41.4297963558638,149.639592678599 42.030010718124686,150.16549199733709 42.998928188637365,150.28857429431082 43.84780278670951,150.70257693024905 44.079314040747704,150.7473338376949 44.30225080385571,150.72495538726798 44.44801714897039,150.62425227915082 44.74812433012994,150.29976358419663 44.89389067524462,150.05359882819175 45.442658092215424,149.37104695064045 45.657020364451455,149.01298451294133 46.43729903540225,148.0618730207716 47.011789924959885,147.40168279389763 47.34619506969466,147.13312920627504 47.57770632370375,146.68553779750073 48.6066452304367,145.33155783514667 49.28403001074912,144.91752611771517 49.66988210080308,145.24203765376296 49.78135048234253,145.28679775755882 49.89281886391109,145.27560773405276 50.71596998930909,144.63777368806768 51.650589496217435,144.02231473993743 52.60235798501526,143.55232457067177 53.45980707401759,143.23899618616997 55.91211146838032,142.7466204162265 56.7438370846794,142.66828761500074 59.35905680601718,142.04162231616647 60.851018220797414,141.95209828273073 61.56270096465596,141.86257414449938 65.6098606645246,141.7730499014142 67.53054662383511,141.6835255535043 69.63129689177731,141.67233500266593 69.63129689177731,141.6275727828397 70.55734190784278,141.51566711867054 73.5669882101065,141.45971422513685 76.2679528403387,141.35899891364534 83.00750267956755,141.04566154046188 84.07073954984662,141.02328025036695 84.25937834943761,141.05685218305734 84.33654876743094,141.21352100723016 84.43086816722644,143.13828321846086 84.68810289390967,149.8186226399921 84.6795284030377,151.06063145647204 84.71382636658382,151.08300980870263 84.85101822079741,153.07465692886035 84.91103965704679,156.14034943718434 85.04823151126038,158.243746202912 85.09967845660867,161.49942180996004 85.1768488746311,161.96930169039115 86.0,172.28355669584562" stroke="#ff0000" stroke-linecap="round" stroke-linejoin="round" stroke-width="0.5"><title>2024-05-01 33.3km</title><desc>11306235000</desc></polyline><polyline fill="none" points="161.2356687898282,177.48368496079638 161.64599396579433,177.64125086113927 161.93563526659273,177.89335606140958 162.1528662421042,178.36605251563014 162.24941334221512,178.7757219356863 162.20113979221787,179.02782580631902 162.1528662421042,179.18539057552698 161.88736171647906,179.62657131504966 161.25980556500144,180.1938023648836 161.11498491466045,180.44590457351296 161.0908481394872,180.60346830387425 161.13912168960087,180.98162078605674 161.6218571907375,182.02153668373649 161.83908816624898,182.24212425811857 162.0804559168173,182.30514923784358 162.32182366750203,182.30514923784358 162.58732819312718,182.24212425811857 163.91485082136933,181.61187344534846 165.43546765006613,181.07615880256344 165.74924572580494,180.98162078605674 166.28025477705523,180.98162078605674 166.49748575268313,180.88708272778604 167.0043580288766,180.35136628001055 167.5353670802433,179.56354555053986 167.96982903114986,178.8072349356371 168.5249748575734,177.64125086113927 168.74220583308488,177.01098656760587 169.00771035871003,175.78196588346327 169.0559839088237,175.37229076153017 169.00771035871003,174.26931540125224 169.03184713388328,172.9142236442858 169.10425745893735,171.9688057348103 169.15253100916743,170.73975623988372 169.03184713388328,167.87194677331718 169.17666778399143,166.23318133868452 169.17666778399143,165.19318910593574 169.08012068388052,164.7519787605852 168.74220583308488,164.1531918443361 167.5353670802433,162.76652100631327 167.02849480393343,162.01015132640896 166.76299027830828,161.41135677676357 166.7147167280782,161.15923225707957 166.7147167280782,160.81256056006532 166.83540060347877,159.96163675255957 167.05263157887384,159.45738401876588 167.26986255450174,159.04767780200928 167.51123030518647,158.76403457940614 168.2111967818346,158.1337149675528 169.41803553467616,157.2512644075323 169.70767683547456,156.87307020201115 169.87663426087238,156.5263915960095 169.9731813610997,156.21122874201683 170.09386523638386,155.42331958650902 170.06972846132703,155.01360568487144 169.9731813610997,154.63540754443966 169.70767683547456,154.0365924618527 169.36976198467892,153.02805802771763 169.10425745893735,152.5553058837395 168.54911163274664,152.05103578466515 168.40429098228924,151.8304172445496 168.33188065711875,151.54676450314582 168.25947033194825,150.16001238235913 168.1629232316045,149.93939190234232 167.9939658063231,149.8448401986825 166.7147167280782,149.43511566940288 166.087160576717,149.3090464265115 164.9527321489295,148.89932087645866 164.01139792159665,148.39504220485105 163.02179014415015,147.92227987635124 161.0184378143167,147.07130506585236 160.29433456261177,146.78764604742173 159.9322829367593,146.72461065916286 159.15990613482427,146.75612835565698 158.24270868254825,146.91371676848212 156.74622862890828,146.78764604742173 155.80489440169185,146.85068141728698 154.4532349985093,147.07130506585236 152.2085149178747,147.54406926516094 151.84646329213865,147.54406926516094 151.62923231662717,147.4179989136028 151.02581293997355,146.40943344088737 150.20516258804128,145.49541689555917 150.13275226287078,145.30630953905347 150.08447871275712,144.9596122871153 150.13275226287078,144.07710766876698 150.08447871275712,143.35219045171107 150.446530338726,142.02842227155634 150.54307743883692,141.08286858242354 150.47066711366642,140.45249714663078 150.49480388872325,140.29490399896167 150.59135098895058,140.07427339820424 151.07408649020363,139.60149277714663 151.17063359031454,139.28630511906522 151.19477036548778,137.48972664639587 151.09822326526046,136.67022972673294 151.07408649020363,135.59857519656362 151.1223600403173,134.81059051706688 151.21890714054462,134.4638763434632 151.53268521628343,133.99108338750375 151.87060006707907,133.83348550453957 153.00502849498298,133.70740711494 154.06704659736715,133.4552501141152 156.3841770029394,133.2661321694468 160.1736506872112,132.47813894296996 161.42876299028285,132.22598050060333 161.9114984915359,132.22598050060333 162.41837076772936,132.13142100842379 163.2872946697753,131.8792621595785 165.19409989949781,131.72166272887262 166.44921220245305,131.4379834624997 167.34227287967224,131.31190366840747 167.87328193103895,131.18582380046428 169.6594032853609,130.96518385363743 171.7834394905949,130.58694341794762 172.07308079116046,130.42934303999937 172.24203821655829,130.1771821951843 172.36272209195886,129.67285961838206 172.24203821655829,129.26309665376903 172.26617499173153,129.1054953057319 172.36272209195886,129.1054953057319 172.82132081803866,129.1685358586983 173.25578276906163,129.1054953057319 173.6902447200846,129.04245473403716 174.02815957099665,128.91637353546685 174.5350318471901,128.6642109163513 176.56252095208038,127.43491391373391 177.23835065378807,127.15122899190465 178.17968488112092,126.64689931808971 178.49346295674331,126.33169267133053 178.63828360720072,126.11104774357227 179.0003352330532,125.13390319939936 179.36238685890567,124.47196404980787 179.72443848487455,124.12523320571927 180.08649011072703,123.99914912383247 180.78645658737514,123.93610705521132 181.31746563862544,124.06219117410365 181.77606436493807,124.31435918997158 182.0415688904468,124.5034850078955 182.47603084146976,124.91325704261544 183.10358699294738,125.32302829649416 184.26215219590813,125.8273610752658 185.0103922226699,125.98496482612973 185.32417029840872,126.01648556241707 185.80690579966176,125.95344408527308 185.97586322505958,125.8273610752658 186.0,125.76431954266445 185.75863224943168,125.85888183470524 184.8414347972721,125.9219233397016 184.35869929613546,125.89040258954628 183.53804894408677,125.70127799148031 183.0311766677769,125.48063241684576 182.4277572913561,125.00781970894604 181.41401273896918,124.4089221196773 180.71404626220465,124.15675421470951 180.18303721095435,124.18827521895582 179.89339591027237,124.34588017113856 179.41066040901933,124.72413158514246 179.12101910833735,125.22846576871234 178.95206168293953,125.85888183470524 178.80724103248212,126.17408917468856 178.49346295674331,126.58385802576959 178.10727455595043,126.86754369594564 175.3556821992388,128.22292562144867 174.17298022133764,128.94789384191972 173.2316459941212,129.1685358586983 172.3385853167856,129.1685358586983 172.07308079116046,129.0109344413504 171.9523969158763,128.79029226279818 171.73516594036482,127.5609959809808 171.51793496485334,126.99362609595119 171.08347301383037,126.0795270211529 170.74555816303473,125.60671563005599 170.52832718740683,125.22846576871234 169.92490781098604,124.47196404980787 169.34562520950567,124.09371219220338 169.08012068388052,123.77850180270616 168.8870264835423,123.65241751744179 168.04223935643677,123.4632909509819 167.39054642990232,123.4632909509819 166.5698960777372,123.65241751744179 165.7975192759186,123.77850180270616 164.61481729813386,124.12523320571927 163.60107274563052,124.59804785439337 162.85283271875232,124.81869433463726 162.49078109289985,124.81869433463726 160.48742876306642,124.37740114776534 159.81159906147514,124.18827521895582 158.53234998323023,123.65241751744179 157.61515253107063,123.14807963721978 156.86691250419244,122.58069810811139 155.70834730146453,121.5089733570494 155.12906470010057,121.06767337744532 154.76701307413168,120.75245855182584 154.13945692253765,120.37420015105454 153.7291317465715,120.09050591390405 153.46362722094636,119.80681130234734 153.1015755950939,119.27094268146902 152.52229299372993,118.86115989384416 151.09822326526046,118.32528891623951 149.96379483747296,117.85246047396504 148.90177673485596,117.69485076217097 146.51223600411322,117.7894166030892 145.6674488770077,117.94702624557249 144.0020113979699,118.10463577252813 143.3261816962622,118.10463577252813 142.0227958430769,118.32528891623951 140.84009386529215,118.38833262992557 138.47468990960624,118.38833262992557 137.3161247067619,118.48289816583565 136.157559504034,118.70355092136015 135.16795172647107,118.6405073000933 133.50251424743328,118.76659452427702 131.3060677171452,118.76659452427702 130.91987931600306,118.86115989384416 129.90613476373255,119.27094268146902 129.20616828696802,119.49159462825628 127.49245725781657,119.77528965569218 127.03385853173677,119.77528965569218 124.76500167616177,119.61768135335296 123.07542742218357,119.64920302302926 120.51692926592659,120.05898430882371 120.01005698961671,120.24811386964575 119.55145826353692,120.27963544693193 118.8514917868888,120.5002863585978 118.19979886035435,120.75245855182584 117.08950720750727,121.47745195991592 115.73784780420829,122.58069810811139 114.84478712710552,123.87306496803649 114.45859872619621,124.81869433463726 114.09654710022733,126.70994059203076 114.0,127.37187285236723 114.1448206504574,127.65555748295446 114.55514582630713,128.06532351093483 114.82065035204869,128.4435683820775 115.18270197790116,129.1054953057319 116.00335232983343,131.12278383875673 116.1964465304045,131.97382176261453 116.36540395580232,132.22598050060333 116.53436138131656,132.38357956179243 116.9446865572827,132.44661915388133 118.15152531012427,132.32053995109163 118.68253436149098,132.3520597587776 120.13074086501729,132.09990116854897 122.15822996990755,131.91078203186044 123.53402614826337,131.7531826242339 126.18907140463125,131.59558310112334 127.9751927589532,131.37494357468677 128.91652698640246,131.28038370829017 129.8095876633888,131.50102333174436 130.60610124038067,131.37494357468677 130.99228964128997,131.37494357468677 131.57157224277034,131.50102333174436 132.19912839424796,131.4064635209652 133.743881998118,131.56406318265363 134.83003687567543,132.0053416209994 135.57827690255363,132.41509936007787 137.29198793170508,133.17157313466305 137.43680858204607,133.29765183845302 137.55749245733023,133.5813286514749 137.60576600732747,134.11716161074582 137.58162923238706,134.93666825987748 137.48508213204332,135.6300945236435 137.50921890721656,136.54415300038818 137.58162923238706,136.82782553083962 137.7747234328417,137.23757408073288 137.96781763329636,137.48972664639587 138.16091183375102,137.6473218498286 138.8367415354587,137.99403089082625 139.4401609118795,138.18314467756136 140.33322158898227,138.34073937288485 140.76768354012165,138.52985285474278 141.08146161586046,138.84504162156372 141.92624874296598,140.01123604208988 142.45725779421628,140.42097852633742 142.79517264501192,140.61009017885954 143.56754944694694,140.86223879009776 144.65370432450436,140.8937573456933 145.25712370104156,140.86223879009776 145.54676500172354,140.767683095517 146.07777405309025,140.38945990148932 146.53637277917005,140.10579206928378 147.405296681216,139.91667997337936 147.76734830718488,139.91667997337936 148.7810928595718,140.04275472240988 150.06034193758387,140.04275472240988 150.20516258804128,140.10579206928378 150.34998323838226,140.29490399896167 150.49480388872325,141.1459056243766 150.49480388872325,141.83931186633708 150.39825678861234,142.31208756756678 150.10861548781395,143.06852652766975 150.01206838758662,143.50978135895275 150.1568890379276,144.29773416285752 150.13275226287078,145.21175579854753 150.2292993630981,145.65300623224175 150.20516258804128,145.8105954535131 149.9155212873593,146.28336242420482 149.65001676173415,146.88219909518375 149.21555481071118,147.32344610149448 148.8535031847423,147.8277272858686 148.6362722092308,147.92227987635124 148.27422058337834,147.9853149134724 147.83975863223895,147.9853149134724 147.0432450553635,147.85924482057453 145.3536708012689,147.54406926516094 143.73650687234476,147.00826976077224 142.72276231984142,146.85068141728698 142.11934294342063,146.85068141728698 141.15387194103096,146.97675210131274 140.45390546438284,147.1658579888026 139.68152866244782,147.44951650846633 139.39188736176584,147.63862198023708 138.20918538386468,148.52111198363127 137.50921890721656,149.3405637441465 136.97820985573344,150.2545639473683 136.7851156553952,150.50670125086617 135.77137110289186,151.3891794852243 134.83003687567543,151.95648500938842 133.62319812271744,152.42923846977646 132.65772712044418,152.74440686609887 130.4854173650965,153.1226083318761 129.3268521623686,153.56384253474243 128.3613811598625,153.97355919827532 127.9751927589532,154.19417553996027 127.29936305736192,154.72995714179706 126.09252430440392,155.95909812631726 125.41669460281264,156.5263915960095 124.64431780087762,157.03065120178508 124.3305397251388,157.28278056131967 124.13744552468415,157.56642573748832 123.89607777411584,158.00765082352154 123.65471002354752,158.76403457940614 123.50988937320653,159.6464789325255 123.48575259803329,160.43437261674262 123.60643647343386,161.9471203997673 123.67884679860435,162.26227484861738 123.9443513242295,162.76652100631327 124.42708682536613,163.52288802625844 125.1511900771875,164.4053128544183 126.33389205497224,165.35076400985417 127.08213208185043,165.82348802917113 128.1924237345811,166.32772583780752 128.86825343617238,166.73741818696726 129.2544418371981,167.0525656167447 130.26818638958503,168.06103428917413 130.65437479049433,168.4076943033724 131.25779416703153,168.69132480835833" stroke="#4dd2ff" stroke-linecap="round" stroke-linejoin="round" stroke-width="0.5"><title>2023-12-26 11.0km</title><desc>10436709260</desc></polyline><polyline fill="none" points="61.235668789828196,257.4836849607964 61.64599396579433,257.64125086113927 61.935635266592726,257.9248691906396 62.15286624210421,258.36605251563014 62.24941334221512,258.7757219356863 62.20113979221787,259.027825806319 62.12872946704738,259.27992938166426 61.839088166248985,259.68959706113674 61.33221589017194,260.0992639604956 61.1632584646577,260.35136628001055 61.09084813948721,260.60346830387425 61.13912168960087,260.9501081045455 61.64599396579433,262.0845617279847 61.839088166248985,262.24212425811857 62.0804559168173,262.3051492378436 62.539054643013515,262.24212425811857 63.91485082136933,261.61187344534846 65.43546765006613,261.07615880256344 65.77338250086177,260.98162078605674 66.23198122694157,260.98162078605674 66.47334897750989,260.88708272778604 66.83540060347877,260.5719555671385 67.4629567549564,259.6580841903633 67.9939658063231,258.7757219356863 68.47670130745973,257.76730349815625 68.74220583308488,257.04249982612964 69.05598390882369,255.5298582085088 69.00771035871003,252.9772513571661 69.12839423399419,251.77972165422398 69.15253100916743,250.6452136801381 69.03184713388328,247.87194677331718 69.17666778399143,246.26469617639668 69.17666778399143,245.13015911191178 69.03184713388328,244.65743356884923 68.74220583308488,244.1531918443361 67.55950385518372,242.79803635193093 67.02849480393343,242.01015132640896 66.76299027830828,241.3798412279284 66.69057995302137,240.93862305990478 66.83540060347877,239.96163675255957 67.07676835404709,239.39435234392295 67.29399932955857,239.04767780200928 67.55950385518372,238.73251864263148 68.21119678183459,238.1337149675528 69.39389875961933,237.2512644075323 69.70767683547456,236.87307020201115 69.87663426087238,236.5263915960095 69.9731813610997,236.21122874201683 70.09386523638386,235.45483600813895 70.06972846132703,235.01360568487144 69.94904458604287,234.63540754443966 69.70767683547456,234.0365924618527 69.46630908490624,233.24867533931683 69.29735165950842,232.90199089095404 69.03184713388328,232.46075533026305 68.54911163274664,232.0195188641519 68.40429098228924,231.8304172445496 68.33188065711875,231.4837305098772 68.25947033194825,230.22304676366912 68.16292323160451,229.97090912755812 67.9939658063231,229.8448401986825 66.03888702648692,229.2775291041762 65.00100569892675,228.89932087645866 63.89071404619608,228.3320072878123 62.99765336920973,227.92227987635124 61.01843781431671,227.07130506585236 60.294334562611766,226.78764604742173 59.93228293675929,226.72461065916286 59.06335903471336,226.75612835565698 58.29098223266192,226.91371676848212 56.746228628908284,226.78764604742173 55.804894401691854,226.85068141728698 54.38082467322238,227.1028227115312 52.25678846798837,227.54406926516094 51.894736842252314,227.57558684145624 51.74991619179491,227.54406926516094 51.62923231662717,227.4179989136028 51.00167616503313,226.37791569360706 50.22929936309811,225.5269347721187 50.13275226287078,225.30630953905347 50.08447871275712,224.9596122871153 50.13275226287078,224.07710766876698 50.08447871275712,223.35219045171107 50.44653033872601,221.96538548829267 50.54307743883692,221.08286858242354 50.47066711366642,220.35794127188274 50.5189406638965,220.20034805493196 50.63962453906424,220.01123604208988 51.12236004031729,219.5384552825417 51.17063359031454,219.28630511906522 51.194770365487784,217.48972664639587 51.09822326526046,216.67022972673294 51.07408649020363,215.5040171874134 51.12236004031729,214.7160321616102 51.194770365487784,214.52691532568133 51.48441166616976,214.05412250834343 51.65336909156758,213.9280442482268 51.91887361719273,213.83348550453957 53.00502849498298,213.70740711494 54.21186724782456,213.4552501141152 56.432450553169474,213.23461249584216 60.07710358710028,212.47813894296996 61.40462621522602,212.22598050060333 62.41837076772936,212.13142100842379 63.263157894834876,211.8792621595785 65.19409989949781,211.72166272887262 66.44921220245305,211.4379834624997 67.22158900438808,211.3434236239118 68.01810258137994,211.15430382189516 69.75595038558822,210.9336638426903 71.7834394905949,210.58694341794762 72.07308079116046,210.42934303999937 72.24203821655829,210.1771821951843 72.36272209195886,209.73590000518016 72.33858531678561,209.54677878935763 72.21790144161787,209.29461690961034 72.26617499173153,209.13701558447792 72.4109956419561,209.1054953057319 72.82132081803866,209.1685358586983 73.30405631917529,209.1054953057319 73.73851827019826,209.04245473403716 74.0764331209939,208.91637353546685 76.56252095208038,207.4349139137339 77.2624874288449,207.15122899190465 78.13141133089084,206.6468993180897 78.46932618168648,206.33169267133053 78.68655715719797,206.01648556241707 79.02447200799361,205.10238233376003 79.33825008384883,204.5034850078955 79.53134428430349,204.28283820419165 79.7727120348718,204.12523320571927 80.0623533356702,203.99914912383247 80.47267851151992,203.93610705521132 80.78645658737514,203.93610705521132 81.12437143817078,203.96762809183565 81.34160241379868,204.06219117410365 81.9691585652763,204.44044308707817 82.45189406652935,204.91325704261544 83.24840764340479,205.41759078258474 84.38283607107587,205.85888183470524 84.93798189749941,205.98496482612973 85.49312772369012,205.98496482612973 85.80690579966176,205.95344408527308 85.97586322505958,205.8273610752658 86.0,205.76431954266445 85.75863224943168,205.85888183470524 84.84143479727209,205.9219233397016 84.4069728461327,205.89040258954628 83.53804894408677,205.7012779914803 83.05531344295014,205.5121532272169 82.4277572913561,205.00781970894604 81.38987596379593,204.37740114776534 80.71404626220465,204.1567542147095 80.25544753612485,204.18827521895582 79.94166946026962,204.28283820419165 79.45893395913299,204.69261065941828 79.09688233328052,205.2599866159435 78.97619845799636,205.79584031125705 78.80724103248212,206.17408917468856 78.5417365069734,206.55233737261733 78.10727455595043,206.86754369594564 75.3556821992388,208.19140520850488 74.22125377133489,208.91637353546685 73.27991954411846,209.1685358586983 72.43513241701294,209.20005612836394 72.14549111644737,209.04245473403716 71.9523969158763,208.82181258789205 71.73516594036482,207.5609959809808 71.30070398934186,206.4892960524594 71.01106268865988,205.95344408527308 70.72142138786148,205.575194833742 70.50419041235,205.19694491681003 69.9731813610997,204.5034850078955 69.34562520950567,204.09371219220338 69.08012068388052,203.77850180270616 68.86288970836904,203.6524175174418 67.94569225620944,203.4632909509819 67.31813610473182,203.4632909509819 66.56989607773721,203.6524175174418 65.82165605097543,203.77850180270616 64.61481729813386,204.09371219220338 63.45625209528953,204.66108972900838 62.73214884358458,204.8502152419387 60.511565538239665,204.37740114776534 59.85987261147238,204.18827521895582 58.43580288311932,203.58937534710276 57.63928930601105,203.14807963721978 56.84277572913561,202.5806981081114 56.19108280248474,201.95027243088407 55.03251759975683,201.00463044924254 54.79114984930493,200.75245855182584 54.187730472767726,200.43724326405209 53.75326852174476,200.09050591390405 53.51190077106003,199.86985458164418 53.05330204498023,199.23942095636448 52.522292993729934,198.86115989384416 49.9155212873593,197.85246047396504 48.90177673485596,197.69485076217097 46.60878310422413,197.7894166030892 45.643312102067284,197.9470262455725 43.97787462291308,198.10463577252813 43.35031847143546,198.10463577252813 41.974522293079644,198.32528891623951 40.71940999000799,198.38833262992557 38.49882668454666,198.38833262992557 37.17130405642092,198.51442000198585 36.13342272886075,198.70355092136015 35.19208850164432,198.6405073000933 33.52665102260653,198.76659452427702 31.257794167031534,198.79811631872144 30.775058665894903,198.89268167440605 29.88199798867572,199.27094268146902 29.206168286968023,199.49159462825628 28.023466309183277,199.71224634860118 27.44418370781932,199.77528965569218 24.837412001332268,199.61768135335296 23.027153872069903,199.64920302302926 20.492792490753345,200.0589843088237 20.058330539730377,200.24811386964575 19.527321488480084,200.31115701963427 18.417029835865833,200.65789401406073 17.1136439825641,201.4459305581986 16.582634931313805,201.91875109850662 16.075762655120343,202.29700678198424 15.617163928924128,202.73830423860636 15.279249078128487,203.27416421825183 14.941334227332845,203.6524175174418 14.53100905136671,204.59804785439337 14.289641300681978,205.66975720896153 14.0,207.34035231468442 14.120683875400573,207.62403698690468 14.77237680181861,208.3490072266286 15.18270197790116,209.1054953057319 15.979215554893017,211.0912638509035 16.17230975534767,211.94230189954396 16.292993630631827,212.13142100842379 16.51022460614331,212.3520597587776 16.606771706487052,212.41509936007787 16.944686557282694,212.44661915388133 18.15152531012427,212.32053995109163 18.68253436149098,212.3520597587776 20.2272879651282,212.06838132400298 24.282266175025143,211.69014282882563 26.285618504858576,211.59558310112334 28.771706335945055,211.31190366840747 29.109621186740696,211.31190366840747 29.80958766338881,211.50102333174436 30.50955414015334,211.4064635209652 30.99228964128997,211.37494357468677 31.52329869265668,211.50102333174436 32.12671806907747,211.4064635209652 33.74388199811801,211.56406318265363 34.83003687567543,212.0053416209994 35.50586657738313,212.38357956179243 37.17130405642092,213.10853375517763 37.41267180687282,213.2661321694468 37.533355682273395,213.48676975540002 37.605766007327475,214.11716161074582 37.58162923238706,214.96818768403318 37.48508213204332,215.59857519656362 37.509218907216564,216.54415300038818 37.605766007327475,216.92238295766583 37.82299698283896,217.30061224983365 38.11263828363735,217.61580281834176 38.88501508557238,218.02554986681207 39.4401609118795,218.18314467756136 40.40563191426918,218.37225829802628 40.74354676506482,218.52985285474278 41.00905129068997,218.75048504005827 41.92624874296598,219.97971735717147 42.72276231984142,220.57857158160186 43.012403620639816,220.73616452148417 43.615822997060604,220.86223879009776 44.65370432450436,220.8937573456933 45.257123701041564,220.86223879009776 45.54676500172354,220.767683095517 46.07777405309025,220.38945990148932 46.53637277917005,220.10579206928378 47.40529668121599,219.91667997337936 47.839758632238954,219.91667997337936 48.82936640968546,220.04275472240988 50.10861548781395,220.07427339820424 50.205162588041276,220.10579206928378 50.32584646332543,220.26338535561808 50.494803888723254,221.1459056243766 50.494803888723254,221.83931186633708 50.42239356355276,222.2490508674382 50.10861548781395,223.06852652766975 50.01206838758662,223.50978135895275 50.15688903792761,224.29773416285752 50.13275226287078,225.21175579854753 50.22929936309811,225.8105954535131 49.96379483747296,226.18880911322776 49.65001676173415,226.88219909518375 49.2396915856516,227.29192848826642 48.95005028496962,227.70165710060974 48.7810928595718,227.85924482057453 48.394904458662495,227.9853149134724 47.98457928269636,227.9853149134724 46.39155212871265,227.76469220244326 45.35367080126889,227.54406926516094 43.784780422458425,227.03978741563333 43.08481394581031,226.88219909518375 42.65035199467093,226.85068141728698 42.09520616824739,226.85068141728698 41.15387194103096,226.97675210131274 40.45390546438284,227.1658579888026 39.729802212677896,227.44951650846633 39.41602413682267,227.60710441321135 38.160911833751015,228.5526294168085 37.509218907216564,229.3405637441465 36.8575259805657,230.4121497967426 36.56788467988372,230.7273211489519 35.747234327951446,231.3891794852243 34.83003687567543,231.95648500938842 33.695608447887935,232.39772160473512 32.6094535702141,232.74440686609887 30.413007039926015,233.15412509063026 29.2544418371981,233.56384253474243 28.38551793503575,233.94204255957447 27.9751927589532,234.19417553996027 27.251089507248253,234.79299018376332 26.092524304403923,235.9906144694105 25.464968152926303,236.49487533143838 24.69259135099128,236.99913501109404 24.330539725138806,237.28278056131967 24.137445524684153,237.56642573748832 23.896077774115838,238.00765082352154 23.654710023547523,238.76403457940614 23.509889373206533,239.551931496404 23.46161582309287,240.30830982117914 23.509889373206533,240.970138673365 23.654710023547523,242.16772856246098 23.823667448945343,242.57742883574974 24.378813275368884,243.42834229425353 24.69259135099128,243.86955535477318 25.151190077187493,244.4053128544183 26.309755279915407,245.35076400985417 27.15454240690451,245.85500292679353 28.16828695940785,246.2962110094668 28.91652698640246,246.7689329506684 30.630238015553914,248.37617977961781 31.257794167031534,248.69132480835833" stroke="#4dd2ff" stroke-linecap="round" stroke-linejoin="round" stroke-width="0.5"><title>2023-12-26 11.0km</title><desc>10437350044</desc></polyline></svg>