<?xml version="1.0" encoding="utf-8" ?>
<svg baseProfile="full" height="300mm" version="1.1" viewBox="0,0,200,300" width="200mm" xmlns="http://www.w3.org/2000/svg" xmlns:ev="http://www.w3.org/2001/xml-events" xmlns:xlink="http://www.w3.org/1999/xlink"><defs /><rect fill="#222222" height="300" width="200" x="0" y="0" /><text fill="#FFFFFF" style="font-size:12px; font-family:Arial; font-weight:bold;" x="10" y="20">Over 10km Workouts</text><text fill="#FFFFFF" style="font-size:4px; font-family:Arial" x="10" y="280">ATHLETE</text><text fill="#FFFFFF" style="font-size:9px; font-family:Arial" x="10" y="290">heigao</text><text fill="#FFFFFF" style="font-size:4px; font-family:Arial" x="120" y="280">STATISTICS</text><text fill="#FFFFFF" style="font-size:3px; font-family:Arial" x="120" y="285">Number: 7</text><text fill="#FFFFFF" style="font-size:3px; font-family:Arial" x="120" y="290">Weekly: 1.2</text><text fill="#FFFFFF" style="font-size:3px; font-family:Arial" x="141" y="285">Total: 102.6 km</text><text fill="#FFFFFF" style="font-size:3px; font-family:Arial" x="141" y="290">Avg: 14.7 km</text><text fill="#FFFFFF" style="font-size:3px; font-family:Arial" x="167" y="285">Min: 10.0 km</text><text fill="#FFFFFF" style="font-size:3px; font-family:Arial" x="167" y="290">Max: 33.3 km</text><polyline fill="none" points="17.749910516897216,45.428546697919955 18.75807043898385,45.32322364383435 19.907372750341892,45.1389081505622 21.359123038244434,45.007254111013026 21.92369259474799,45.007254111013026 22.89152612001635,44.84926913616073 25.613557910081,44.55962965467188 25.89584268827457,44.58596053603105 26.520901840063743,44.79660744697321 26.641881030751392,44.69128402233764 26.863676213659346,44.638622286875034 28.416242493782192,44.53329876958742 29.303423225297593,44.50696788066125 30.230930353864096,44.612291413373896 31.622191046364605,44.53329876958742 31.90447582467459,44.55962965467188 32.206923801335506,44.66495315657812 33.69900048628915,45.507538947989815 35.13058757572435,46.086814387046616 35.251566766412,46.2974595380947 35.291893163346685,46.560765629590605 35.27172996487934,47.140037672259496 35.17091397265904,48.298576153916656 35.291893163346685,48.983163562821574 35.53385154460557,49.50976748671383 35.83629952126648,49.8520592093555 36.19923709332943,50.089030020011705 36.88478584040422,50.29967047808168 37.570334587595426,50.40499061453738 37.771966572036035,50.51031068923476 38.11474094551522,50.79994057623844 38.61882090661675,51.48451845285308 38.92126888327766,51.80047659302363 39.48583843978122,52.24808300686709 39.92942880559713,52.48505065684731 40.17138718685601,52.59036951205053 40.433508766582236,52.61669921615976 41.522321482538246,52.51138037646888 41.86509585613385,52.379731739871204 42.711950190830976,51.85313622893591 43.67978371609934,51.64249759238737 43.90157889900729,51.64249759238737 44.4459852570435,51.82680641289335 44.78875963052269,51.90579584951047 45.79691955272574,51.80047659302363 45.95822514034808,51.82680641289335 46.05904113256838,52.16909372077498 46.01871473575011,53.38025895798637 45.65577716368716,54.407110045533045 45.595287568401545,54.67040425076266 45.73642995744012,55.35496737838548 45.8170827513095,56.566111137057305 45.393655583960935,57.38231210822414 44.687943638302386,58.11952270127949 44.50647485232912,58.198509371097316 44.204026875668205,58.22483825328527 42.107054237509146,58.0668649020954 40.19155038520694,57.51395707880147 39.20355366147123,57.355983102475875 38.29620973148849,57.46129910211312 36.985601832624525,57.85623355099233 36.40086907777004,58.35648260659946 35.39270915556699,59.541277444935986 34.3643860348966,60.56809331801196 33.7796532799257,61.06833482252841 33.17475732672028,61.48958974587731 32.38839258730877,61.963500354089774 31.743170237052254,62.200455189318745 31.25925347453449,62.332096629514126 29.303423225297593,62.621707458238234 27.811346540460363,63.25358400953701 27.206450587138534,63.64850572559226 25.532905116211623,65.25451176096976 24.585234789410606,65.9390345599968 23.960175637621433,66.72886531816039 23.5972380656749,67.54502012062585 23.43593247816898,68.62444497135584 23.43593247816898,69.67753613711102 23.556911668740213,70.1777522785851 24.12148122524377,71.07287242427992 24.585234789410606,71.70471925399033 25.855516291456297,72.91575280018151 26.641881030751392,73.33697994628164 27.9726521280827,73.91616565988807 28.436405692365952,74.28473741460766 29.18244403472636,75.12718430071254 29.726850392646156,75.5484062625037 30.251093552215025,75.75901687316946 31.239090276067145,75.94330095491023 32.08594461064786,76.23288984438113 32.9327989454614,76.65410921403964 33.67883728782181,77.23328423505882 34.06193805823568,77.70715331811516 34.64667081309017,78.73386537771148 35.211240369593725,80.33973657850584 35.63466753682587,81.07685297960415 37.14690742013045,82.65637794257782 37.32837620622013,82.78800439610495 37.6106609844137,82.84065495050163 38.41718892217614,82.89330548954604 39.30436965380795,82.8143296752678 40.07057119451929,82.63005264032108 41.240036704344675,82.49842607107712 42.87325577822048,82.57740202423884 43.498314930242486,82.70902853563894 44.808922828990035,83.44613521739666 45.53479797299951,83.73571201507002 45.95822514034808,83.81468742439756 46.86556907033082,83.86733767797705 47.71242340502795,83.81468742439756 48.43829854903743,83.63041141538997 50.07151762302965,82.65637794257782 50.41429199650884,82.55107671035512 51.09984074358363,82.55107671035512 52.18865345965605,82.78800439610495 53.7412197397789,82.76167911311495 54.66872686822899,82.99860652118514 55.27362282166723,83.23553361689846 55.63656039361376,83.49878557892225 55.85835557652172,83.81468742439756 55.878518774872646,84.10426362817816 55.77770278265234,84.49913951767667 55.61639719514642,84.73606463475153 55.112317234044895,85.15726407176408 54.93084844807163,85.49948788725305 54.9711748448899,85.84171105104906 55.4550916076405,86.78940256459464 55.57607079821173,86.92102599069767 55.83819237805437,87.0 56.281782743753865,86.89470131316921 58.37875538202934,85.94701035491016 58.74169295397587,85.84171105104906 59.3465889072977,85.81538621544314 59.54822089173831,85.68376197955513 59.79017927311361,85.39418832115189 60.29425923421513,84.6834146357578 61.02013437822461,83.34083444791031 61.262092759483494,82.70902853563894 61.48388794250786,81.84029177876073 61.56454073614441,81.18215507584682 61.50405114085879,77.91776139839203 61.56454073614441,77.07532759621972 61.58470393461175,74.23208435314882 61.72584632365033,73.38963327014062 61.7056831252994,72.75779236570816 61.58470393461175,72.36289067209873 61.28225595806725,71.86268061424198 60.39507522643544,70.91491036963998 59.95148486061953,70.28306076249282 59.70952647936065,69.62488172549638 59.66920008242596,68.80873637092009 59.81034247158095,68.09789707385062 60.15311684506014,67.46603755980323 60.53621761559043,67.07112423503713 61.56454073614441,66.28129498152703 62.048457498895004,65.80739576276392 62.31057907862123,65.41247879217553 62.43155826930888,65.12287246210326 62.51221106306184,64.54365840146784 62.41139507095795,63.72748996465816 61.7056831252994,62.46373797315755 61.060460775042884,61.594903322446044 60.99997117975727,61.30529083842703 60.97980798128992,60.41012202722777 60.919318386004306,60.199493423482636 60.818502393667586,60.06785042065894 58.217449794407,59.12001795320248 55.53574440139346,57.96154925740848 54.3259524947498,57.46129910211312 53.842035731999204,57.355983102475875 52.65240702382289,57.48762809240725 51.059514346765354,57.355983102475875 49.62792725721374,57.51395707880147 48.59960413654335,57.82990461475856 48.07536097697448,57.935220336628845 47.43013862683438,57.987878174331854 47.10752745170612,57.85623355099233 46.68410028424114,57.22433801605075 45.89773554506246,56.38180717876821 45.75659315579105,56.01319869495637 45.77675635437481,55.22332082562207 45.69610356062185,54.407110045533045 45.97838833881542,53.53823643042415 46.09936752950307,52.95898501900956 46.09936752950307,51.90579584951047 46.22034672019072,51.64249759238737 46.7042634828249,51.16855975697399 46.764753078110516,50.90526041931298 46.58328429213725,48.193254782425356 46.280836315476336,47.613986136057065 45.83724594966043,47.32435111228551 45.83724594966043,47.3770120604313 46.09936752950307,47.429672993166605 46.22034672019072,47.50866436328215 46.32116271229461,47.50866436328215 46.42197870463133,47.113707165408414 46.52279469673522,46.87673242989695 46.7042634828249,46.74507966400415 47.04703785630409,46.639757381766685 47.974544984754175,46.50810444218223 48.96254170848988,46.45544323930517 50.01102802762762,46.27112890774151 51.825715887593105,46.21846763542271 52.93469180201646,45.79717690104735 53.317792572430335,45.69185406304314 55.67688679054845,45.32322364383435 56.84635230014101,45.059915738369455 57.753696230240166,44.92826164093276 59.87083206686657,44.53329876958742 61.060460775042884,44.42797519064334 63.86314535886049,43.875025387606 64.18575653398875,43.664377395878546 64.26640932774171,43.506391240036464 64.28657252620906,43.29574281600071 63.742166168172844,41.057588055409724 63.45988138986286,40.24131290867808 62.854985436657444,39.267044167994754 62.048457498895004,38.31910194287775 61.78633591905236,38.08211560494965 61.56454073614441,37.97678824332252 61.060460775042884,37.89779268151324 60.637033607810736,37.924124539262266 59.850668868399225,38.08211560494965 58.51989777118433,38.26643833925482 57.995654611615464,38.424429103848524 56.90684189554304,38.845737129988265 56.36243553762324,38.97739568550605 55.4550916076405,38.81940540726646 54.12432051030919,38.47709266116726 52.69273342075758,37.950456393227796 51.70473669702187,37.371154715132434 50.051354424562305,36.00188877637265 48.88188891473692,35.2909196526889 48.21650336612947,34.52728301506431 47.692260206560604,34.158629683210165 45.11137080565095,33.23699304323236 44.1032108834479,33.10533028007194 43.29668294568546,33.10533028007194 38.659147303551435,33.5529832811153 36.098421101109125,33.5529832811153 34.16275405045599,33.81630805468012 30.15027755999472,33.97430273354985 29.64619759900961,34.053300020765164 29.06146484403871,34.26395928385318 28.09363131877035,34.553615366938175 27.145960991852917,34.711609397258144 24.585234789410606,34.60628005917533 22.831036524730735,34.658944735943805 20.935695871012285,35.00126475856814 19.7662303611869,35.317251892673085 19.100844812579453,35.55424187856261 18.637091248412617,35.81756371818483 17.689420921495184,36.6601910112804 16.882892983732745,37.50281435153738 16.29816022887826,38.37176553107565 16.076365045970306,38.845737129988265 15.713427473907359,40.79427389726334 15.773917069309391,41.13658222765662 16.237670633476228,41.66320915448887 16.41913941956591,41.952853306152974 17.044198571238667,43.40106705891958 17.467625738703646,44.98092329148494 17.58860492927488,45.1389081505622 17.770073715248145,45.24423131268122 19.504108781460673,45.29689287071233 21.883366197929718,44.92826164093276 24.020665233023465,44.77027659659507 25.532905116211623,44.77027659659507 26.68220742768608,44.87559997491189 27.9726521280827,44.77027659659507 28.57754808140453,44.822938293538755 29.847829583333805,44.612291413373896 31.400395863573067,44.77027659659507 32.46904538106173,44.95459246815881 33.69900048628915,45.349554413187434 34.86846599599812,45.79717690104735 35.17091397265904,46.00782239175169 35.312056361697614,46.35012078733416 35.372545957099646,46.797740781941684 35.251566766412,47.90362069269759 35.27172996487934,48.32490648709063 35.493525147787295,49.167475111738895 35.79597312444821,49.64141822645615 35.99760510888882,49.82572910003364 36.32021628401708,50.01003978450899 37.44935539690778,50.29967047808168 37.792129770386964,50.45765065962041 38.29620973148849,50.90526041931298 38.941432081745006,51.72148711002956 39.64714402728714,52.22175324865384 40.231876782141626,52.40606147487415 40.89726233086549,52.45872093339858 41.441668688785285,52.43239120604994 41.78444306226447,52.32707225829654 42.711950190830976,51.774146769195795 43.41766213637311,51.53717818144651 43.82092610525433,51.53717818144651 44.889575622742996,51.66882743542374 45.615450766752474,51.616167745392886 46.119530727854,51.48451845285308 46.482468299916945,51.273879384069005 46.62361068907194,51.036910136419465 46.64377388742287,50.74728063150542 46.44214190309867,48.245915475839865 46.42197870463133,47.40334252874891 46.58328429213725,47.008385099325096 46.764753078110516,46.82407133509696 46.9462218642002,46.718749099251 52.632243825355545,45.95516104216222 54.66872686822899,45.48120820187614 56.78586270485539,45.1389081505622 59.18528331979178,44.638622286875034 60.79833919531666,44.42797519064334 63.64135017595254,43.927687346949824 64.00428774801549,43.796032419704716 64.24624612927437,43.55905330744281 64.28657252620906,43.13775633588375 64.04461414483376,42.32149064185796 63.7220029697055,40.89959960686974 63.23808620707132,39.82000815574429 63.016291024163365,39.42503405248863 62.67351665056776,39.00372738507576 61.9476415066747,38.26643833925482 61.544377537677065,37.97678824332252 61.18143996573053,37.845128954344545 60.41523842490278,37.79246521179448 58.62071376328822,38.13477926263295 57.753696230240166,38.37176553107565 56.84635230014101,38.76674195032683 56.42292513290886,38.872068848853814 55.89868197333999,38.81940540726646 54.305789296282455,38.424429103848524 53.47909816005267,38.18744290486211 52.49110143631697,37.73980145370297 51.80555268912576,37.31849083361158 50.01102802762762,35.843895880985656 49.02303130389191,35.23825516128272 48.35764575516805,34.421953568889876 47.87372899253387,34.07963244218263 46.24050991854165,33.47398577378772 45.3331659885589,33.18432794950786 44.58712764608208,33.02633257585694 43.639457319281064,33.0 39.626980828819796,33.36865570988448 37.771966572036035,33.605648266675416 36.72348025278188,33.5529832811153 35.02977158350404,33.68464571608638 34.14259085210506,33.81630805468012 32.67067736550234,33.81630805468012 30.15027755999472,33.9479702966928 29.726850392646156,34.02696759554965" stroke="#4dd2ff" stroke-linecap="round" stroke-linejoin="round" stroke-width="0.5"><title>2024-10-02 15.0km</title><desc>12553125943</desc></polyline><polyline fill="none" points="187.0,81.16833772641257 185.30997001496144,81.33996608796588 184.81409295351477,81.35316825608606 183.8628185906564,81.45878553175862 183.23538230883423,81.4719876825402 182.6180659669917,81.53799840738793 181.69715142430505,81.604009084047 181.07983508246252,81.63041334115405 179.27848575712414,81.81524292493123 178.88380809593946,81.81524292493123 178.00337331334595,81.90765757492773 176.70802098949207,81.96046590388141 175.9692653673119,82.10568864925153 175.29122938535875,82.11889070545294 174.81559220392955,82.18490095737798 174.4310344827827,82.21130504464963 173.56071964016883,82.21130504464963 173.1761619190802,82.23770912415057 172.46776611695532,82.23770912415057 172.16416791605297,82.1981030019524 171.56709145428613,82.06608246910764 171.23313343327027,82.02647627162514 170.1199400300393,81.96046590388141 169.76574212894775,81.98687005678948 169.07758620689856,81.97366798128496 168.32871064468054,81.90765757492773 167.9745127436472,81.93406174327538 166.33508245879784,81.96046590388141 165.69752623687964,81.89445548783988 164.5742128935526,81.94726382455701 163.54197901050793,81.90765757492773 162.73238380812109,81.93406174327538 162.50974512746325,81.90765757492773 162.44902548729442,81.85484921510943 162.40854572714306,81.7756366174217 162.29722638684325,81.22114648779825 162.19602698652307,80.36300028827827 162.1251874063164,79.13517692682217 162.03410794603406,78.44864475810027 162.01386806601658,78.11857935720036 161.9632683658274,77.73570198041125 161.84182908548974,77.14157869831251 161.63943028490758,76.32300243865029 161.63943028490758,75.94011744688032 161.66979010496289,75.45160665149888 161.65967016492505,75.27996709589206 161.6191904048319,75.13473337081814 161.58883058466017,75.08192104923364 161.5382308845874,74.65942136447848 161.44715142436326,74.22371649355773 161.34595202398486,73.3919104460947 161.1941529235337,72.73174146121892 161.1435532234027,72.0187535350342 161.0625937031582,71.68866462519509 160.9816341829719,71.0812978774411 160.8804347825935,70.6587794688312 160.86019490257604,70.31548180567916 160.70839580212487,69.73451355547877 160.54647676163586,68.66499404478236 160.48575712146703,67.83313677569822 160.43515742127784,67.42380736883206 160.36431784107117,65.8524933748995 160.31371814094018,65.41674599439284 160.30359820090234,65.08663294206053 160.0809595202445,63.99064895056654 160.01011994003784,63.845397061435506 159.9190404797555,63.80578286929085 159.76724137936253,63.818987601924164 159.4940029985155,63.937830108829075 159.413043478271,63.937830108829075 159.30172413797118,63.885011236219725 158.42128935531946,63.132338942690694 157.64205397304613,62.59093920156738 156.8628185907146,61.89107618734852 156.54910044983262,61.65338562729448 155.89130434783874,61.08556675569707 155.5573463268811,60.76864304152696 155.39542728639208,60.58377036101592 155.17278860573424,60.227229122130666 154.80847076466307,59.54055313808931 154.7072713643429,59.316061779434676 154.64655172411585,59.078364438100834 154.6566716642119,58.774639146533445 154.59595202398486,58.45770731777884 154.56559220392955,58.378474186727544 154.55547226389172,58.418090760940686 154.26199400308542,58.523734873873764 153.9381559221074,58.53694037930836 153.624437781109,58.6161733712579 153.4321589205647,58.642584353154234 152.84520239883568,58.65578984114836 152.14692653674865,58.70861177399638 151.651049475302,58.76143367586337 151.28673163423082,58.74822820326517 151.013493253442,58.76143367586337 150.17353823088342,58.86707738695259 149.58658170915442,58.89348829539085 147.92691154428758,59.038748153689085 147.4816341829719,59.05195358375204 146.3684407796245,59.17080236745096 146.28748125938,59.157596954777546 146.22676161921117,59.11798070511577 146.16604197904235,59.10477528467891 145.84220389812253,59.17080236745096 144.3444527736283,59.23682940185972 142.84670164925046,59.3952940874442 142.48238380812109,59.527347779519914 142.11806596704992,59.69901729042613 141.91566716646776,59.83107053818094 141.77398800605442,59.93671299723064 141.57158920541406,60.14799754443811 141.06559220392955,60.78184821848117 140.50899550231406,61.323258811054984 140.34707646182505,61.44210460400063 140.24587706150487,61.48171983352222 140.16491754126037,61.48171983352222 140.07383808097802,61.42889952364203 140.0131184408092,61.36287409275246 139.89167916047154,61.11197701498895 139.65892053977586,60.742232681768655 139.60832083964488,60.62338596727932 139.57796101953136,60.47812865931337 139.56784107949352,60.17440807805542 139.77023988007568,59.2632402021045 139.78035982017173,58.98592641407595 139.75,58.78784461522446 139.6690404797555,58.58976238168543 139.54760119947605,58.378474186727544 139.13268365821568,57.771017870916694 139.11244377814,57.65216724395577 139.13268365821568,57.18996887355752 139.09220389806433,57.01829459025612 139.0314842578955,56.8730314801287 138.92016491759568,56.68815081999492 138.6874062969,56.46365236637939 138.62668665667297,56.384417484696314 138.5558470764663,56.13350656716648 138.49512743629748,55.75053592714539 138.4445277361665,55.592064842086984 138.3939280359773,55.51282919522055 138.3129685158492,55.43359347880323 137.95877061475767,55.26191585457127 137.58433283364866,55.03741385320609 137.0378560720128,54.931765659333905 136.63305847084848,54.918559626399656 136.43065967020812,54.85252943273372 136.2687406297191,54.746881022438174 136.0562218890991,54.50917164704879 135.69190404796973,54.205430978443474 135.6008245877456,54.112987963380874 135.40854572714306,53.70359632977488 135.36806596704992,53.558327884391474 135.3377061469946,53.32061537838308 135.16566716646776,53.13572744085832 134.94302848580992,52.63388684392703 134.82158920547226,52.22448850064393 134.77098950528307,51.867914236790966 134.67991004500072,51.61699076210061 134.44715142436326,51.14155489677796 134.37631184409838,51.075521939608734 134.10307346330956,50.917042645254696 134.00187406298937,50.78497635405802 133.8500749625382,50.401983016578015 133.64767616195604,49.96616103471024 133.40479760128073,49.34544124510285 133.3440779610537,49.16054516330041 133.25299850077135,48.84357957026805 133.161919040489,48.579440725647146 133.0809595203027,48.2492660826465 133.0,47.56249895554356 133.03035982017173,46.4530948630927 133.07083958020667,45.805936177115655 133.1821589205647,44.88141571733286 133.22263868071605,44.30028372291417 133.3137181409984,43.50782497171167 133.38455772120506,42.38516316059395 133.48575712146703,41.61910355440341 133.58695652178722,41.1039908519233 133.66791604203172,40.40396118359786 133.74887556227623,39.902049776530475 133.7691154422937,39.59825993698905 133.74887556227623,39.069927345022734 133.75899550231406,38.885010206919105 133.8500749625382,38.26421418588143 133.92091454280308,37.97362734669878 134.00187406298937,37.88116770161287 134.1435532234027,37.81512503998965 134.49775112443604,37.762290875856706 134.9126686656964,37.762290875856706 136.19790104951244,37.81512503998965 136.6937781109591,37.81512503998965 137.5438530734973,37.88116770161287 137.98913043487119,37.86795917317795 138.93028485757532,37.894376228134206 139.64880059973802,37.960418831789866 140.37743628188036,37.98683585969411 141.33883058471838,37.98683585969411 142.94790104951244,38.05287839566881 143.81821589212632,38.13212937501521 144.33433283364866,38.09250389404042 144.49625187407946,38.118920883280225 144.6682908546063,38.184963322572 144.7188905547373,38.211380284730694 144.75937031488866,38.29063112485892 144.80997001501964,38.5812169430792 144.83020989509532,38.89821858651703 144.77961019496433,39.6775095589619 144.77961019496433,39.968090910682804 144.70877061475767,40.40396118359786 144.73913043481298,40.536042668776645 144.80997001501964,40.61529146706016 145.03260869567748,40.68133207916253 145.04272863571532,40.72095642320346 145.03260869567748,40.77378885488724 145.0933283358463,40.68133207916253 145.16416791605297,40.65491584013216 145.32608695654199,40.66812396063324 145.49812593712704,40.734164534042065 145.58920539735118,40.80020505913126 145.7814842579537,41.051158613590815 146.02436281862902,41.196447194568464 146.11544227891136,41.275695412834466 146.2065217391937,41.407775621941255 146.22676161921117,41.52664764485962 146.22676161921117,41.61910355440341 146.19640179909766,41.71155936925061 146.09520239883568,41.85684688684705 145.96364317840198,41.922886590182316 145.700524737651,41.98892624527798 145.58920539735118,42.028550015100336 145.31596701656235,42.33233167243452 145.1945277361665,42.53044959358522 145.15404797601514,42.702151440076705 145.12368815595983,43.27008598922839 145.12368815595983,43.838016963803966 145.02248875563964,44.32669889475801 145.03260869567748,44.48518976343621 145.13380809599767,44.63047281521722 145.275487256411,44.72292554454907 145.47788605699316,44.80217066575278 145.86244377814,44.84179320021212 146.02436281862902,44.88141571733286 146.4696401799447,45.15877284983435 146.87443778116722,45.33046969514544 147.16791604203172,45.422921707278874 147.41079460270703,45.40971428278863 147.65367316344054,45.317262257114635 148.05847076466307,45.07952804181696 148.23050974518992,45.00028316423413 148.65554722642992,44.8682082135856 149.28298350825207,44.73613306956395 149.43478260870324,44.64368035377265 149.69790104951244,44.41915193531895 150.00149925035657,43.99650869087054 150.09257871063892,43.79839398855984 150.09257871063892,43.63990191355697 150.0318590705283,43.32291692838044 150.02173913049046,43.138008506110054 150.0318590705283,42.9530997049369 150.0622188905836,42.860645162254514 150.10269865067676,42.78139833595196 150.20389805099694,42.67573579265445 150.9122938531218,41.975718318142754 151.2057721139863,41.65872748661786 151.3069715142483,41.460607651475584 151.3373313343618,41.31531949586497 151.34745127439965,41.15682305931841 151.3069715142483,40.971910198139085 151.2563718141173,40.866245535849885 151.18553223391064,40.77378885488724 150.98313343327027,40.61529146706016 150.3253373313346,40.27187950505322 149.9812593703391,40.139797633179114 149.82946026988793,40.12658943534916 149.4752623688546,40.166214023003704 148.97938530740794,40.166214023003704 148.81746626691893,40.1926304051085 148.69602698652307,40.23225496379746 148.5948275862611,40.311504028933996 148.53410794609226,40.40396118359786 148.48350824590307,40.549250806638156 148.45314842584776,40.77378885488724 148.4126686656964,40.89266171302006 148.17991004500072,41.31531949586497 148.12931034486974,41.447399647004204 148.0685907046427,41.88326277397573 148.0685907046427,42.29270803598047 148.09895052475622,42.41157889307942" stroke="#4dd2ff" stroke-linecap="round" stroke-linejoin="round" stroke-width="0.5"><title>2024-09-28 11.2km</title><desc>12519663855</desc></polyline><polyline fill="none" points="34.43190661468543,104.28645429307653 34.96674920397345,104.54124130650598 35.48249027237762,104.65705347451149 35.8263176510809,104.79602798451378 36.552175450953655,105.00448956243054 36.91510435089003,105.16662618999544 37.7555712768808,105.25927563046571 38.27131234516855,105.42141204459767 38.61513972398825,105.56038600562897 38.787053413456306,105.67619756360364 38.920764060807414,105.88465819328849 38.95896710292436,106.13944310239458 38.920764060807414,106.5795253370743 38.90166253980715,107.7144696390169 38.691545808222145,108.71043568538153 38.63424124510493,109.35896895981568 38.50053059775382,110.12330895723426 38.44322603463661,111.65197989494482 38.34771842940245,112.2773417980934 38.3095153872855,113.06483169022249 38.156703218934126,114.06077019985241 38.09939865581691,114.94089763984084 37.908383445232175,116.90958926502208 37.81287584011443,117.44229061491205 37.831977361114696,117.67389944018214 37.736469755880535,119.73520577361342 37.488149982295,121.42592379263078 37.488149982295,121.93545235402416 37.52635302429553,122.5839413102949 37.488149982295,122.72290294681443 37.335337813943624,123.07030660154123 37.25893172970973,123.74195189905004 37.087018040241674,125.45579485484632 37.01061195600778,127.37806011320208 36.9342058718903,128.09600971041073 36.9342058718903,128.42024413947365 36.89600282988977,129.06871136803238 36.781393703538924,130.27300188559457 36.47576936671976,131.87099119686172 36.3802617614856,133.1447413435235 36.1128404668998,134.53427739845938 35.998231340548955,135.2985179767129 35.73081004596315,136.87330722925253 35.50159179326147,137.96175701892935 35.367881146026775,138.8186174412258 35.23417049867567,139.21230879607901 35.08135833032429,139.907056292388 35.00495224620681,140.6944337739842 34.48921117791906,142.75549495867745 34.29819596745074,143.7512807023013 34.183586841099896,144.42285424197325 34.183586841099896,144.49232723377645 34.29819596745074,144.51548489215202 34.412805093685165,144.51548489215202 34.60382030415349,144.44601190865797 34.75663247250486,144.21443511689722 35.08135833032429,142.7786528248107 35.11956137244124,141.69023012000252 35.25327201979235,141.2039116142696 35.29147506179288,140.5786431687011 35.40608418814372,140.1617964163015 35.5588963564951,139.05020068815793 35.73081004596315,138.21649970280123 35.8263176510809,137.42911214185006 35.96002829854842,136.73435575178883 36.17014503001701,135.97012084248126 36.30385567736812,135.32167673509684 36.49487088783644,134.32584762612532 36.66678457718808,133.02894622203894 36.81959674553946,132.51944686438947 37.04881499824114,130.87514433448086 37.14432260335889,130.527754688781 37.354439334827475,129.62453869183082 37.39264237706084,129.25398731995665 37.56455606641248,128.46656329926918 37.69826671376359,126.8917056471837 37.71736823488027,126.08111215449753 37.77467279799748,125.50211472410592 37.81287584011443,125.0852355017123 37.908383445232175,124.73783546376217 37.88928192423191,124.41359486576403 37.965688008465804,123.85775257687783 37.98478952946607,123.23242809364456 37.965688008465804,122.53762074261613 38.137601697817445,121.19431945760152 38.194906261051074,120.01313303777715 38.194906261051074,119.22567141937907 38.25221082416829,118.947743024386 38.32861690828577,118.80877867717936 38.34771842940245,118.554010448177 38.42412451363634,118.3687242527958 38.34771842940245,118.27608108859567 38.32861690828577,118.18343788002676 38.32861690828577,117.7433820337028 38.36681995051913,117.55809506223886 38.48142907663714,117.3033251867746 38.40502299251966,117.1180377939163 38.42412451363634,116.19159816889442 38.50053059775382,115.07986476448423 38.519632118870504,114.45451191782195 38.691545808222145,112.74057153452304 38.72974885033909,111.95308032278263 38.88256101869047,110.54022041059216 39.016271666041575,109.79904387252463 39.07357622915879,108.80308342911303 39.28369296074379,107.66814551211428 39.37920056586154,106.67217410099693 39.45560665009543,106.30157877905003 39.570215776446275,106.09311859843729 39.70392642368097,106.00046955725702 39.91404315514956,105.9309827472025 40.2960735760862,105.95414501993218 40.96462681284174,106.11628085182747 41.53767244424671,106.20892983756494 42.39724089135416,106.44055210794613 43.390519985812716,106.64901191418176 45.62539794843178,106.99644442558929 46.44676335330587,107.08909298994695 46.96250442159362,107.2049036329845 47.91758047393523,107.34387631312711 48.758047400042415,107.43652471115638 49.44570215779822,107.39020051773696 50.01874778920319,107.43652471115638 51.41315882548224,107.45968680373335 52.330031835706905,107.59865930088563 53.47612309863325,107.80711785952735 55.13795542973094,107.9229280728614 56.207640608306974,108.08506225512247 57.964980544755235,108.10822427002131 58.5380261761602,108.22403430312988 61.288645206950605,108.61778789731034 63.23700035363436,108.61778789731034 64.21117792709265,108.73359762546897 64.76512203738093,108.71043568538153 65.56738592137117,108.80308342911303 66.69437566318084,108.77992149736383 66.86628935253248,108.75675956279156 66.92359391564969,108.71043568538153 67.0,108.43249218809069 66.96179695776664,108.20087230208446 66.88539087364916,108.15454829159717 66.789883268415,108.1313862822135 65.37637071101926,108.17771029824507 62.20551821717527,108.08506225512247 61.95719844347332,108.061900237386 61.689777148887515,107.9229280728614 61.38415281206835,107.8766039958864 60.75380261754617,107.9460901072016 59.779625044204295,107.89976603575633 58.767244428629056,107.78395580856886 58.15599575510714,107.80711785952735 55.30986911908258,107.48284889351635 55.06154934549704,107.36703841682174 54.54580827720929,107.41336261581455 54.01096568792127,107.34387631312711 53.22780332504772,107.32071420672582 50.649097983608954,106.9501201267849 49.8659356207354,106.9269579732354 48.777148921159096,106.78798499361437 48.24230633163825,106.78798499361437 47.68836222134996,106.64901191418176 47.019808984710835,106.62584972461627 45.64449946931563,106.39422767602082 44.899540148559026,106.3479032330506 43.35231694369577,106.09311859843729 42.60735762293916,105.88465819328849 40.08595684461761,105.35192502661084 39.79943402891513,105.18978855431487 39.70392642368097,105.07397670522914 39.03537318704184,104.98132717599219 38.6533427661052,105.00448956243054 38.40502299251966,104.95816478681809 37.106119561358355,104.54124130650598 36.81959674553946,104.42542906932067 34.37460205156822,103.75371672616166 32.3880438626511,103.05883943469962 32.15882561018225,102.9198636769579 31.10824195249006,102.50293580480502 30.668906968436204,102.38712234757259 30.172267421265133,102.17865794982936 29.541917226742953,101.85437955138332 29.007074637454934,101.66907736538269 28.567739653401077,101.4606121940451 27.937389458762482,101.22898396248638 27.459851432591677,100.99735545359727 26.905907322186977,100.78888955860748 26.46657233813312,100.58042343890702 25.893526706728153,100.3719570946705 25.664308454142883,100.25614236191905 23.582242659991607,99.37594812760653 22.321542270947248,98.91268639598275 19.437212592805736,97.68503744291957 18.78776087728329,97.49973126391706 18.272019808995537,97.19860834455176 17.527060488122515,96.94381166211679 16.018040325376205,96.29523677463294 15.005659709917381,95.90145810361719 14.776441457332112,95.83196766674519 14.337106473278254,95.80880418219022 13.267421294702217,95.5076786311547 13.114609126234427,95.48451510786253 13.0,95.577169184573 13.0,95.64665971294744 13.07640608411748,95.71615021646721 13.534842589288019,95.78564069488493 14.642730809981003,96.17941960165626 15.292182525619864,96.48054410718032 15.922532720142044,96.89748495660024 17.83268482494168,97.68503744291957 18.84506544028409,98.00932282903523 20.124867350561544,98.61156567567377 20.583303855615668,98.79687078976713 21.442872302723117,99.07482812825765 22.569862044532783,99.58441554497404 23.37212592852302,99.8623717520968 25.492394764674827,100.76572666749416 26.218252564547583,100.99735545359727 27.135125574772246,101.41428656996868 27.918287937762216,101.66907736538269 29.102582242689095,102.2018206717621 30.70711001055315,102.8272131163103 31.547576936660334,103.22097769258835 32.23523169429973,103.45260353958292 32.86558188893832,103.73055419001321 33.686947293928824,103.96217942700605 34.45100813580211,104.26329182062182 35.48249027237762,104.54124130650598 36.647683056187816,104.98132717599219 38.29041386616882,105.35192502661084 38.748850371455774,105.51406136307924 38.93986558180768,105.72252216744528 38.97806862392463,105.83833362838777 39.016271666041575,106.11628085182747 38.93986558180768,106.8111471637967 38.80615493445657,107.66814551211428 38.76795189245604,108.20087230208446 38.6533427661052,109.01154069023323" stroke="#4dd2ff" stroke-linecap="round" stroke-linejoin="round" stroke-width="0.5"><title>2024-08-18 10.0km</title><desc>12174630002</desc></polyline><polyline fill="none" points="140.75421862350777,104.77027659518353 141.72205257439055,104.84926913469099 144.28277990256902,104.77027659518353 145.69420441426337,104.53329876820499 146.3394270481076,104.48063698635087 147.95248363283463,104.48063698635087 150.15027322957758,104.32265154841298 151.07778076583054,104.40164428483695 152.025451509282,104.55962965328945 153.3562231916003,105.24423131122603 154.50552600831725,105.66552334238077 154.9491165690124,105.90249967570708 155.11042222753167,106.16580634612183 155.1709118495928,106.5607656279899 155.1709118495928,107.00838509769528 155.09025902021676,107.61398613435449 155.11042222753167,108.03527260792907 155.27172788605094,108.82518208278634 155.4733599590836,109.24646571591438 155.83629769063555,109.72040862217546 156.179072214989,109.9573796063487 156.7234788122587,110.1680202189309 157.65098634839524,110.29967047617538 157.95343445811886,110.45765065771411 158.19539294589777,110.6682906835922 158.98175803082995,111.69515727275575 159.48583821358625,112.06377461657394 159.74795990868006,112.16909371878137 160.43350895715412,112.32707225624472 161.50215894449502,112.24808300494624 161.76428063958883,112.16909371878137 162.6917881758418,111.66882743348833 163.2966843949398,111.43185870684101 163.69994854123797,111.37919894741208 164.5669664554298,111.53717817949655 165.71626927214675,111.64249759042286 165.83724851591978,111.72148710815236 165.8977381378645,111.90579584760417 165.95822775980923,112.59036951005692 165.91790134517942,113.30127016766346 165.81708530860487,113.77520237653516 165.65577965020202,114.3281217066833 165.6356164428871,114.5124277719151 165.69610606471542,115.77623569668503 165.77675889397506,116.22383220477786 165.77675889397506,116.38180717662908 165.2928419187665,117.25066703892662 164.64761928480584,117.96154925522569 164.50647683360148,118.04053599458712 163.61929571197834,118.11952269912581 162.83293062692974,118.09319380141096 161.64330139569938,117.90889140976651 160.937589139794,117.61927298370574 160.25204009131994,117.43497010586725 159.26404293312225,117.27699606009992 158.41718822624534,117.40864110790426 157.06625333661214,117.77724672853947 156.70331560494378,118.0142070853035 155.99760334915482,118.64609984205163 155.25156467873603,119.4096339577809 154.082098654937,120.69973595207557 152.75132697250228,121.70021683510276 151.98512509465218,122.09514196567761 151.21892321691848,122.27944006287726 149.9889675710583,122.46373797098931 149.484887388302,122.5953792182554 148.79933833971154,122.8060050131462 147.9121572182048,123.200927713071 147.28709779167548,123.59584954484308 146.5813855358865,124.14873865095433 145.65387799963355,125.07021671351686 144.42392235377338,126.04434552634484 144.12147424416617,126.43926110801112 143.91984217101708,126.75519294834521 143.7182100979844,127.15010696747049 143.51657802495174,127.70298513599846 143.4359251956921,128.33484381675953 143.45608840300702,129.46691839587584 143.51657802495174,129.99346228134527 143.6778836833546,130.44102337077493 144.12147424416617,131.04654542302887 144.86751291458495,131.88900749232562 145.53289875586051,132.5208514519909 146.0571421458153,132.9420795240294 146.68220157234464,133.28432660542603 147.6097091085976,133.60024640958 147.871830803575,133.75820610340452 148.73884871788323,134.5480024892895 149.34374493721407,135.15351070082397 149.7066826686496,135.41677450407587 150.06962040031794,135.54840626106306 150.9568015219411,135.75901687171427 152.0456147165969,136.10125858745596 152.8521430089604,136.52247826573148 153.3158967770869,136.9173708173912 153.8401401671581,137.4438928694144 154.58617883746047,138.52325825285516 154.98944298375864,139.41833682371362 155.2112382641062,140.28708529032883 155.4733599590836,140.7346207399678 156.03792976378463,141.39275908224226 156.5016835317947,141.73499006748898 157.0259269218659,142.39312474563485 157.34853823890444,142.6037273335678 157.97359766543377,142.7090285349259 158.5784938846482,142.68270324035257 159.22371651860885,142.630052639739 160.332692920696,142.41945008258335 162.2280344077153,142.31414871154993 163.33701080968603,142.5774020235258 163.69994854123797,142.7353538256575 164.48631362628657,143.18288317760744 165.65577965020202,143.60408625530545 166.07920700369868,143.6830617224332 167.20834661298431,143.60408625530545 167.79307962500025,143.49878557844204 168.13585414923728,143.52511075347138 168.35764942958485,143.47246039952734 168.92221923416946,143.20920839885366 170.0513588435715,142.55107670970028 170.5352758190129,142.36679940477188 171.14017203822732,142.39312474563485 171.72490505012684,142.5774020235258 172.128169196425,142.6563779420103 173.01535031793173,142.55107670970028 174.00334747612942,142.68270324035257 175.07199746358674,142.97228126843402 175.495424816967,143.20920839885366 175.71722009743098,143.49878557844204 175.83819934120402,143.89366279853857 175.8180361338891,144.1305887139606 175.7575465120608,144.36751431718585 175.57607764622662,144.65708963004 175.05183425627183,145.15726407144393 174.97118142689578,145.34153851466544 174.93085501238238,145.57846252112358 174.9510182196973,145.7890613757918 175.41477198782377,146.73675316710433 175.5559144389117,146.89470131312555 175.7575465120608,147.0 176.10032103629783,146.97367533408396 176.3019531093305,146.89470131312555 176.5439115971094,146.78940256459464 177.12864460912533,146.3682069532515 178.54006912070327,145.7890613757918 178.82235402299557,145.736411685255 179.1852917545475,145.7890613757918 179.4474134495249,145.68376197924954 179.6893719373038,145.47316300131206 180.09263608348556,144.9203395095974 180.35475777846295,144.4991395172401 180.5160634368658,144.1042636277125 180.7580219245283,143.70938687046873 181.2822653145995,142.4457754157629 181.40324455848895,142.0508950138028 181.56455021700822,141.12950403451396 181.5443870096933,140.7346207399678 181.5040605950635,140.31341093589435 181.5040605950635,139.28670790181786 181.5242238023784,138.36530274811957 181.62503983883653,137.4702189314994 181.56455021700822,136.10125858745596 181.60487663163804,135.54840626106306 181.60487663163804,134.33739045912807 181.66536625346635,132.8367725986609 181.62503983883653,132.5208514519909 181.38308135117404,131.99431497324258 180.4354106077226,130.99389141253778 180.11279929080047,130.59898584199254 179.87084080302157,130.2567336454522 179.74986155924853,129.99346228134527 179.60871910792775,129.49324562682887 179.62888231535908,128.86139101994922 179.74986155924853,128.20320677479322 180.07247287605423,127.51869260215608 180.57655305881053,126.91315866014338 181.262102107401,126.38660574724781 181.98797757050488,125.70208465345786 182.16944643633906,125.33349529183761 182.37107850937173,124.64897018566262 182.3307520947419,123.91178638524434 182.14928322890773,123.200927713071 181.86699832661543,122.64803569008654 181.46373418043368,122.06881365067966 181.040306826937,121.56857493189455 180.93949079036247,121.35794768633787 180.87900116841774,120.93669245424098 180.89916437584907,120.43645058322 180.81851154647302,120.1468362317828 180.7378587173298,120.01519319036743 180.55638985161204,119.88355005264748 178.6610483644763,119.19900418097677 175.35428236576263,117.6719309141481 174.225142756477,117.25066703892662 173.88236823223997,117.1716799523565 173.29763522022404,117.22433801395528 172.6322493791813,117.35598310032219 171.20066166017205,117.22433801395528 169.80940035590902,117.35598310032219 168.4987918806728,117.61927298370574 167.6721003811108,117.82990461266309 167.36965227150358,117.88256248125981 167.1680201983545,117.85623354889685 167.00671453995164,117.75091778073693 166.80508246680256,117.30332507741696 166.34132869867608,116.69775670369563 165.93806455249432,116.25016137637431 165.81708530860487,116.06585709395586 165.77675889397506,115.82889416730904 165.79692210140638,114.93369806802366 165.69610606471542,114.43343948134861 165.75659568677656,114.17014492883754 166.01871738175396,113.51190685933398 166.09937021089718,113.2486109561869 166.1195334183285,112.85366637790867 166.05904379638378,112.300742509673 166.03888058906887,111.82680641094339 166.05904379638378,111.69515727275575 166.1800230401568,111.5108483171789 166.54296077182516,111.19488966767676 166.66394001571462,110.95792031585006 166.62361360096838,109.03582402285247 166.56312397914007,108.19325478075189 166.54296077182516,107.24535965948598 166.56312397914007,107.08737665305671 166.6437768082833,106.90306296988274 166.80508246680256,106.69241852893902 166.9462249178905,106.61342679995869 167.40997868601698,106.4817738410784 168.35764942958485,106.40278201941692 170.3134805385489,106.13947569641459 172.6725757936947,105.7181847768079 175.37444557307754,105.40221593872411 177.330276682158,104.95459246667451 178.6408851571614,104.79660744551802 179.60871910792775,104.55962965328945 180.89916437584907,104.50696787929337 182.41140492400154,104.29632062853489 183.29858604550827,104.13833502848865 183.82282943557948,103.95401831947675 184.06478792335838,103.79603241830773 184.20593037456274,103.61171535804169 184.30674641102087,103.37473600266094 184.34707282565068,102.97976971566095 184.28658320370596,102.74278952657187 184.1252775453031,102.242496989551 183.8631558502093,100.74161101829668 183.45989170402754,99.89900287125784 183.1171171797905,99.34603912674356 182.45173133863136,98.50342443322006 182.22993605828378,98.26643833857088 181.48389738774858,97.79246521103778 181.16128607082646,97.71346956829075 180.65720588807017,97.68713767960435 180.13296249799896,97.73980145307723 178.49974270595703,98.08211560428026 177.8545200721128,98.29277014225954 176.8261964994017,98.7930736799899 176.46325876784977,98.89840056296089 176.12048424361274,98.87206884799525 175.17281350004487,98.63508323968563 174.12432672001887,98.29277014225954 173.27747201302554,97.95045639257296 171.92653712327592,97.16049909566937 171.74506825744174,97.0025072193821 171.66441542829853,96.81818318810838 171.72490505012684,96.6865230499825 172.00718995253555,96.47586662822869 171.56359939172398,96.6865230499825 171.40229373320471,96.6865230499825 171.20066166017205,96.63385896770342 170.11184846551623,95.79123155126581 168.84156640502624,94.97493247201783 168.70042395382188,94.81693867333524 168.37781263689976,94.31662406072428 168.2165069783805,94.15862968303554 167.6922635883093,93.84264051073114 166.8857352960622,93.52665078242717 165.99855417443905,93.39498823165195 165.21218908939045,93.13166284044564 164.52664004079998,93.0 163.86125419975724,93.0 161.03840517636854,93.28965812144452 156.9856005073525,93.63198075362016 155.1910750567913,93.63198075362016 154.1022618621355,93.73731066305481 153.3562231916003,93.6583132368105 152.63034772849642,93.68464571604272 151.0374543510843,93.8163080545637 150.10994681494776,93.78997559455456 149.62602983950637,93.89530541139538 149.04129682749044,94.15862968303554 148.21460532792844,94.44828593601414 147.3274242063053,94.6062800589716 146.09746856044512,94.63261239926214 144.08114782941993,94.47461829947133 142.83102897636127,94.52728301486059 141.3187884282088,94.76427404290007 139.16132524609566,95.36991636065068 138.7782243072288,95.5279096729355 138.37496016104706,95.76489938078157 137.62892149062827,96.44953455803625 137.36679979565088,96.7918511681346 137.02402527129743,97.10783515236108 136.82239319826476,97.34482277565985 136.47961867402773,97.87146081918036 136.0965177351609,98.50342443322006 135.77390641823877,99.58302379712404 135.65292717434932,100.50462787644938 135.65292717434932,100.87326818420843 135.69325358897913,101.03125665598782 136.17717056442052,101.55788389146619 136.49978188134264,102.16350330364367 136.6610875397455,102.63746489773621 136.84255640557967,103.0324319373758 137.00386206409894,103.55905330606038 137.4272894174792,105.16523894535203 137.77006394171622,105.5865311618254 138.09267525875475,106.19213699190004 138.25398091727402,106.40278201941692 138.4959394049365,106.58709621585149 138.85887713648845,106.82407133349625 139.5040997703327,107.06104613842035" stroke="#4dd2ff" stroke-linecap="round" stroke-linejoin="round" stroke-width="0.5"><title>2024-08-04 11.0km</title><desc>12056370003</desc></polyline><polyline fill="none" points="66.69774919614429,188.95180420314864 66.53697749192361,187.24007789210737 66.37620578776114,183.2206765931187 66.3569131832628,181.44164496720623 66.24115755627281,179.74647858502067 66.06752411575872,175.65941102601937 66.02893890673295,174.24943102563702 66.04180064308457,173.11638625861087 66.0032154340879,172.62958977924063 65.58520900318399,172.75548581666953 64.45980707395938,172.83102330641123 62.37620578779024,172.87298853551692 61.79099678454804,172.92334676987593 57.54019292604062,173.0660281937926 56.266881028946955,173.13317227040534 55.12861736334162,173.13317227040534 54.33118971058866,173.2087092626316 51.34726688102819,173.33460402854325 50.517684887425276,173.35138997644754 49.82958199357381,173.30942509746092 48.356913183262805,173.36817591942236 48.279742765269475,173.2758531721629 48.29903536976781,173.34299700310294 47.51446945336647,173.46889147418915 47.025723472674144,173.46889147418915 46.691318327968474,173.41014075542262 46.36977491961443,173.40174779067456 45.57877813503728,173.45210556067832 45.25723472665413,173.3849618575041 44.890675241156714,173.44371260206754 44.479099678457715,173.4604985180631 44.33762057876447,173.40174779067456 44.022508038557135,173.14156527443993 43.919614147918765,173.12477926513384 43.55948553053895,173.34299700310294 43.28295819935738,173.45210556067832 42.94855305465171,173.51924918523582 42.4726688102819,173.80460871243486 42.138263665605336,174.13193112731096 41.71382636658382,174.30818088450542 41.610932475858135,174.40050196967422 41.321543408354046,174.5263941190242 40.60771704179933,175.0215672249251 39.61736334403395,175.8944043222 39.48874598069233,176.02868577340632 39.42443729905062,176.23010736059587 38.903536977479234,176.56580843375923 38.18327974274871,177.5477227921947 38.01607717038132,177.87502384223262 37.765273311903,178.0764389445394 37.30225080385571,178.5883658123348 36.71061093246681,179.32687520965555 36.51768488745438,179.64577405495584 35.823151125398,180.47658113994112 35.7073954983789,180.560500378273 35.540192926011514,180.57728421122374 35.334405144676566,180.51854077446114 34.72990353696514,180.21643072073493 34.022508038557135,180.12411899800645 33.508038585219765,179.65416610586908 33.36655948552652,179.38561986702553 33.36012861735071,179.14224875188302 33.237942122184904,179.05832743824794 33.21221864951076,178.86530795080398 33.03215434082085,178.403736977034 33.06430868167081,178.386952507979 33.03215434082085,178.386952507979 33.00643086817581,178.10161578257976 32.79421221863595,177.6987850474252 32.52411575563019,177.58968456968068 32.093247588403756,176.50706088781953 31.990353697736282,176.15457434830023 31.874598070717184,175.45798743427076 31.91318327971385,174.47603729244292 32.144694533752045,172.19314804279202 32.215434083598666,171.58883861570575 32.292604501591995,171.44615351600441 32.26045016074204,171.2447151237211 32.414790996786905,169.68354358766373 32.4726688102819,169.38976999818988 32.59485530544771,169.29744084491176 33.03215434082085,169.26386657048715 33.41800643084571,169.33940866027842 36.897106109332526,169.45691837993218 38.15112540192786,169.46531192210023 38.569131832773564,169.5240666829959 39.102893890667474,169.49888607855974 39.41800643087481,169.55764080504377 39.61093247588724,169.5408537464864 39.67524115755805,169.49049254128477 39.73954983922886,169.5408537464864 39.765273311903,169.6415760241689 39.655948553059716,170.2207256871734 39.334405144676566,171.43776026380147 39.26366559485905,171.85742136960107 39.186495176836615,174.49282290621704 39.237942122184904,176.0454709326732 39.334405144676566,176.3140328131376 39.038585208996665,176.46509831817093 38.89710610930342,176.58259343586178 38.17041800642619,177.58129221664785 38.01607717038132,177.88341615227546 37.745980707375566,178.11000805947333 37.263665594829945,178.66389561909818 36.72347266881843,179.33526730724043 36.138263665605336,180.10733503245137 36.080385852081235,180.25839054559765 35.99035369773628,180.30035033975219 35.72025723470142,180.560500378273 35.55948553053895,180.57728421122374 35.36012861735071,180.53532461966824 34.72347266881843,180.21643072073493 34.1189710610779,180.16607889039005 33.99035369773628,180.12411899800645 33.533762057864806,179.7045183856426 33.36655948552652,179.46954070175707 33.199356913159136,179.35205149874673 33.102893890667474,179.20099359839878 33.038585208996665,179.03315102021588 32.87138263665838,179.06671957513026 32.344051446940284,179.31848311084468 32.28617363344529,179.41918821564832 32.30546623794362,179.56185347808787 32.97427652729675,181.07240507304596 32.96784565917915,181.17310709811863 32.8842443729809,181.22345804435463 32.81350482313428,181.3912942125462 32.768488745961804,181.72696507545334 32.78778135048924,181.93675836715556 32.9421221864759,182.35634264832697 32.92282958197757,182.59970012495614 32.83922829583753,182.73396587694515 32.427652733109426,183.0024964379918 32.32475884244195,183.15354432610548 32.0032154340588,183.30459181641345 31.74598070740467,183.65703441348887 30.588424437301,184.3870871896179 28.299035369738704,185.746471046823 27.565916398714762,186.04855197331563 27.50803858519066,186.0569430874384 27.366559485526523,185.9982052627056 27.19935691318824,185.9898141399717 26.176848874572897,186.11568085203544 25.26366559485905,186.12407195633568 24.74276527328766,186.19959183996616 24.453376205754466,186.19120074668535 24.260450160771143,186.2247651124053 23.983922829589574,186.18280965218582 23.405144694494084,186.24993837378497 23.070739549817517,186.19959183996616 22.74919614146347,186.19120074668535 22.52411575563019,186.08211642248352 22.06752411572961,185.34369400340074 21.7073954983789,185.01643557304124 20.569131832773564,183.30459181641345 20.254019292566227,182.63326659242375 19.48231511254562,181.47521211244748 18.987138263648376,180.64441949382672 18.196141479100334,179.4779327784745 18.13183279740042,179.31848311084468 18.17041800642619,179.31009101077507 18.163987138250377,179.28491470326844 18.138263665576233,179.31848311084468 18.15755627010367,179.3016989095122 18.118971061107004,179.29330680698695 18.17041800642619,179.4024040437871 18.080385852081235,179.33526730724043 17.295819935709005,178.09322350446746 16.993569131824188,177.740746714353 16.10610932475538,176.33921042492875 15.745980707375566,175.98672285367502 15.739549839228857,175.6678036603189 15.527331189688994,175.39084607977566 15.411575562699,175.13906530033637 15.122186495165806,174.75299929135872 14.967845659150044,174.46764448372414 14.832797427632613,173.96407371204987 14.819935691310093,173.60317860534633 14.569131832802668,173.31781807570223 14.247588424419519,172.87298853551692 14.157556270103669,172.47851416948106 14.073954983934527,172.30225878834972 13.752411575551378,172.10082340361623 13.675241157528944,172.10921655879065 13.630225080385571,172.0672507706986 13.392282958171563,171.3957939842876 13.450160771695664,171.3118613331062 13.392282958171563,171.32864787316794 13.360128617321607,171.28668151380043 13.0,170.32144677054384 13.186495176836615,169.85141353440486 13.42443729902152,168.5000465160265 13.437299035373144,166.71216418564654 13.385852090024855,166.06582680529755 13.585209003213095,165.42787627145663 13.700964630203089,165.19284007478564 13.829581993573811,165.08371579877348 14.13183279740042,164.9745913150473 14.504823151131859,164.74794749284774 15.508038585190661,163.9337011841235 15.90675241156714,163.66508130820512 16.53697749195271,163.43003788425267 17.186495176836615,163.2873324781176 17.173633440514095,163.69026447501528 17.0,163.9672785801049 17.032154340820853,164.1435595864059 17.102893890667474,164.26947425904655 17.7073954983789,164.28626286116923 18.144694533752045,164.3366286380333 18.54340836009942,164.45414861197787 18.639871382620186,164.53809130300215 18.639871382620186,165.12568669874236 18.993569131824188,166.8128914328081 18.922829581977567,167.6690658886546 18.92926045015338,168.3321726126087 18.839228295808425,168.50844019829674 18.549839228275232,168.7014945513074 18.54340836009942,168.91972912415076 18.710610932466807,169.07081411105173 18.92926045015338,169.1547500428569 19.03858520902577,169.11278209230295 19.27652733118157,168.92812274497192 19.379421221849043,168.90294187880863 19.450160771695664,168.92812274497192 19.527331189718097,169.04563330755263 19.70096463020309,169.5240666829959 19.964630225062137,169.9101678996485 19.990353697765386,169.89338094428967 19.964630225062137,169.92695485007062 20.45337620578357,170.55646194368455 20.98713826367748,170.87540956646262 21.045016077143373,170.95934285652766 21.045016077143373,171.06845594993138 20.935691318300087,171.21953527490405 20.4726688102528,171.4125804997857 20.234726688097,171.59723184581162 20.215434083569562,171.74830977755846 20.569131832773564,172.14278916712283 20.562700964597752,172.27707940395703 19.327974276529858,173.59478566885082 19.115755626989994,173.9305021700311 18.781350482284324,174.35014503253478 18.414790996786905,174.6606787736855 18.112540192902088,174.83692690572934 16.78778135048924,175.46638009803792 16.717041800613515,175.47477276060818 16.710610932466807,175.3740607288746 16.742765273316763,175.3740607288746 16.241157556243706,175.86922651510395 15.900321543420432,176.0706486624149 15.861736334394664,176.14618178524324 15.977491961413762,176.18814458829002 16.080385852081235,176.2888551902579 17.019292604498332,177.74913904405184 17.27652733118157,178.03447752321517 17.482315112516517,178.34499131385382 18.163987138250377,179.43597238259827 20.279742765269475,182.66683304023172 20.569131832773564,183.27941726229983 20.884244372980902,183.75773190059772 21.03858520902577,183.9423435011231 21.25723472671234,183.93395207761932 21.08360128616914,183.95912634441993 21.032154340820853,183.91716922694104 21.17363344048499,184.1689114714536 21.74598070740467,185.0667831454084 22.118971061048796,185.4192149145092 22.543408360128524,186.07372531201327 22.639871382620186,186.14085416128364 22.813504823163385,186.19120074668535 23.456591639871476,186.2247651124053 24.04180064308457,186.17441855646393 24.331189710617764,186.21637402280612 24.5305466237769,186.16602745952332 24.78778135048924,186.18280965218582 25.379421221878147,186.11568085203544 26.337620578764472,186.11568085203544 27.315112540178234,185.98142301599728 27.463022508018184,185.9982052627056 27.463022508018184,186.03176974135567 27.565916398714762,186.06533420033884 28.350482315116096,185.71290640124425 31.61093247588724,183.73255754537968 31.810289389046375,183.581511182143 32.01607717043953,183.27941726229983 32.29903536976781,183.1451527871941 32.48553054660442,182.9437554851902 32.8842443729809,182.67522464910508 32.93569131830009,182.53256713108203 32.9421221864759,182.35634264832697 32.77491961416672,181.894799770198 32.75562700961018,181.70178982889774 32.80064308681176,181.3912942125462 32.948553054680815,181.15632343953985 32.9421221864759,181.05562138500682 32.26045016074204,179.52828521298215 32.78135048231343,179.26813049211705 33.102893890667474,179.20938571440274 33.42443729905062,179.52828521298215 33.572347266890574,179.72969450894743 34.022508038557135,180.12411899800645 34.74919614146347,180.21643072073493 35.38585208999575,180.5269326976886 35.55948553053895,180.560500378273 35.72668810287723,180.54371654045462 35.83601286172052,180.46818920936494 36.0610932475829,180.22482268815293 36.17041800642619,180.04019912114381 36.58199356915429,179.52828521298215 36.74276527331676,179.25973838470964 37.32797427652986,178.54640476558416 37.758842443698086,178.05126209542505 38.00964630226372,177.84984690470446 38.18327974274871,177.51415334812555 38.95498392282752,176.49866837636364 39.46302250804729,176.18814458829002 39.75241157558048,176.43152824032586 39.83601286172052,176.46509831817093 39.91961414788966,176.45670580054139 40.53697749195271,175.97833026605076 41.2379421221558,175.51673605495307 41.95176848873962,175.16424342800747 42.59485530547681,174.9292471396293 44.434083601256134,174.5599653121717 45.057877813495,174.5012157112542 47.01929260449833,174.03121673712667 48.13826366557623,173.96407371204987 48.67202572347014,173.89693060837817 51.7073954983789,173.82978742606429 53.14790996783995,173.76264416513004 54.72347266881843,173.75425125200127 54.72347266881843,173.7206795871316 55.41800643087481,173.6367503390029 57.67524115755805,173.59478566885082 59.70096463023219,173.51924918523582 64.75562700966839,173.2842461553446 65.55305466236314,173.26746018777703 65.69453376205638,173.29263913729665 65.75241157555138,173.41014075542262 65.823151125398,174.85371241384564 66.01607717041043,179.8639669799959 66.00964630226372,180.7954735923522 66.03536977493786,180.81225735652697 66.13826366557623,182.30599269664526 66.18327974277781,184.60526207789007 66.28617363344529,186.18280965218582 66.32475884244195,188.62456635747367 66.38263665596605,188.97697626779336 67.0,196.71266752188603" stroke="#ff0000" stroke-linecap="round" stroke-linejoin="round" stroke-width="0.5"><title>2024-05-01 33.3km</title><desc>11306235000</desc></polyline><polyline fill="none" points="168.42675159242935,200.61276372059365 168.73449547437485,200.73093814583262 168.95172645000275,200.92001704605354 169.11464968160726,201.27453938670806 169.18706000666134,201.58179145175382 169.1508548441343,201.77086935473199 169.11464968160726,201.88904293163796 168.9155212873593,202.2199284862727 168.44485417369287,202.64535177365178 168.33623868599534,202.83442843012745 168.3181361046154,202.95260122789477 168.35434126725886,203.23621558952436 168.71639289299492,204.01615251279145 168.87931612471584,204.18159319357073 169.0603419377003,204.22886192837905 169.24136775056832,204.22886192837905 169.4404961449327,204.18159319357073 170.4361381160561,203.70890508400043 171.5766007375205,203.30711910191167 171.8119342942955,203.23621558952436 172.21019108279143,203.23621558952436 172.37311431451235,203.1653120458359 172.75326852162834,202.763524709997 173.1515253102407,202.17265916288306 173.4773717734497,201.60542620171327 173.89373114320915,200.73093814583262 174.05665437481366,200.2582399256935 174.25578276906163,199.33647441258654 174.29198793158866,199.0292180711258 174.25578276906163,198.201986550921 174.27388535044156,197.18566773321072 174.32819309423212,196.47660430108954 174.36439825687557,195.55481717990187 174.27388535044156,193.40396007998788 174.38250083802268,192.17488600400975 174.38250083802268,191.39489182944817 174.3100905129686,191.06398407042434 174.05665437481366,190.61489388324844 173.1515253102407,189.57489075472404 172.77137110300828,189.00761349480308 172.5722427087603,188.5585175825545 172.53603754611686,188.36942419278785 172.53603754611686,188.10942042003444 172.62655045255087,187.4712275644124 172.78947368415538,187.0930380140635 172.9523969158763,186.78575835149968 173.13342272886075,186.5730259345437 173.65839758643415,186.10028622564278 174.56352665100712,185.43844830563467 174.78075762663502,185.1548026514938 174.9074756957125,184.89479369699256 174.97988602076657,184.65842155649443 175.070398927317,184.06748968987085 175.05229634593707,183.76020426364266 174.97988602076657,183.4765556583152 174.78075762663502,183.0274443463859 174.52732148848008,182.27104352077004 174.32819309423212,181.91647941280098 173.91183372447267,181.53827683848795 173.80321823677514,181.37281293340493 173.74891049286816,181.16007337733754 173.6946027489612,180.12000928675116 173.62219242367428,179.9545439267531 173.49547435471322,179.8836301489937 172.53603754611686,179.57633675204124 172.06537043256685,179.4817848198727 171.21454911166802,179.17449065732944 170.5085484412266,178.796281653631 169.7663426081417,178.4417099072598 168.26382836070843,177.803478799382 167.72075092198793,177.59073453555175 167.44921220256947,177.5434579943685 166.8699296010891,177.56709626673546 166.1820315119112,177.6852875763434 165.05967147171032,177.59073453555175 164.3536708012689,177.63801106295432 163.33992624888197,177.803478799382 161.65638618846424,178.15805194886343 161.3848474691622,178.15805194886343 161.22192423744127,178.06349918519845 160.76935970492195,177.30707508065097 160.15387194103096,176.62156267165847 160.09956419712398,176.47973215428647 160.06335903459694,176.21970921532193 160.09956419712398,175.55783075156796 160.06335903459694,175.0141428387724 160.3348977540154,174.02131670365634 160.40730807906948,173.31215143681038 160.35300033527892,172.83937285996217 160.37110291654244,172.7211779992067 160.44351324171294,172.55570504863863 160.80556486768182,172.2011195828527 160.8779751927359,171.964728839288 160.89607777411584,170.61729498478235 160.82366744894534,170.00267229504243 160.80556486768182,169.19893139741907 160.84177003020886,168.6079428877856 160.91418035549577,168.34790725758648 161.14951391215436,167.99331254060962 161.4029500503093,167.87511412838649 162.25377137120813,167.78055533619772 163.05028494808357,167.59143758557911 164.78813275217544,167.4495991270669 167.6302380154375,166.85860420721292 168.57157224277034,166.66948537543067 168.93362386862282,166.66948537543067 169.31377807585523,166.5985657563142 169.96547100238968,166.40944661966932 171.39557492465246,166.29124704665446 172.3369091518689,166.0784875968675 173.00670465978328,165.9839277512947 173.4049614482792,165.8893678503373 174.74455246410798,165.72388789021352 176.33757961785886,165.44020756344253 176.55481059337035,165.3220072799886 176.68152866244782,165.13288664638822 176.77204156899825,164.754644713772 176.68152866244782,164.4473224903195 176.69963124382775,164.32912147928437 176.77204156899825,164.32912147928437 177.1159906135872,164.37640189401282 177.44183707679622,164.32912147928437 177.76768354012165,164.28184105051332 178.02111967816018,164.18728015158558 178.40127388539258,163.9981581872562 179.9218907140894,163.07618543528952 180.42876299028285,162.8634217439103 181.1347636608407,162.48517448855273 181.3700972176157,162.2487695034797 181.47871270531323,162.083285807661 181.7502514248481,161.35042739953496 182.02179014415015,160.85397303734499 182.29332886368502,160.5939249042858 182.56486758298706,160.49936184285616 183.08984244056046,160.45208029140485 183.48809922893997,160.54664338057046 183.83204827364534,160.7357693924714 184.0311766677769,160.877613755918 184.35702313110232,161.1849427819543 184.82769024476875,161.49227122236334 185.6966141469311,161.87052080644935 186.25779416703153,161.98872361959366 186.49312772380654,162.01236417180917 186.855179349659,161.9650830639439 186.98189741873648,161.87052080644935 187.0,161.8232396569947 186.81897418713197,161.8941613760253 186.13107609795406,161.94144250475802 185.7690244721016,161.91780194215244 185.15353670809418,161.77595849359932 184.77338250086177,161.61047431261977 184.32081796857528,161.2558647817059 183.56050955422688,160.8066915897507 183.03553469665349,160.61756566101394 182.63727790827397,160.64120641420595 182.42004693264607,160.75941012834664 182.0579953067936,161.04309868883865 181.84076433128212,161.42134932652698 181.71404626220465,161.8941613760253 181.6054307743907,162.1305668809946 181.3700972176157,162.437893519309 181.08045591693372,162.65065777194104 179.0167616494,163.6671942160756 178.12973516597413,164.21092038143252 177.4237344955327,164.37640189401282 176.7539389876183,164.37640189401282 176.55481059337035,164.25820083099825 176.46429768693633,164.09271919708408 176.30137445533182,163.17074698572105 176.1384512236109,162.74521957195248 175.81260476040188,162.05964526585012 175.55916862224694,161.70503672253108 175.39624539064243,161.42134932652698 174.94368085823953,160.85397303734499 174.50921890721656,160.57028414415254 174.3100905129686,160.33387635201507 174.1652698626276,160.2393131380668 173.53167951724026,160.09746821322187 173.04290982242674,160.09746821322187 172.4274220583029,160.2393131380668 171.84813945693895,160.33387635201507 170.96111297351308,160.5939249042858 170.2008045592811,160.94853589078411 169.63962453906424,161.1140207509743 169.3680858197622,161.1140207509743 167.86557157232892,160.78305086080218 167.35869929613546,160.64120641420595 166.39926248742267,160.2393131380668 165.71136439824477,159.86105972790392 165.15018437814433,159.4355235810799 164.2812604760984,158.63173001777614 163.84679852507543,158.30075503308035 163.57525980565697,158.0643439138512 163.10459269199055,157.78065011328727 162.79684880992863,157.56787943541713 162.59772041568067,157.35510847673868 162.3261816962622,156.95320701108722 161.89171974535566,156.64586992037948 160.82366744894534,156.24396668716508 159.97284612816293,155.88934535546286 159.17633255117107,155.77113807162095 157.3841770030558,155.84206245231326 156.75058665766846,155.96026968416118 155.50150854850654,156.07847682938154 154.99463627219666,156.07847682938154 154.01709688233677,156.24396668716508 153.13007039902732,156.29124947242963 151.35601743217558,156.29124947242963 150.48709353012964,156.36217362436582 149.6181696279673,156.5276631910092 148.8759637948824,156.48038047505543 147.62688568560407,156.57494589319685 145.9795507878298,156.57494589319685 145.6899094870314,156.64586992037948 144.92960107279941,156.95320701108722 144.40462621522602,157.11869597117766 143.11934294342063,157.33146724176186 142.77539389883168,157.33146724176186 141.07375125715043,157.21326101500017 139.80657056660857,157.23690226726467 137.88769694941584,157.5442382316105 137.50754274218343,157.6860854022234 137.1635936977109,157.70972658519167 136.6386188401375,157.87521476893744 136.14984914520755,158.0643439138512 135.31713040568866,158.6080889699224 134.30338585318532,159.4355235810799 133.63359034538735,160.4047987260128 133.34394904458895,161.1140207509743 133.0724103251705,162.5324554440158 133.0,163.02890463925723 133.10861548781395,163.24166811219766 133.41635936975945,163.54899263319385 133.6154877640074,163.8326762865472 133.88702648342587,164.32912147928437 134.50251424743328,165.84208787904936 134.6473348978907,166.48036632195 134.77405296685174,166.66948537543067 134.9007710359292,166.7876846713334 135.20851491799112,166.8349643653928 136.1136439825641,166.74040496330417 136.51190077117644,166.76404481907957 137.59805564873386,166.57492587639717 139.11867247743066,166.43308652388805 140.15051961119752,166.31488696816086 142.14180355344433,166.19668732583523 143.4813945691567,166.0312076810078 144.18739523971453,165.960287781214 144.8571907475125,166.125767498801 145.4545759302564,166.0312076810078 145.7442172310548,166.0312076810078 146.17867918207776,166.125767498801 146.64934629574418,166.05484764071298 147.8079114985885,166.17304738698294 148.62252765684389,166.504006215735 149.1837076768279,166.81132452005113 150.4689909487497,167.37867985098273 150.57760643656366,167.4732388788252 150.66811934299767,167.68599648859526 150.7043245055247,168.08787120805937 150.6862219242612,168.70250119490083 150.6138115990907,169.22257089272898 150.63191418047063,169.90811475027294 150.6862219242612,170.12086914811516 150.83104257460218,170.42818056052784 150.97586322494317,170.61729498478235 151.12068387528416,170.7354913873569 151.62755615159404,170.99552316810878 152.08012068399694,171.1373585081601 152.7499161917949,171.2555545296491 153.07576265512034,171.39738964104617 153.31109621189535,171.63378121615096 153.9446865572827,172.5084270315565 154.3429433456622,172.81573389473488 154.59637948381715,172.95756763413374 155.1756620851811,173.1466790925624 155.99027824343648,173.17031800925906 156.44284277583938,173.1466790925624 156.66007375123445,173.0757623216341 157.0583305398468,172.79209492610244 157.40227958443575,172.57934405194828 158.0539725109702,172.4375099800236 158.32551123038866,172.4375099800236 159.08581964473706,172.5320660418074 160.045256453217,172.5320660418074 160.15387194103096,172.57934405194828 160.2624874287285,172.7211779992067 160.37110291654244,173.3594292182679 160.37110291654244,173.8794838997419 160.29869259148836,174.2340656756569 160.08146161586046,174.80139489573776 160.00905129068997,175.13233601920365 160.1176667783875,175.72330062213587 160.09956419712398,176.4088168488961 160.17197452229448,176.7397546741704 160.15387194103096,176.85794659012754 159.93664096551947,177.21252181814634 159.7375125712715,177.66164932138054 159.4116661080625,177.99258457611722 159.14012738852762,178.37079546439054 158.9772041569231,178.4417099072598 158.70566543750465,178.48898618508247 158.37981897417922,178.48898618508247 157.78243379155174,178.39443361542362 156.51525310100988,178.15805194886343 155.30238015425857,177.75620232056826 154.54207173991017,177.63801106295432 154.08950720762368,177.63801106295432 153.36540395580232,177.73256407598092 152.84042909822892,177.87439349158376 152.26114649686497,178.08713738134247 152.04391552135348,178.22896648517053 151.1568890379276,178.8908339877089 150.63191418047063,179.50542280809896 150.2336573918583,180.19092296052258 150.0888367415173,180.38002593813871 149.3285283271689,181.0418846139073 148.62252765684389,181.46736375702312 147.71739859203808,181.82192885232507 146.99329534033313,182.05830514956324 145.36406302382238,182.34195624888525 144.49513912177645,182.6728819010459 143.77103586995509,182.98016939869558 143.4813945691567,183.1456316549593 142.97452229296323,183.54746785633324 142.06939322827384,184.4693235947343 141.56252095208038,184.89479369699256 140.9832383506,185.27298840132426 140.747904793825,185.46208542097884 140.603084143484,185.67481930310896 140.42205833061598,186.00573811763024 140.24103251763154,186.5730259345437 140.132417029934,187.23485919937957 140.11431444855407,187.82577946253878 140.2048273551045,188.96034029980365 140.25913509889506,189.19670613645576 140.45826349314302,189.57489075472404 140.8203151189955,190.14216601969383 141.3633925578324,190.80398464080645 142.25041904125828,191.513073007387 142.81159906135872,191.8676160218747 143.64431780099403,192.245794378352 144.1511900771875,192.5530636402109 144.44083137786947,192.7894242125476 145.20113979221787,193.5457757168624 145.49078109289985,193.8057707275293 145.94334562530275,194.01849360625783" stroke="#4dd2ff" stroke-linecap="round" stroke-linejoin="round" stroke-width="0.5"><title>2023-12-26 11.0km</title><desc>10436709260</desc></polyline><polyline fill="none" points="48.426751592429355,260.61276372059365 48.73449547437485,260.7309381458326 48.95172645000275,260.9436518929724 49.11464968160726,261.27453938670806 49.18706000666134,261.5817914517538 49.1508548441343,261.770869354732 49.096547100227326,261.95994703624456 48.87931612471584,262.26719779585255 48.49916191759985,262.57444797035714 48.37244384852238,262.763524709997 48.318136104615405,262.9526012278948 48.35434126725886,263.2125810784055 48.73449547437485,264.06342129597033 48.87931612471584,264.18159319357073 49.06034193770029,264.22886192837905 49.40429098228924,264.18159319357073 50.4361381160561,263.70890508400043 51.576600737520494,263.30711910191167 51.83003687567543,263.23621558952436 52.17398592014797,263.23621558952436 52.355011733132415,263.1653120458359 52.62655045255087,262.9289666753466 53.097217566217296,262.2435631427652 53.495474354713224,261.5817914517538 53.85752598068211,260.825477623599 54.05665437481366,260.2818748695863 54.291987931588665,259.1473936563707 54.255782769061625,257.23293851786 54.34629567549564,256.3347912406607 54.364398256875575,255.4839102600963 54.27388535044156,253.40396007998788 54.38250083802268,252.19852213228296 54.38250083802268,251.3476193339302 54.27388535044156,250.99307517663692 54.05665437481366,250.61489388324844 53.16962789138779,249.59852726393729 52.77137110300828,249.00761349480308 52.572242708760314,248.53488092093903 52.51793496485334,248.20396729491767 52.62655045255087,247.4712275644124 52.80757626553532,247.04576425792766 52.970499497139826,246.78575835149968 53.16962789138779,246.5493889819627 53.65839758643415,246.10028622564278 54.5454240697436,245.43844830563467 54.78075762663502,245.1548026514938 54.90747569571249,244.89479369699256 54.97988602076657,244.65842155649443 55.070398927317,244.09112700608966 55.052296345937066,243.76020426364266 54.96178343950305,243.4765556583152 54.78075762663502,243.0274443463859 54.59973181365058,242.43650650446943 54.47301374457311,242.1764931682119 54.27388535044156,241.84556649769365 53.91183372447267,241.5146391481103 53.80321823677514,241.37281293340493 53.74891049286816,241.1127978824079 53.69460274896119,240.16728507273365 53.62219242367428,239.9781818456686 53.495474354713224,239.8836301489937 52.029165269923396,239.45814682812488 51.25075427419506,239.17449065732944 50.418035534676164,238.7490054658556 49.74824002687819,238.4417099072598 48.26382836070843,237.803478799382 47.72075092198793,237.59073453555175 47.44921220256947,237.5434579943685 46.79751927603502,237.56709626673546 46.21823667443823,237.6852875763434 45.05967147171032,237.59073453555175 44.35367080126889,237.63801106295432 43.285618504858576,237.82711703363748 41.69259135099128,238.15805194886343 41.421052631689236,238.18169013108127 41.312437143875286,238.15805194886343 41.22192423744127,238.06349918519845 40.75125712377485,237.2834367701871 40.17197452229448,236.64520107908174 40.09956419712398,236.47973215428647 40.06335903459694,236.21970921532193 40.09956419712398,235.55783075156796 40.06335903459694,235.0141428387724 40.3348977540154,233.97403911620495 40.40730807906948,233.31215143681038 40.35300033527892,232.76845595390478 40.389205497922376,232.65026104118442 40.47971840435639,232.5084270315565 40.84177003020886,232.153841461899 40.8779751927359,231.964728839288 40.89607777411584,230.61729498478235 40.82366744894534,230.00267229504243 40.805564867681824,229.12801289054914 40.84177003020886,228.5370241211931 40.89607777411584,228.39518649425008 41.11330874962732,228.04059188124666 41.240026818588376,227.94603318614827 41.439155212952755,227.87511412838649 42.25377137120813,227.78055533619772 43.158900435781106,227.59143758557911 44.82433791493531,227.42595937187434 47.557827690267004,226.85860420721292 48.55346966139041,226.66948537543067 49.313778075855225,226.5985657563142 49.94736842112616,226.40944661966932 51.395574924652465,226.29124704665446 52.336909151868895,226.0784875968675 52.91619175334927,226.00756771792658 53.513576935976744,225.86572786641773 54.81696278916206,225.7002478820068 56.337579617858864,225.44020756344253 56.55481059337035,225.3220072799886 56.68152866244782,225.13288664638822 56.77204156899825,224.80192500387784 56.75393898761831,224.66008409200003 56.6634260811843,224.47096268220048 56.69963124382775,224.35276168835117 56.80824673152529,224.32912147928437 57.1159906135872,224.37640189401282 57.47804223932326,224.32912147928437 57.80388870264869,224.28184105051332 58.05732484080363,224.18728015158558 59.921890714089386,223.07618543528952 60.44686557154637,222.8634217439103 61.09855849808082,222.48517448855273 61.351994636352174,222.2487695034797 61.51491786795668,222.01236417180917 61.76835400599521,221.3267867503164 62.003687562886626,220.877613755918 62.148508213227615,220.71212865313282 62.32953402621206,220.5939249042858 62.54676500172354,220.49936184285616 62.85450888366904,220.45208029140485 63.08984244056046,220.45208029140485 63.3432785787154,220.47572106886946 63.50620181031991,220.54664338057046 63.976868923869915,220.83033231529407 64.3389205498388,221.1849427819543 64.93630573246628,221.56319308692764 65.78712705336511,221.8941613760253 66.20348642312456,221.98872361959366 66.61984579276759,221.98872361959366 66.85517934965901,221.9650830639439 66.98189741873648,221.87052080644935 67.0,221.8232396569947 66.81897418713197,221.8941613760253 66.13107609795406,221.94144250475802 65.80522963462863,221.91780194215244 65.15353670809418,221.77595849359932 64.7914850822417,221.6341149203945 64.32081796857528,221.2558647817059 63.54240697284695,220.78305086080218 63.035534696653485,220.61756566101394 62.69158565206453,220.64120641420595 62.45625209517311,220.71212865313282 62.09420046932064,221.0194579945528 61.8226617500186,221.4449899619358 61.73214884346817,221.8468802334246 61.6054307743907,222.1305668809946 61.40630238014273,222.41425302944845 61.080455916933715,222.65065777194104 59.016761649399996,223.64355390636774 58.165940328501165,224.18728015158558 57.45993965805974,224.37640189401282 56.82634931278881,224.40004209625477 56.60911833727732,224.28184105051332 56.464297686936334,224.1163594409154 56.301374455331825,223.17074698572105 55.97552799200639,222.36697203933727 55.75829701649491,221.9650830639439 55.54106604086701,221.68139612529194 55.3781428092625,221.3977086875966 54.97988602076657,220.877613755918 54.509218907216564,220.57028414415254 54.3100905129686,220.33387635201507 54.147167281247675,220.2393131380668 53.459269192186184,220.09746821322187 52.98860207851976,220.09746821322187 52.42742205830291,220.2393131380668 51.86624203820247,220.33387635201507 50.96111297351308,220.57028414415254 50.092189071467146,220.99581729674537 49.54911163263023,221.1376614314504 47.88367415359244,220.78305086080218 47.394904458662495,220.64120641420595 46.326852162368596,220.1920315103198 45.72946697950829,219.86105972790392 45.13208179688081,219.4355235810799 44.64331210195087,218.96270432315941 43.77438819978852,218.253472836921 43.59336238692049,218.0643439138512 43.14079785451759,217.8279324480245 42.81495139130857,217.56787943541713 42.633925578324124,217.4023909362295 42.28997653373517,216.92956571726245 41.89171974535566,216.64586992037948 39.93664096551947,215.88934535546286 39.17633255117107,215.77113807162095 37.45658732810989,215.84206245231326 36.73248407652136,215.96026968416118 35.483405967243016,216.07847682938154 35.01273885357659,216.07847682938154 33.98089171980973,216.24396668716508 33.03955749247689,216.29124947242963 31.374120013439097,216.29124947242963 30.37847804231569,216.3858150014712 29.60006704670377,216.5276631910092 28.894066376262344,216.48038047505543 27.644988266867585,216.57494589319685 25.943345625302754,216.59858723903017 25.58129399945028,216.66951125579362 24.911498491535895,216.95320701108722 24.404626215226017,217.11869597117766 23.51759973191656,217.2841847614327 23.083137780893594,217.33146724176186 21.12805900105741,217.21326101500017 19.770365403965116,217.23690226726467 17.86959436815232,217.5442382316105 17.543747904826887,217.6860854022234 17.14549111633096,217.73336776471115 16.312772376812063,217.99342051053827 15.335232986952178,218.58444791864895 14.93697619845625,218.93906332387996 14.556821991340257,219.22275508647726 14.212872946751304,219.55372817894386 13.959436808596365,219.9556231636816 13.706000670557842,220.2393131380668 13.398256788495928,220.94853589078411 13.217230975511484,221.7523179067066 13.0,223.00526423600968 13.09051290655043,223.21802774016396 13.579282601363957,223.7617554199678 13.88702648342587,224.32912147928437 14.484411666169763,225.81844788817398 14.629232316510752,226.45672642465797 14.719745223061182,226.5985657563142 14.882668454549275,226.76404481907957 14.955078779836185,226.81132452005113 15.208514917991124,226.8349643653928 16.1136439825641,226.74040496330417 16.511900771176443,226.76404481907957 17.670465973904356,226.5512859929877 20.71169963129796,226.2676071215974 22.214213878731243,226.19668732583523 24.078779752017,225.9839277512947 24.332215890055522,225.9839277512947 24.857190747512504,226.125767498801 25.382165605085902,226.05484764071298 25.74421723105479,226.0312076810078 26.14247401955072,226.125767498801 26.595038551837206,226.05484764071298 27.80791149858851,226.17304738698294 28.622527656843886,226.504006215735 29.129399933037348,226.7876846713334 30.37847804231569,227.33140031636867 30.55950385518372,227.4495991270669 30.65001676173415,227.61507731654274 30.70432450552471,228.08787120805937 30.68622192426119,228.72614076301397 30.613811599090695,229.19893139741907 30.63191418047063,229.90811475027294 30.70432450552471,230.19178721823846 30.86724773712922,230.47545918736432 31.084478712757118,230.7118521137454 31.663761314121075,231.01916240008723 32.08012068399694,231.1373585081601 32.804223935701884,231.27919372350152 33.05766007385682,231.39738964104617 33.25678846798837,231.5628637800255 33.944686557282694,232.48478801787132 34.54207173991017,232.93392868619412 34.759302715421654,233.05212339111313 35.21186724770814,233.1466790925624 35.99027824343648,233.17031800925906 36.44284277583938,233.1466790925624 36.66007375123445,233.0757623216341 37.05833053984679,232.79209492610244 37.402279584435746,232.57934405194828 38.0539725109702,232.4375099800236 38.379818974179216,232.4375099800236 39.1220248072641,232.5320660418074 40.08146161586046,232.55570504863863 40.15387194103096,232.57934405194828 40.24438484746497,232.6975390167063 40.37110291654244,233.3594292182679 40.37110291654244,233.8794838997419 40.316795172635466,234.18678815056046 40.08146161586046,234.80139489573776 40.00905129068997,235.13233601920365 40.1176667783875,235.72330062213587 40.09956419712398,236.4088168488961 40.17197452229448,236.85794659012754 39.97284612816293,237.14160683490627 39.73751257127151,237.66164932138054 39.429768689209595,237.968946366178 39.21253771369811,238.27624282545003 39.08581964473706,238.39443361542362 38.79617834405508,238.48898618508247 38.488434461993165,238.48898618508247 37.29366409650538,238.3235191518179 36.515253101009876,238.15805194886343 35.33858531678561,237.77984056172136 34.81361045932863,237.66164932138054 34.487763996003196,237.63801106295432 34.07140462624375,237.63801106295432 33.36540395580232,237.73256407598092 32.840429098228924,237.87439349158376 32.29735165950842,238.08713738134247 32.062018102617,238.20532830989396 31.120683875284158,238.9144720625918 30.63191418047063,239.50542280809896 30.143144485424273,240.30911234754603 29.92591350991279,240.54549086169573 29.310425745905377,241.0418846139073 28.622527656843886,241.46736375702312 27.771706335945055,241.7982912035368 26.95709017768968,242.05830514956324 25.309755279915407,242.36559381795814 24.440831377869472,242.6728819010459 23.789138451218605,242.95653191966994 23.48139456915669,243.1456316549593 22.93831713043619,243.59474263781158 22.06939322827384,244.49296085204696 21.59872611472383,244.8711564985715 21.01944351324346,245.24935125830234 20.747904793825,245.46208542097884 20.60308414348401,245.67481930310896 20.422058330615982,246.00573811763024 20.241032517631538,246.5730259345437 20.132417029934004,247.1639486222848 20.09621186729055,247.7312323658698 20.132417029934004,248.2276040050201 20.241032517631538,249.12579642183846 20.367750586709008,249.4330716268014 20.784109956468455,250.07125672067923 21.01944351324346,250.40216651606897 21.363392557832412,250.80398464080645 22.232316459994763,251.513073007387 22.865906805265695,251.89125219508423 23.626215219614096,252.22215825709281 24.187395239714533,252.57669971299765 25.47267851163633,253.78213483469153 25.943345625302754,254.01849360625783" stroke="#4dd2ff" stroke-linecap="round" stroke-linejoin="round" stroke-width="0.5"><title>2023-12-26 11.0km</title><desc>10437350044</desc></polyline></svg>