<?xml version="1.0" encoding="utf-8" ?>
<svg baseProfile="full" height="300mm" version="1.1" viewBox="0,0,200,300" width="200mm" xmlns="http://www.w3.org/2000/svg" xmlns:ev="http://www.w3.org/2001/xml-events" xmlns:xlink="http://www.w3.org/1999/xlink"><defs /><rect fill="#222222" height="300" width="200" x="0" y="0" /><text fill="#FFFFFF" style="font-size:12px; font-family:Arial; font-weight:bold;" x="10" y="20">Over 10km Workouts</text><text fill="#FFFFFF" style="font-size:4px; font-family:Arial" x="10" y="280">ATHLETE</text><text fill="#FFFFFF" style="font-size:9px; font-family:Arial" x="10" y="290">heigao</text><text fill="#FFFFFF" style="font-size:4px; font-family:Arial" x="120" y="280">STATISTICS</text><text fill="#FFFFFF" style="font-size:3px; font-family:Arial" x="120" y="285">Number: 6</text><text fill="#FFFFFF" style="font-size:3px; font-family:Arial" x="120" y="290">Weekly: 1.2</text><text fill="#FFFFFF" style="font-size:3px; font-family:Arial" x="141" y="285">Total: 87.5 km</text><text fill="#FFFFFF" style="font-size:3px; font-family:Arial" x="141" y="290">Avg: 14.6 km</text><text fill="#FFFFFF" style="font-size:3px; font-family:Arial" x="167" y="285">Min: 10.0 km</text><text fill="#FFFFFF" style="font-size:3px; font-family:Arial" x="167" y="290">Max: 33.3 km</text><polyline fill="none" points="86.0,98.224450301881 83.74662668659585,98.45328811728541 83.08545727125602,98.4708910081099 81.81709145416971,98.61171404234483 80.9805097450735,98.6293169100536 80.15742128930287,98.71733120984572 78.92953523236793,98.80534544539114 78.1064467765973,98.84055112153146 75.70464767614612,99.08699056657497 75.17841079458594,99.08699056657497 74.00449775106972,99.21021009989636 72.27736131934216,99.28062120517279 71.29235382302431,99.47425153233053 70.38830584706739,99.49185427393968 69.75412293849513,99.57986794316821 69.24137931031873,99.6150733928589 68.0809595201863,99.6150733928589 67.56821589206811,99.65027883220318 66.62368815590162,99.65027883220318 66.21889055467909,99.59747066926502 65.42278860573424,99.42144329214352 64.97751124430215,99.36863502883352 63.49325337330811,99.28062120517279 63.02098950522486,99.31582674238598 62.10344827582594,99.29822397504176 61.10494752624072,99.21021009989636 60.63268365809927,99.24541565769323 58.44677661167225,99.28062120517279 57.59670164913405,99.19260731711256 56.09895052469801,99.26301843273541 54.72263868065784,99.21021009989636 53.643178410769906,99.24541565769323 53.34632683661766,99.21021009989636 53.26536731637316,99.13979895348166 53.211394302838016,99.03418215655984 53.06296851573279,98.29486198372615 52.92803598201135,97.15066705103527 52.83358320838306,95.51356923575077 52.7121439279872,94.59819301079551 52.685157421277836,94.15810580959806 52.617691154417116,93.64760264054348 52.455772113928106,92.85543826441426 52.18590704648523,91.76400325152645 52.18590704648523,91.25348992916406 52.226386806578375,90.6021422019985 52.21289355319459,90.37328946118214 52.158920539717656,90.17964449441934 52.11844077950809,90.10922806564486 52.05097451276379,89.54589515263069 51.92953523242613,88.96495532473637 51.794602698646486,87.85588059478323 51.59220389800612,86.97565528161795 51.5247376311454,86.02500471337407 51.41679160419153,85.58488616692193 51.30884557723766,84.77506383658329 51.173913043458015,84.2117059584416 51.14692653674865,83.75397574090312 50.944527736108284,82.9793514073026 50.72863568214234,81.55332539304072 50.647676161897834,80.4441823675952 50.580209895037115,79.89840982510214 50.485757121408824,77.803324499866 50.41829085460631,77.22232799251651 50.40479760116432,76.78217725607828 50.107946027012076,75.32086526741477 50.01349325332558,75.12719608191401 49.892053972987924,75.07437715904962 49.689655172405764,75.09198346922494 49.32533733127639,75.25044014510058 49.21739130432252,75.25044014510058 49.06896551721729,75.18001498161902 47.89505247370107,74.17645192358759 46.8560719640227,73.45458560209227 45.81709145422792,72.52143491645984 45.398800599738024,72.20451416971628 44.52173913043225,71.447422340927 44.07646176911658,71.02485738869291 43.86056971515063,70.77836048134486 43.56371814094018,70.30297216283361 43.07796101953136,69.38740418411908 42.94302848575171,69.08808237257472 42.862068965507206,68.7711525841296 42.87556221889099,68.36618552870641 42.794602698646486,67.94360975703603 42.75412293849513,67.83796558229369 42.74062968516955,67.89078768124455 42.34932533738902,68.03164649848623 41.91754122939892,68.04925383907539 41.49925037479261,68.15489782833902 41.24287856067531,68.19011247086746 40.46026986511424,68.20771978818811 39.529235382331535,68.27814903199032 38.86806596699171,68.34857823447965 38.382308845582884,68.33097093768447 38.017991004511714,68.34857823447965 36.898050974472426,68.48943651592708 36.11544227885315,68.52465106052114 33.90254872565856,68.71833087158302 33.30884557723766,68.73593811166938 31.824587706127204,68.89440315659886 31.716641679173335,68.87679593970097 31.63568215892883,68.82397427348042 31.554722638684325,68.80636704623612 31.122938530810643,68.89440315659886 29.12593703152379,68.98243920247478 27.128935532236937,69.19372544992075 26.643178410828114,69.36979703935503 26.157421289361082,69.59868972056574 25.887556221918203,69.77476071757701 25.69865067466162,69.915617329636 25.428785607218742,70.19733005924354 24.754122938553337,71.04246429129853 24.011994003027212,71.76434508139937 23.796101949061267,71.92280613866023 23.66116941528162,71.97562644469144 23.553223388269544,71.97562644469144 23.43178410793189,71.90519936485362 23.350824587687384,71.81716545699601 23.18890554725658,71.4826360199877 22.878560719662346,70.98964357568912 22.811094452801626,70.83118128970091 22.77061469265027,70.63750487907964 22.757121439266484,70.23254410406662 23.02698650676757,69.01765360280842 23.040479760151356,68.64790188543702 23.0,68.38379282029928 22.892053972987924,68.11968317558058 22.73013493255712,67.83796558229369 22.17691154422937,67.02802382787922 22.149925037520006,66.86955632526951 22.17691154422937,66.25329183140275 22.122938530752435,66.02439278700331 22.04197901050793,65.83070864016918 21.893553223460913,65.58420109331928 21.58320839580847,65.28486982182949 21.502248875563964,65.17922331292357 21.407796101935674,64.84467542288621 21.32683658169117,64.33404790285567 21.25937031483045,64.12275312277052 21.19190404796973,64.01710559362255 21.083958021074068,63.91145797173522 20.611694152932614,63.68255447275442 20.112443778140005,63.38321847093903 19.383808095939457,63.24235421243793 18.8440779610537,63.224746168532874 18.57421289361082,63.13670591031405 18.358320839586668,62.99584136324847 18.074962518760003,62.67889552939596 17.58920539729297,62.27390797125554 17.467766116955318,62.15065061783389 17.211394302838016,61.60479510636651 17.157421289361082,61.41110384585045 17.116941529267933,61.09415383783926 16.887556221918203,60.847636587808665 16.590704647707753,60.178515791893005 16.42878560727695,59.632651334191905 16.361319340299815,59.157218982378254 16.23988005996216,58.822654349467484 15.929535232426133,58.18873986235849 15.835082458797842,58.10069591947831 15.470764617726672,57.88939019366808 15.335832084005233,57.713301805408264 15.133433283364866,57.202644022101595 14.86356821586378,56.621548046277894 14.539730135002173,55.793921660129854 14.458770614757668,55.54739355105994 14.337331334361807,55.124772760347696 14.215892053965945,54.77258763418649 14.107946027012076,54.3323547768523 14.0,53.41666527405323 14.040479760151356,51.937459817447234 14.09445277362829,51.07458156947541 14.242878560675308,49.84188762310805 14.29685157421045,49.06704496387829 14.418290854606312,48.01043329561071 14.512743628234603,46.51355088078708 14.647676161956042,45.492138072535454 14.782608695677482,44.80532113589288 14.89055472263135,43.87194824479229 14.998500749643426,43.20273303537397 15.025487256410997,42.797679915973276 14.998500749643426,42.09323646003031 15.011994003027212,41.84668027589214 15.133433283364866,41.01895224783948 15.227886056993157,40.631503128919576 15.335832084005233,40.508223602148064 15.524737631203607,40.42016671998135 15.997001499228645,40.349721167796815 16.550224887556396,40.349721167796815 18.263868066016585,40.42016671998135 18.925037481239997,40.42016671998135 20.058470764604863,40.508223602148064 20.65217391308397,40.490612230903935 21.90704647678649,40.52583497083833 22.86506746627856,40.613891775712545 23.836581709154416,40.6491144795873 25.118440779624507,40.6491144795873 27.263868066016585,40.737171194225084 28.424287856090814,40.8428391666821 29.112443778140005,40.79000519204419 29.328335832047742,40.82522784437606 29.557721139397472,40.91328443009115 29.6251874063164,40.94850704629789 29.679160419793334,41.054174833145225 29.746626686654054,41.44162259076256 29.773613193421625,41.8642914486918 29.706146926560905,42.90334607861587 29.706146926560905,43.290787880905555 29.611694152932614,43.87194824479229 29.65217391308397,44.04805689170462 29.746626686654054,44.15372195607051 30.043478260864504,44.241776105547615 30.056971514306497,44.294608564268856 30.043478260864504,44.365051806511474 30.12443778110901,44.241776105547615 30.2188905547373,44.20655445349985 30.434782608703244,44.22416528083704 30.664167916111182,44.31221937872033 30.785607196448836,44.400273412167735 31.041979010566138,44.73487815144472 31.365817091427743,44.92859625942219 31.487256371823605,45.034260550441104 31.608695652219467,45.2103674959144 31.63568215892883,45.368863526469795 31.63568215892883,45.492138072535454 31.595202398777474,45.61541249232687 31.460269865114242,45.80912918246031 31.284857571183238,45.89718212024309 30.934032983495854,45.98523499369912 30.785607196448836,46.03806668680045 30.421289355377667,46.443108896572085 30.25937031483045,46.70726612478029 30.205397301295307,46.93620192009985 30.164917541260365,47.693447985628154 30.164917541260365,48.45068928506953 30.029985007538926,49.102265193003404 30.043478260864504,49.313586351236154 30.178410794585943,49.50729708694416 30.367316341842525,49.63056739271997 30.637181409285404,49.73622755432734 31.149925037520006,49.78905760028283 31.365817091427743,49.84188762310805 31.95952023990685,50.21169713310519 32.49925037485082,50.44062626018422 32.89055472263135,50.56389560970274 33.21439280360937,50.54628571037756 33.538230884529185,50.42301634281466 34.07796101953136,50.106037389079574 34.30734632688109,50.00037755230733 34.87406296853442,49.82427761810686 35.710644677630626,49.64817742608284 35.91304347827099,49.524907138358685 36.26386806595838,49.225535913756175 36.668665667122696,48.66201158781769 36.79010494751856,48.39785865140584 36.79010494751856,48.18653588473535 36.70914542733226,47.76388923783088 36.695652173948474,47.51734467481583 36.70914542733226,47.27079960658011 36.74962518742541,47.14752688300359 36.803598200844135,47.041864447928674 36.93853073462378,46.90098105686775 37.883058470790274,45.96762442417821 38.27436281857081,45.544969982154726 38.40929535229225,45.280810201962595 38.449775112443604,45.08709266115329 38.46326836582739,44.87576407909364 38.40929535229225,44.62921359750908 38.341829085489735,44.48832738112833 38.24737631180324,44.365051806511474 37.97751124436036,44.15372195607051 37.10044977511279,43.69583934007096 36.64167916041333,43.51973017756245 36.439280359772965,43.50211924712494 35.96701649174793,43.554952030666755 35.30584707646631,43.554952030666755 35.08995502250036,43.59017387347558 34.92803598201135,43.643006618389336 34.79310344828991,43.74867203857866 34.71214392804541,43.87194824479229 34.64467766118469,44.06566774217936 34.60419790103333,44.365051806511474 34.550224887556396,44.523548950688564 34.23988005990395,45.08709266115329 34.17241379315965,45.26319952933409 34.091454272856936,45.84435036528885 34.091454272856936,46.39027738130244 34.131934032950085,46.548771857436805" stroke="#4dd2ff" stroke-linecap="round" stroke-linejoin="round" stroke-width="0.5"><title>2024-09-28 11.2km</title><desc>12519663855</desc></polyline><polyline fill="none" points="142.57587548648007,49.04860572409234 143.2889989388641,49.388321742007975 143.9766536966199,49.542737966025015 144.4350902015576,49.728037312685046 145.40290060138796,50.005986083240714 145.88680580130313,50.222168253327254 147.00742836936843,50.345700840611244 147.69508312700782,50.56188272614963 148.15351963217836,50.74718134084833 148.38273788476363,50.901596751471516 148.56101874785963,51.179544257727684 148.6119561373489,51.51925746985944 148.56101874785963,52.106033782765735 148.535550053115,53.61929285203223 148.25539441115689,54.9472475805087 148.178988326923,55.81195861307788 148.00070746371057,56.831078609626275 147.9243013795931,58.86930652658339 147.79695790598635,59.70312239747727 147.74602051649708,60.753108920296654 147.54227095865645,62.08102693312685 147.46586487453897,63.254530186444754 147.21117792709265,65.87945235337247 147.08383445360232,66.58972081987304 147.10930314823054,66.89853258689982 146.98195967450738,69.64694103147485 146.6508666431764,71.90123172351741 146.6508666431764,72.58060313871829 146.70180403254926,73.4452550803835 146.6508666431764,73.63053726241924 146.44711708533578,74.09374213538831 146.34524230635725,74.98926919873338 146.11602405377198,77.27439313978539 146.01414927490987,79.83741348425974 145.91227449593134,80.79467961390037 145.91227449593134,81.22699218595517 145.8613371065585,82.09161515737651 145.70852493820712,83.69733584747883 145.30102582252584,85.8279882624629 145.17368234880269,87.52632179137436 144.81712062261067,89.37903653128888 144.66430845414288,90.39802396894083 144.30774672795087,92.49774297233671 144.00212239124812,93.94900935856276 143.82384152815212,95.0914899216441 143.6455606650561,95.61641172811505 143.44181110721547,96.54274172318401 143.33993632835336,97.59257836532197 142.65228157059755,100.34065994489356 142.39759462338407,101.66837426973507 142.24478245491628,102.56380565598374 142.24478245491628,102.65643631169223 142.39759462338407,102.68731318952632 142.55040679173544,102.68731318952632 142.80509373906534,102.59468254487729 143.00884329678956,102.28591348917689 143.44181110721547,100.3715370997379 143.49274849670473,98.92030682667973 143.67102935980074,98.27188215235947 143.7219667491736,97.43819089158205 143.87477891764138,96.88239522173535 144.0785284753656,95.40026758419117 144.30774672795087,94.28866627041134 144.4350902015576,93.23881618914311 144.61337106477004,92.31247433571843 144.89352670684457,91.29349445665139 145.07180756994057,90.42890231346246 145.32649451715406,89.1011301681574 145.55571276973933,87.37192829605192 145.75946232757997,86.69259581918595 146.06508666439913,84.50019244596479 146.19243013800588,84.03700625168858 146.472585779964,82.83271825575503 146.52352316956967,82.3386497599422 146.75274142203853,81.28875106570194 146.93102228513453,79.1889408628922 146.95649097999558,78.10814953933004 147.03289706411306,77.33615296546486 147.08383445360232,76.78031400227337 147.21117792709265,76.31711395169259 147.18570923246443,75.88479315434233 147.28758401132654,75.14367010249407 147.3130527061876,74.30990412487881 147.28758401132654,73.38349432349787 147.5168022639118,71.5924259434687 147.5932083481457,70.0175107170362 147.5932083481457,68.96756189249572 147.6696144323796,68.59699069918133 147.77148921124171,68.41170490291552 147.79695790598635,68.07201393088326 147.89883268496487,67.8249656703847 147.79695790598635,67.7014414514706 147.77148921124171,67.57791717335931 147.77148921124171,66.99117604494677 147.82242660073098,66.74412674966152 147.97523876908235,66.40443358235643 147.87336399010383,66.15738372522173 147.89883268496487,64.92213089184952 148.00070746371057,63.43981968596927 148.02617615857162,62.60601589042926 148.25539441115689,60.32076204603072 148.30633180052973,59.27077376371017 148.51008135837037,57.38696054747561 148.68836222146638,56.39872516336618 148.76476830570027,55.07077790546464 149.0449239476584,53.557527349476004 149.17226742126513,52.2295654680056 149.27414220036007,51.73543837206671 149.42695436871145,51.45749146459275 149.60523523169104,51.33395940967603 149.88539087364916,51.24131032958394 150.39476476830896,51.27219335990958 151.2861690839054,51.48837446910329 152.0502299257787,51.611906450096285 153.19632118858863,51.920736143918475 154.52069331449457,52.19868255223264 157.50053059798665,52.66192590078572 158.5956844711909,52.785457319929264 159.28333922894672,52.939871510636294 160.5567739653634,53.125168417493114 161.6773965335451,53.24869961486547 162.59426954376977,53.186934023629874 163.35833038564306,53.24869961486547 165.21754510083701,53.279582404968096 166.44004244776443,53.464879067847505 167.96816413162742,53.742823812703136 170.1839405731298,53.89723743047216 171.61018747789785,54.11341634017299 173.9533073931234,54.14429902669508 174.71736823499668,54.29871240418288 178.38486027601175,54.82371719641378 180.98266713833436,54.82371719641378 182.28157056949567,54.978130167291965 183.02016271674074,54.9472475805087 184.08984789531678,55.07077790546464 185.59250088431872,55.03989532982814 185.821719136904,55.00901275037904 185.89812522102147,54.9472475805087 186.0,54.57665625077789 185.94906261051074,54.26782973611262 185.84718783164863,54.20606438879622 185.71984435804188,54.1751817096374 183.8351609481033,54.23694706434617 179.60735762293916,54.11341634017299 179.27626459149178,54.0825336498674 178.91970286529977,53.89723743047216 178.5122037496185,53.8354719945055 177.6717368235113,53.92812014295487 176.37283339235,53.86635471432237 175.02299257169943,53.71194107810152 174.20799434022047,53.742823812703136 170.41315882559866,53.31046519134543 170.08206579415128,53.15605122243869 169.39441103639547,53.21781682109577 168.68128758401144,53.125168417493114 167.63707110018004,53.094285608967766 164.19879731163383,52.600160169036826 163.15458082780242,52.569277297647204 161.70286522828974,52.38397999148583 160.98974177567288,52.38397999148583 160.25114962866064,52.19868255223264 159.3597453131806,52.1677996328217 157.52599929261487,51.858970234694425 156.5327201981563,51.79720431074384 154.4697559250053,51.45749146459275 153.47647683066316,51.179544257727684 150.11460912635084,50.46923336881446 149.7325787054142,50.25305140574346 149.60523523169104,50.09863560696249 148.713830916211,49.975102901342325 148.20445702166762,50.005986083240714 147.87336399010383,49.94421971574775 146.1414927485166,49.388321742007975 145.75946232757997,49.233905425760895 142.49946940224618,48.33828896822524 139.8507251504343,47.41178591293283 139.54510081373155,47.22648490261054 138.1443226034753,46.67058107306366 137.55854262469802,46.51616313008708 136.89635656168684,46.238210599753074 136.05588963569608,45.80583940184442 135.34276618331205,45.558769820519956 134.75698620453477,45.280816258717095 133.916519278544,44.97197861666791 133.27980191016104,44.663140604796354 132.54120976303238,44.385186078143306 131.9554297842551,44.107231251866324 131.1913689423818,43.82927612622734 130.88574460567906,43.674856482539326 128.10965688014403,42.501264170132345 126.42872302804608,41.88358186130063 122.582950123935,40.24671659056912 121.71701450308319,39.99964168522274 121.0293597454438,39.59814445939264 120.03608065098524,39.25841554949875 118.0240537673235,38.39364903283422 116.67421294667292,37.86861080484232 116.36858860985376,37.77595688900328 115.78280863107648,37.74507224292029 114.35656172630843,37.34357150818687 114.15281216846779,37.31268681047368 114.0,37.43622557944036 114.0,37.528879617282655 114.10187477897853,37.62153362194658 114.71312345250044,37.71418759317021 116.19030774675775,38.239226135541685 117.05624336760957,38.64072547623073 117.89671029371675,39.196646608790616 120.44357976666652,40.24671659056912 121.79342058720067,40.6790971053706 123.49982313415967,41.48208756756503 124.11107180768158,41.729161053022835 125.25716307049152,42.099770837667165 126.75981605949346,42.77922072663205 127.8295012380695,43.14982900279574 130.6565263530938,44.35430222330615 131.62433675280772,44.663140604796354 132.84683409985155,45.21904875995824 133.89105058379937,45.558769820519956 135.4701096569188,46.26909422900644 137.60948001418728,47.10295082174707 138.73010258225258,47.627970256784465 139.64697559259366,47.9368047194439 140.48744251870085,48.30740558667458 141.58259639202151,48.616239235998364 142.6013441811083,49.017722427495755 143.9766536966199,49.388321742007975 145.5302440751111,49.975102901342325 147.72055182175245,50.46923336881446 148.33180049527436,50.685415150772315 148.58648744248785,50.96336288994644 148.6374248319771,51.117778171173995 148.68836222146638,51.48837446910329 148.58648744248785,52.41486288505257 148.40820657939184,53.557527349476004 148.357269190019,54.26782973611262 148.20445702166762,55.348720920301275" stroke="#4dd2ff" stroke-linecap="round" stroke-linejoin="round" stroke-width="0.5"><title>2024-08-18 10.0km</title><desc>12174630002</desc></polyline><polyline fill="none" points="24.338958164677024,129.69370212692593 25.629403432481922,129.79902551292616 29.04370653675869,129.69370212692593 30.92560588568449,129.37773169093998 31.78590273077134,129.30751598181087 33.936644843779504,129.30751598181087 36.8670309727313,129.096868731227 38.10370768769644,129.20219237978745 39.36726867896505,129.41283953771926 41.141630922211334,130.32564174830623 42.67403467767872,130.8873644565174 43.265488758683205,131.20333290094277 43.48056297004223,131.55440846149577 43.56121579941828,132.081020837315 43.56121579941828,132.6778467969416 43.45367869362235,133.485314845806 43.48056297004223,134.04703014391998 43.69563718140125,135.10024277705816 43.9644799453672,135.6619542878907 44.448396920925006,136.2938781628909 44.9054296198301,136.60983947514615 45.63130508305039,136.8906936252315 46.86798179789912,137.06622730157687 47.271245944080874,137.27686754360911 47.59385726111941,137.55772091147082 48.64234404114541,138.92687636366463 49.314450951409526,139.41836615544162 49.66394654486794,139.55879162505153 50.57801194279455,139.7694296749978 52.002878592698835,139.66411067327135 52.352374186040834,139.55879162505153 53.589050901005976,138.89176991132263 54.39557919325307,138.57581160913105 54.933264721534215,138.50559859655914 56.08928860723972,138.71623757266207 57.62169236270711,138.85666345391655 57.782998021226376,138.9619828108698 57.86365085048601,139.20772779680556 57.944303679745644,140.12049268007104 57.89053512690589,141.06836022355128 57.7561137448065,141.70026983538992 57.54103953356389,142.43749560891592 57.51415525714401,142.68323702922498 57.59480808628723,144.36831426226126 57.70234519196674,144.9651096063899 57.70234519196674,145.1757429021818 57.057122558238916,146.33422271856398 56.19682571303565,147.28206567364396 56.00863577798009,147.38738132611616 54.82572761597112,147.49269693216775 53.77724083582871,147.45759173521947 52.191068527521566,147.21185521302687 51.250118853058666,146.82569731160766 50.33605345513206,146.57996014115633 49.01872391090728,146.36932808012352 47.88958430162165,146.54485481053416 46.0883377820719,147.03632897138596 45.604420806630515,147.3522761137574 44.663471132167615,148.19479978940217 43.66875290486496,149.2128452770412 42.10946487309411,150.9329812694341 40.33510262996424,152.26695578014187 39.313500126241706,152.79352262090833 38.29189762240276,153.03925341716968 36.65195676148869,153.28498396133364 35.979849851108156,153.46050562433084 35.06578445294872,153.74134001752827 33.88287629093975,154.26790361742314 33.049463722272776,154.79446605980047 32.10851404780988,155.53165153460577 30.87183733272832,156.7602889513655 29.231896471697837,158.05912736845494 28.828632325516082,158.58568147735787 28.559789561317302,159.00692393112695 28.290946797234938,159.53347595663217 28.022104033152573,160.27064684798825 27.914566927589476,161.1131250890321 27.94145120389294,162.62255786116293 28.022104033152573,163.32461637513188 28.23717824439518,163.92136449436657 28.828632325516082,164.72872723071487 29.823350552818738,165.85200998977234 30.71053167444188,166.69446860265452 31.409522861009464,167.25610603204404 32.24293542979285,167.71243547390623 33.47961214475799,168.13366187944484 33.82910773809999,168.34427480454906 34.9851316238055,169.397336652386 35.79165991616901,170.20468093443196 36.275576891493984,170.55569933875813 36.75949386705179,170.73120834807924 37.942402029177174,171.01202249561902 39.394152955384925,171.46834478327946 40.469524011947215,172.02997102098016 41.08786236937158,172.55649442318827 41.78685355617199,173.25852382589073 42.781571783241816,174.6976776704687 43.319257311639376,175.89111576495634 43.61498435214162,177.04944705378148 43.9644799453672,177.64616098662373 44.71723968500737,178.52367877632787 45.335578042431735,178.97998675664712 46.03456922911573,179.85749966085132 46.46471765183378,180.1383031114383 47.29813022061717,180.27870471324422 48.10465851286426,180.2436043204798 48.96495535806753,180.17340351965686 50.44359056081157,179.89260011012084 52.97071254358161,179.75219828207628 54.44934774620924,180.1032026980538 54.933264721534215,180.31380510088638 55.98175150167663,180.91051090347173 57.54103953356389,181.47211500706908 58.10560933826491,181.57741562991578 59.611128817196004,181.47211500706908 60.39077283325605,181.33171410458453 60.84780553227756,181.36681433796184 61.143532572779804,181.29661386605585 61.89629231218714,180.9456111984764 63.40181179146748,180.06810227961978 64.04703442531172,179.82239920635766 64.85356271767523,179.85749966085132 65.63320673350245,180.1032026980538 66.17089226190001,180.2085039226804 67.35380042390898,180.06810227961978 68.67112996813376,180.2436043204798 70.09599661803804,180.62970835792657 70.66056642262265,180.9456111984764 70.9562934631249,181.33171410458453 71.11759912164416,181.8582170647278 71.09071484510787,182.17411828528566 71.01006201596465,182.49001908958599 70.76810352830216,182.87611950672 70.06911234161817,183.5430187619204 69.96157523593865,183.78871801955393 69.9078066830989,184.1046166948363 69.93469095951878,184.38541516772239 70.55302931705955,185.64900422281062 70.74121925188228,185.85960175082437 71.01006201596465,186.0 71.46709471498616,185.96490044544043 71.73593747906853,185.85960175082437 72.05854879610706,185.71920341945952 72.83819281205069,185.157609271002 74.72009216086008,184.38541516772239 75.09647203062195,184.31521558035456 75.58038900606334,184.38541516772239 75.92988459928893,184.24501597233757 76.25249591632746,183.9642173350876 76.7901814446086,183.2271193461347 77.1396770379506,182.6655193563347 77.35475124919321,182.13901817028818 77.67736256611533,181.6125158273062 78.37635375279933,179.92770055434084 78.5376594113186,179.40119335174677 78.75273362256121,178.1726720460283 78.72584934625775,177.64616098662373 78.67208079330157,177.0845479145355 78.67208079330157,175.71561053575715 78.69896506983787,174.48707033084065 78.83338645182084,173.2936252420186 78.75273362256121,171.46834478327946 78.80650217540096,170.73120834807924 78.80650217540096,169.11652061218047 78.88715500454418,167.11569679822423 78.83338645182084,166.69446860265452 78.51077513489872,165.99241996434284 77.2472141435137,164.6585218833934 76.81706572102848,164.13198112267128 76.49445440410636,163.67564486061747 76.3331487455871,163.32461637513188 76.14495881064795,162.65766083578637 76.17184308706783,161.81518802659411 76.3331487455871,160.93760903306247 76.76329716807231,160.0249234695366 77.43540407845285,159.21754488020088 78.34946947649587,158.5154743296589 79.31730342726223,157.60277953794866 79.55926191504113,157.11132705579803 79.8281046791235,156.19862691420713 79.77433612628374,155.2157151803258 79.53237763850484,154.26790361742314 79.15599776885938,153.53071425345843 78.61831224057823,152.7584182009159 78.05374243599363,152.09143324254546 77.91932105377782,151.810596915122 77.83866822451819,151.248923272331 77.86555250105448,150.58193411096 77.75801539537497,150.19578164238192 77.65047828981187,150.02025758716627 77.40851980203297,149.84473340354452 74.88139781937934,148.93200557465025 70.4723764876835,146.8959078855405 68.966857008636,146.33422271856398 68.50982430961449,146.22890660313715 67.73018029367086,146.29911735195492 66.84299917216413,146.47464413377747 64.93421554681845,146.29911735195492 63.079200474428944,146.47464413377747 61.331722507602535,146.82569731160766 60.22946717473678,147.10653948356048 59.82620302855503,147.17674997502763 59.55736026447266,147.14164473187702 59.342286053230055,147.00122370765894 59.073443289031275,146.4044334365608 58.455104931490496,145.59700893826084 57.91741940320935,145.00021516850393 57.7561137448065,144.75447612527933 57.70234519196674,144.43852555641206 57.729229468503036,143.24493075736973 57.59480808628723,142.57791930847452 57.67546091566328,142.22685990513128 58.02495650900528,141.34920914577378 58.132493614568375,140.99814794157282 58.15937789098825,140.4715551705449 58.07872506172862,139.73432334623067 58.051840785425156,139.10240854791482 58.07872506172862,138.92687636366463 58.24003072024789,138.68113108957186 58.723947695689276,138.25985289024538 58.885253354208544,137.94389375447645 58.83148480125237,135.38109869713662 58.750831972109154,134.25767304102192 58.723947695689276,132.99381287931465 58.750831972109154,132.78316887073743 58.858369077788666,132.53741729319154 59.073443289031275,132.2565580385999 59.261633223854005,132.1512357332831 59.879971581394784,131.9756984547712 61.143532572779804,131.87037602589407 63.751307384693064,131.51930092855764 66.89676772488747,130.95757970242994 70.49926076410338,130.53628791830852 73.10703557613306,129.93945662223268 74.85451354284305,129.72880992735736 76.14495881064795,129.41283953771926 77.86555250105448,129.34262383906753 79.88187323196325,129.06176083805622 81.06478139408864,128.85111337133276 81.76377258077264,128.60535775929748 82.08638389781117,128.39470989108668 82.2745738326339,128.1489538107271 82.40899521461688,127.83298133689095 82.46276376757305,127.30635962088127 82.38211093831342,126.99038603542431 82.16703672707081,126.32332931940618 81.81754113349598,124.32214802439557 81.27985560533125,123.198670495025 80.82282290642615,122.4613855023199 79.93564178480301,121.33789924428856 79.63991474430077,121.02191778476117 78.64519651699811,120.38995361470734 78.21504809439648,120.28462609105918 77.54294118401594,120.24951690614398 76.84394999733195,120.3197352707648 74.66632360802032,120.77615413905005 73.80602676281705,121.05702685634606 72.43492866586894,121.72409823999624 71.95101169042755,121.86453408395755 71.49397899140604,121.82942513067974 70.23041800002102,121.51344431958569 68.83243562665302,121.05702685634606 67.70329601725098,120.60060852342576 65.90204949770123,119.547332127564 65.66009100992233,119.33667629251431 65.55255390435923,119.09091091748269 65.63320673350245,118.91536406664818 66.00958660326432,118.63448883764795 65.41813252214342,118.91536406664818 65.20305831090081,118.91536406664818 64.93421554681845,118.84514529028093 63.4824646206107,117.72164206836896 61.78875520674046,116.63324329601892 61.6005652716849,116.42258489778033 61.17041684919968,115.75549874763237 60.95534263784066,115.54483957738557 60.25635145115666,115.12352068097971 59.18098039471079,114.70220104324108 57.998072232468985,114.52665097554564 56.949585452559404,114.17555045391782 56.03552005439997,114.0 55.14833893289324,114.0 51.38454023504164,114.38621082859754 45.98080067639239,114.84264100484143 43.588100075605325,114.84264100484143 42.136349149397574,114.98308088407794 41.141630922211334,114.87775098242855 40.17379697132856,114.91286095471878 38.049939134856686,115.08841073940857 36.813262419891544,115.05330079274427 36.16803978593089,115.19374054852233 35.388395769987255,115.54483957738557 34.28614043723792,115.93104791469523 33.10323227499612,116.14170674530033 31.46329141384922,116.17681653234467 28.77486377255991,115.96615773263329 27.10803863510955,116.03637735315715 25.091717904200777,116.35236539054313 22.215100328088738,117.15988848086272 21.704299076343887,117.37054623059521 21.16661354806274,117.68653250770876 20.171895320760086,118.59937941071985 19.822399727534503,119.0558015575225 19.365367028396577,119.47711353648629 19.096524264430627,119.79309703422769 18.639491565409116,120.49528109224048 18.12869031354785,121.33789924428856 17.698541890946217,122.7773650628369 17.53723623242695,124.0061705019325 17.53723623242695,124.49769091229246 17.591004785266705,124.70834220798861 18.236227419110946,125.41051185529795 18.66637584171258,126.21800440485822 18.881450052955188,126.84995319698646 19.12340854073409,127.37657591651077 19.338482752093114,128.07873774142354 19.90305255667772,130.2203185938124 20.360085255582817,130.78204154910054 20.790233678300865,131.5895159891952 21.00530788965989,131.87037602589407 21.32791920658201,132.11612828781654 21.8118361820234,132.43209511133318 22.67213302711025,132.7480615178938" stroke="#4dd2ff" stroke-linecap="round" stroke-linejoin="round" stroke-width="0.5"><title>2024-08-04 11.0km</title><desc>12056370003</desc></polyline><polyline fill="none" points="185.59699892820208,161.9357389375291 185.38263665593695,159.65343718947406 185.16827438373002,154.29423545748432 185.14255091105588,151.92219328960346 184.98821007504012,149.66197144669422 184.75669882103102,144.21254803468764 184.70525187568273,142.33257470084936 184.7224008574849,140.8218483448145 184.6709539121366,140.17278637232084 184.11361200429383,140.34064775555453 182.6130760986416,140.44136440854345 179.8349410504161,140.49731804735347 179.0546623794071,140.56446235983458 173.3869239013875,140.75470425839012 171.6891747053014,140.84422969387379 170.17148981781793,140.84422969387379 169.10825294748065,140.94494568350638 165.12968917473336,141.11280537138373 164.02357984994887,141.13518663526338 163.10610932478448,141.0792334632788 161.14255091105588,141.15756789256557 161.0396570203884,141.03447089621477 161.06538049306255,141.12399600413482 160.01929260449833,141.29185529891402 159.36763129691826,141.29185529891402 158.92175777064404,141.21352100723016 158.49303322620108,141.20233038756123 157.43837084673578,141.269474080902 157.00964630223461,141.17994914333394 156.5209003215714,141.2582834694258 155.9721329046297,141.28066469074838 155.7834941050678,141.20233038756123 155.36334405146772,140.85542036592233 155.22615219725412,140.8330390201736 154.74598070740467,141.12399600413482 154.37727759915288,141.269474080902 153.93140407287865,141.35899891364534 153.29689174704254,141.73947828324162 152.85101822082652,142.17590816974553 152.28510182211176,142.41090784600237 152.14790996783995,142.53400262622745 151.7620578778442,142.70185882536316 150.81028938907548,143.3620896332286 149.48981779208407,144.5258724295927 149.31832797429524,144.7049143645345 149.23258306542994,144.9734764807945 148.53804930334445,145.42107791167655 147.57770632370375,146.7302970562523 147.35476956053753,147.1666984563053 147.02036441589007,147.4352519260501 146.40300107185612,148.11782108311309 145.61414790997515,149.1025002795359 145.3569131832919,149.52769873993384 144.43086816722644,150.63544151991664 144.27652733118157,150.7473338376949 144.05359056804446,150.76971228163166 143.77920685958816,150.69138769927667 142.97320471599232,150.28857429431082 142.0300107181247,150.16549199733709 141.3440514469694,149.53888814115635 141.1554126473784,149.18082648936252 141.14683815647732,148.8563316691725 140.98392282958957,148.74443658432574 140.94962486604345,148.48707726773864 140.70953912110417,147.87164930270956 140.75241157558048,147.84927001063625 140.70953912110417,147.84927001063625 140.67524115758715,147.46882104343968 140.39228295820067,146.93171339656692 140.03215434084996,146.78624609290273 139.457663451205,145.34274785042362 139.32047159702051,144.8727657977288 139.16613076097565,143.94398324569192 139.21757770632394,142.63471638991905 139.52625937835546,139.59086405705602 139.62057877818006,138.7851181542719 139.72347266881843,138.5948713546677 139.68060021434212,138.3262868316233 139.88638799573528,136.24472478354437 139.9635584137286,135.85302666424832 140.12647374064545,135.72992112654902 140.70953912110417,135.68515542730893 141.22400857449975,135.78587821370456 145.8628081457864,135.9425578399023 147.53483386925654,135.95374922946212 148.09217577707022,136.03208891065879 148.80385852092877,135.99851477141056 149.22400857452885,136.07685440672503 149.4812433012121,136.054471661977 149.5669882101065,135.98732338837726 149.6527331190009,136.054471661977 149.68703108254704,136.18876803221792 149.54126473743236,136.9609675828906 149.1125401929021,138.58368035173044 149.0182207931648,139.14322849280143 148.91532690249733,142.65709720828454 148.98392282961868,144.72729457689275 149.1125401929021,145.08537708417862 148.71811361200525,145.28679775755882 148.52947481244337,145.44345791447995 147.5605573419307,146.77505628886138 147.35476956053753,147.17788820302667 146.99464094321593,147.4800107459596 146.35155412647873,148.2185274921285 145.6312968917773,149.1136897429824 144.85101822082652,150.14311337660183 144.77384780280408,150.34452072746353 144.65380493033445,150.40046711966716 144.29367631298373,150.7473338376949 144.0793140407477,150.76971228163166 143.81350482316338,150.71376615955523 142.96463022509124,150.28857429431082 142.1586280814663,150.22143852051522 141.98713826367748,150.16549199733709 141.3783494105155,149.60602451418526 141.1554126473784,149.29272093567124 140.93247588424128,149.13606866499322 140.80385852092877,148.93465813119838 140.71811361203436,148.71086802695208 140.49517684889724,148.7556261001664 139.79206859596889,149.09131081445958 139.71489817794645,149.2255842875311 139.7406216506206,149.4158046374505 140.63236870311084,151.4298734307231 140.62379421223886,151.5641427974915 140.5123258306412,151.63127739247284 140.4180064308748,151.85505895005917 140.35798499465454,152.3026201005996 140.3837084673578,152.5823444895359 140.58949624866364,153.1417901977693 140.5637727759895,153.46626683326758 140.45230439445004,153.6452878359196 139.90353697750834,154.00332858398906 139.76634512329474,154.20472576814063 139.33762057876447,154.40612242188217 138.99464094321593,154.87604588465183 137.4512325830874,155.8494495861596 134.39871382634738,157.66196139575914 133.42122186496272,158.06473596442083 133.3440514469694,158.07592411658698 133.1554126474075,157.99760701694322 132.9324758842704,157.98641885329562 131.56913183280267,158.1542411360424 130.35155412647873,158.16542927511182 129.65702036439325,158.2661224532858 129.2711682743975,158.2549343289138 129.01393354771426,158.29968681653554 128.64523043946247,158.243746202912 127.87352625935455,158.3332511650442 127.42765273310943,158.2661224532858 126.99892818863736,158.2549343289138 126.69882100750692,158.1094885633065 126.09003215431585,157.1249253378628 125.6098606645246,156.68858076405013 124.09217577707022,154.40612242188217 123.67202572347014,153.51102212323167 122.6430868167372,151.9669494832633 121.98285101822694,150.8592259917641 120.92818863881985,149.30391037130175 120.84244372992544,149.09131081445958 120.89389067524462,149.08012134770252 120.88531618434354,149.04655293768883 120.85101822079741,149.09131081445958 120.87674169350066,149.06893187934475 120.82529474815237,149.0577424093135 120.89389067524462,149.2032053917137 120.77384780280408,149.1136897429824 119.72775991429808,147.45763133928995 119.32475884244195,146.98766228579916 118.14147909969324,145.11894723323348 117.66130760984379,144.64896380489517 117.65273311897181,144.22373821375368 117.36977491961443,143.85446143969602 117.21543408362777,143.51875373377698 116.82958199357381,143.00399905514496 116.62379421220976,142.62352597829886 116.44372990354896,141.95209828273073 116.42658092174679,141.4709048071236 116.09217577707022,141.0904241009339 115.66345123259816,140.49731804735347 115.54340836015763,139.9713522259699 115.43193997861817,139.73634505113296 115.0032154340879,139.46776453815255 114.90032154342043,139.47895541171602 114.84030010722927,139.42300102759327 114.52304394426756,138.5277253123786 114.60021436228999,138.41581511080585 114.52304394426756,138.4381971642215 114.48017148979125,138.38224201840058 114.0,137.0952623607227 114.24866023581126,136.4685513791992 114.56591639874387,134.6667286880329 114.58306538051693,132.28288558086206 114.51446945339558,131.42110240706097 114.78027867095079,130.57050169527793 114.93461950696656,130.25712009971176 115.10610932478448,130.11162106502888 115.5091103965533,129.96612175339396 116.00643086817581,129.66392999046366 117.34405144694028,128.57826824549556 117.87566988210892,128.22010841093288 118.71596998927998,127.90671717900113 119.58199356912519,127.71644330415438 119.56484458738123,128.25368596668704 119.33333333337214,128.6230381068017 119.37620578779024,128.85807944853877 119.47052518755663,129.02596567873115 120.27652733118157,129.04835048155655 120.8595927116985,129.1155048507062 121.39121114683803,129.2721981493014 121.51982851017965,129.38412173733377 121.51982851017965,130.16758226498496 121.99142550912802,132.41718857707747 121.89710610933253,133.55875451820611 121.90568060023361,134.44289681681403 121.78563772776397,134.67792026438838 121.39978563771001,134.93532606840745 121.39121114683803,135.22630549886526 121.61414790997515,135.42775214806898 121.90568060023361,135.5396667238092 122.05144694537739,135.48370945639908 122.3687031082518,135.23749699329346 122.5058949624945,135.20392250507575 122.60021436226089,135.23749699329346 122.70310825295746,135.3941777434011 122.93461950699566,136.03208891065879 123.28617363344529,136.54689053285983 123.32047159702051,136.524507925722 123.28617363344529,136.5692731334202 123.93783494105446,137.40861592491274 124.64951768491301,137.8338794219453 124.72668810290634,137.94579047537263 124.72668810290634,138.0912745999085 124.58092175776255,138.29271369986964 123.9635584136995,138.55010733304516 123.6463022508251,138.79630912774883 123.62057877812185,138.99774637007795 124.09217577707022,139.5237188894971 124.08360128616914,139.70277253860695 122.43729903540225,141.45971422513685 122.15434083598666,141.90733622670086 121.70846730977064,142.46686004337244 121.21972132907831,142.88090503157582 120.81672025725129,143.11590254097246 119.05037513398565,143.95517346404813 118.95605573419016,143.9663636808109 118.94748124331818,143.83208097182796 118.99035369776539,143.83208097182796 118.32154340835405,144.4923020201386 117.86709539123694,144.76086488321744 117.81564844588866,144.86157571365766 117.96998928190442,144.91752611771517 118.10718113614712,145.051806920339 119.35905680601718,146.99885205872852 119.70203644159483,147.3793033642869 119.97642015008023,147.79332175180025 120.88531618434354,149.24796317679284 123.70632368704537,153.5557773869732 124.09217577707022,154.37255634973553 124.5123258306703,155.0103092007921 124.71811361206346,155.25645800149505 125.00964630229282,155.24526943682577 124.77813504825463,155.27883512589324 124.70953912113328,155.2228923025832 124.89817792069516,155.55854862859997 125.66130760987289,156.7557108605397 126.1586280814372,157.225619886005 126.72454448018107,158.09830041601526 126.85316184352268,158.18780554837576 127.08467309756088,158.2549343289138 127.942122186505,158.29968681653554 128.7224008574849,158.2325580752804 129.10825294750975,158.28849869707483 129.37406216506497,158.22136994602624 129.71704180067172,158.243746202912 130.5058949625236,158.1542411360424 131.7834941050678,158.1542411360424 133.08681672025705,157.9752306879891 133.28403001072002,157.99760701694322 133.28403001072002,158.0423596551409 133.42122186496272,158.08711226711603 134.46730975352693,157.6172085349899 138.81457663455512,154.97674339383957 139.08038585208124,154.7753482428525 139.35476956059574,154.37255634973553 139.7320471596904,154.19353704959212 139.98070739550167,153.9250073135845 140.5123258306412,153.56696619880677 140.58092175776255,153.37675617477362 140.58949624866364,153.1417901977693 140.36655948555563,152.52639969359734 140.34083601285238,152.26905310519214 140.40085744910175,151.85505895005917 140.59807073959382,151.5417645860507 140.58949624866364,151.40749518000666 139.68060021434212,149.37104695064045 140.3751339764567,149.02417398948455 140.80385852092877,148.94584761920123 141.23258306540083,149.37104695064045 141.4297963558638,149.639592678599 142.0300107181247,150.16549199733709 142.99892818863736,150.28857429431082 143.8478027867095,150.70257693024905 144.0793140407477,150.7473338376949 144.3022508038557,150.72495538726798 144.4480171489704,150.62425227915082 144.74812433012994,150.29976358419663 144.89389067524462,150.05359882819175 145.44265809221542,149.37104695064045 145.65702036445145,149.01298451294133 146.43729903540225,148.0618730207716 147.01178992495988,147.40168279389763 147.34619506969466,147.13312920627504 147.57770632370375,146.68553779750073 148.6066452304367,145.33155783514667 149.28403001074912,144.91752611771517 149.66988210080308,145.24203765376296 149.78135048234253,145.28679775755882 149.8928188639111,145.27560773405276 150.7159699893091,144.63777368806768 151.65058949621744,144.02231473993743 152.60235798501526,143.55232457067177 153.4598070740176,143.23899618616997 155.91211146838032,142.7466204162265 156.7438370846794,142.66828761500074 159.35905680601718,142.04162231616647 160.8510182207974,141.95209828273073 161.56270096465596,141.86257414449938 165.6098606645246,141.7730499014142 167.5305466238351,141.6835255535043 169.6312968917773,141.67233500266593 169.6312968917773,141.6275727828397 170.55734190784278,141.51566711867054 173.5669882101065,141.45971422513685 176.2679528403387,141.35899891364534 183.00750267956755,141.04566154046188 184.07073954984662,141.02328025036695 184.2593783494376,141.05685218305734 184.33654876743094,141.21352100723016 184.43086816722644,143.13828321846086 184.68810289390967,149.8186226399921 184.6795284030377,151.06063145647204 184.71382636658382,151.08300980870263 184.8510182207974,153.07465692886035 184.91103965704679,156.14034943718434 185.04823151126038,158.243746202912 185.09967845660867,161.49942180996004 185.1768488746311,161.96930169039115 186.0,172.28355669584562" stroke="#ff0000" stroke-linecap="round" stroke-linejoin="round" stroke-width="0.5"><title>2024-05-01 33.3km</title><desc>11306235000</desc></polyline><polyline fill="none" points="61.235668789828196,257.4836849607964 61.64599396579433,257.64125086113927 61.935635266592726,257.8933560614096 62.15286624210421,258.36605251563014 62.24941334221512,258.7757219356863 62.20113979221787,259.027825806319 62.15286624210421,259.185390575527 61.88736171647906,259.62657131504966 61.25980556500144,260.1938023648836 61.114984914660454,260.44590457351296 61.09084813948721,260.60346830387425 61.13912168960087,260.98162078605674 61.6218571907375,262.0215366837365 61.839088166248985,262.24212425811857 62.0804559168173,262.3051492378436 62.32182366750203,262.3051492378436 62.58732819312718,262.24212425811857 63.91485082136933,261.61187344534846 65.43546765006613,261.07615880256344 65.74924572580494,260.98162078605674 66.28025477705523,260.98162078605674 66.49748575268313,260.88708272778604 67.0043580288766,260.35136628001055 67.5353670802433,259.56354555053986 67.96982903114986,258.8072349356371 68.5249748575734,257.64125086113927 68.74220583308488,257.01098656760587 69.00771035871003,255.78196588346327 69.05598390882369,255.37229076153017 69.00771035871003,254.26931540125224 69.03184713388328,252.9142236442858 69.10425745893735,251.9688057348103 69.15253100916743,250.73975623988372 69.03184713388328,247.87194677331718 69.17666778399143,246.23318133868452 69.17666778399143,245.19318910593574 69.08012068388052,244.7519787605852 68.74220583308488,244.1531918443361 67.5353670802433,242.76652100631327 67.02849480393343,242.01015132640896 66.76299027830828,241.41135677676357 66.7147167280782,241.15923225707957 66.7147167280782,240.81256056006532 66.83540060347877,239.96163675255957 67.05263157887384,239.45738401876588 67.26986255450174,239.04767780200928 67.51123030518647,238.76403457940614 68.21119678183459,238.1337149675528 69.41803553467616,237.2512644075323 69.70767683547456,236.87307020201115 69.87663426087238,236.5263915960095 69.9731813610997,236.21122874201683 70.09386523638386,235.42331958650902 70.06972846132703,235.01360568487144 69.9731813610997,234.63540754443966 69.70767683547456,234.0365924618527 69.36976198467892,233.02805802771763 69.10425745893735,232.5553058837395 68.54911163274664,232.05103578466515 68.40429098228924,231.8304172445496 68.33188065711875,231.54676450314582 68.25947033194825,230.16001238235913 68.16292323160451,229.93939190234232 67.9939658063231,229.8448401986825 66.7147167280782,229.43511566940288 66.087160576717,229.3090464265115 64.9527321489295,228.89932087645866 64.01139792159665,228.39504220485105 63.021790144150145,227.92227987635124 61.01843781431671,227.07130506585236 60.294334562611766,226.78764604742173 59.93228293675929,226.72461065916286 59.15990613482427,226.75612835565698 58.242708682548255,226.91371676848212 56.746228628908284,226.78764604742173 55.804894401691854,226.85068141728698 54.45323499850929,227.07130506585236 52.20851491787471,227.54406926516094 51.84646329213865,227.54406926516094 51.62923231662717,227.4179989136028 51.02581293997355,226.40943344088737 50.205162588041276,225.49541689555917 50.13275226287078,225.30630953905347 50.08447871275712,224.9596122871153 50.13275226287078,224.07710766876698 50.08447871275712,223.35219045171107 50.44653033872601,222.02842227155634 50.54307743883692,221.08286858242354 50.47066711366642,220.45249714663078 50.494803888723254,220.29490399896167 50.59135098895058,220.07427339820424 51.07408649020363,219.60149277714663 51.17063359031454,219.28630511906522 51.194770365487784,217.48972664639587 51.09822326526046,216.67022972673294 51.07408649020363,215.59857519656362 51.12236004031729,214.81059051706688 51.218907140544616,214.4638763434632 51.532685216283426,213.99108338750375 51.87060006707907,213.83348550453957 53.00502849498298,213.70740711494 54.06704659736715,213.4552501141152 56.384177002939396,213.2661321694468 60.17365068721119,212.47813894296996 61.42876299028285,212.22598050060333 61.911498491535895,212.22598050060333 62.41837076772936,212.13142100842379 63.28729466977529,211.8792621595785 65.19409989949781,211.72166272887262 66.44921220245305,211.4379834624997 67.34227287967224,211.31190366840747 67.87328193103895,211.18582380046428 69.6594032853609,210.96518385363743 71.7834394905949,210.58694341794762 72.07308079116046,210.42934303999937 72.24203821655829,210.1771821951843 72.36272209195886,209.67285961838206 72.24203821655829,209.26309665376903 72.26617499173153,209.1054953057319 72.36272209195886,209.1054953057319 72.82132081803866,209.1685358586983 73.25578276906163,209.1054953057319 73.69024472008459,209.04245473403716 74.02815957099665,208.91637353546685 74.53503184719011,208.6642109163513 76.56252095208038,207.4349139137339 77.23835065378807,207.15122899190465 78.17968488112092,206.6468993180897 78.49346295674331,206.33169267133053 78.63828360720072,206.11104774357227 79.00033523305319,205.13390319939936 79.36238685890567,204.47196404980787 79.72443848487455,204.12523320571927 80.08649011072703,203.99914912383247 80.78645658737514,203.93610705521132 81.31746563862544,204.06219117410365 81.77606436493807,204.31435918997158 82.0415688904468,204.5034850078955 82.47603084146976,204.91325704261544 83.10358699294738,205.32302829649416 84.26215219590813,205.8273610752658 85.0103922226699,205.98496482612973 85.32417029840872,206.01648556241707 85.80690579966176,205.95344408527308 85.97586322505958,205.8273610752658 86.0,205.76431954266445 85.75863224943168,205.85888183470524 84.84143479727209,205.9219233397016 84.35869929613546,205.89040258954628 83.53804894408677,205.7012779914803 83.03117666777689,205.48063241684576 82.4277572913561,205.00781970894604 81.41401273896918,204.4089221196773 80.71404626220465,204.1567542147095 80.18303721095435,204.18827521895582 79.89339591027237,204.34588017113856 79.41066040901933,204.72413158514246 79.12101910833735,205.22846576871234 78.95206168293953,205.85888183470524 78.80724103248212,206.17408917468856 78.49346295674331,206.5838580257696 78.10727455595043,206.86754369594564 75.3556821992388,208.22292562144867 74.17298022133764,208.94789384191972 73.23164599412121,209.1685358586983 72.33858531678561,209.1685358586983 72.07308079116046,209.0109344413504 71.9523969158763,208.79029226279818 71.73516594036482,207.5609959809808 71.51793496485334,206.99362609595119 71.08347301383037,206.0795270211529 70.74555816303473,205.606715630056 70.52832718740683,205.22846576871234 69.92490781098604,204.47196404980787 69.34562520950567,204.09371219220338 69.08012068388052,203.77850180270616 68.88702648354229,203.6524175174418 68.04223935643677,203.4632909509819 67.39054642990232,203.4632909509819 66.56989607773721,203.6524175174418 65.7975192759186,203.77850180270616 64.61481729813386,204.12523320571927 63.60107274563052,204.59804785439337 62.852832718752325,204.81869433463726 62.49078109289985,204.81869433463726 60.48742876306642,204.37740114776534 59.811599061475135,204.18827521895582 58.53234998323023,203.6524175174418 57.615152531070635,203.14807963721978 56.86691250419244,202.5806981081114 55.70834730146453,201.5089733570494 55.12906470010057,201.06767337744532 54.76701307413168,200.75245855182584 54.13945692253765,200.37420015105454 53.72913174657151,200.09050591390405 53.463627220946364,199.80681130234734 53.10157559509389,199.27094268146902 52.522292993729934,198.86115989384416 51.09822326526046,198.32528891623951 49.96379483747296,197.85246047396504 48.90177673485596,197.69485076217097 46.51223600411322,197.7894166030892 45.6674488770077,197.9470262455725 44.00201139796991,198.10463577252813 43.32618169626221,198.10463577252813 42.02279584307689,198.32528891623951 40.84009386529215,198.38833262992557 38.47468990960624,198.38833262992557 37.31612470676191,198.48289816583565 36.157559504034,198.70355092136015 35.167951726471074,198.6405073000933 33.50251424743328,198.76659452427702 31.306067717145197,198.76659452427702 30.919879316003062,198.86115989384416 29.906134763732553,199.27094268146902 29.206168286968023,199.49159462825628 27.492457257816568,199.77528965569218 27.03385853173677,199.77528965569218 24.765001676161774,199.61768135335296 23.075427422183566,199.64920302302926 20.516929265926592,200.0589843088237 20.010056989616714,200.24811386964575 19.551458263536915,200.27963544693193 18.8514917868888,200.5002863585978 18.19979886035435,200.75245855182584 17.089507207507268,201.47745195991592 15.737847804208286,202.5806981081114 14.84478712710552,203.8730649680365 14.458598726196215,204.81869433463726 14.096547100227326,206.70994059203076 14.0,207.37187285236723 14.144820650457405,207.65555748295446 14.555145826307125,208.06532351093483 14.820650352048688,208.4435683820775 15.18270197790116,209.1054953057319 16.003352329833433,211.12278383875673 16.1964465304045,211.97382176261453 16.36540395580232,212.22598050060333 16.534361381316558,212.38357956179243 16.944686557282694,212.44661915388133 18.15152531012427,212.32053995109163 18.68253436149098,212.3520597587776 20.130740865017287,212.09990116854897 22.158229969907552,211.91078203186044 23.534026148263365,211.7531826242339 26.18907140463125,211.59558310112334 27.9751927589532,211.37494357468677 28.91652698640246,211.28038370829017 29.80958766338881,211.50102333174436 30.606101240380667,211.37494357468677 30.99228964128997,211.37494357468677 31.571572242770344,211.50102333174436 32.199128394247964,211.4064635209652 33.74388199811801,211.56406318265363 34.83003687567543,212.0053416209994 35.578276902553625,212.41509936007787 37.29198793170508,213.17157313466305 37.43680858204607,213.29765183845302 37.55749245733023,213.5813286514749 37.605766007327475,214.11716161074582 37.58162923238706,214.93666825987748 37.48508213204332,215.6300945236435 37.509218907216564,216.54415300038818 37.58162923238706,216.82782553083962 37.77472343284171,217.23757408073288 37.96781763329636,217.48972664639587 38.160911833751015,217.6473218498286 38.836741535458714,217.99403089082625 39.4401609118795,218.18314467756136 40.33322158898227,218.34073937288485 40.76768354012165,218.52985285474278 41.08146161586046,218.84504162156372 41.92624874296598,220.01123604208988 42.457257794216275,220.42097852633742 42.79517264501192,220.61009017885954 43.56754944694694,220.86223879009776 44.65370432450436,220.8937573456933 45.257123701041564,220.86223879009776 45.54676500172354,220.767683095517 46.07777405309025,220.38945990148932 46.53637277917005,220.10579206928378 47.40529668121599,219.91667997337936 47.767348307184875,219.91667997337936 48.7810928595718,220.04275472240988 50.06034193758387,220.04275472240988 50.205162588041276,220.10579206928378 50.349983238382265,220.29490399896167 50.494803888723254,221.1459056243766 50.494803888723254,221.83931186633708 50.39825678861234,222.31208756756678 50.10861548781395,223.06852652766975 50.01206838758662,223.50978135895275 50.15688903792761,224.29773416285752 50.13275226287078,225.21175579854753 50.22929936309811,225.65300623224175 50.205162588041276,225.8105954535131 49.9155212873593,226.28336242420482 49.65001676173415,226.88219909518375 49.21555481071118,227.32344610149448 48.853503184742294,227.8277272858686 48.63627220923081,227.92227987635124 48.27422058337834,227.9853149134724 47.839758632238954,227.9853149134724 47.04324505536351,227.85924482057453 45.35367080126889,227.54406926516094 43.73650687234476,227.00826976077224 42.72276231984142,226.85068141728698 42.119342943420634,226.85068141728698 41.15387194103096,226.97675210131274 40.45390546438284,227.1658579888026 39.68152866244782,227.44951650846633 39.39188736176584,227.63862198023708 38.20918538386468,228.52111198363127 37.509218907216564,229.3405637441465 36.97820985573344,230.2545639473683 36.7851156553952,230.50670125086617 35.77137110289186,231.3891794852243 34.83003687567543,231.95648500938842 33.62319812271744,232.42923846977646 32.65772712044418,232.74440686609887 30.48541736509651,233.1226083318761 29.326852162368596,233.56384253474243 28.361381159862503,233.97355919827532 27.9751927589532,234.19417553996027 27.299363057361916,234.72995714179706 26.092524304403923,235.95909812631726 25.41669460281264,236.5263915960095 24.644317800877616,237.03065120178508 24.330539725138806,237.28278056131967 24.137445524684153,237.56642573748832 23.896077774115838,238.00765082352154 23.654710023547523,238.76403457940614 23.509889373206533,239.6464789325255 23.485752598033287,240.43437261674262 23.60643647343386,241.9471203997673 23.678846798604354,242.26227484861738 23.9443513242295,242.76652100631327 24.427086825366132,243.52288802625844 25.151190077187493,244.4053128544183 26.33389205497224,245.35076400985417 27.082132081850432,245.82348802917113 28.192423734581098,246.32772583780752 28.86825343617238,246.73741818696726 29.2544418371981,247.0525656167447 30.268186389585026,248.06103428917413 30.65437479049433,248.4076943033724 31.257794167031534,248.69132480835833" stroke="#4dd2ff" stroke-linecap="round" stroke-linejoin="round" stroke-width="0.5"><title>2023-12-26 11.0km</title><desc>10436709260</desc></polyline><polyline fill="none" points="161.2356687898282,257.4836849607964 161.64599396579433,257.64125086113927 161.93563526659273,257.9248691906396 162.1528662421042,258.36605251563014 162.24941334221512,258.7757219356863 162.20113979221787,259.027825806319 162.12872946704738,259.27992938166426 161.83908816624898,259.68959706113674 161.33221589017194,260.0992639604956 161.1632584646577,260.35136628001055 161.0908481394872,260.60346830387425 161.13912168960087,260.9501081045455 161.64599396579433,262.0845617279847 161.83908816624898,262.24212425811857 162.0804559168173,262.3051492378436 162.53905464301351,262.24212425811857 163.91485082136933,261.61187344534846 165.43546765006613,261.07615880256344 165.77338250086177,260.98162078605674 166.23198122694157,260.98162078605674 166.4733489775099,260.88708272778604 166.83540060347877,260.5719555671385 167.4629567549564,259.6580841903633 167.9939658063231,258.7757219356863 168.47670130745973,257.76730349815625 168.74220583308488,257.04249982612964 169.0559839088237,255.5298582085088 169.00771035871003,252.9772513571661 169.1283942339942,251.77972165422398 169.15253100916743,250.6452136801381 169.03184713388328,247.87194677331718 169.17666778399143,246.26469617639668 169.17666778399143,245.13015911191178 169.03184713388328,244.65743356884923 168.74220583308488,244.1531918443361 167.55950385518372,242.79803635193093 167.02849480393343,242.01015132640896 166.76299027830828,241.3798412279284 166.69057995302137,240.93862305990478 166.83540060347877,239.96163675255957 167.0767683540471,239.39435234392295 167.29399932955857,239.04767780200928 167.55950385518372,238.73251864263148 168.2111967818346,238.1337149675528 169.39389875961933,237.2512644075323 169.70767683547456,236.87307020201115 169.87663426087238,236.5263915960095 169.9731813610997,236.21122874201683 170.09386523638386,235.45483600813895 170.06972846132703,235.01360568487144 169.94904458604287,234.63540754443966 169.70767683547456,234.0365924618527 169.46630908490624,233.24867533931683 169.29735165950842,232.90199089095404 169.03184713388328,232.46075533026305 168.54911163274664,232.0195188641519 168.40429098228924,231.8304172445496 168.33188065711875,231.4837305098772 168.25947033194825,230.22304676366912 168.1629232316045,229.97090912755812 167.9939658063231,229.8448401986825 166.03888702648692,229.2775291041762 165.00100569892675,228.89932087645866 163.89071404619608,228.3320072878123 162.99765336920973,227.92227987635124 161.0184378143167,227.07130506585236 160.29433456261177,226.78764604742173 159.9322829367593,226.72461065916286 159.06335903471336,226.75612835565698 158.29098223266192,226.91371676848212 156.74622862890828,226.78764604742173 155.80489440169185,226.85068141728698 154.38082467322238,227.1028227115312 152.25678846798837,227.54406926516094 151.8947368422523,227.57558684145624 151.7499161917949,227.54406926516094 151.62923231662717,227.4179989136028 151.00167616503313,226.37791569360706 150.2292993630981,225.5269347721187 150.13275226287078,225.30630953905347 150.08447871275712,224.9596122871153 150.13275226287078,224.07710766876698 150.08447871275712,223.35219045171107 150.446530338726,221.96538548829267 150.54307743883692,221.08286858242354 150.47066711366642,220.35794127188274 150.5189406638965,220.20034805493196 150.63962453906424,220.01123604208988 151.1223600403173,219.5384552825417 151.17063359031454,219.28630511906522 151.19477036548778,217.48972664639587 151.09822326526046,216.67022972673294 151.07408649020363,215.5040171874134 151.1223600403173,214.7160321616102 151.19477036548778,214.52691532568133 151.48441166616976,214.05412250834343 151.65336909156758,213.9280442482268 151.91887361719273,213.83348550453957 153.00502849498298,213.70740711494 154.21186724782456,213.4552501141152 156.43245055316947,213.23461249584216 160.07710358710028,212.47813894296996 161.40462621522602,212.22598050060333 162.41837076772936,212.13142100842379 163.26315789483488,211.8792621595785 165.19409989949781,211.72166272887262 166.44921220245305,211.4379834624997 167.22158900438808,211.3434236239118 168.01810258137994,211.15430382189516 169.75595038558822,210.9336638426903 171.7834394905949,210.58694341794762 172.07308079116046,210.42934303999937 172.24203821655829,210.1771821951843 172.36272209195886,209.73590000518016 172.3385853167856,209.54677878935763 172.21790144161787,209.29461690961034 172.26617499173153,209.13701558447792 172.4109956419561,209.1054953057319 172.82132081803866,209.1685358586983 173.3040563191753,209.1054953057319 173.73851827019826,209.04245473403716 174.0764331209939,208.91637353546685 176.56252095208038,207.4349139137339 177.2624874288449,207.15122899190465 178.13141133089084,206.6468993180897 178.46932618168648,206.33169267133053 178.68655715719797,206.01648556241707 179.0244720079936,205.10238233376003 179.33825008384883,204.5034850078955 179.5313442843035,204.28283820419165 179.7727120348718,204.12523320571927 180.0623533356702,203.99914912383247 180.47267851151992,203.93610705521132 180.78645658737514,203.93610705521132 181.12437143817078,203.96762809183565 181.34160241379868,204.06219117410365 181.9691585652763,204.44044308707817 182.45189406652935,204.91325704261544 183.2484076434048,205.41759078258474 184.38283607107587,205.85888183470524 184.9379818974994,205.98496482612973 185.49312772369012,205.98496482612973 185.80690579966176,205.95344408527308 185.97586322505958,205.8273610752658 186.0,205.76431954266445 185.75863224943168,205.85888183470524 184.8414347972721,205.9219233397016 184.4069728461327,205.89040258954628 183.53804894408677,205.7012779914803 183.05531344295014,205.5121532272169 182.4277572913561,205.00781970894604 181.38987596379593,204.37740114776534 180.71404626220465,204.1567542147095 180.25544753612485,204.18827521895582 179.94166946026962,204.28283820419165 179.458933959133,204.69261065941828 179.09688233328052,205.2599866159435 178.97619845799636,205.79584031125705 178.80724103248212,206.17408917468856 178.5417365069734,206.55233737261733 178.10727455595043,206.86754369594564 175.3556821992388,208.19140520850488 174.2212537713349,208.91637353546685 173.27991954411846,209.1685358586983 172.43513241701294,209.20005612836394 172.14549111644737,209.04245473403716 171.9523969158763,208.82181258789205 171.73516594036482,207.5609959809808 171.30070398934186,206.4892960524594 171.01106268865988,205.95344408527308 170.72142138786148,205.575194833742 170.50419041235,205.19694491681003 169.9731813610997,204.5034850078955 169.34562520950567,204.09371219220338 169.08012068388052,203.77850180270616 168.86288970836904,203.6524175174418 167.94569225620944,203.4632909509819 167.31813610473182,203.4632909509819 166.5698960777372,203.6524175174418 165.82165605097543,203.77850180270616 164.61481729813386,204.09371219220338 163.45625209528953,204.66108972900838 162.73214884358458,204.8502152419387 160.51156553823967,204.37740114776534 159.85987261147238,204.18827521895582 158.43580288311932,203.58937534710276 157.63928930601105,203.14807963721978 156.8427757291356,202.5806981081114 156.19108280248474,201.95027243088407 155.03251759975683,201.00463044924254 154.79114984930493,200.75245855182584 154.18773047276773,200.43724326405209 153.75326852174476,200.09050591390405 153.51190077106003,199.86985458164418 153.05330204498023,199.23942095636448 152.52229299372993,198.86115989384416 149.9155212873593,197.85246047396504 148.90177673485596,197.69485076217097 146.60878310422413,197.7894166030892 145.64331210206728,197.9470262455725 143.97787462291308,198.10463577252813 143.35031847143546,198.10463577252813 141.97452229307964,198.32528891623951 140.719409990008,198.38833262992557 138.49882668454666,198.38833262992557 137.17130405642092,198.51442000198585 136.13342272886075,198.70355092136015 135.19208850164432,198.6405073000933 133.52665102260653,198.76659452427702 131.25779416703153,198.79811631872144 130.7750586658949,198.89268167440605 129.88199798867572,199.27094268146902 129.20616828696802,199.49159462825628 128.02346630918328,199.71224634860118 127.44418370781932,199.77528965569218 124.83741200133227,199.61768135335296 123.0271538720699,199.64920302302926 120.49279249075335,200.0589843088237 120.05833053973038,200.24811386964575 119.52732148848008,200.31115701963427 118.41702983586583,200.65789401406073 117.1136439825641,201.4459305581986 116.5826349313138,201.91875109850662 116.07576265512034,202.29700678198424 115.61716392892413,202.73830423860636 115.27924907812849,203.27416421825183 114.94133422733285,203.6524175174418 114.53100905136671,204.59804785439337 114.28964130068198,205.66975720896153 114.0,207.34035231468442 114.12068387540057,207.62403698690468 114.77237680181861,208.3490072266286 115.18270197790116,209.1054953057319 115.97921555489302,211.0912638509035 116.17230975534767,211.94230189954396 116.29299363063183,212.13142100842379 116.51022460614331,212.3520597587776 116.60677170648705,212.41509936007787 116.9446865572827,212.44661915388133 118.15152531012427,212.32053995109163 118.68253436149098,212.3520597587776 120.2272879651282,212.06838132400298 124.28226617502514,211.69014282882563 126.28561850485858,211.59558310112334 128.77170633594505,211.31190366840747 129.1096211867407,211.31190366840747 129.8095876633888,211.50102333174436 130.50955414015334,211.4064635209652 130.99228964128997,211.37494357468677 131.52329869265668,211.50102333174436 132.12671806907747,211.4064635209652 133.743881998118,211.56406318265363 134.83003687567543,212.0053416209994 135.50586657738313,212.38357956179243 137.17130405642092,213.10853375517763 137.41267180687282,213.2661321694468 137.5333556822734,213.48676975540002 137.60576600732747,214.11716161074582 137.58162923238706,214.96818768403318 137.48508213204332,215.59857519656362 137.50921890721656,216.54415300038818 137.60576600732747,216.92238295766583 137.82299698283896,217.30061224983365 138.11263828363735,217.61580281834176 138.88501508557238,218.02554986681207 139.4401609118795,218.18314467756136 140.40563191426918,218.37225829802628 140.74354676506482,218.52985285474278 141.00905129068997,218.75048504005827 141.92624874296598,219.97971735717147 142.72276231984142,220.57857158160186 143.01240362063982,220.73616452148417 143.6158229970606,220.86223879009776 144.65370432450436,220.8937573456933 145.25712370104156,220.86223879009776 145.54676500172354,220.767683095517 146.07777405309025,220.38945990148932 146.53637277917005,220.10579206928378 147.405296681216,219.91667997337936 147.83975863223895,219.91667997337936 148.82936640968546,220.04275472240988 150.10861548781395,220.07427339820424 150.20516258804128,220.10579206928378 150.32584646332543,220.26338535561808 150.49480388872325,221.1459056243766 150.49480388872325,221.83931186633708 150.42239356355276,222.2490508674382 150.10861548781395,223.06852652766975 150.01206838758662,223.50978135895275 150.1568890379276,224.29773416285752 150.13275226287078,225.21175579854753 150.2292993630981,225.8105954535131 149.96379483747296,226.18880911322776 149.65001676173415,226.88219909518375 149.2396915856516,227.29192848826642 148.95005028496962,227.70165710060974 148.7810928595718,227.85924482057453 148.3949044586625,227.9853149134724 147.98457928269636,227.9853149134724 146.39155212871265,227.76469220244326 145.3536708012689,227.54406926516094 143.78478042245843,227.03978741563333 143.0848139458103,226.88219909518375 142.65035199467093,226.85068141728698 142.0952061682474,226.85068141728698 141.15387194103096,226.97675210131274 140.45390546438284,227.1658579888026 139.7298022126779,227.44951650846633 139.41602413682267,227.60710441321135 138.16091183375102,228.5526294168085 137.50921890721656,229.3405637441465 136.8575259805657,230.4121497967426 136.56788467988372,230.7273211489519 135.74723432795145,231.3891794852243 134.83003687567543,231.95648500938842 133.69560844788793,232.39772160473512 132.6094535702141,232.74440686609887 130.41300703992601,233.15412509063026 129.2544418371981,233.56384253474243 128.38551793503575,233.94204255957447 127.9751927589532,234.19417553996027 127.25108950724825,234.79299018376332 126.09252430440392,235.9906144694105 125.4649681529263,236.49487533143838 124.69259135099128,236.99913501109404 124.3305397251388,237.28278056131967 124.13744552468415,237.56642573748832 123.89607777411584,238.00765082352154 123.65471002354752,238.76403457940614 123.50988937320653,239.551931496404 123.46161582309287,240.30830982117914 123.50988937320653,240.970138673365 123.65471002354752,242.16772856246098 123.82366744894534,242.57742883574974 124.37881327536888,243.42834229425353 124.69259135099128,243.86955535477318 125.1511900771875,244.4053128544183 126.30975527991541,245.35076400985417 127.15454240690451,245.85500292679353 128.16828695940785,246.2962110094668 128.91652698640246,246.7689329506684 130.6302380155539,248.37617977961781 131.25779416703153,248.69132480835833" stroke="#4dd2ff" stroke-linecap="round" stroke-linejoin="round" stroke-width="0.5"><title>2023-12-26 11.0km</title><desc>10437350044</desc></polyline></svg>