<?xml version="1.0" encoding="utf-8" ?>
<svg baseProfile="full" height="300mm" version="1.1" viewBox="0,0,200,300" width="200mm" xmlns="http://www.w3.org/2000/svg" xmlns:ev="http://www.w3.org/2001/xml-events" xmlns:xlink="http://www.w3.org/1999/xlink"><defs /><rect fill="#222222" height="300" width="200" x="0" y="0" /><text fill="#FFFFFF" style="font-size:12px; font-family:Arial; font-weight:bold;" x="10" y="20">Over 10km Workouts</text><text fill="#FFFFFF" style="font-size:4px; font-family:Arial" x="10" y="280">ATHLETE</text><text fill="#FFFFFF" style="font-size:9px; font-family:Arial" x="10" y="290">heigao</text><text fill="#FFFFFF" style="font-size:4px; font-family:Arial" x="120" y="280">STATISTICS</text><text fill="#FFFFFF" style="font-size:3px; font-family:Arial" x="120" y="285">Number: 3</text><text fill="#FFFFFF" style="font-size:3px; font-family:Arial" x="120" y="290">Weekly: 1.5</text><text fill="#FFFFFF" style="font-size:3px; font-family:Arial" x="141" y="285">Total: 55.3 km</text><text fill="#FFFFFF" style="font-size:3px; font-family:Arial" x="141" y="290">Avg: 18.4 km</text><text fill="#FFFFFF" style="font-size:3px; font-family:Arial" x="167" y="285">Min: 11.0 km</text><text fill="#FFFFFF" style="font-size:3px; font-family:Arial" x="167" y="290">Max: 33.3 km</text><polyline fill="none" points="95.04662379418733,88.42770630471932 94.80546623794362,85.86011683816469 94.5643086816417,79.83101488967804 94.53536977490876,77.1624674508057 94.36173633439466,74.61971787753282 94.10128617362352,68.48911653902906 94.04340836009942,66.37414653845917 94.06270096462686,64.67457938791631 94.00482315110276,63.94438466885913 93.3778135048342,64.1332287250043 91.68971061095363,64.24653495961684 88.56430868169991,64.30948280326993 87.68649517680751,64.38502015481208 81.31028938904637,64.5990422906907 79.40032154344954,64.69975840560801 77.69292604504153,64.69975840560801 76.4967845659121,64.8130638939474 72.02090032154229,65.0019060428167 70.77652733115247,65.02708496466948 69.74437299038982,64.96413764618774 67.53536977490876,65.05226387913717 67.41961414791876,64.91377975824435 67.44855305465171,65.01449550465622 66.27170418004971,65.20333721127827 65.53858520899666,65.20333721127827 65.03697749198182,65.1152111331321 64.5546623794362,65.10262168601184 63.368167202570476,65.1781583410193 62.885852090024855,65.07744278625614 62.33601286174962,65.16556890310312 61.71864951768657,65.19074777709466 61.50643086817581,65.10262168601184 61.03376205789391,64.71234791166353 60.87942122190725,64.68716889769712 60.33922829583753,65.01449550465622 59.92443729902152,65.1781583410193 59.42282958200667,65.27887377785373 58.709003215422854,65.70691306865046 58.207395498408005,66.19789669096645 57.570739549875725,66.46227132675995 57.41639871383086,66.60075295450952 56.98231511254562,66.7895911785381 55.9115755627281,67.532350837384 54.42604501609458,68.84160648329998 54.233118971053045,69.04302866010403 54.13665594859049,69.34516104089562 53.35530546627706,69.84871265063703 52.274919614137616,71.32158418829204 52.02411575563019,71.81253576334711 51.647909967869055,72.1146584168091 50.953376205812674,72.88254871850222 50.06591639871476,73.99031281448697 49.77652733121067,74.46866108243557 48.7347266881261,75.71487170991168 48.5610932475538,75.8407505674113 48.310289389046375,75.86592631683743 48.00160771701485,75.77781116169353 47.09485530544771,75.32464608109876 46.03376205789391,75.18617849700968 45.2620578778442,74.4812491588018 45.04983922827523,74.07842980053829 45.040192926011514,73.7133731278227 44.85691318329191,73.5874911573701 44.818327974295244,73.29796192620415 44.54823151126038,72.60560546554916 44.596463022520766,72.5804287619685 44.54823151126038,72.5804287619685 44.50964630226372,72.15242367386963 44.191318327968474,71.54817757113778 43.78617363347439,71.38452685451921 43.139871382620186,69.76059133173112 42.98553054663353,69.23186152245034 42.811897106061224,68.18698115140432 42.869774919585325,66.71405593866803 43.217041800613515,63.289722064189846 43.323151125398,62.38325792356045 43.43890675238799,62.1692302740048 43.39067524112761,61.8670726855853 43.622186495165806,59.525315381491964 43.709003215422854,59.084654997284815 43.89228295820067,58.94616126736946 44.54823151126038,58.89579985573073 45.12700964626856,59.009112990417634 50.34565916401334,59.185377569898264 52.22668810287723,59.19796788314852 52.853697749204,59.28610002449568 53.65434083598666,59.248329117835965 54.12700964632677,59.33646120756748 54.41639871383086,59.31128061972413 54.512861736351624,59.23573881192715 54.60932475887239,59.31128061972413 54.647909967869055,59.46236403624789 54.48392282961868,60.33108853075828 54.00160771701485,62.15664039570402 53.89549839228857,62.786132054403424 53.77974276529858,66.73923435932375 53.85691318329191,69.0682063990098 54.00160771701485,69.47104921970458 53.5578778135241,69.69764747725276 53.34565916395513,69.87389015379449 52.25562700966839,71.37193832497724 52.02411575563019,71.82512422840955 51.6189710610779,72.16501208920818 50.895498392230365,72.99584342864546 50.0852090032422,74.00290096085519 49.207395498408005,75.16100254867342 49.12057877815096,75.38758581839647 48.98553054657532,75.45052550962282 48.580385852081235,75.8407505674113 48.33922829583753,75.86592631683743 48.040192926011514,75.802986929506 47.0852090032422,75.32464608109876 46.17845659167506,75.24911833558144 45.98553054663353,75.18617849700968 45.300643086840864,74.55677757845842 45.04983922827523,74.2043110526356 44.79903536976781,74.0280772481201 44.65434083604487,73.80149039759999 44.5578778135241,73.54972653032746 44.307073955016676,73.6000793626954 43.51607717043953,73.97772466627066 43.42926045018248,74.1287823234743 43.45819935691543,74.34278021712817 44.46141479094513,76.60860760956712 44.451768488797825,76.75966064717795 44.326366559485905,76.8351870665283 44.22025723470142,77.0869413188193 44.15273311897181,77.59044761317637 44.181672025762964,77.90513755073334 44.41318327974295,78.53451397248864 44.3842443729518,78.89955018743058 44.25884244375629,79.1009488154159 43.64147909969324,79.50374465698405 43.48713826370658,79.7303164891564 43.004823151102755,79.95688772462017 42.6189710610779,80.48555162023695 40.88263665593695,81.58063078442501 37.44855305465171,83.6197065702363 36.34887459810125,84.07282795997162 36.26205787778599,84.08541463116126 36.04983922833344,83.99730789406021 35.79903536976781,83.98472120995575 34.2652733118739,84.1735212780477 32.89549839228857,84.18610793450353 32.11414790991694,84.29938775995106 31.680064308689907,84.28680112003349 31.390675241185818,84.33714766860794 30.97588424436981,84.27421447828237 30.107717041799333,84.37490756067564 29.606109324726276,84.29938775995106 29.123794212180655,84.28680112003349 28.786173633416183,84.12317463372165 28.10128617362352,83.01554100510111 27.561093247612007,82.5246533595564 25.853697749204002,79.95688772462017 25.381028938863892,78.94989988863381 24.223472668847535,77.21281816867122 23.48070739553077,75.9666292407419 22.294212218665052,74.2168991677172 22.197749196144287,73.97772466627066 22.255627009668387,73.9651365161626 22.24598070734646,73.92737205490266 22.207395498349797,73.97772466627066 22.23633440519916,73.95254836426466 22.178456591675058,73.93996021048224 22.255627009668387,74.10360606568429 22.120578778150957,74.00290096085519 20.943729903548956,72.13983525669755 20.490353697736282,71.61112007152406 19.159163987147622,69.50881563738949 18.6189710610779,68.98008428051253 18.609324758814182,68.5017054904747 18.290996784577146,68.08626911966712 18.11736334406305,67.70859795050637 17.683279742719606,67.12949893704354 17.451768488739617,66.70146672558622 17.249196141492575,65.9461105680748 17.22990353696514,65.40476790801767 16.853697749204002,64.97672711355699 16.37138263665838,64.30948280326993 16.23633440514095,63.71777125422523 16.110932475945447,63.453388182526396 15.628617363341618,63.15123510542617 15.512861736293416,63.163824838185974 15.445337620622013,63.10087615604425 15.088424437271897,62.09369097643503 15.175241157528944,61.96779199966113 15.088424437271897,61.99297180974827 15.040192926011514,61.930022270702466 14.5,60.482170155817585 14.779742765298579,59.777120301601826 15.136655948590487,57.75006977403973 15.155948553059716,55.06824627847527 15.078778135066386,54.09874020794814 15.377813504834194,53.14181440718676 15.551446945290081,52.789260112178454 15.74437299038982,52.62557369815477 16.197749196144287,52.4618869725673 16.757234726683237,52.12192123926798 18.262057877785992,50.90055177618342 18.860128617379814,50.49762196230586 19.80546623794362,50.14505682637537 20.77974276524037,49.93099871717277 20.760450160771143,50.53539671252656 20.5,50.950917870155536 20.548231511260383,51.21533937961067 20.65434083598666,51.40421138857346 21.5610932475538,51.42939429175749 22.217041800671723,51.504942957049934 22.815112540207338,51.68122291796317 22.95980707393028,51.80713695449958 22.95980707393028,52.688530048115354 23.490353697736282,55.21933714921033 23.384244373010006,56.5035988329837 23.393890675215516,57.49825891891669 23.258842443756294,57.76266029744147 22.824758842412848,58.05224182696111 22.815112540207338,58.37959368622978 23.065916398714762,58.6062211665776 23.393890675215516,58.732125064285356 23.5578778135241,58.669173138456244 23.9147909967578,58.39218411745969 24.069131832802668,58.35441281821113 24.175241157528944,58.39218411745969 24.290996784577146,58.56844996132713 24.55144694534829,59.28610002449568 24.946945337636862,59.86525184947095 24.985530546633527,59.84007141643815 24.946945337636862,59.890432275104104 25.680064308689907,60.83469291553047 26.48070739553077,61.31311434969393 26.56752411572961,61.43901428479148 26.56752411572961,61.602683924895246 26.403536977479234,61.82930291235971 25.709003215422854,62.11887074967672 25.352090032189153,62.39584776871925 25.323151125398,62.62246466633951 25.853697749204002,63.21418375068606 25.844051446882077,63.41561910593737 23.99196141480934,65.39217850327987 23.673633440455887,65.8957532550412 23.17202572344104,66.52521754879854 22.622186495224014,66.99101816053007 22.168810289353132,67.25539035859401 20.181672025704756,68.1995701470587 20.075562700920273,68.2121591409159 20.065916398714762,68.0610910933101 20.114147909975145,68.0610910933101 19.361736334394664,68.80383977265592 18.850482315116096,69.10597299362416 18.792604501591995,69.21927267786668 18.96623794210609,69.28221688243502 19.120578778150957,69.43328278538684 20.528938906791154,71.62370856607595 20.9147909967578,72.0517162848264 21.223472668789327,72.5174869707771 22.24598070734646,74.15395857389376 25.419614147918765,79.00024956034758 25.853697749204002,79.91912589345156 26.326366559485905,80.6365978508984 26.5578778135241,80.91351525169011 26.885852090083063,80.90092811643262 26.625401929253712,80.93868951663171 26.548231511260383,80.87575384040974 26.760450160771143,81.25336720718042 27.6189710610779,82.60017471811443 28.17845659161685,83.12882237176382 28.815112540207338,84.11058796801808 28.95980707393028,84.2112812419291 29.22025723475963,84.28680112003349 30.184887459792662,84.33714766860794 31.062700964685064,84.26162783469772 31.496784565912094,84.32456103421282 31.7958199356799,84.24904118927952 32.181672025704756,84.27421447828237 33.06913183280267,84.1735212780477 34.50643086817581,84.1735212780477 35.9726688102819,83.97213452399592 36.19453376205638,83.99730789406021 36.19453376205638,84.04765461203351 36.34887459810125,84.0980013005028 37.52572347270325,83.5693596018682 42.41639871383086,80.59883631806588 42.715434083598666,80.3722667732145 43.02411575563019,79.91912589345156 43.44855305465171,79.71772918078932 43.72829581995029,79.41563322778529 44.326366559485905,79.01283697366307 44.403536977479234,78.79885069662123 44.41318327974295,78.53451397248864 44.16237942123553,77.84219965530065 44.13344051444437,77.55268474334298 44.20096463023219,77.0869413188193 44.42282958200667,76.73448515930795 44.41318327974295,76.58343207751022 43.39067524112761,74.2924278194696 44.172025723499246,73.90219573817012 44.65434083604487,73.81407857160957 45.13665594859049,74.2924278194696 45.358520900364965,74.59454176342115 46.03376205789391,75.18617849700968 47.12379421223886,75.32464608109876 48.07877813500818,75.79039904653473 48.33922829583753,75.8407505674113 48.590032154344954,75.81557481068012 48.75401929259533,75.7022838140474 49.0916398713598,75.33723403222393 49.25562700966839,75.06029868171754 49.87299035373144,74.2924278194696 50.114147909975145,73.88960757706081 50.99196141480934,72.81960714837624 51.63826366554713,72.07689314313757 52.01446945342468,71.7747703570567 52.274919614137616,71.27123002219014 53.43247588421218,69.74800256454182 54.19453376205638,69.28221688243502 54.628617363399826,69.64729236048879 54.75401929259533,69.69764747725276 54.87942122184904,69.68505870081572 55.80546623794362,68.96749539907614 56.8569131832337,68.2751040824296 57.927652733109426,67.7463651420112 58.892282958258875,67.3938707094494 61.65112540189875,66.839947968263 62.58681672025705,66.75182356687583 65.52893890673295,66.04682510568819 67.207395498408,65.9461105680748 68.00803858519066,65.8453959125618 72.5610932475538,65.74468113909825 74.72186495177448,65.6439662476987 77.0852090032422,65.6313768780019 77.0852090032422,65.5810193806974 78.12700964632677,65.45512550850253 81.51286173635162,65.39217850327987 84.55144694534829,65.27887377785373 92.13344051450258,64.92636923302052 93.32958199357381,64.901190281671 93.54180064308457,64.93895870594133 93.62861736334162,65.1152111331321 93.7347266881261,67.28056862076483 94.02411575563019,74.7959504699902 94.01446945342468,76.19321038853377 94.05305466242135,76.21838603478682 94.207395498408,78.45898904497153 94.27491961419582,81.90789311683329 94.42926045018248,84.27421447828237 94.48713826364838,87.93684953620686 94.57395498396363,88.46546440169186 95.5,100.06900128282723" stroke="#ff0000" stroke-linecap="round" stroke-linejoin="round" stroke-width="0.5"><title>2024-05-01 33.3km</title><desc>11306235000</desc></polyline><polyline fill="none" points="157.64012738852762,105.91914558089047 158.10174321150407,106.09640721876349 158.4275896748295,106.38002556908759 158.6719745224109,106.91180908007664 158.780590009992,107.37268717764528 158.72628226620145,107.65630403210525 158.6719745224109,107.83356439745694 158.37328193092253,108.32989272942359 157.66728126059752,108.96802766049223 157.5043580288766,109.25164264519117 157.4772041569231,109.42890184184944 157.53151190083008,109.85432338429382 158.07458933955058,111.02422876919445 158.31897418701556,111.27238979036338 158.59051290643401,111.34329289257585 158.86205162585247,111.34329289257585 159.16074421722442,111.27238979036338 160.65420717396773,110.56335762600065 162.36490110633895,109.96067865287478 162.71790144138504,109.85432338429382 163.31528662412893,109.85432338429382 163.55967147171032,109.74796806875383 164.1299027823843,109.1452870649955 164.7272879652446,108.25898874434642 165.21605766005814,107.40813930258446 165.84059671475552,106.09640721876349 166.08498156210408,105.38735988855478 166.38367415359244,104.00471161887981 166.437981897383,103.54382710671052 166.38367415359244,102.30297982638876 166.41082802554592,100.7785015998088 166.49228964128997,99.71490645164158 166.54659738519695,98.33222576986009 166.41082802554592,95.10594011997455 166.57375125703402,93.26232900601462 166.57375125703402,92.09233774417953 166.46513576933648,91.59597610564379 166.08498156210408,90.92234082486539 164.7272879652446,89.36233613209333 164.1570566544542,88.51142024219735 163.85836406308226,87.837776373839 163.80405631905887,87.55413628919632 163.80405631905887,87.16413063005893 163.9398256788263,86.2068413466186 164.18421052629128,85.63955702110252 164.42859537375625,85.17863752726407 164.70013409329113,84.85953890183009 165.48759637959301,84.15042933847872 166.8452899765689,83.15767245845927 167.17113643989433,82.73220397724072 167.36121354345232,82.3421905455034 167.46982903114986,81.9876323347562 167.6055983909173,81.10123453481356 167.5784445189638,80.640306395464 167.46982903114986,80.21483348748006 167.17113643989433,79.54116651958611 166.79098223266192,78.4065652811696 166.49228964128997,77.87471911920875 165.867750586709,77.30741525774647 165.7048273551045,77.0592194001074 165.62336573924404,76.74011006602086 165.54190412338357,75.18001393013401 165.43328863556962,74.93181589012966 165.24321153212804,74.82544522351236 163.80405631905887,74.36450512806186 163.09805564885028,74.22267722981633 161.82182366750203,73.76173598600144 160.76282266178168,73.19442248044652 159.64951391215436,72.66256486088969 157.39574254106265,71.70521819907299 156.58112638292369,71.38610180334945 156.1738183037378,71.31518699154549 155.30489440157544,71.35064440011047 154.273047267925,71.52793136452965 152.58950720750727,71.38610180334945 151.53050620178692,71.45701659443148 150.00988937320653,71.70521819907299 147.48457928257994,72.23707792328787 147.07727120362688,72.23707792328787 146.8328863561619,72.09524877779768 146.15403955744114,70.96061262099829 145.23080791148823,69.93234400749498 145.14934629574418,69.7195982314297 145.0950385518372,69.32956382299017 145.14934629574418,68.33674612735922 145.0950385518372,67.52121425815858 145.5023466310231,66.03197505549178 145.61096211860422,64.96822715521557 145.52950050286017,64.25905928995053 145.55665437481366,64.08176699883188 145.6652698625112,63.83355757295794 146.20834730146453,63.30167937428632 146.31696278904565,62.94709325894655 146.34411666111555,60.92594247718807 146.23550117341802,60.00400844257092 146.20834730146453,58.798397096135886 146.2626550452551,57.91191433169297 146.37127053318545,57.52186088637973 146.72427086823154,56.989968810928985 147.10442507546395,56.812671192601556 148.38065705669578,56.67083300430386 149.57542742206715,56.38715637837595 152.18219912832137,56.17439869060763 156.44535702303983,55.287906310826656 157.8573583640391,55.004228063160554 158.40043580299243,55.004228063160554 158.97066711366642,54.8978486344713 159.9482065035263,54.61416992951126 162.0933623869205,54.43687056997442 163.50536372780334,54.11773139530851 164.51005698961671,53.975891626949306 165.1074421723606,53.83405177551322 167.11682869610377,53.585831835342105 169.5063694268465,53.16031134517107 169.8322158899391,52.98301091999747 170.02229299361352,52.69932996957505 170.15806235338096,52.131967070672545 170.02229299361352,51.670983735471964 170.04944686568342,51.49368221893383 170.15806235338096,51.49368221893383 170.67398592026439,51.5646028410265 171.1627556150779,51.49368221893383 171.65152531012427,51.422761575784534 172.03167951724026,51.280920227378374 172.60191082814708,50.99723728088429 174.88283607107587,49.614278152934276 175.64314448542427,49.29513261587999 176.70214549114462,48.72776173283637 177.05514582630713,48.37315425522684 177.21806905802805,48.12492871150607 177.62537713721395,47.02564109930245 178.03268521628343,46.2809595560102 178.4399932953529,45.890887356436 178.8473013744224,45.74904276429152 179.6347636608407,45.67812043710728 180.23214884346817,45.81996507087024 180.748072410468,46.10365408869984 181.04676500172354,46.31642063386971 181.53553469653707,46.77741417293146 182.2415353670949,47.23840683355229 183.54492122028023,47.80578120966675 184.3866912504891,47.98308542939776 184.7396915856516,48.01854625772103 185.28276902448852,47.947624595923116 185.4728461280465,47.80578120966675 185.5,47.73485948549933 185.22846128058154,47.84124206403794 184.1966141469311,47.912163757151575 183.65353670809418,47.876702913228655 182.73030506202485,47.663937740406254 182.16007375123445,47.41571146894421 181.4812269527465,46.88379717255884 180.34076433128212,46.21003738461877 179.55330204498023,45.92634849154274 178.95591686235275,45.96180962132348 178.63007039902732,46.13911519251997 178.0869929601904,46.56464803327981 177.76114649686497,47.13202398979047 177.57106939319056,47.84124206403794 177.40814616146963,48.19585032151372 177.05514582630713,48.65684027898533 176.62068387540057,48.975986657926114 173.5251424741,50.50079132412793 172.1946027489612,51.31638057215605 171.13560174335726,51.5646028410265 170.13090848142747,51.5646028410265 169.8322158899391,51.38730124650465 169.69644653028809,51.139078795633395 169.45206168293953,49.756120478588855 169.20767683535814,49.117829357943265 168.71890714054462,48.08946789878246 168.3387529333122,47.557555083796615 168.09436808584724,47.13202398979047 167.41552128724288,46.2809595560102 166.76382836070843,45.85542621622153 166.46513576933648,45.50081452802988 166.24790479394142,45.35896970711474 165.2975192759186,45.146202319840086 164.5643647336401,45.146202319840086 163.64113308745436,45.35896970711474 162.77220918540843,45.50081452802988 161.44166946026962,45.890887356436 160.30120683880523,46.422803836190724 159.45943680859637,46.67103112646146 159.05212872952688,46.67103112646146 156.79835735843517,46.17457629121782 156.03804894408677,45.96180962132348 154.598893731134,45.35896970711474 153.56704659736715,44.791589591870434 152.7252765672747,44.15328537161986 151.4218907140894,42.9475950266642 150.77019778755493,42.4511325496278 150.36288970836904,42.09651587078406 149.6568890379276,41.670975169938174 149.19527321483474,41.351819153132965 148.8965806235792,41.03266271512257 148.48927254439332,40.4298105166381 147.83757961797528,39.96880488056922 146.23550117341802,39.3659500307549 144.95926919218618,38.83401803318702 143.7644988266984,38.656707107424154 141.07626550458372,38.763093678469886 140.1258799865609,38.94040452626359 138.2522628227016,39.11771524407959 137.49195440823678,39.11771524407959 136.02564532344695,39.3659500307549 134.69510559842456,39.436874208651716 132.03402614826337,39.436874208651716 130.73064029507805,39.54326043656329 129.42725444200914,39.79149478652107 128.3139456922654,39.72057071258314 126.44032852828968,39.86241883979528 123.96932618168648,39.86241883979528 123.5348642305471,39.96880488056922 122.39440160919912,40.4298105166381 121.60693932289723,40.67804395678104 119.67901441501454,40.99720086265006 119.1630908481311,40.99720086265006 116.61062688566744,40.81989152250753 114.70985584985465,40.855353400897 111.83154542418197,41.31635734743031 111.26131411327515,41.52912810334237 110.74539054650813,41.56458987778751 109.95792826020624,41.812822153413435 109.22477371781133,42.09651587078406 107.97569560841657,42.91213345489814 106.45507877971977,44.15328537161986 105.45038551802281,45.6071980890265 105.01592356688343,46.67103112646146 104.60861548769753,48.79868316602369 104.5,49.54335695889313 104.66292323172092,49.86250216831104 105.12453905458096,50.32348894979805 105.42323164595291,50.74901442983537 105.83053972502239,51.49368221893383 106.7537713709753,53.76313181858859 106.97100234671962,54.72054948292498 107.1610794501612,55.004228063160554 107.35115655383561,55.18152700700739 107.81277237692848,55.252446548096486 109.17046597378794,55.110607444963534 109.76785115664825,55.14606722861936 111.39708347304258,54.86238881459576 113.67800871608779,54.6496297858248 115.22577941673808,54.47233045226312 118.21270533010829,54.29503098875284 120.22209185373504,54.046811521518975 121.2810928595718,53.94043167181371 122.28578612126876,54.188651248201495 123.1818638953846,54.046811521518975 123.61632584640756,54.046811521518975 124.26801877305843,54.188651248201495 124.97401944349986,54.08227146106947 126.71186724782456,54.259571080474416 127.93379148514941,54.75600932360976 128.77556151524186,55.21698678008397 130.70348642312456,56.068019776488654 130.86640965472907,56.20985831825237 131.0021790143801,56.52899473290017 131.05648675817065,57.13180681208905 131.02933288645,58.05375179235125 130.92071739851963,58.83385633910075 130.94787127058953,59.86217212541669 131.02933288645,60.181303722187295 131.24656386196148,60.642270840806304 131.46379483735655,60.92594247718807 131.68102581286803,61.10323708104261 132.44133422733285,61.49328475217044 133.12018102582078,61.70603776224016 134.12487428763416,61.88333179449546 134.6136439825641,62.09608446157654 134.96664431784302,62.450671824248275 135.91702983586583,63.762640547342016 136.5144150184933,64.22360084211687 136.8945692256093,64.43635145120788 137.76349312777165,64.72001863885089 138.9854173650965,64.75547701388132 139.66426416370086,64.72001863885089 139.99011062690988,64.61364348245843 140.58749580965377,64.18814238916093 141.1034193765372,63.869016077936976 142.0809587663971,63.65626497004996 142.48826684558298,63.65626497004996 143.62872946704738,63.79809906271112 145.0678846797673,63.79809906271112 145.23080791148823,63.869016077936976 145.39373114309274,64.08176699883188 145.55665437481366,65.03914382740913 145.55665437481366,65.8192258496274 145.44803888711613,66.35109851350717 145.12219242367428,67.20209234362119 145.01357693597674,67.69850402881275 145.17650016758125,68.5849509332038 145.14934629574418,69.61322527335142 145.25796178344171,70.10963201127015 145.23080791148823,70.28691988518403 144.9049614481628,70.81878272721951 144.60626885690726,71.4924739820708 144.11749916197732,71.98887686418311 143.71019108279143,72.55619319659309 143.46580623532645,72.66256486088969 143.05849815625697,72.73347927763825 142.56972846121062,72.73347927763825 141.6736506873276,72.59165042314271 139.7728796513984,72.23707792328787 137.95357023132965,71.6343034808524 136.81310760974884,71.45701659443148 136.1342608112609,71.45701659443148 135.04810593370348,71.59884611397865 134.26064364728518,71.81159023738292 133.39171974512283,72.13070607202826 133.0658732819138,72.34344972776307 131.735333556775,73.3362509815779 130.94787127058953,74.25813421215571 130.35048608772922,75.28638444078388 130.13325511221774,75.57003890721535 128.99279249075335,76.5628269208537 127.93379148514941,77.20104563554924 126.5760978879407,77.73289327848761 125.48994301038329,78.08745772435213 123.04609453573357,78.51293437334243 121.74270868254825,79.00932285157614 120.65655380487442,79.47025409805065 120.22209185373504,79.71844748244621 119.46178343950305,80.32120178452169 118.10408984241076,81.70398539210146 117.34378142806236,82.3421905455034 116.4748575259,82.90948260200094 116.1218571907375,83.19312813147553 115.90462621522602,83.51222895467072 115.63308749592397,84.00860717645264 115.36154877650551,84.85953890183009 115.19862554478459,85.85228879908391 115.1714716728311,86.73866919382999 115.30724103259854,88.4405104497273 115.38870264834259,88.79505920468364 115.68739523971453,89.36233613209333 116.23047267855145,90.21324902953347 117.04508883680683,91.20597696122422 118.37562856182922,92.26960951108776 119.21739859203808,92.80142403281934 120.46647670143284,93.36869156752073 121.22678511566482,93.82959546032362 121.66124706680421,94.18413631882868 122.8017096882686,95.31866357530816 123.23617163929157,95.70865609128668 123.91501843789592,96.02774040939403" stroke="#4dd2ff" stroke-linecap="round" stroke-linejoin="round" stroke-width="0.5"><title>2023-12-26 11.0km</title><desc>10436709260</desc></polyline><polyline fill="none" points="67.64012738852762,255.91914558089047 68.10174321150407,256.0964072187635 68.4275896748295,256.4154778394586 68.67197452241089,256.91180908007664 68.78059000999201,257.3726871776453 68.72628226620145,257.65630403210525 68.64482065034099,257.93992055435956 68.31897418701556,258.40079669377883 67.74874287645798,258.861671955543 67.55866577266715,259.1452870649955 67.47720415692311,259.42890184184944 67.53151190083008,259.81887161760824 68.10174321150407,261.0951319439773 68.31897418701556,261.2723897903634 68.59051290643401,261.34329289257585 69.10643647331744,261.2723897903634 70.65420717396773,260.56335762600065 72.36490110633895,259.9606786528748 72.74505531345494,259.8543233842938 73.26097888022196,259.8543233842938 73.53251759964041,259.74796806875383 73.93982567882631,259.3934500130272 74.64582634938415,258.36534471415507 75.24321153212804,257.3726871776453 75.78628897096496,256.2382164354058 76.08498156210408,255.42281230438675 76.437981897383,253.7210904845706 76.38367415359244,250.8494077767973 76.51944351324346,249.5021868610056 76.54659738519695,248.22586539015174 76.41082802554592,245.10594011997455 76.57375125703402,243.29778319843172 76.57375125703402,242.02142900088802 76.41082802554592,241.48961276495538 76.08498156210408,240.9223408248654 74.75444183708169,239.39779089592048 74.15705665445421,238.51142024219735 73.85836406308226,237.80232138141582 73.7769024472218,237.3059509423765 73.93982567882631,236.2068413466186 74.21136439824477,235.56864638690604 74.45574924570974,235.17863752726407 74.75444183708169,234.82408347293676 75.48759637959301,234.15042933847872 76.81813610449899,233.15767245845927 77.17113643989433,232.73220397724072 77.36121354345232,232.3421905455034 77.46982903114986,231.9876323347562 77.6055983909173,231.13669050914177 77.5784445189638,230.640306395464 77.44267515931278,230.21483348748006 77.17113643989433,229.5411665195861 76.89959772047587,228.65475975671143 76.70952061691787,228.26473975231056 76.41082802554592,227.7683497465332 75.86775058670901,227.27195872216544 75.7048273551045,227.0592194001074 75.62336573924404,226.66919682361186 75.54190412338357,225.25092760911502 75.43328863556962,224.9672727684956 75.24321153212804,224.82544522351236 73.04374790482689,224.18722024218005 71.87613141129259,223.76173598600144 70.62705330201425,223.12350819878338 69.62236004031729,222.6625648608897 67.39574254106265,221.705218199073 66.58112638292369,221.38610180334945 66.17381830373779,221.3151869915455 65.19627891399432,221.35064440011047 64.32735501171555,221.52793136452965 62.58950720750727,221.38610180334945 61.53050620178692,221.45701659443148 59.928427757229656,221.7406755504635 57.53888702648692,222.23707792328787 57.13157894741744,222.2725351966219 56.96865571581293,222.23707792328787 56.83288635616191,222.09524877779768 56.126885685604066,220.9251551553025 55.257961783441715,219.96780161862262 55.14934629574418,219.7195982314297 55.095038551837206,219.32956382299017 55.14934629574418,218.33674612735922 55.095038551837206,217.52121425815858 55.5023466310231,215.96105867432198 55.61096211860422,214.96822715521557 55.529500502860174,214.15268393086444 55.58380824676715,213.97539156179118 55.71957760641817,213.76264054734202 56.26265504525509,213.2307621928485 56.31696278904565,212.94709325894655 56.34411666111555,210.92594247718807 56.235501173418015,210.00400844257092 56.20834730146453,208.69201933582372 56.26265504525509,207.80553618179692 56.34411666111555,207.59277974138968 56.66996312444098,207.06088782187726 56.860040227882564,206.91904977924423 57.158732819370925,206.81267119260156 58.38065705669578,206.67083300430386 59.73835065367166,206.38715637837595 62.23650687234476,206.1389390578115 66.33674153545871,205.28790631082666 67.83020449208561,205.00422806316055 68.97066711366642,204.8978486344713 69.92105263157282,204.61416992951126 72.09336238692049,204.43687056997442 73.50536372780334,204.1177313953085 74.37428762996569,204.01135157688987 75.27036540396512,203.7985917996266 77.22544418368489,203.55037182301749 79.5063694268465,203.16031134517107 79.8322158899391,202.98301091999747 80.02229299361352,202.69932996957505 80.15806235338096,202.20288750581676 80.13090848142747,201.9901261380146 79.99513912177645,201.70644402329344 80.04944686568342,201.52914253252675 80.21237009717152,201.49368221893383 80.67398592026439,201.5646028410265 81.21706335898489,201.49368221893383 81.70583305391483,201.42276157578453 82.08598726103082,201.28092022737837 84.88283607107587,199.61427815293428 85.67029835737776,199.29513261588 86.64783774712123,198.72776173283637 87.02799195447005,198.37315425522684 87.27237680181861,198.01854625772103 87.6525310089346,196.99018012547458 88.00553134432994,196.3164206338697 88.22276231984142,196.06819297969923 88.49430103925988,195.890887356436 88.82014750258531,195.74904276429152 89.28176332544535,195.67812043710728 89.63476366084069,195.67812043710728 90.01491786795668,195.71358160331147 90.25930271542165,195.81996507087024 90.96530338586308,196.24549847295566 91.50838082481641,196.77741417293146 92.40445859869942,197.34478963039874 93.68069057993125,197.84124206403794 94.30522963462863,197.98308542939776 94.9297686892096,197.98308542939776 95.28276902448852,197.94762459592312 95.47284612804651,197.80578120966675 95.5,197.73485948549933 95.22846128058154,197.84124206403794 94.1966141469311,197.91216375715157 93.70784445188474,197.87670291322866 92.73030506202485,197.66393774040625 92.18722762330435,197.4511723806063 91.48122695274651,196.88379717255884 90.31361045932863,196.17457629121782 89.55330204498023,195.92634849154274 89.0373784780968,195.96180962132348 88.68437814281788,196.06819297969923 88.14130070398096,196.5291869918292 87.73399262491148,197.1674849429255 87.59822326514404,197.77032035014417 87.40814616146963,198.19585032151372 87.1094535702141,198.62137954418722 86.62068387540057,198.97598665792611 83.5251424741,200.4653308595589 82.24891049275175,201.28092022737837 81.18990948714782,201.5646028410265 80.239523969125,201.60006314438942 79.91367750591598,201.42276157578453 79.69644653028809,201.17453916138038 79.45206168293953,199.75612047858885 78.96329198800959,198.55045805902046 78.63744552468415,197.94762459592312 78.31159906135872,197.5220941879379 78.06721421389375,197.09656303140218 77.46982903114986,196.3164206338697 76.76382836070843,195.85542621622153 76.46513576933648,195.50081452802988 76.22075092187151,195.35896970711474 75.18890378810465,195.14620231984009 74.48290311777964,195.14620231984009 73.64113308745436,195.35896970711474 72.7993630572455,195.50081452802988 71.44166946026962,195.85542621622153 70.13828360720072,196.49372594512533 69.32366744894534,196.7064921471756 66.82551123038866,196.17457629121782 66.09235668787733,195.96180962132348 64.49027824343648,195.2880472654797 63.59420046932064,194.79158959187043 62.6981226952048,194.15328537161986 61.96496815280989,193.44405648473185 60.66158229962457,192.38020925539604 60.390043580322526,192.09651587078406 59.71119678183459,191.74189867204404 59.222427086904645,191.35181915313296 58.95088836736977,191.10358640435152 58.434964800602756,190.39434857589367 57.83757961797528,189.96880488056922 54.904961448162794,188.83401803318702 53.7644988266984,188.65670710742415 51.184880992164835,188.7630936784699 50.09872611472383,188.9404045262636 48.22510895074811,189.1177152440796 47.51910828030668,189.1177152440796 45.97133757965639,189.3659500307549 44.559336238657124,189.43687420865172 42.06118002010044,189.43687420865172 40.56771706347354,189.57872250222135 39.40010056993924,189.79149478652107 38.34109956433531,189.72057071258314 36.467482400359586,189.86241883979528 33.915018437895924,189.89788085855253 33.37194099905901,190.00426688368316 32.367247737245634,190.4298105166381 31.606939322897233,190.67804395678104 30.276399597758427,190.9262771421636 29.624706671223976,190.99720086265006 26.692088501527905,190.81989152250753 24.655548105947673,190.855353400897 21.804391552112065,191.3163573474303 21.315621857182123,191.52912810334237 20.71823667443823,191.60005164708127 19.469158565276302,191.99013076580013 18.00284948037006,192.87667187796615 17.405464297742583,193.40859498581267 16.835232986952178,193.83413262972317 16.31930942006875,194.3305922684085 15.939155212952755,194.93343474552967 15.559001005720347,195.35896970711474 15.097385182743892,196.42280383619072 14.825846463209018,197.62847686007444 14.5,199.50789635401452 14.635769359767437,199.82704161024594 15.368923902045935,200.64263312994444 15.83053972502239,201.49368221893383 16.726617499254644,203.7276718322537 16.943848474766128,204.68508963698696 17.07961783441715,204.8978486344713 17.32400268188212,205.14606722861936 17.43261816969607,205.21698678008397 17.81277237692848,205.2524465480965 19.17046597378794,205.11060744496353 19.76785115664825,205.14606722861936 21.50569896074012,204.82692898949608 26.067549446830526,204.40141068241792 28.321320818038657,204.29503098875284 31.11816962796729,203.9758916269493 31.498323835083283,203.9758916269493 32.28578612126876,204.1886512482015 33.07324840768706,204.08227146106947 33.61632584640756,204.04681152151898 34.21371102926787,204.1886512482015 34.89255782763939,204.08227146106947 36.71186724782456,204.25957108047442 37.93379148514941,204.75600932360976 38.694099899497814,205.1815270070074 40.56771706347354,205.99710047456028 40.83925578277558,206.17439869060763 40.97502514254302,206.42261597482138 41.05648675817065,207.13180681208905 41.02933288644999,208.08921114452824 40.92071739851963,208.7983970961359 40.94787127058953,209.8621721254167 41.05648675817065,210.2876808273577 41.300871605752036,210.71318878105376 41.62671806907747,211.0677781706181 42.49564197123982,211.52874360015267 43.120181025820784,211.70603776224016 44.20633590349462,211.9187905852741 44.58649011072703,212.09608446157654 44.88518270198256,212.3442956700601 45.91702983586583,213.727182026807 46.81310760974884,214.40089302929118 47.138954073074274,214.57818508666242 47.81780087156221,214.7200186388509 48.98541736509651,214.75547701388132 49.664264163700864,214.7200186388509 49.99011062690988,214.61364348245843 50.587495809653774,214.18814238916093 51.103419376537204,213.86901607793698 52.08095876639709,213.65626497004996 52.569728461210616,213.65626497004996 53.68303721083794,213.79809906271112 55.12219242367428,213.83355757295794 55.23080791148823,213.86901607793698 55.366577271255665,214.0463085250667 55.55665437481366,215.03914382740913 55.55665437481366,215.8192258496274 55.4751927589532,216.28018222584797 55.12219242367428,217.2020923436212 55.013576935976744,217.69850402881275 55.17650016758125,218.5849509332038 55.14934629574418,219.61322527335142 55.257961783441715,220.28691988518403 54.959269192186184,220.71241025236668 54.60626885690726,221.4924739820708 54.14465303381439,221.9534195492888 53.818806570605375,222.41436423816776 53.62872946704738,222.5916504231427 53.19426751602441,222.73347927763825 52.732651693047956,222.73347927763825 50.94049614481628,222.48527872774866 49.7728796513984,222.23707792328787 48.007877975236624,221.66976084257476 47.220415688934736,221.4924739820708 46.73164599400479,221.45701659443148 46.107106939307414,221.45701659443148 45.04810593370348,221.59884611397865 44.26064364728518,221.81159023738292 43.44602748926263,222.13070607202826 43.0930271538673,222.3079924648482 41.68102581286803,223.37170809390955 40.94787127058953,224.2581342121557 40.2147167280782,225.4636685213336 39.88887026486918,225.81823629255814 38.96563861891627,226.5628269208537 37.93379148514941,227.20104563554924 36.65755950380117,227.69743680531974 35.43563526647631,228.08745772435213 32.96463291987311,228.54839072695177 31.661247066804208,229.00932285157614 30.683707676827908,229.4347978795122 30.222091853735037,229.7184474824462 29.407475695596077,230.39211395672464 28.104089842410758,231.739441278085 27.398089171969332,232.30673474786454 26.52916526980698,232.87402688746806 26.1218571907375,233.19312813147553 25.904626215226017,233.51222895467072 25.633087495923974,234.00860717645264 25.361548776505515,234.8595389018301 25.19862554478459,235.74592293344904 25.144317800877616,236.59684854881198 25.19862554478459,237.34140600753017 25.361548776505515,238.6886946327577 25.55162588006351,239.14960744020937 26.17616493476089,240.10688508102612 26.52916526980698,240.60324977411074 27.045088836806826,241.20597696122422 28.34847468987573,242.26960951108776 29.298860207782127,242.83687829262635 30.439322829362936,243.33323738563922 31.2810928595718,243.86504956950375 33.2090177674545,245.67320225205913 33.915018437895924,246.02774040939403" stroke="#4dd2ff" stroke-linecap="round" stroke-linejoin="round" stroke-width="0.5"><title>2023-12-26 11.0km</title><desc>10437350044</desc></polyline></svg>