<?xml version="1.0" encoding="utf-8" ?>
<svg baseProfile="full" height="300mm" version="1.1" viewBox="0,0,200,300" width="200mm" xmlns="http://www.w3.org/2000/svg" xmlns:ev="http://www.w3.org/2001/xml-events" xmlns:xlink="http://www.w3.org/1999/xlink"><defs /><rect fill="#222222" height="300" width="200" x="0" y="0" /><text fill="#FFFFFF" style="font-size:12px; font-family:Arial; font-weight:bold;" x="10" y="20">Over 10km Workouts</text><text fill="#FFFFFF" style="font-size:4px; font-family:Arial" x="10" y="280">ATHLETE</text><text fill="#FFFFFF" style="font-size:9px; font-family:Arial" x="10" y="290">heigao</text><text fill="#FFFFFF" style="font-size:4px; font-family:Arial" x="120" y="280">STATISTICS</text><text fill="#FFFFFF" style="font-size:3px; font-family:Arial" x="120" y="285">Number: 4</text><text fill="#FFFFFF" style="font-size:3px; font-family:Arial" x="120" y="290">Weekly: 1.3</text><text fill="#FFFFFF" style="font-size:3px; font-family:Arial" x="141" y="285">Total: 66.3 km</text><text fill="#FFFFFF" style="font-size:3px; font-family:Arial" x="141" y="290">Avg: 16.6 km</text><text fill="#FFFFFF" style="font-size:3px; font-family:Arial" x="167" y="285">Min: 11.0 km</text><text fill="#FFFFFF" style="font-size:3px; font-family:Arial" x="167" y="290">Max: 33.3 km</text><polyline fill="none" points="26.131327935261652,52.15541489276802 27.583078861469403,52.27390370203648 31.424169853911735,52.15541489276802 33.54130662139505,51.7999481523002 34.509140572161414,51.72095547954086 36.92872544925194,51.72095547954086 40.22540984430816,51.48397732261219 41.6166711486876,51.60246642725542 43.038177263806574,51.83944447993417 45.034334787516855,52.8663469668536 46.758289012359455,53.49828501357115 47.423674853518605,53.85374951353879 47.66563334129751,54.248709519190015 47.75636777433101,54.841148441977566 47.75636777433101,55.512577646557475 47.635388530325145,56.420979201531736 47.66563334129751,57.05290891189361 47.90759182907641,58.23777312418679 48.210039938567206,58.8696985738643 48.754446536069736,59.58061293326318 49.26860832236707,59.936069409537595 50.085218218388036,60.25203032838181 51.47647952265106,60.44950571426307 51.93015168712009,60.686475986556616 52.29308941878844,61.002436025388306 53.47263704624493,62.5427359091118 54.22875732043758,63.095661924860906 54.62193986296188,63.253640578186605 55.65026343567297,63.49060838436708 57.25323841674253,63.37212450741208 57.64642095938325,63.253640578186605 59.037682263646275,62.5032411502325 59.94502659246791,62.14778806027607 60.54992281179875,62.06879842112539 61.85044968314469,62.305767269223 63.574403908103704,62.46374638564885 63.75587277393788,62.58223066222854 63.84660720685497,62.85869377141353 63.93734163977206,63.885554265085375 63.87685201771092,64.95190525148064 63.7256279628491,65.66280356480274 63.483669475186616,66.49218256000313 63.45342466433067,66.76864165786537 63.54415909713134,68.66435354502755 63.66513834102079,69.33574830717407 63.66513834102079,69.57271076494362 62.93926287803333,70.87600055837538 61.971428927150555,71.94232388286036 61.759715250344016,72.06080399188795 60.4289435679093,72.17928404870327 59.2493959403364,72.13979070211644 57.46495209354907,71.86333711465704 56.40638370974921,71.42890947556589 55.37806013703812,71.1524551587936 53.89606439974159,70.91549409014988 52.625782339368016,71.11296166185639 50.5993800049182,71.6658700928092 50.05497340741567,72.02131062795524 48.99640502361581,72.96914976308472 47.87734701798763,74.11445093667135 46.12314798228908,76.04960392811336 44.12699045869522,77.5503252526687 42.977687641978264,78.1427129485237 41.82838482526131,78.41916009431588 39.98345135664567,78.69560695649125 39.22733108245302,78.89306882736855 38.19900750962552,79.20900751970476 36.86823582742363,79.8013915696065 35.93064668751322,80.39377431728644 34.87207830371335,81.22310797643149 33.48081699933391,82.60532507026801 31.63588353060186,84.06651828950271 31.18221136624925,84.65889166202396 30.87976325652562,85.1327894225251 30.57731514691841,85.72516045119846 30.274867037311196,86.55447770399041 30.15388779353816,87.5022657251393 30.184132604394108,89.20037759380648 30.274867037311196,89.99019342201063 30.516825524973683,90.66153505616239 31.18221136624925,91.56981813453604 32.301269371877424,92.83351123851025 33.299348133732565,93.78127717797179 34.08571321866475,94.41311928603682 35.02330235845875,94.92648990813177 36.41456366283819,95.40036961436272 36.80774620536249,95.63730915510678 38.108273076824844,96.8220037339197 39.015617405762896,97.7302660512214 39.56002400291618,98.12516175609198 40.104430600535125,98.32260939158732 41.435202282853425,98.63852530755685 43.06842207489535,99.15188788119121 44.278214513440616,99.78371739858994 44.97384516557213,100.3760562260868 45.760210250737146,101.1658393041289 46.879268256248906,102.78488737926818 47.484164475579746,104.1275052355777 47.81685739615932,105.4306279355078 48.210039938567206,106.10193110993714 49.05689464567695,107.08913862335612 49.752525297692046,107.60248510123347 50.53889038274065,108.58968711845228 51.02280735829845,108.90559100036626 51.960396498208866,109.06354280238156 52.8677408270305,109.02405486055068 53.83557477791328,108.94507895960123 55.49903938092757,108.62917512387503 58.34205161151476,108.47122306734673 60.00551621441264,108.86610303531052 60.54992281179875,109.1030307385081 61.72947043937165,109.77432476638933 63.483669475186616,110.40612938295817 64.11881050548982,110.52459258364979 65.81251991936006,110.40612938295817 66.68961943744216,110.2481783676485 67.2037812237395,110.2876661301998 67.53647414431907,110.20869059930556 68.3833288513124,109.81381259826594 70.07703826541547,108.82661506455042 70.80291372851934,108.55019910715055 71.7102580574574,108.58968711845228 72.58735757519025,108.86610303531052 73.19225379463751,108.98456691301544 74.52302547695581,108.82661506455042 76.00502121413592,109.02405486055068 77.6079961953219,109.45842190264375 78.24313722550869,109.81381259826594 78.57583014608826,110.2481783676485 78.75729901180603,110.8404941977933 78.72705420083366,111.19588307093363 78.63631976803299,111.55127147576422 78.36411646928173,111.98563444506726 77.57775138434954,112.73589610715862 77.45677214034367,113.01230777200544 77.39628251851536,113.3676937817072 77.42652732948773,113.68359206369496 78.12215798161924,115.10512975064921 78.33387165842578,115.3420519696665 78.63631976803299,115.5 79.15048155444674,115.46051300110412 79.45292966405395,115.3420519696665 79.81586739560589,115.18410384689923 80.69296691357158,114.5523104298627 82.81010368093848,113.68359206369496 83.23353103443515,113.60461752788979 83.77793763182126,113.68359206369496 84.17112017422915,113.52564296888886 84.5340579058975,113.20974450197536 85.13895412511192,112.38050926438882 85.53213666775264,111.74870927585289 85.77409515541513,111.15639544156147 86.13703288685065,110.56408030571765 86.92339797189925,108.66866312362254 87.10486683773343,108.07634252071148 87.34682532539591,106.69425605176366 87.31658051465638,106.10193110993714 87.25609089247882,105.47011640385608 87.25609089247882,103.93006185273407 87.2863357035676,102.54795412218664 87.437559758313,101.2053283972491 87.34682532539591,99.15188788119121 87.40731494734064,98.32260939158732 87.40731494734064,96.50608568868483 87.49804938014131,94.25515889798407 87.437559758313,93.78127717797179 87.07462202676106,92.99147245986387 85.65311591152567,91.49083711882122 85.1691989362007,90.89847876300337 84.80626120464876,90.38510046817828 84.62479233881459,89.99019342201063 84.41307866189163,89.23986844025785 84.44332347298041,88.29208652992384 84.62479233881459,87.3048101621971 85.10870931413956,86.27803890322684 85.8648295882158,85.36973799022962 86.8931531610433,84.57990862085717 87.98196635569911,83.55312698017224 88.25416965445038,83.00024293776369 88.55661776405759,81.97345527849393 88.49612814211287,80.86767957787379 88.2239248433616,79.8013915696065 87.80049748986494,78.97205353513709 87.19560127065051,78.10322047601221 86.56046024046373,77.3528623978491 86.40923618560191,77.0369215295068 86.31850175268482,76.40503868137603 86.34874656365719,75.65467587482999 86.22776731976774,75.22025434768875 86.1067880759947,75.02278978555114 85.83458477735985,74.82532507897122 82.99157254677266,73.79850627147243 78.03142354858574,71.50789637124399 76.3377141347155,70.87600055837538 75.82355234841816,70.75751992853475 74.94645283033606,70.83650702092564 73.94837406871375,71.03397465049056 71.80099249014165,70.83650702092564 69.71410053374711,71.03397465049056 67.74818782112561,71.42890947556589 66.50815057160798,71.74485691898735 66.05447840725537,71.82384372191154 65.75203029753175,71.78435032334528 65.51007180986926,71.62637667110539 65.20762370014563,70.95498761613271 64.51199304801412,70.04663505553617 63.90709682868328,69.37524206456146 63.7256279628491,69.09878564093378 63.66513834102079,68.74334125095629 63.69538315210957,67.40054710203549 63.54415909713134,66.65015922201565 63.63489353004843,66.25521739327814 64.02807607268915,65.26786028899369 64.14905531634577,64.87291643428034 64.17930012743454,64.28049956687028 64.08856569451746,63.451113764516776 64.0583208835451,62.740209616400534 64.08856569451746,62.5427359091118 64.27003456035163,62.266272475768346 64.81444115773775,61.79233450151514 64.99591002357192,61.43688047377509 64.93542040139437,58.553736034285976 64.8446859685937,57.28988217114238 64.81444115773775,55.86803948922898 64.8446859685937,55.63106497959234 64.96566521248315,55.35459445483866 65.20762370014563,55.03862779340125 65.41933737683576,54.92014019994531 66.11496802908368,54.72266076161759 67.53647414431907,54.60417302913265 70.47022080782335,54.20921354461461 74.00886369054206,53.577277165226405 78.06166835967451,53.10332390808617 80.9954150231788,52.43188869999722 82.96132773568388,52.19491116827703 84.41307866189163,51.83944447993417 86.34874656365719,51.76045181893278 88.6171073858859,51.44448094279505 89.94787906832062,51.20750254273298 90.73424415336922,50.93102747920784 91.09718188503757,50.69404862745432 91.3088955617277,50.41757303706254 91.4601196164731,50.062104003998684 91.52060923841782,49.46965457347687 91.42987480561715,49.11418428985053 91.18791631795466,48.3637454843265 90.79473377519753,46.112416527437745 90.1898375559831,44.84850430689403 89.67567576968577,44.019058690115344 88.67759700794704,42.755136649822816 88.34490408736747,42.399657507863594 87.22584608162288,41.68869781654212 86.7419291062979,41.57020435243612 85.98580883210525,41.53070651940652 85.19944374705665,41.60970217961585 82.74961405899376,42.12317340640584 81.7817801082274,42.43915521338931 80.23929474910256,43.189610519999405 79.69488815171644,43.34760084445588 79.18072636530269,43.30810327199288 77.7592202500673,42.952624859521165 76.1864900799701,42.43915521338931 74.91620801948011,41.92568458884489 72.88980568491388,40.74074864349677 72.61760238616262,40.503760829073144 72.49662314238958,40.22727478216984 72.58735757519025,40.0297845749883 73.01078492868692,39.71379994234303 72.34539908752777,40.0297845749883 72.10344059986528,40.0297845749883 71.80099249014165,39.9507884515624 70.16777269821614,38.686847326898715 68.26234960753936,37.46239870801219 68.05063593073282,37.22540800998104 67.56671895540785,36.474936091079144 67.32476046762895,36.23794452456059 66.53839538246393,35.763960766082164 65.32860294403508,35.28997617363348 63.99783126160037,35.092482347477926 62.81828363414388,34.697494260646636 61.78996006119996,34.5 60.79188129957765,34.5 56.557607764494605,34.934487182152225 50.478400760912336,35.44797113043023 47.78661258507054,35.44797113043023 46.15339279314503,35.605965994589496 45.034334787516855,35.4874698552303 43.945521592744626,35.526968574064085 41.556181526742876,35.72446208182373 40.16492022247985,35.68496339183184 39.43904475925956,35.842958117078524 38.56194524129387,36.23794452456059 37.32190799189266,36.672428904043045 35.99113630934153,36.90942008845741 34.146202840609476,36.94891859887866 31.121721744188108,36.71192744921427 29.246543464483693,36.790924522298155 26.97818264225498,37.14641106434283 23.741987869143486,38.054874540976016 23.167336460901424,38.29186450940324 22.562440241687,38.64734907116508 21.443382235825993,39.6743018370762 21.050199693418108,40.18777675219462 20.536037907004356,40.661752728541614 20.233589797397144,41.01723416350433 19.719428011099808,41.80719122875598 19.14477660274133,42.755136649822816 18.660859627299942,44.37453569567879 18.479390761465766,45.756941814674065 18.479390761465766,46.30990227631992 18.53988038341049,46.54688498398173 19.265755846514367,47.33682583720656 19.749672821955755,48.24525495545822 19.991631309618242,48.95619734658976 20.263834608369507,49.548647906049155 20.50579309614841,50.338579959090566 21.14093412621878,52.74785841803532 21.655095912632532,53.379796742723556 22.139012888190337,54.288205487828236 22.380971375852823,54.60417302913265 22.74390910740476,54.88064432376996 23.288315704790875,55.2361070002371 24.256149655557238,55.591569207637804" stroke="#4dd2ff" stroke-linecap="round" stroke-linejoin="round" stroke-width="0.5"><title>2024-08-04 11.0km</title><desc>12056370003</desc></polyline><polyline fill="none" points="185.04662379418733,88.42770630471932 184.80546623794362,85.86011683816469 184.5643086816417,79.83101488967804 184.53536977490876,77.1624674508057 184.36173633439466,74.61971787753282 184.10128617362352,68.48911653902906 184.04340836009942,66.37414653845917 184.06270096462686,64.67457938791631 184.00482315110276,63.94438466885913 183.3778135048342,64.1332287250043 181.68971061095363,64.24653495961684 178.5643086816999,64.30948280326993 177.6864951768075,64.38502015481208 171.31028938904637,64.5990422906907 169.40032154344954,64.69975840560801 167.69292604504153,64.69975840560801 166.4967845659121,64.8130638939474 162.02090032154229,65.0019060428167 160.77652733115247,65.02708496466948 159.74437299038982,64.96413764618774 157.53536977490876,65.05226387913717 157.41961414791876,64.91377975824435 157.4485530546517,65.01449550465622 156.2717041800497,65.20333721127827 155.53858520899666,65.20333721127827 155.03697749198182,65.1152111331321 154.5546623794362,65.10262168601184 153.36816720257048,65.1781583410193 152.88585209002485,65.07744278625614 152.33601286174962,65.16556890310312 151.71864951768657,65.19074777709466 151.5064308681758,65.10262168601184 151.0337620578939,64.71234791166353 150.87942122190725,64.68716889769712 150.33922829583753,65.01449550465622 149.92443729902152,65.1781583410193 149.42282958200667,65.27887377785373 148.70900321542285,65.70691306865046 148.207395498408,66.19789669096645 147.57073954987573,66.46227132675995 147.41639871383086,66.60075295450952 146.98231511254562,66.7895911785381 145.9115755627281,67.532350837384 144.42604501609458,68.84160648329998 144.23311897105305,69.04302866010403 144.1366559485905,69.34516104089562 143.35530546627706,69.84871265063703 142.27491961413762,71.32158418829204 142.0241157556302,71.81253576334711 141.64790996786905,72.1146584168091 140.95337620581267,72.88254871850222 140.06591639871476,73.99031281448697 139.77652733121067,74.46866108243557 138.7347266881261,75.71487170991168 138.5610932475538,75.8407505674113 138.31028938904637,75.86592631683743 138.00160771701485,75.77781116169353 137.0948553054477,75.32464608109876 136.0337620578939,75.18617849700968 135.2620578778442,74.4812491588018 135.04983922827523,74.07842980053829 135.0401929260115,73.7133731278227 134.8569131832919,73.5874911573701 134.81832797429524,73.29796192620415 134.54823151126038,72.60560546554916 134.59646302252077,72.5804287619685 134.54823151126038,72.5804287619685 134.50964630226372,72.15242367386963 134.19131832796847,71.54817757113778 133.7861736334744,71.38452685451921 133.13987138262019,69.76059133173112 132.98553054663353,69.23186152245034 132.81189710606122,68.18698115140432 132.86977491958532,66.71405593866803 133.21704180061352,63.289722064189846 133.323151125398,62.38325792356045 133.438906752388,62.1692302740048 133.3906752411276,61.8670726855853 133.6221864951658,59.525315381491964 133.70900321542285,59.084654997284815 133.89228295820067,58.94616126736946 134.54823151126038,58.89579985573073 135.12700964626856,59.009112990417634 140.34565916401334,59.185377569898264 142.22668810287723,59.19796788314852 142.853697749204,59.28610002449568 143.65434083598666,59.248329117835965 144.12700964632677,59.33646120756748 144.41639871383086,59.31128061972413 144.51286173635162,59.23573881192715 144.6093247588724,59.31128061972413 144.64790996786905,59.46236403624789 144.48392282961868,60.33108853075828 144.00160771701485,62.15664039570402 143.89549839228857,62.786132054403424 143.77974276529858,66.73923435932375 143.8569131832919,69.0682063990098 144.00160771701485,69.47104921970458 143.5578778135241,69.69764747725276 143.34565916395513,69.87389015379449 142.2556270096684,71.37193832497724 142.0241157556302,71.82512422840955 141.6189710610779,72.16501208920818 140.89549839223037,72.99584342864546 140.0852090032422,74.00290096085519 139.207395498408,75.16100254867342 139.12057877815096,75.38758581839647 138.98553054657532,75.45052550962282 138.58038585208124,75.8407505674113 138.33922829583753,75.86592631683743 138.0401929260115,75.802986929506 137.0852090032422,75.32464608109876 136.17845659167506,75.24911833558144 135.98553054663353,75.18617849700968 135.30064308684086,74.55677757845842 135.04983922827523,74.2043110526356 134.7990353697678,74.0280772481201 134.65434083604487,73.80149039759999 134.5578778135241,73.54972653032746 134.30707395501668,73.6000793626954 133.51607717043953,73.97772466627066 133.42926045018248,74.1287823234743 133.45819935691543,74.34278021712817 134.46141479094513,76.60860760956712 134.45176848879782,76.75966064717795 134.3263665594859,76.8351870665283 134.22025723470142,77.0869413188193 134.1527331189718,77.59044761317637 134.18167202576296,77.90513755073334 134.41318327974295,78.53451397248864 134.3842443729518,78.89955018743058 134.2588424437563,79.1009488154159 133.64147909969324,79.50374465698405 133.48713826370658,79.7303164891564 133.00482315110276,79.95688772462017 132.6189710610779,80.48555162023695 130.88263665593695,81.58063078442501 127.44855305465171,83.6197065702363 126.34887459810125,84.07282795997162 126.26205787778599,84.08541463116126 126.04983922833344,83.99730789406021 125.79903536976781,83.98472120995575 124.2652733118739,84.1735212780477 122.89549839228857,84.18610793450353 122.11414790991694,84.29938775995106 121.68006430868991,84.28680112003349 121.39067524118582,84.33714766860794 120.97588424436981,84.27421447828237 120.10771704179933,84.37490756067564 119.60610932472628,84.29938775995106 119.12379421218066,84.28680112003349 118.78617363341618,84.12317463372165 118.10128617362352,83.01554100510111 117.561093247612,82.5246533595564 115.853697749204,79.95688772462017 115.38102893886389,78.94989988863381 114.22347266884753,77.21281816867122 113.48070739553077,75.9666292407419 112.29421221866505,74.2168991677172 112.19774919614429,73.97772466627066 112.25562700966839,73.9651365161626 112.24598070734646,73.92737205490266 112.2073954983498,73.97772466627066 112.23633440519916,73.95254836426466 112.17845659167506,73.93996021048224 112.25562700966839,74.10360606568429 112.12057877815096,74.00290096085519 110.94372990354896,72.13983525669755 110.49035369773628,71.61112007152406 109.15916398714762,69.50881563738949 108.6189710610779,68.98008428051253 108.60932475881418,68.5017054904747 108.29099678457715,68.08626911966712 108.11736334406305,67.70859795050637 107.6832797427196,67.12949893704354 107.45176848873962,66.70146672558622 107.24919614149258,65.9461105680748 107.22990353696514,65.40476790801767 106.853697749204,64.97672711355699 106.37138263665838,64.30948280326993 106.23633440514095,63.71777125422523 106.11093247594545,63.453388182526396 105.62861736334162,63.15123510542617 105.51286173629342,63.163824838185974 105.44533762062201,63.10087615604425 105.0884244372719,62.09369097643503 105.17524115752894,61.96779199966113 105.0884244372719,61.99297180974827 105.04019292601151,61.930022270702466 104.5,60.482170155817585 104.77974276529858,59.777120301601826 105.13665594859049,57.75006977403973 105.15594855305972,55.06824627847527 105.07877813506639,54.09874020794814 105.3778135048342,53.14181440718676 105.55144694529008,52.789260112178454 105.74437299038982,52.62557369815477 106.19774919614429,52.4618869725673 106.75723472668324,52.12192123926798 108.26205787778599,50.90055177618342 108.86012861737981,50.49762196230586 109.80546623794362,50.14505682637537 110.77974276524037,49.93099871717277 110.76045016077114,50.53539671252656 110.5,50.950917870155536 110.54823151126038,51.21533937961067 110.65434083598666,51.40421138857346 111.5610932475538,51.42939429175749 112.21704180067172,51.504942957049934 112.81511254020734,51.68122291796317 112.95980707393028,51.80713695449958 112.95980707393028,52.688530048115354 113.49035369773628,55.21933714921033 113.38424437301,56.5035988329837 113.39389067521552,57.49825891891669 113.2588424437563,57.76266029744147 112.82475884241285,58.05224182696111 112.81511254020734,58.37959368622978 113.06591639871476,58.6062211665776 113.39389067521552,58.732125064285356 113.5578778135241,58.669173138456244 113.9147909967578,58.39218411745969 114.06913183280267,58.35441281821113 114.17524115752894,58.39218411745969 114.29099678457715,58.56844996132713 114.55144694534829,59.28610002449568 114.94694533763686,59.86525184947095 114.98553054663353,59.84007141643815 114.94694533763686,59.890432275104104 115.68006430868991,60.83469291553047 116.48070739553077,61.31311434969393 116.56752411572961,61.43901428479148 116.56752411572961,61.602683924895246 116.40353697747923,61.82930291235971 115.70900321542285,62.11887074967672 115.35209003218915,62.39584776871925 115.323151125398,62.62246466633951 115.853697749204,63.21418375068606 115.84405144688208,63.41561910593737 113.99196141480934,65.39217850327987 113.67363344045589,65.8957532550412 113.17202572344104,66.52521754879854 112.62218649522401,66.99101816053007 112.16881028935313,67.25539035859401 110.18167202570476,68.1995701470587 110.07556270092027,68.2121591409159 110.06591639871476,68.0610910933101 110.11414790997515,68.0610910933101 109.36173633439466,68.80383977265592 108.8504823151161,69.10597299362416 108.792604501592,69.21927267786668 108.96623794210609,69.28221688243502 109.12057877815096,69.43328278538684 110.52893890679115,71.62370856607595 110.9147909967578,72.0517162848264 111.22347266878933,72.5174869707771 112.24598070734646,74.15395857389376 115.41961414791876,79.00024956034758 115.853697749204,79.91912589345156 116.3263665594859,80.6365978508984 116.5578778135241,80.91351525169011 116.88585209008306,80.90092811643262 116.62540192925371,80.93868951663171 116.54823151126038,80.87575384040974 116.76045016077114,81.25336720718042 117.6189710610779,82.60017471811443 118.17845659161685,83.12882237176382 118.81511254020734,84.11058796801808 118.95980707393028,84.2112812419291 119.22025723475963,84.28680112003349 120.18488745979266,84.33714766860794 121.06270096468506,84.26162783469772 121.4967845659121,84.32456103421282 121.7958199356799,84.24904118927952 122.18167202570476,84.27421447828237 123.06913183280267,84.1735212780477 124.50643086817581,84.1735212780477 125.9726688102819,83.97213452399592 126.19453376205638,83.99730789406021 126.19453376205638,84.04765461203351 126.34887459810125,84.0980013005028 127.52572347270325,83.5693596018682 132.41639871383086,80.59883631806588 132.71543408359867,80.3722667732145 133.0241157556302,79.91912589345156 133.4485530546517,79.71772918078932 133.7282958199503,79.41563322778529 134.3263665594859,79.01283697366307 134.40353697747923,78.79885069662123 134.41318327974295,78.53451397248864 134.16237942123553,77.84219965530065 134.13344051444437,77.55268474334298 134.2009646302322,77.0869413188193 134.42282958200667,76.73448515930795 134.41318327974295,76.58343207751022 133.3906752411276,74.2924278194696 134.17202572349925,73.90219573817012 134.65434083604487,73.81407857160957 135.1366559485905,74.2924278194696 135.35852090036497,74.59454176342115 136.0337620578939,75.18617849700968 137.12379421223886,75.32464608109876 138.07877813500818,75.79039904653473 138.33922829583753,75.8407505674113 138.59003215434495,75.81557481068012 138.75401929259533,75.7022838140474 139.0916398713598,75.33723403222393 139.2556270096684,75.06029868171754 139.87299035373144,74.2924278194696 140.11414790997515,73.88960757706081 140.99196141480934,72.81960714837624 141.63826366554713,72.07689314313757 142.01446945342468,71.7747703570567 142.27491961413762,71.27123002219014 143.43247588421218,69.74800256454182 144.19453376205638,69.28221688243502 144.62861736339983,69.64729236048879 144.75401929259533,69.69764747725276 144.87942122184904,69.68505870081572 145.80546623794362,68.96749539907614 146.8569131832337,68.2751040824296 147.92765273310943,67.7463651420112 148.89228295825887,67.3938707094494 151.65112540189875,66.839947968263 152.58681672025705,66.75182356687583 155.52893890673295,66.04682510568819 157.207395498408,65.9461105680748 158.00803858519066,65.8453959125618 162.5610932475538,65.74468113909825 164.72186495177448,65.6439662476987 167.0852090032422,65.6313768780019 167.0852090032422,65.5810193806974 168.12700964632677,65.45512550850253 171.51286173635162,65.39217850327987 174.5514469453483,65.27887377785373 182.13344051450258,64.92636923302052 183.3295819935738,64.901190281671 183.54180064308457,64.93895870594133 183.62861736334162,65.1152111331321 183.7347266881261,67.28056862076483 184.0241157556302,74.7959504699902 184.01446945342468,76.19321038853377 184.05305466242135,76.21838603478682 184.207395498408,78.45898904497153 184.27491961419582,81.90789311683329 184.42926045018248,84.27421447828237 184.48713826364838,87.93684953620686 184.57395498396363,88.46546440169186 185.5,100.06900128282723" stroke="#ff0000" stroke-linecap="round" stroke-linejoin="round" stroke-width="0.5"><title>2024-05-01 33.3km</title><desc>11306235000</desc></polyline><polyline fill="none" points="67.64012738852762,255.91914558089047 68.10174321150407,256.0964072187635 68.4275896748295,256.3800255690876 68.67197452241089,256.91180908007664 68.78059000999201,257.3726871776453 68.72628226620145,257.65630403210525 68.67197452241089,257.83356439745694 68.37328193092253,258.3298927294236 67.66728126059752,258.9680276604922 67.5043580288766,259.25164264519117 67.47720415692311,259.42890184184944 67.53151190083008,259.8543233842938 68.07458933955058,261.02422876919445 68.31897418701556,261.2723897903634 68.59051290643401,261.34329289257585 68.86205162585247,261.34329289257585 69.16074421722442,261.2723897903634 70.65420717396773,260.56335762600065 72.36490110633895,259.9606786528748 72.71790144138504,259.8543233842938 73.31528662412893,259.8543233842938 73.55967147171032,259.74796806875383 74.1299027823843,259.1452870649955 74.72728796524461,258.2589887443464 75.21605766005814,257.40813930258446 75.84059671475552,256.0964072187635 76.08498156210408,255.38735988855478 76.38367415359244,254.0047116188798 76.437981897383,253.54382710671052 76.38367415359244,252.30297982638876 76.41082802554592,250.7785015998088 76.49228964128997,249.71490645164158 76.54659738519695,248.3322257698601 76.41082802554592,245.10594011997455 76.57375125703402,243.26232900601462 76.57375125703402,242.09233774417953 76.46513576933648,241.59597610564379 76.08498156210408,240.9223408248654 74.72728796524461,239.36233613209333 74.15705665445421,238.51142024219735 73.85836406308226,237.837776373839 73.80405631905887,237.55413628919632 73.80405631905887,237.16413063005893 73.93982567882631,236.2068413466186 74.18421052629128,235.63955702110252 74.42859537375625,235.17863752726407 74.70013409329113,234.8595389018301 75.48759637959301,234.15042933847872 76.84528997656889,233.15767245845927 77.17113643989433,232.73220397724072 77.36121354345232,232.3421905455034 77.46982903114986,231.9876323347562 77.6055983909173,231.10123453481356 77.5784445189638,230.640306395464 77.46982903114986,230.21483348748006 77.17113643989433,229.5411665195861 76.79098223266192,228.4065652811696 76.49228964128997,227.87471911920875 75.86775058670901,227.30741525774647 75.7048273551045,227.0592194001074 75.62336573924404,226.74011006602086 75.54190412338357,225.180013930134 75.43328863556962,224.93181589012966 75.24321153212804,224.82544522351236 73.80405631905887,224.36450512806186 73.09805564885028,224.22267722981633 71.82182366750203,223.76173598600144 70.76282266178168,223.19442248044652 69.64951391215436,222.6625648608897 67.39574254106265,221.705218199073 66.58112638292369,221.38610180334945 66.17381830373779,221.3151869915455 65.30489440157544,221.35064440011047 64.273047267925,221.52793136452965 62.58950720750727,221.38610180334945 61.53050620178692,221.45701659443148 60.00988937320653,221.705218199073 57.48457928257994,222.23707792328787 57.07727120362688,222.23707792328787 56.83288635616191,222.09524877779768 56.15403955744114,220.9606126209983 55.23080791148823,219.93234400749498 55.14934629574418,219.7195982314297 55.095038551837206,219.32956382299017 55.14934629574418,218.33674612735922 55.095038551837206,217.52121425815858 55.5023466310231,216.03197505549178 55.61096211860422,214.96822715521557 55.529500502860174,214.25905928995053 55.55665437481366,214.08176699883188 55.665269862511195,213.83355757295794 56.20834730146453,213.30167937428632 56.31696278904565,212.94709325894655 56.34411666111555,210.92594247718807 56.235501173418015,210.00400844257092 56.20834730146453,208.7983970961359 56.26265504525509,207.91191433169297 56.37127053318545,207.52186088637973 56.72427086823154,206.98996881092899 57.10442507546395,206.81267119260156 58.38065705669578,206.67083300430386 59.57542742206715,206.38715637837595 62.18219912832137,206.17439869060763 66.44535702303983,205.28790631082666 67.8573583640391,205.00422806316055 68.40043580299243,205.00422806316055 68.97066711366642,204.8978486344713 69.94820650352631,204.61416992951126 72.09336238692049,204.43687056997442 73.50536372780334,204.1177313953085 74.51005698961671,203.9758916269493 75.1074421723606,203.83405177551322 77.11682869610377,203.5858318353421 79.5063694268465,203.16031134517107 79.8322158899391,202.98301091999747 80.02229299361352,202.69932996957505 80.15806235338096,202.13196707067254 80.02229299361352,201.67098373547196 80.04944686568342,201.49368221893383 80.15806235338096,201.49368221893383 80.67398592026439,201.5646028410265 81.16275561507791,201.49368221893383 81.65152531012427,201.42276157578453 82.03167951724026,201.28092022737837 82.60191082814708,200.9972372808843 84.88283607107587,199.61427815293428 85.64314448542427,199.29513261588 86.70214549114462,198.72776173283637 87.05514582630713,198.37315425522684 87.21806905802805,198.12492871150607 87.62537713721395,197.02564109930245 88.03268521628343,196.2809595560102 88.4399932953529,195.890887356436 88.84730137442239,195.74904276429152 89.63476366084069,195.67812043710728 90.23214884346817,195.81996507087024 90.74807241046801,196.10365408869984 91.04676500172354,196.3164206338697 91.53553469653707,196.77741417293146 92.24153536709491,197.2384068335523 93.54492122028023,197.80578120966675 94.3866912504891,197.98308542939776 94.7396915856516,198.01854625772103 95.28276902448852,197.94762459592312 95.47284612804651,197.80578120966675 95.5,197.73485948549933 95.22846128058154,197.84124206403794 94.1966141469311,197.91216375715157 93.65353670809418,197.87670291322866 92.73030506202485,197.66393774040625 92.16007375123445,197.4157114689442 91.48122695274651,196.88379717255884 90.34076433128212,196.21003738461877 89.55330204498023,195.92634849154274 88.95591686235275,195.96180962132348 88.63007039902732,196.13911519251997 88.0869929601904,196.5646480332798 87.76114649686497,197.13202398979047 87.57106939319056,197.84124206403794 87.40814616146963,198.19585032151372 87.05514582630713,198.65684027898533 86.62068387540057,198.97598665792611 83.5251424741,200.50079132412793 82.19460274896119,201.31638057215605 81.13560174335726,201.5646028410265 80.13090848142747,201.5646028410265 79.8322158899391,201.38730124650465 79.69644653028809,201.1390787956334 79.45206168293953,199.75612047858885 79.20767683535814,199.11782935794326 78.71890714054462,198.08946789878246 78.33875293331221,197.55755508379661 78.09436808584724,197.13202398979047 77.41552128724288,196.2809595560102 76.76382836070843,195.85542621622153 76.46513576933648,195.50081452802988 76.24790479394142,195.35896970711474 75.2975192759186,195.14620231984009 74.5643647336401,195.14620231984009 73.64113308745436,195.35896970711474 72.77220918540843,195.50081452802988 71.44166946026962,195.890887356436 70.30120683880523,196.42280383619072 69.45943680859637,196.67103112646146 69.05212872952688,196.67103112646146 66.79835735843517,196.17457629121782 66.03804894408677,195.96180962132348 64.59889373113401,195.35896970711474 63.56704659736715,194.79158959187043 62.725276567274705,194.15328537161986 61.421890714089386,192.9475950266642 60.770197787554935,192.4511325496278 60.36288970836904,192.09651587078406 59.65688903792761,191.67097516993817 59.19527321483474,191.35181915313296 58.89658062357921,191.03266271512257 58.489272544393316,190.4298105166381 57.83757961797528,189.96880488056922 56.235501173418015,189.3659500307549 54.959269192186184,188.83401803318702 53.7644988266984,188.65670710742415 51.076265504583716,188.7630936784699 50.1258799865609,188.9404045262636 48.252262822701596,189.1177152440796 47.49195440823678,189.1177152440796 46.02564532344695,189.3659500307549 44.69510559842456,189.43687420865172 42.034026148263365,189.43687420865172 40.73064029507805,189.5432604365633 39.42725444200914,189.79149478652107 38.313945692265406,189.72057071258314 36.44032852828968,189.86241883979528 33.96932618168648,189.86241883979528 33.5348642305471,189.96880488056922 32.39440160919912,190.4298105166381 31.606939322897233,190.67804395678104 29.679014415014535,190.99720086265006 29.163090848131105,190.99720086265006 26.610626885667443,190.81989152250753 24.709855849854648,190.855353400897 21.831545424181968,191.3163573474303 21.261314113275148,191.52912810334237 20.745390546508133,191.5645898777875 19.957928260206245,191.81282215341344 19.22477371781133,192.09651587078406 17.975695608416572,192.91213345489814 16.45507877971977,194.15328537161986 15.450385518022813,195.6071980890265 15.01592356688343,196.67103112646146 14.608615487697534,198.7986831660237 14.5,199.54335695889313 14.662923231720924,199.86250216831104 15.124539054580964,200.32348894979805 15.42323164595291,200.74901442983537 15.83053972502239,201.49368221893383 16.7537713709753,203.7631318185886 16.971002346719615,204.72054948292498 17.161079450161196,205.00422806316055 17.351156553835608,205.1815270070074 17.81277237692848,205.2524465480965 19.17046597378794,205.11060744496353 19.76785115664825,205.14606722861936 21.397083473042585,204.86238881459576 23.67800871608779,204.6496297858248 25.225779416738078,204.47233045226312 28.212705330108292,204.29503098875284 30.222091853735037,204.04681152151898 31.2810928595718,203.9404316718137 32.28578612126876,204.1886512482015 33.181863895384595,204.04681152151898 33.61632584640756,204.04681152151898 34.26801877305843,204.1886512482015 34.974019443499856,204.08227146106947 36.71186724782456,204.25957108047442 37.93379148514941,204.75600932360976 38.77556151524186,205.21698678008397 40.70348642312456,206.06801977648865 40.86640965472907,206.20985831825237 41.00217901438009,206.52899473290017 41.05648675817065,207.13180681208905 41.02933288644999,208.05375179235125 40.92071739851963,208.83385633910075 40.94787127058953,209.8621721254167 41.02933288644999,210.1813037221873 41.24656386196148,210.6422708408063 41.463794837356545,210.92594247718807 41.68102581286803,211.1032370810426 42.441334227332845,211.49328475217044 43.120181025820784,211.70603776224016 44.12487428763416,211.88333179449546 44.6136439825641,212.09608446157654 44.96664431784302,212.45067182424827 45.91702983586583,213.76264054734202 46.51441501849331,214.22360084211687 46.8945692256093,214.43635145120788 47.76349312777165,214.7200186388509 48.98541736509651,214.75547701388132 49.664264163700864,214.7200186388509 49.99011062690988,214.61364348245843 50.587495809653774,214.18814238916093 51.103419376537204,213.86901607793698 52.08095876639709,213.65626497004996 52.488266845582984,213.65626497004996 53.62872946704738,213.79809906271112 55.0678846797673,213.79809906271112 55.23080791148823,213.86901607793698 55.39373114309274,214.08176699883188 55.55665437481366,215.03914382740913 55.55665437481366,215.8192258496274 55.44803888711613,216.35109851350717 55.12219242367428,217.2020923436212 55.013576935976744,217.69850402881275 55.17650016758125,218.5849509332038 55.14934629574418,219.61322527335142 55.257961783441715,220.10963201127015 55.23080791148823,220.28691988518403 54.904961448162794,220.8187827272195 54.60626885690726,221.4924739820708 54.11749916197732,221.9888768641831 53.710191082791425,222.55619319659309 53.465806235326454,222.6625648608897 53.058498156256974,222.73347927763825 52.569728461210616,222.73347927763825 51.67365068732761,222.5916504231427 49.7728796513984,222.23707792328787 47.95357023132965,221.6343034808524 46.81310760974884,221.45701659443148 46.1342608112609,221.45701659443148 45.04810593370348,221.59884611397865 44.26064364728518,221.81159023738292 43.39171974512283,222.13070607202826 43.06587328191381,222.34344972776307 41.735333556775004,223.3362509815779 40.94787127058953,224.2581342121557 40.35048608772922,225.28638444078388 40.13325511221774,225.57003890721535 38.992792490753345,226.5628269208537 37.93379148514941,227.20104563554924 36.576097887940705,227.7328932784876 35.489943010383286,228.08745772435213 33.04609453573357,228.51293437334243 31.742708682548255,229.00932285157614 30.65655380487442,229.47025409805065 30.222091853735037,229.7184474824462 29.46178343950305,230.3212017845217 28.104089842410758,231.70398539210146 27.343781428062357,232.3421905455034 26.474857525900006,232.90948260200094 26.1218571907375,233.19312813147553 25.904626215226017,233.51222895467072 25.633087495923974,234.00860717645264 25.361548776505515,234.8595389018301 25.19862554478459,235.8522887990839 25.171471672831103,236.73866919383 25.30724103259854,238.4405104497273 25.388702648342587,238.79505920468364 25.687395239714533,239.36233613209333 26.23047267855145,240.21324902953347 27.045088836806826,241.20597696122422 28.375628561829217,242.26960951108776 29.21739859203808,242.80142403281934 30.46647670143284,243.36869156752073 31.226785115664825,243.82959546032362 31.661247066804208,244.18413631882868 32.8017096882686,245.31866357530816 33.23617163929157,245.70865609128668 33.915018437895924,246.02774040939403" stroke="#4dd2ff" stroke-linecap="round" stroke-linejoin="round" stroke-width="0.5"><title>2023-12-26 11.0km</title><desc>10436709260</desc></polyline><polyline fill="none" points="157.64012738852762,255.91914558089047 158.10174321150407,256.0964072187635 158.4275896748295,256.4154778394586 158.6719745224109,256.91180908007664 158.780590009992,257.3726871776453 158.72628226620145,257.65630403210525 158.644820650341,257.93992055435956 158.31897418701556,258.40079669377883 157.74874287645798,258.861671955543 157.55866577266715,259.1452870649955 157.4772041569231,259.42890184184944 157.53151190083008,259.81887161760824 158.10174321150407,261.0951319439773 158.31897418701556,261.2723897903634 158.59051290643401,261.34329289257585 159.10643647331744,261.2723897903634 160.65420717396773,260.56335762600065 162.36490110633895,259.9606786528748 162.74505531345494,259.8543233842938 163.26097888022196,259.8543233842938 163.5325175996404,259.74796806875383 163.9398256788263,259.3934500130272 164.64582634938415,258.36534471415507 165.24321153212804,257.3726871776453 165.78628897096496,256.2382164354058 166.08498156210408,255.42281230438675 166.437981897383,253.7210904845706 166.38367415359244,250.8494077767973 166.51944351324346,249.5021868610056 166.54659738519695,248.22586539015174 166.41082802554592,245.10594011997455 166.57375125703402,243.29778319843172 166.57375125703402,242.02142900088802 166.41082802554592,241.48961276495538 166.08498156210408,240.9223408248654 164.75444183708169,239.39779089592048 164.1570566544542,238.51142024219735 163.85836406308226,237.80232138141582 163.7769024472218,237.3059509423765 163.9398256788263,236.2068413466186 164.21136439824477,235.56864638690604 164.45574924570974,235.17863752726407 164.75444183708169,234.82408347293676 165.48759637959301,234.15042933847872 166.818136104499,233.15767245845927 167.17113643989433,232.73220397724072 167.36121354345232,232.3421905455034 167.46982903114986,231.9876323347562 167.6055983909173,231.13669050914177 167.5784445189638,230.640306395464 167.44267515931278,230.21483348748006 167.17113643989433,229.5411665195861 166.89959772047587,228.65475975671143 166.70952061691787,228.26473975231056 166.41082802554592,227.7683497465332 165.867750586709,227.27195872216544 165.7048273551045,227.0592194001074 165.62336573924404,226.66919682361186 165.54190412338357,225.25092760911502 165.43328863556962,224.9672727684956 165.24321153212804,224.82544522351236 163.0437479048269,224.18722024218005 161.8761314112926,223.76173598600144 160.62705330201425,223.12350819878338 159.6223600403173,222.6625648608897 157.39574254106265,221.705218199073 156.58112638292369,221.38610180334945 156.1738183037378,221.3151869915455 155.19627891399432,221.35064440011047 154.32735501171555,221.52793136452965 152.58950720750727,221.38610180334945 151.53050620178692,221.45701659443148 149.92842775722966,221.7406755504635 147.53888702648692,222.23707792328787 147.13157894741744,222.2725351966219 146.96865571581293,222.23707792328787 146.8328863561619,222.09524877779768 146.12688568560407,220.9251551553025 145.25796178344171,219.96780161862262 145.14934629574418,219.7195982314297 145.0950385518372,219.32956382299017 145.14934629574418,218.33674612735922 145.0950385518372,217.52121425815858 145.5023466310231,215.96105867432198 145.61096211860422,214.96822715521557 145.52950050286017,214.15268393086444 145.58380824676715,213.97539156179118 145.71957760641817,213.76264054734202 146.2626550452551,213.2307621928485 146.31696278904565,212.94709325894655 146.34411666111555,210.92594247718807 146.23550117341802,210.00400844257092 146.20834730146453,208.69201933582372 146.2626550452551,207.80553618179692 146.34411666111555,207.59277974138968 146.66996312444098,207.06088782187726 146.86004022788256,206.91904977924423 147.15873281937093,206.81267119260156 148.38065705669578,206.67083300430386 149.73835065367166,206.38715637837595 152.23650687234476,206.1389390578115 156.3367415354587,205.28790631082666 157.8302044920856,205.00422806316055 158.97066711366642,204.8978486344713 159.92105263157282,204.61416992951126 162.0933623869205,204.43687056997442 163.50536372780334,204.1177313953085 164.3742876299657,204.01135157688987 165.27036540396512,203.7985917996266 167.22544418368489,203.55037182301749 169.5063694268465,203.16031134517107 169.8322158899391,202.98301091999747 170.02229299361352,202.69932996957505 170.15806235338096,202.20288750581676 170.13090848142747,201.9901261380146 169.99513912177645,201.70644402329344 170.04944686568342,201.52914253252675 170.21237009717152,201.49368221893383 170.67398592026439,201.5646028410265 171.2170633589849,201.49368221893383 171.70583305391483,201.42276157578453 172.08598726103082,201.28092022737837 174.88283607107587,199.61427815293428 175.67029835737776,199.29513261588 176.64783774712123,198.72776173283637 177.02799195447005,198.37315425522684 177.2723768018186,198.01854625772103 177.6525310089346,196.99018012547458 178.00553134432994,196.3164206338697 178.22276231984142,196.06819297969923 178.49430103925988,195.890887356436 178.82014750258531,195.74904276429152 179.28176332544535,195.67812043710728 179.6347636608407,195.67812043710728 180.01491786795668,195.71358160331147 180.25930271542165,195.81996507087024 180.96530338586308,196.24549847295566 181.5083808248164,196.77741417293146 182.40445859869942,197.34478963039874 183.68069057993125,197.84124206403794 184.30522963462863,197.98308542939776 184.9297686892096,197.98308542939776 185.28276902448852,197.94762459592312 185.4728461280465,197.80578120966675 185.5,197.73485948549933 185.22846128058154,197.84124206403794 184.1966141469311,197.91216375715157 183.70784445188474,197.87670291322866 182.73030506202485,197.66393774040625 182.18722762330435,197.4511723806063 181.4812269527465,196.88379717255884 180.31361045932863,196.17457629121782 179.55330204498023,195.92634849154274 179.0373784780968,195.96180962132348 178.68437814281788,196.06819297969923 178.14130070398096,196.5291869918292 177.73399262491148,197.1674849429255 177.59822326514404,197.77032035014417 177.40814616146963,198.19585032151372 177.1094535702141,198.62137954418722 176.62068387540057,198.97598665792611 173.5251424741,200.4653308595589 172.24891049275175,201.28092022737837 171.18990948714782,201.5646028410265 170.239523969125,201.60006314438942 169.91367750591598,201.42276157578453 169.69644653028809,201.17453916138038 169.45206168293953,199.75612047858885 168.9632919880096,198.55045805902046 168.63744552468415,197.94762459592312 168.31159906135872,197.5220941879379 168.06721421389375,197.09656303140218 167.46982903114986,196.3164206338697 166.76382836070843,195.85542621622153 166.46513576933648,195.50081452802988 166.2207509218715,195.35896970711474 165.18890378810465,195.14620231984009 164.48290311777964,195.14620231984009 163.64113308745436,195.35896970711474 162.7993630572455,195.50081452802988 161.44166946026962,195.85542621622153 160.13828360720072,196.49372594512533 159.32366744894534,196.7064921471756 156.82551123038866,196.17457629121782 156.09235668787733,195.96180962132348 154.49027824343648,195.2880472654797 153.59420046932064,194.79158959187043 152.6981226952048,194.15328537161986 151.9649681528099,193.44405648473185 150.66158229962457,192.38020925539604 150.39004358032253,192.09651587078406 149.7111967818346,191.74189867204404 149.22242708690464,191.35181915313296 148.95088836736977,191.10358640435152 148.43496480060276,190.39434857589367 147.83757961797528,189.96880488056922 144.9049614481628,188.83401803318702 143.7644988266984,188.65670710742415 141.18488099216484,188.7630936784699 140.09872611472383,188.9404045262636 138.2251089507481,189.1177152440796 137.51910828030668,189.1177152440796 135.9713375796564,189.3659500307549 134.55933623865712,189.43687420865172 132.06118002010044,189.43687420865172 130.56771706347354,189.57872250222135 129.40010056993924,189.79149478652107 128.3410995643353,189.72057071258314 126.46748240035959,189.86241883979528 123.91501843789592,189.89788085855253 123.371940999059,190.00426688368316 122.36724773724563,190.4298105166381 121.60693932289723,190.67804395678104 120.27639959775843,190.9262771421636 119.62470667122398,190.99720086265006 116.6920885015279,190.81989152250753 114.65554810594767,190.855353400897 111.80439155211207,191.3163573474303 111.31562185718212,191.52912810334237 110.71823667443823,191.60005164708127 109.4691585652763,191.99013076580013 108.00284948037006,192.87667187796615 107.40546429774258,193.40859498581267 106.83523298695218,193.83413262972317 106.31930942006875,194.3305922684085 105.93915521295276,194.93343474552967 105.55900100572035,195.35896970711474 105.09738518274389,196.42280383619072 104.82584646320902,197.62847686007444 104.5,199.50789635401452 104.63576935976744,199.82704161024594 105.36892390204594,200.64263312994444 105.83053972502239,201.49368221893383 106.72661749925464,203.7276718322537 106.94384847476613,204.68508963698696 107.07961783441715,204.8978486344713 107.32400268188212,205.14606722861936 107.43261816969607,205.21698678008397 107.81277237692848,205.2524465480965 109.17046597378794,205.11060744496353 109.76785115664825,205.14606722861936 111.50569896074012,204.82692898949608 116.06754944683053,204.40141068241792 118.32132081803866,204.29503098875284 121.11816962796729,203.9758916269493 121.49832383508328,203.9758916269493 122.28578612126876,204.1886512482015 123.07324840768706,204.08227146106947 123.61632584640756,204.04681152151898 124.21371102926787,204.1886512482015 124.8925578276394,204.08227146106947 126.71186724782456,204.25957108047442 127.93379148514941,204.75600932360976 128.69409989949781,205.1815270070074 130.56771706347354,205.99710047456028 130.83925578277558,206.17439869060763 130.97502514254302,206.42261597482138 131.05648675817065,207.13180681208905 131.02933288645,208.08921114452824 130.92071739851963,208.7983970961359 130.94787127058953,209.8621721254167 131.05648675817065,210.2876808273577 131.30087160575204,210.71318878105376 131.62671806907747,211.0677781706181 132.49564197123982,211.52874360015267 133.12018102582078,211.70603776224016 134.20633590349462,211.9187905852741 134.58649011072703,212.09608446157654 134.88518270198256,212.3442956700601 135.91702983586583,213.727182026807 136.81310760974884,214.40089302929118 137.13895407307427,214.57818508666242 137.8178008715622,214.7200186388509 138.9854173650965,214.75547701388132 139.66426416370086,214.7200186388509 139.99011062690988,214.61364348245843 140.58749580965377,214.18814238916093 141.1034193765372,213.86901607793698 142.0809587663971,213.65626497004996 142.56972846121062,213.65626497004996 143.68303721083794,213.79809906271112 145.12219242367428,213.83355757295794 145.23080791148823,213.86901607793698 145.36657727125566,214.0463085250667 145.55665437481366,215.03914382740913 145.55665437481366,215.8192258496274 145.4751927589532,216.28018222584797 145.12219242367428,217.2020923436212 145.01357693597674,217.69850402881275 145.17650016758125,218.5849509332038 145.14934629574418,219.61322527335142 145.25796178344171,220.28691988518403 144.95926919218618,220.71241025236668 144.60626885690726,221.4924739820708 144.1446530338144,221.9534195492888 143.81880657060537,222.41436423816776 143.62872946704738,222.5916504231427 143.1942675160244,222.73347927763825 142.73265169304796,222.73347927763825 140.94049614481628,222.48527872774866 139.7728796513984,222.23707792328787 138.00787797523662,221.66976084257476 137.22041568893474,221.4924739820708 136.7316459940048,221.45701659443148 136.1071069393074,221.45701659443148 135.04810593370348,221.59884611397865 134.26064364728518,221.81159023738292 133.44602748926263,222.13070607202826 133.0930271538673,222.3079924648482 131.68102581286803,223.37170809390955 130.94787127058953,224.2581342121557 130.2147167280782,225.4636685213336 129.88887026486918,225.81823629255814 128.96563861891627,226.5628269208537 127.93379148514941,227.20104563554924 126.65755950380117,227.69743680531974 125.43563526647631,228.08745772435213 122.96463291987311,228.54839072695177 121.66124706680421,229.00932285157614 120.68370767682791,229.4347978795122 120.22209185373504,229.7184474824462 119.40747569559608,230.39211395672464 118.10408984241076,231.739441278085 117.39808917196933,232.30673474786454 116.52916526980698,232.87402688746806 116.1218571907375,233.19312813147553 115.90462621522602,233.51222895467072 115.63308749592397,234.00860717645264 115.36154877650551,234.8595389018301 115.19862554478459,235.74592293344904 115.14431780087762,236.59684854881198 115.19862554478459,237.34140600753017 115.36154877650551,238.6886946327577 115.55162588006351,239.14960744020937 116.17616493476089,240.10688508102612 116.52916526980698,240.60324977411074 117.04508883680683,241.20597696122422 118.34847468987573,242.26960951108776 119.29886020778213,242.83687829262635 120.43932282936294,243.33323738563922 121.2810928595718,243.86504956950375 123.2090177674545,245.67320225205913 123.91501843789592,246.02774040939403" stroke="#4dd2ff" stroke-linecap="round" stroke-linejoin="round" stroke-width="0.5"><title>2023-12-26 11.0km</title><desc>10437350044</desc></polyline></svg>