<?xml version="1.0" encoding="utf-8" ?>
<svg baseProfile="full" height="200mm" version="1.1" viewBox="0,0,200,200" width="200mm" xmlns="http://www.w3.org/2000/svg" xmlns:ev="http://www.w3.org/2001/xml-events" xmlns:xlink="http://www.w3.org/1999/xlink"><defs /><rect fill="#1a1a1a" height="200" width="200" x="0" y="0" /><text alignment-baseline="middle" fill="#e1ed5e" style="dominant-baseline: central; font-size:9.0px; font-family:Arial;" text-anchor="middle" x="100.0" y="100.0">2023</text><line stroke="#e1ed5e" stroke-width="0.3" x1="100.0" x2="100.0" y1="15.0" y2="10.0" /><path d="M 100.0 14.0 a86.0,86.0 0 0,1 42.46469731375804,11.215312516191453" fill="none" id="id25" stroke="none" /><text fill="#e1ed5e" style="font-size:6.75px; font-family:Arial;" text-anchor="middle"><textPath startOffset="22.20632615414155" xlink:href="#id25">January</textPath></text><line stroke="#e1ed5e" stroke-width="0.3" x1="143.23703022742887" x2="145.7803849466894" y1="26.81831364943548" y2="22.513508569990506" /><path d="M 143.74570117128098 25.957352633546492 a86.0,86.0 0 0,1 28.547481713284135,27.462654790039103" fill="none" id="id26" stroke="none" /><text fill="#e1ed5e" style="font-size:6.75px; font-family:Arial;" text-anchor="middle"><textPath startOffset="19.985693538727396" xlink:href="#id26">February</textPath></text><line stroke="#e1ed5e" stroke-width="0.3" x1="172.23445277983987" x2="176.4835382374775" y1="55.19839476539836" y2="52.563006222186495" /><path d="M 173.08426987136738 54.67131705675599 a86.0,86.0 0 0,1 12.851231095245387,41.99856678651699" fill="none" id="id27" stroke="none" /><text fill="#e1ed5e" style="font-size:6.75px; font-family:Arial;" text-anchor="middle"><textPath startOffset="22.20632615414155" xlink:href="#id27">March</textPath></text><line stroke="#e1ed5e" stroke-width="0.3" x1="184.98032266829074" x2="189.97916517819016" y1="98.17113171792111" y2="98.06355123074" /><path d="M 185.9800911702706 98.14961562048488 a86.0,86.0 0 0,1 -9.607161424134198,41.387399972396054" fill="none" id="id28" stroke="none" /><text fill="#e1ed5e" style="font-size:6.75px; font-family:Arial;" text-anchor="middle"><textPath startOffset="21.466115282336823" xlink:href="#id28">April</textPath></text><path d="M 120.99980553446 99.90962569577887 l 25.976344695187567 -0.11179122940845782 a46.976585245219816,46.976585245219816 0 0,0 -0.0034800762378991057,0.8086471577382666 l -25.974420321660162 -0.33536540653349345" fill="#e8ff1a" stroke="none" /><path d="M 120.9764740272857 100.99374915477107 l 26.46953209699769 1.2539798211253848 a47.499218758781936,47.499218758781936 0 0,0 -0.045720597195547816,0.816371976286449 l -26.444025148914612 -1.7094235137472569" fill="#e1ff1b" stroke="none" /><path d="M 120.95626037817324 101.35467743843564 l 15.859772104864952 1.025224685200458 a36.89287440563842,36.89287440563842 0 0,0 -0.04642079536006404,0.6333748711944477 l -15.83977475084055 -1.298072692891676" fill="#ff890c" stroke="none" /><path d="M 120.92983693683757 101.71520430193887 l 16.6754530907833 1.3665566991470783 a37.73135418891424,37.73135418891424 0 0,0 -0.0586190792107615,0.6468566544416657 l -16.649459415295464 -1.6533947421373145" fill="#ff950d" stroke="none" /><path d="M 120.81339534386255 102.79330883721812 l 19.19368405503306 2.5759318171749377 a40.36576702150381,40.36576702150381 0 0,0 -0.0983501321951438,0.687860595506143 l -19.146499871821312 -2.90593788466149" fill="#ffbb11" stroke="none" /><path d="M 120.70491114924044 103.5080841355445 l 19.28146450870408 3.266906062310271 a40.5562662290217,40.5562662290217 0 0,0 -0.12254473227002105,0.6872959376752587 l -19.222373334094872 -3.598320750718748" fill="#ffbe11" stroke="none" /><path d="M 120.64145759157962 103.86396538481128 l 20.452354637058686 3.82856636964035 a41.80761232450175,41.80761232450175 0 0,0 -0.13850278054966844,0.7062226941039048 l -20.38342192353335 -4.1800527908122" fill="#ffcf13" stroke="none" /><path d="M 120.5718875245553 104.21870165774334 l 15.709012525916865 3.22146604707479 a37.03592585515001,37.03592585515001 0 0,0 -0.1334456634076275,0.6234137130915681 l -15.651232823784795 -3.491393579582527" fill="#ff8b0c" stroke="none" /><path d="M 120.49622156327973 104.57218783832717 l 22.31496430471171 4.977903273132921 a43.86344577961129,43.86344577961129 0 0,0 -0.17073205877910988,0.7355092407472832 l -22.22597168000205 -5.361281171228769" fill="#ffec16" stroke="none" /><path d="M 120.41448212921028 104.9243191809786 l 24.991396125985265 6.028348430476901 a46.708186733512434,46.708186733512434 0 0,0 -0.19525953928552053,0.7799647980795568 l -24.883925272404685 -6.457641067953854" fill="#ecff1a" stroke="none" /><path d="M 120.32669344350535 105.2749913415812 l 24.47812714113744 6.352332172790263 a46.28894684187453,46.28894684187453 0 0,0 -0.20678357844521264,0.7695186207739747 l -24.36515548635045 -6.772741726739786" fill="#f1ff19" stroke="none" /><path d="M 120.23288151984713 105.62410040840565 l 26.345208166871004 7.323133675521607 a48.344072121491436,48.344072121491436 0 0,0 -0.22976639812544258,0.799846974394264 l -26.215249131859462 -7.775538125420454" fill="#d6ff1c" stroke="none" /><path d="M 120.13307415673323 105.97154293290107 l 32.83288181828426 9.738352020284049 a55.24665864817167,55.24665864817167 0 0,0 -0.2782674949270997,0.9093942738712655 l -32.66038755085103 -10.302073266707373" fill="#81ff25" stroke="none" /><path d="M 120.02730092923936 106.31721596034902 l 27.520119769268963 8.68067746379768 a49.856734973752545,49.856734973752545 0 0,0 -0.2652087445522595,0.816228587023412 l -27.366618773700456 -9.153104950798888" fill="#c3ff1e" stroke="none" /><path d="M 119.9155931802556 106.66101706037122 l 7.830930963515937 2.619151951661801 a29.25732624408449,29.25732624408449 0 0,0 -0.16385380135188493,0.4762358449928511 l -7.78468633122082 -2.7535604997439522" fill="#ff1302" stroke="none" /><path d="M 119.79798401119884 107.00284435728193 l 9.698811177842611 3.4306152126741325 a31.28766538145929,31.28766538145929 0 0,0 -0.18396512401889858,0.5061930114231333 l -9.638321792818484 -3.597056021103397" fill="#ff3304" stroke="none" /><path d="M 119.67450827220406 107.3425965602758 l 32.90842988392626 12.281543239948267 a56.125504434527485,56.125504434527485 0 0,0 -0.3455880373373527,0.9022213141284932 l -32.6921475669954 -12.846188120909904" fill="#76ff27" stroke="none" /><path d="M 119.54520255179757 107.68017299344265 l 6.64256982218104 2.610158949244556 a28.13699261474129,28.13699261474129 0 0,0 -0.1810111497576478,0.44925482908213527 l -6.596656058165999 -2.724113146169505" fill="#ff0100" stroke="none" /><path d="M 119.41010516605496 108.01547362559984 l 13.184148275806669 5.444442051016688 a35.26407077258574,35.26407077258574 0 0,0 -0.236519512737318,0.5590622613764328 l -13.088477781877042 -5.670578838059285" fill="#ff700a" stroke="none" /><path d="M 119.26925614724726 108.34839909993367 l 20.997318169287702 9.097081421617004 a43.88327469340498,43.88327469340498 0 0,0 -0.3062611970240484,0.6905381486944769 l -20.837615887532383 -9.457167906804168" fill="#ffec16" stroke="none" /><path d="M 119.12269723197855 108.67885076344098 l 12.514950995863613 5.679920080690387 a34.74356178550151,34.74356178550151 0 0,0 -0.2518500954831886,0.5424627000344775 l -12.415326283540592 -5.894502848003695" fill="#ff6809" stroke="none" /><path d="M 118.97047184881838 109.00673069616215 l 13.495837753262856 6.40750410065883 a35.939670192556285,35.939670192556285 0 0,0 -0.27014094753505874,0.5565703650278524 l -13.383543549113083 -6.638863421651958" fill="#ff7a0b" stroke="none" /><path d="M 118.81262510543309 109.33194174019688 l 56.43787531629926 27.995825220590632 a84.0,84.0 0 0,0 -0.6536853208549238,1.2897831531892228 l -55.94761132565807 -28.96316258548255" fill="#4dd2ff" stroke="none" /><path d="M 118.64920377521936 109.65438752849418 l 28.26467211260047 14.632158092639942 a52.82753116534211,52.82753116534211 0 0,0 -0.4250037565264686,0.8039469405006012 l -28.008615847849104 -15.116520048226677" fill="#9eff22" stroke="none" /><line stroke="#e1ed5e" stroke-width="0.3" x1="174.80103733775053" x2="179.2010983576182" y1="140.37084112569926" y2="142.7455964860345" /><path d="M 175.68104954172406 140.8457921977663 a86.0,86.0 0 0,1 -30.038265399797805,32.042727171017184" fill="none" id="id29" stroke="none" /><text fill="#e1ed5e" style="font-size:6.75px; font-family:Arial;" text-anchor="middle"><textPath startOffset="22.206326154141568" xlink:href="#id29">May</textPath></text><path d="M 118.48025628344425 109.97397251340804 l 25.343176291494384 13.677956617964673 a49.798664583356754,49.798664583356754 0 0,0 -0.41362199434043,0.7508440643576112 l -25.103977887702445 -14.11217120072009" fill="#c4ff1e" stroke="none" /><path d="M 118.30583269289576 110.29060199501025 l 14.53791076711239 8.172469182534748 a37.67753285147424,37.67753285147424 0 0,0 -0.32267757491622784,0.5626155504401756 l -14.395081196043783 -8.421504578833238" fill="#ff940d" stroke="none" /><path d="M 118.12598468904814 110.60418214915192 l 20.85605819146556 12.201347610606799 a45.16294780859028,45.16294780859028 0 0,0 -0.3983353163806552,0.6676329024585681 l -20.64294199938668 -12.558542606951471" fill="#fffe18" stroke="none" /><path d="M 117.94076556474637 110.91462005526583 l 34.97441943436532 21.277380745095268 a61.93820887804768,61.93820887804768 0 0,0 -0.5619723308047522,0.9060783331428682 l -34.60298246389261 -21.876255409603413" fill="#35ff2f" stroke="none" /><path d="M 117.75023020441432 111.22182372390056 l 51.00180801711711 32.24371135344328 a81.33938467418307,81.33938467418307 0 0,0 -0.7583740921480158,1.1770134322935353 l -50.439229061592044 -33.11684638565827" fill="#49edff" stroke="none" /><path d="M 117.55443506779139 111.5257021239791 l 17.49365825547048 11.48579793839007 a41.92729398275649,41.92729398275649 0 0,0 -0.40129789947932454,0.5998859109075867 l -17.29335725058043 -11.785220763503464" fill="#ffd113" stroke="none" /><path d="M 117.35343817320211 111.8261652097733 l 43.512827937021015 29.653483464867517 a73.65638875462281,73.65638875462281 0 0,0 -0.7230219599805228,1.041567058877857 l -42.99594506987836 -30.398091785932394" fill="#3fffbc" stroke="none" /><path d="M 117.14729908036423 112.12312394758627 l 26.06587607981853 18.428549303133273 a52.92242668135475,52.92242668135475 0 0,0 -0.5322993310296518,0.7393172145850428 l -25.744796956413275 -18.874500123169447" fill="#9dff22" stroke="none" /><path d="M 116.93607887273984 112.41649034213515 l 48.791578942396036 35.770981776124536 a81.49943233551781,81.49943233551781 0 0,0 -0.8392063815857822,1.1242540892810275 l -48.16861129411516 -36.605548744914884" fill="#4aecff" stroke="none" /><path d="M 116.71984013943494 112.70617746262583 l 33.248351525124455 25.26695538323938 a62.759692449500335,62.759692449500335 0 0,0 -0.6610483868247685,0.8544941501903088 l -32.80849632108162 -25.835527527542943" fill="#30ff33" stroke="none" /><path d="M 116.498646956653 112.99209946851258 l 30.81109939745045 24.262648273983743 a60.21734243095289,60.21734243095289 0 0,0 -0.6482886908236984,0.8088398207456777 l -30.3888927945719 -24.789415928307672" fill="#48ff2c" stroke="none" /><path d="M 116.27256486870786 113.27417163493432 l 44.96269854483808 36.67784288890566 a79.02506716426299,79.02506716426299 0 0,0 -0.8689144817576059,1.0466634684556173 l -44.32468806318693 -37.446367614475044" fill="#46fff8" stroke="none" /><path d="M 116.0416608686014 113.55231037782055 l 36.89666751305488 31.171029866545478 a69.30110947493846,69.30110947493846 0 0,0 -0.7776821687059392,0.9046200552664119 l -36.35464283477816 -31.801527020973417" fill="#39ff88" stroke="none" /><path d="M 115.80600337817218 113.82643327865902 l 13.91022819528195 12.168088126476697 a39.48125583120693,39.48125583120693 0 0,0 -0.45185573541907265,0.5076647088330909 l -13.69871361021454 -12.405727005050654" fill="#ffae10" stroke="none" /><path d="M 115.56566222782051 114.09645910891815 l 21.279539833869304 19.271018395131563 a49.70872629579253,49.70872629579253 0 0,0 -0.5798252885767566,0.629285833864778 l -20.944668137296823 -19.634455483797677" fill="#c5ff1e" stroke="none" /><path d="M 115.32070863581623 114.36230785411682 l 23.216399206136575 21.76407636152675 a52.822573936893704,52.822573936893704 0 0,0 -0.6275660065026304,0.6580004488421777 l -22.83832664825498 -22.160483926951436" fill="#9eff22" stroke="none" /><path d="M 115.07121518719521 114.62390073753431 l 23.55799619013518 22.85879363944393 a53.82535043446004,53.82535043446004 0 0,0 -0.6509263025001061,0.6593849078136574 l -23.16102926257954 -23.260919041238253" fill="#92ff23" stroke="none" /><path d="M 114.81725581225074 114.88116024355365 l 32.284132306162924 32.42336855484992 a66.75521857892784,66.75521857892784 0 0,0 -0.8212482809062035,0.8037642927172911 l -31.72123407288093 -32.97428295048979" fill="#35ff68" stroke="none" /><path d="M 114.55890576462653 115.13401014063108 l 31.885707272299214 33.14525315306546 a66.99245736895944,66.99245736895944 0 0,0 -0.8379294246155772,0.7923145718916658 l -31.310442013292832 -33.689202361703046" fill="#36ff6b" stroke="none" /><path d="M 114.0293411484842 115.62618273729858 l 10.553585717311082 11.754811377600944 a36.797270714133155,36.797270714133155 0 0,0 -0.4749610294872505,0.41909788575052065 l -10.349682334917244 -11.934732405123754" fill="#ff870c" stroke="none" /><path d="M 113.75828350139079 115.86535959552629 l 33.56188510606127 38.701875554285074 a72.22729061049223,72.22729061049223 0 0,0 -0.9462962466785186,0.8064541908780759 l -32.8907233828057 -39.273854135386095" fill="#3dffab" stroke="none" /><path d="M 113.48314897796784 116.09983520530334 l 23.49915487053879 28.059655908110987 a57.599925810186484,57.599925810186484 0 0,0 -0.7656123755825086,0.630046862479249 l -23.01267236641159 -28.45999788944741" fill="#65ff29" stroke="none" /><path d="M 113.20401910651253 116.32954008644616 l 18.53810976028044 22.926262376288925 a50.48347028473151,50.48347028473151 0 0,0 -0.6804270478914052,0.540572398588862 l -18.140725219671683 -23.24196868888291" fill="#bbff1f" stroke="none" /><path d="M 112.92097659922987 116.55440617244103 l 27.472743379057466 35.19818715523905 a65.65046481042253,65.65046481042253 0 0,0 -0.8968205864361456,0.6876437832875967 l -26.862794064127826 -35.665870280354014" fill="#34ff59" stroke="none" /><path d="M 112.63410532772338 116.77436683061366 l 13.816977184768687 18.34487189836449 a43.966131226042876,43.966131226042876 0 0,0 -0.6084389774684635,0.4501086098095714 l -13.499153236881659 -18.579990456913833" fill="#ffed16" stroke="none" /><path d="M 112.34349029814194 116.9893568818739 l 13.965358960757925 19.2216675864773 a44.75928777779026,44.75928777779026 0 0,0 -0.6272112008548143,0.4474985383196652 l -13.632420432054227 -19.459210386641185" fill="#fff817" stroke="none" /><path d="M 112.04921762599082 117.19931262002967 l 22.106462998685853 31.55524116498402 a59.52828767662234,59.52828767662234 0 0,0 -0.8442900311747821,0.5807103820895451 l -21.560016082888186 -31.93109233643866" fill="#4fff2b" stroke="none" /><path d="M 111.7513745106137 117.40417183066458 l 25.681405059306478 38.03500484997532 a66.89331279999101,66.89331279999101 0 0,0 -0.9598403634161479,0.6361298543769354 l -25.02288999715037 -38.47143272544358" fill="#35ff69" stroke="none" /><path d="M 111.45004920935366 117.60387380957326 l 24.410880420026945 37.53049883346258 a65.77085464416992,65.77085464416992 0 0,0 -0.9543607764287967,0.6091182015341728 l -23.761237841551218 -37.945131463820566" fill="#34ff5b" stroke="none" /><path d="M 111.1453310114006 117.79835938074945 l 6.993065347673236 11.167464663331943 a34.1763132159036,34.1763132159036 0 0,0 -0.5012864447679352,0.3079310772254611 l -6.799799702972992 -11.286184207385782" fill="#ff6008" stroke="none" /><line stroke="#e1ed5e" stroke-width="0.3" x1="143.8653032363475" x2="146.44561519142675" y1="172.8068346515853" y2="177.08958963109032" /><path d="M 144.38136562736335 173.6633856474863 a86.0,86.0 0 0,1 -40.68145358897372,12.25698825130547" fill="none" id="id30" stroke="none" /><text fill="#e1ed5e" style="font-size:6.75px; font-family:Arial;" text-anchor="middle"><textPath startOffset="21.466115282336833" xlink:href="#id30">June</textPath></text><path d="M 110.8373102113329 117.98757091392108 l 21.84845886503463 36.26367572128046 a63.336855475995094,63.336855475995094 0 0,0 -0.9386887796267442,0.5545938767309727 l -21.221002214379503 -36.63438817030518" fill="#31ff3b" stroke="none" /><path d="M 110.5260780823613 118.17145234162733 l 19.80326334473041 34.186907342106544 a60.50840255842447,60.50840255842447 0 0,0 -0.9057567121842478,0.514312299976332 l -19.211857865624964 -34.5227228078775" fill="#45ff2d" stroke="none" /><path d="M 110.21172684928248 118.3499491758327 l 8.122570604895158 14.595842601039749 a37.703735344701606,37.703735344701606 0 0,0 -0.5698240717023829,0.3107135173798174 l -7.870123721324126 -14.733496770179338" fill="#ff950d" stroke="none" /><path d="M 109.89434966115114 118.52300852407294 l 4.946229450328948 9.259734435118437 a31.49799350277088,31.49799350277088 0 0,0 -0.4804330414808974,0.2513398606349929 l -4.7861055063215545 -9.343503714698148" fill="#ff3605" stroke="none" /><path d="M 109.57404056367764 118.69057910512821 l 21.83192487435668 42.62059641040802 a68.88682681174896,68.88682681174896 0 0,0 -1.060024233159577,0.5315181562483172 l -21.095046733514344 -42.990082407565644" fill="#38ff82" stroke="none" /><path d="M 109.2508944713604 118.85261126421891 l 4.499465528504547 9.169564604618742 a31.214015130225604,31.214015130225604 0 0,0 -0.4843929577042662,0.23253805620961066 l -4.340959902800047 -9.245656937327913" fill="#ff3204" stroke="none" /><path d="M 108.92500713936063 119.00905698771935 l 14.03204829704942 29.886363290029944 a54.01655781747057,54.01655781747057 0 0,0 -0.8450556191199369,0.38792358737721877 l -13.515524682162063 -30.123473947741235" fill="#8fff24" stroke="none" /><path d="M 108.59647513512805 119.15986991738527 l 9.336385996175874 20.80898721549815 a43.8074999156934,43.8074999156934 0 0,0 -0.6906551198580132,0.3027629080627289 l -8.976810201660106 -20.966614676855333" fill="#ffeb16" stroke="none" /><path d="M 108.2653958097858 119.30500536409082 l 11.003184484901391 25.6994995026871 a48.95593574712514,48.95593574712514 0 0,0 -0.7775334189845103,0.32500903219535277 l -10.55917960641942 -25.885093577902424" fill="#cfff1d" stroke="none" /><path d="M 107.93186726928326 119.44442032107085 l 11.564917657897208 28.350590382363706 a51.61867559941997,51.61867559941997 0 0,0 -0.8256012007846264,0.3285237562591396 l -11.075195381070715 -28.545460983028914" fill="#adff20" stroke="none" /><path d="M 107.59598834532513 119.57807347666477 l 15.834332558073973 40.81176960555862 a64.77586807702252,64.77586807702252 0 0,0 -1.042983332045009,0.39436705164330266 l -15.129479005268688 -41.07828490730855" fill="#33ff4e" stroke="none" /><path d="M 107.2578585660854 119.70592522655815 l 7.348254439459383 19.951360475161763 a42.261552815278606,42.261552815278606 0 0,0 -0.684799036212032,0.24554457040293992 l -7.003735842617616 -20.074892586604665" fill="#ffd614" stroke="none" /><path d="M 106.91757812671514 119.82793768551818 l 16.56187689046665 47.47150764675697 a71.27762727487325,71.27762727487325 0 0,0 -1.161928056219436,0.39418908250917417 l -15.742279101309988 -47.74955971616427" fill="#3bffa0" stroke="none" /><path d="M 106.57524785965236 119.94407469862006 l 15.024523770714737 45.572460657045106 a68.98526320522475,68.98526320522475 0 0,0 -1.1309596964210582,0.3620975802639434 l -14.237842729202738 -45.82433108396876" fill="#38ff84" stroke="none" /><path d="M 106.2309692047433 120.05430185196036 l 8.11985059674112 26.133644624002795 a48.366025561763024,48.366025561763024 0 0,0 -0.7971758016089976,0.24018252969197612 l -7.668799820691877 -26.269542522800496" fill="#d6ff1c" stroke="none" /><path d="M 105.88484417918355 120.15858648285463 l 14.423328990193951 49.40724273515558 a72.46948662897225,72.46948662897225 0 0,0 -1.2004702696037841,0.3392648893634439 l -13.570727552485561 -49.64819641785754" fill="#3dffae" stroke="none" /><path d="M 105.53697534728816 120.25689768951611 l 2.2873376424819836 8.368172458602274 a29.67514978473713,29.67514978473713 0 0,0 -0.49389278384599816,0.1304415731353869 l -2.1429544158244878 -8.406305381041244" fill="#ff1a02" stroke="none" /><path d="M 105.18746579009965 120.34920634021253 l 6.631263105359908 26.01288310850045 a47.84480839918616,47.84480839918616 0 0,0 -0.7997982300297487,0.196570945947053 l -6.182511590586948 -26.123175312761532" fill="#ddff1b" stroke="none" /><path d="M 104.83641907484287 120.43548508189849 l 10.412591011629578 43.99667294939284 a66.21204797607939,66.21204797607939 0 0,0 -1.1113529894762435,0.25294032215010276 l -9.653717872760472 -44.169390005120626" fill="#35ff61" stroke="none" /><path d="M 104.48393922423573 120.51570834832081 l 13.26764355230209 60.704459176719446 a83.1374422499747,83.1374422499747 0 0,0 -1.4007017591887156,0.2935306724061044 l -12.220750331683996 -60.92384582985209" fill="#4cdbff" stroke="none" /><path d="M 104.13013068566511 120.58985236759428 l 4.25469246700344 21.210827557871536 a42.6333449489102,42.6333449489102 0 0,0 -0.7207722931428079,0.138137725433335 l -3.888952559288928 -21.280922481653338" fill="#ffdb14" stroke="none" /><path d="M 103.7750983002368 120.6578951692458 l 1.2801920563116882 7.005399910812687 a28.121412753903396,28.121412753903396 0 0,0 -0.476927146474367,0.0829198977009145 l -1.1594159383652713 -7.026398387034607" fill="#ff0100" stroke="none" /><path d="M 103.41894727170886 120.7198165907248 l 3.2768258138702637 19.858519148559125 a41.127055676082776,41.127055676082776 0 0,0 -0.6994813963272637,0.10924460854484375 l -2.934508553934483 -19.911982064451074" fill="#ffc612" stroke="none" /><path d="M 103.06178313531738 120.77559828337769 l 2.0179457154250566 13.692684193646661 a34.84058182799204,34.84058182799204 0 0,0 -0.5940674390009344,0.08233233389069713 l -1.7819496852372916 -13.72539109302996" fill="#ff6a09" stroke="none" /><path d="M 102.70371172650421 120.8252237178851 l 8.013485357936226 61.72352758731086 a83.24154404739156,83.24154404739156 0 0,0 -1.4225289248318782,0.17224844212689583 l -6.949829010052967 -61.85232155816311" fill="#4cdaff" stroke="none" /><path d="M 102.34483914955558 120.86867818915974 l 4.301160532174547 38.27961291198911 a59.52049774620338,59.52049774620338 0 0,0 -1.0191252773021158,0.10563650194421946 l -3.641602658266829 -38.34797878238909" fill="#50ff2b" stroke="none" /><path d="M 101.98527174616119 120.90594882070398 l 4.316578537971322 45.455827480481666 a66.66032306291521,66.66032306291521 0 0,0 -1.1432425777282604,0.09864378012028324 l -3.53349164250152 -45.52339551288061" fill="#35ff66" stroke="none" /><path d="M 101.62511606390274 120.93702456842531 l 1.5665497022288284 20.182490550525657 a41.24319645687436,41.24319645687436 0 0,0 -0.7082777384218748,0.04884697968202607 l -1.2189092030280233 -20.206465874723968" fill="#ffc712" stroke="none" /><path d="M 101.26447882468166 120.96189622390904 l 1.4877642852421809 24.663410682844823 a45.708242937916616,45.708242937916616 0 0,0 -0.7857724320211051,0.04061545932294022 l -1.0630037848075962 -24.685365948929967" fill="#f9ff18" stroke="none" /><path d="M 100.90346689309514 120.98055641714683 l 0.5763802121235341 13.384859645223763 a34.39726396960466,34.39726396960466 0 0,0 -0.5917634014425203,0.02038152805545963 l -0.34589645900636157 -13.392797971705317" fill="#ff6309" stroke="none" /><line stroke="#e1ed5e" stroke-width="0.3" x1="102.19456741930631" x2="102.32365962044197" y1="184.97166512339345" y2="189.96999836594603" /><path d="M 102.22038585953345 185.97133177190398 a86.0,86.0 0 0,1 -42.740103519485714,-10.115201625700543" fill="none" id="id31" stroke="none" /><text fill="#e1ed5e" style="font-size:6.75px; font-family:Arial;" text-anchor="middle"><textPath startOffset="22.20632615414155" xlink:href="#id31">July</textPath></text><path d="M 100.54218724476979 120.99299961872073 l 1.3030997268941422 50.45484255436292 a71.47166735985431,71.47166735985431 0 0,0 -1.2301305530682773,0.021177813049668398 l -0.43440948393319695 -50.46979784469175" fill="#3cffa2" stroke="none" /><path d="M 100.18074693466247 120.99922214144158 l 0.24716906107724246 28.716160690333876 a49.717224401704115,49.717224401704115 0 0,0 -0.855831991479376,0.0 l 0.2471690610772227 -28.716160690333876" fill="#c5ff1e" stroke="none" /><path d="M 99.81925306533755 120.99922214144158 l -0.29697956062404185 34.50315645274192 a55.50443452748957,55.50443452748957 0 0,0 -0.9553114299022828,-0.016446552616890424 l 0.8908506804189926 -34.49293242284587" fill="#7eff26" stroke="none" /><path d="M 99.45781275523022 120.99299961872073 l -1.06546275270521 41.25375389603467 a62.267510482121374,62.267510482121374 0 0,0 -1.071237347098871,-0.03689558021115973 l 1.775420451478724 -41.22930151739741" fill="#31ff2f" stroke="none" /><path d="M 99.09653310690486 120.98055641714683 l -2.0067890597283333 46.60220690622443 a67.64539517316578,67.64539517316578 0 0,0 -1.1628949892570206,-0.06010838788468994 l 2.8086721173988427 -46.56075871157754" fill="#36ff73" stroke="none" /><path d="M 98.73552117531835 120.96189622390904 l -1.2102103232862664 20.062260206071045 a41.09872865637751,41.09872865637751 0 0,0 -0.7057967637205647,-0.048675877140957134 l 1.5553698477857614 -20.038455984413805" fill="#ffc512" stroke="none" /><path d="M 98.37488393609728 120.93702456842531 l -1.5719752198261792 20.252389678197588 a41.31330583064489,41.31330583064489 0 0,0 -0.7085343737042027,-0.06113532712035927 l 1.9203539112719235 -20.222330098798565" fill="#ffc812" stroke="none" /><path d="M 98.01472825383883 120.90594882070398 l -1.4993141069214446 15.788560959510312 a36.85959015748474,36.85959015748474 0 0,0 -0.6311193868147056,-0.06541810493482295 l 1.7708660903417435 -15.760413486119727" fill="#ff880c" stroke="none" /><path d="M 97.65516085044442 120.86867818915974 l -6.714820569753969 59.760785550985254 a81.13684648329041,81.13684648329041 0 0,0 -1.3865613896639166,-0.1678932745154259 l 7.742509382469275 -59.636346747744476" fill="#49efff" stroke="none" /><path d="M 97.2962882734958 120.8252237178851 l -2.579104111047227 19.86543889933169 a41.03216016007014,41.03216016007014 0 0,0 -0.6996401616744714,-0.0969637512724051 l 2.9206728639085298 -19.81810058256668" fill="#ffc412" stroke="none" /><path d="M 96.93821686468263 120.77559828337769 l -6.412842327022832 43.51406685341796 a64.9840716718562,64.9840716718562 0 0,0 -1.1052371351371784,-0.17261531015872061 l 7.160915325768528 -43.39723323591213" fill="#33ff51" stroke="none" /><path d="M 96.58105272829116 120.7198165907248 l -6.95453559926954 42.14651196375701 a63.71643754004563,63.71643754004563 0 0,0 -1.0806035601916257,-0.18787678019319762 l 7.678988130933215 -42.020556605042806" fill="#31ff40" stroke="none" /><path d="M 96.22490169976321 120.6578951692458 l -5.4532922557843335 29.841220224698912 a51.33540540236733,51.33540540236733 0 0,0 -0.8678919731872174,-0.16633356226163132 l 5.966151843543247 -29.742929464088814" fill="#b0ff20" stroke="none" /><path d="M 95.86986931433489 120.58985236759428 l -3.184751798824817 15.876875178024436 a37.19314081451422,37.19314081451422 0 0,0 -0.6266309903063955,-0.13131661663770525 l 3.457574250560599 -15.81970258066019" fill="#ff8d0d" stroke="none" /><path d="M 95.51606077576429 120.51570834832081 l -6.303049289791307 28.83882106062448 a50.51958723485572,50.51958723485572 0 0,0 -0.8479588838702946,-0.1929926812517679 l 6.798528323054464 -28.726051645795025" fill="#bbff1f" stroke="none" /><path d="M 95.16358092515715 120.4354850818985 l -7.223721762700444 30.522635866133474 a52.36580074414631,52.36580074414631 0 0,0 -0.8753734449059097,-0.2151454950277704 l 7.7480484923495645 -30.393769112791674" fill="#a4ff21" stroke="none" /><path d="M 94.81253420990036 120.34920634021253 l -4.981800477865276 19.542429766636143 a41.167421679162786,41.167421679162786 0 0,0 -0.6851622534131848,-0.18095757846923802 l 5.31745317408995 -19.453780838863324" fill="#ffc612" stroke="none" /><path d="M 94.46302465271185 120.25689768951611 l -4.05017475943483 14.817471738738123 a36.36103461067209,36.36103461067209 0 0,0 -0.6023271731677241,-0.17022367562071244 l 4.304633100707168 -14.745559269778889" fill="#ff810b" stroke="none" /><path d="M 94.11515582081647 120.15858648285463 l -6.563220962914914 22.48237223595626 a44.42077989231235,44.42077989231235 0 0,0 -0.732149694076706,-0.22059069690979052 l 6.949245631431865 -22.366066169940744" fill="#fff316" stroke="none" /><path d="M 93.76903079525671 120.05430185196036 l -6.592243686348331 21.2170595654799 a43.21758973033127,43.21758973033127 0 0,0 -0.7085187457509542,-0.22684532810491026 l 6.9564837771902255 -21.100441390715282" fill="#ffe315" stroke="none" /><path d="M 93.42475214034765 119.94407469862007 l -10.961013054468632 33.24699962602328 a56.00723912725801,56.00723912725801 0 0,0 -0.9129987203753758,-0.30973873639630095 l 11.531681507781235 -33.05339790272886" fill="#78ff26" stroke="none" /><path d="M 93.08242187328487 119.8279376855182 l -9.079219231744899 26.023875677668908 a48.56219017322197,48.56219017322197 0 0,0 -0.7868934956631782,-0.2821520112152386 l 9.525832288037805 -25.863736125413713" fill="#d4ff1c" stroke="none" /><path d="M 92.06813273071674 119.44442032107085 l -5.75571047651568 14.109723467658947 a36.238520250446825,36.238520250446825 0 0,0 -0.5755514651953899,-0.24058055913027976 l 5.997733401208532 -14.008557865508694" fill="#ff7f0b" stroke="none" /><path d="M 91.40352486487194 119.15986991738527 l -4.024624193780963 8.970104002756031 a30.83160036420454,30.83160036420454 0 0,0 -0.48234130768333705,-0.22141923701022412 l 4.17843349723172 -8.899497695411734" fill="#ff2c04" stroke="none" /><path d="M 91.07499286063937 119.00905698771935 l -10.995513286347796 23.41895478689598 a46.871775272310344,46.871775272310344 0 0,0 -0.7273770375993069,-0.349185180677453 l 11.397002991947344 -23.226215329718965" fill="#eaff1a" stroke="none" /><line stroke="#e1ed5e" stroke-width="0.3" x1="58.666819895761336" x2="56.23545636021788" y1="174.27360380694188" y2="178.64263932499728" /><path d="M 58.180547188652646 175.14741091055294 a86.0,86.0 0 0,1 -31.652253787137756,-30.449443065178592" fill="none" id="id32" stroke="none" /><text fill="#e1ed5e" style="font-size:6.75px; font-family:Arial;" text-anchor="middle"><textPath startOffset="22.20632615414155" xlink:href="#id32">August</textPath></text><path d="M 89.7882731507175 118.34994917583269 l -18.7858766116183 33.757256351885374 a59.63238947403918,59.63238947403918 0 0,0 -0.8926435791713827,-0.5068663208198779 l 19.36416895771089 -33.42888686527087" fill="#4eff2b" stroke="none" /><path d="M 89.4739219176387 118.17145234162733 l -18.010679145499573 31.092320916867912 a56.932116320634876,56.932116320634876 0 0,0 -0.8437668461586184,-0.49851232530365075 l 18.543213862686574 -30.777690019270512" fill="#6dff28" stroke="none" /><path d="M 89.1626897886671 117.98757091392108 l -6.087512826637703 10.10394337001102 a32.79607918076461,32.79607918076461 0 0,0 -0.48104164515916514,-0.2954950678004943 l 6.260533671729177 -9.997659835382148" fill="#ff4b06" stroke="none" /><path d="M 88.8546689885994 117.79835938074946 l -16.025868717587816 25.592256572063352 a51.1958948303189,51.1958948303189 0 0,0 -0.7428724197757144,-0.47413632609290574 l 16.464022939410455 -25.31260581714664" fill="#b2ff20" stroke="none" /><path d="M 88.54995079064634 117.60387380957326 l -23.93942067638802 36.80565322960845 a64.90617236766673,64.90617236766673 0 0,0 -0.9313272353487211,-0.617232907867192 l 24.569422610476707 -36.38812230064994" fill="#33ff50" stroke="none" /><path d="M 87.95078237400918 117.19931262002967 l -4.094602107118045 5.844723191242423 a28.13628443924866,28.13628443924866 0 0,0 -0.39427331458768977,-0.28130354135254565 l 4.1946027495546225 -5.7733753880456575" fill="#ff0100" stroke="none" /><path d="M 87.65650970185807 116.9893568818739 l -14.692140383872177 20.22199639738608 a45.99576218792504,45.99576218792504 0 0,0 -0.636526656612596,-0.47088720335883355 l 15.038052010903337 -19.966099245287477" fill="#f5ff19" stroke="none" /><path d="M 87.36589467227662 116.77436683061367 l -16.338799200083077 21.69310799970336 a48.15782196692933,48.15782196692933 0 0,0 -0.6578616962208245,-0.5044202960002986 l 16.709789624797388 -21.408648361875695" fill="#d9ff1c" stroke="none" /><path d="M 86.79598089348748 116.32954008644616 l -4.452744159748382 5.506752426269769 a28.081754926316027,28.081754926316027 0 0,0 -0.37325984013438784,-0.3071674370300573 l 4.546874128427458 -5.429289870382531" fill="#ff0000" stroke="none" /><path d="M 86.51685102203217 116.09983520530335 l -27.884160279994227 33.29566305910791 a64.42957026112566,64.42957026112566 0 0,0 -0.8441332908638027,-0.7193887035547919 l 28.453159047435086 -32.81074996533017" fill="#32ff49" stroke="none" /><path d="M 86.24171649860922 115.8653595955263 l -23.736020019367498 27.371182817668288 a57.22955002754015,57.22955002754015 0 0,0 -0.7386908178418934,-0.651808760636794 l 24.20365319011598 -26.958550915259206" fill="#6aff28" stroke="none" /><path d="M 85.97065885151581 115.62618273729859 l -6.779615516612171 7.551281976107127 a31.148154809410865,31.148154809410865 0 0,0 -0.3958788834241866,-0.36162597381026196 l 6.908593949503213 -7.433463235710289" fill="#ff3104" stroke="none" /><path d="M 85.70375840098266 115.38237550388516 l -8.91898032559731 9.596585475271485 a34.10124661368465,34.10124661368465 0 0,0 -0.4265321660960218,-0.4033127858392565 l 9.08284832608415 -9.441638052686297" fill="#ff5f08" stroke="none" /><path d="M 85.44109423537348 115.13401014063109 l -7.328140222439566 7.617615652670033 a31.5702274030193,31.5702274030193 0 0,0 -0.3883890358608115,-0.3801204166459286 l 7.458179210676171 -7.490345133101536" fill="#ff3805" stroke="none" /><path d="M 84.9287848128048 114.62390073753433 l -10.872804032092718 10.550098643610296 a36.149998313867876,36.149998313867876 0 0,0 -0.4294851308081794,-0.4503134425934503 l 11.052795714279855 -10.361378084434346" fill="#ff7e0b" stroke="none" /><path d="M 84.67929136418377 114.36230785411682 l -22.968921566388044 21.532079909301995 a52.483357875923154,52.483357875923154 0 0,0 -0.6121898586739536,-0.6644111826250554 l 23.336157833057726 -21.133517471875596" fill="#a2ff22" stroke="none" /><path d="M 84.43433777217949 114.09645910891817 l -7.856931651825541 7.115335931777537 a31.599970773709828,31.599970773709828 0 0,0 -0.36165587270630045,-0.40632420687311543 l 7.97824637418018 -6.979037555163558" fill="#ff3805" stroke="none" /><path d="M 84.19399662182784 113.82643327865904 l -25.49062509035401 22.29813689207555 a54.867076584121136,54.867076584121136 0 0,0 -0.6157065511905655,-0.7162058187507505 l 25.870674151115352 -21.85605397416327" fill="#85ff25" stroke="none" /><path d="M 83.95833913139862 113.55231037782056 l -33.528605758985805 28.32562510224505 a64.89200885781409,64.89200885781409 0 0,0 -0.7135154485815878,-0.8594753222416709 l 34.01121720746092 -27.744288522889615" fill="#33ff50" stroke="none" /><path d="M 83.50135304334701 112.99209946851258 l -24.289236796112107 19.1269127279612 a51.91610930632525,51.91610930632525 0 0,0 -0.5468328311962256,-0.7068551481285783 l 24.614876444526402 -18.70597958571937" fill="#a9ff21" stroke="none" /><path d="M 83.28015986056508 112.70617746262583 l -17.905777699487462 13.607426097299106 a43.489529119501796,43.489529119501796 0 0,0 -0.44781527089658485,-0.5999217362916465 l 18.13735423707913 -13.297191481498151" fill="#ffe715" stroke="none" /><path d="M 83.06392112726016 112.41649034213515 l -17.101896755836435 12.538057805270672 a42.20560695136071,42.20560695136071 0 0,0 -0.42450843157999585,-0.5896050829079558 l 17.315184979792036 -12.241819116911579" fill="#ffd513" stroke="none" /><path d="M 82.85270091963577 112.12312394758628 l -21.17039264277205 14.967447224460654 a46.9270129607356,46.9270129607356 0 0,0 -0.46064247053889634,-0.6635898351501784 l 21.42489602047308 -14.600816127123464" fill="#e9ff1a" stroke="none" /><path d="M 82.6465618267979 111.8261652097733 l -26.070828923331124 17.766965077800396 a52.5492181967379,52.5492181967379 0 0,0 -0.5029633176494408,-0.7518619169268332 l 26.372795346391296 -17.315566246667743" fill="#a1ff22" stroke="none" /><path d="M 82.44556493220864 111.52570212397912 l -31.38629038092749 20.60727288063023 a58.54675644383493,58.54675644383493 0 0,0 -0.5458652465119758,-0.8471949846638664 l 31.736360490816516 -20.063956296044918" fill="#5aff2a" stroke="none" /><path d="M 82.24976979558568 111.22182372390057 l -20.946871857553578 13.24276366253222 a45.781893189150296,45.781893189150296 0 0,0 -0.4153842626418051,-0.6697316926071712 l 21.171720759863337 -12.880235638559785" fill="#f8ff18" stroke="none" /><path d="M 82.05923443525364 110.91462005526583 l -35.66473587109745 21.697348421371117 a62.74623711514034,62.74623711514034 0 0,0 -0.553419194842733,-0.9275624031690356 l 36.032935941638414 -21.08022392431597" fill="#30ff33" stroke="none" /><line stroke="#e1ed5e" stroke-width="0.3" x1="26.63291911575756" x2="22.317208475507996" y1="142.92168965132927" y2="145.44649492493687" /><path d="M 25.769776987707644 143.4266507060508 a86.0,86.0 0 0,1 -11.730757126820373,-40.83630448921669" fill="none" id="id33" stroke="none" /><text fill="#e1ed5e" style="font-size:6.75px; font-family:Arial;" text-anchor="middle"><textPath startOffset="21.46611528233685" xlink:href="#id33">September</textPath></text><path d="M 81.87401531095188 110.60418214915194 l -24.261977190376626 14.193900626031814 a49.108901653533565,49.108901653533565 0 0,0 -0.4205779968351063,-0.7333131881068714 l 24.50270718336411 -13.774167592066636" fill="#cdff1d" stroke="none" /><path d="M 81.69416730710424 110.29060199501025 l -29.67585759645973 16.68224792113845 a55.043412281786395,55.043412281786395 0 0,0 -0.4571842669633179,-0.8299222426855692 l 29.958618272874563 -16.168955160055056" fill="#83ff25" stroke="none" /><path d="M 81.51974371655577 109.97397251340807 l -10.906053831238664 5.886102415147354 a33.39307112105305,33.39307112105305 0 0,0 -0.2686512194557097,-0.5081868633547454 l 11.005757558919258 -5.697500536706483" fill="#ff5407" stroke="none" /><path d="M 81.35079622478065 109.6543875284942 l -21.77504855542973 11.272586204738582 a45.519868256876606,45.519868256876606 0 0,0 -0.35423416293774607,-0.6989376096799288 l 21.965861388153744 -10.896094383355969" fill="#fcff18" stroke="none" /><path d="M 81.18737489456691 109.33194174019688 l -18.81918069022045 9.335193616793886 a42.00731781342386,42.00731781342386 0 0,0 -0.31574849119997433,-0.6505354134857936 l 18.97708243803514 -9.009869247342808" fill="#ffd213" stroke="none" /><path d="M 81.02952815118164 109.00673069616217 l -14.37099446763826 6.823007779541154 a36.90845426647632,36.90845426647632 0 0,0 -0.26754302821733766,-0.5762638810349877 l 14.486312112695424 -6.574623831227339" fill="#ff890c" stroke="none" /><path d="M 80.87730276802145 108.67885076344099 l -7.848042130141709 3.5618399228114646 a29.618495745326605,29.618495745326605 0 0,0 -0.20670736230125092,-0.4660705328393899 l 7.90819057717424 -3.426221053479379" fill="#ff1902" stroke="none" /><path d="M 80.32549172779594 107.34259656027581 l -25.977091839624293 9.69474319503419 a48.72719506300514,48.72719506300514 0 0,0 -0.2865060199784353,-0.7883415175413643 l 26.140122120607952 -9.246153880486709" fill="#d1ff1c" stroke="none" /><path d="M 80.20201598880116 107.00284435728193 l -30.501148802900772 10.78871453094361 a53.35299738087476,53.35299738087476 0 0,0 -0.2988000804120376,-0.8684528988946782 l 30.682339714256038 -10.262088928959635" fill="#97ff23" stroke="none" /><path d="M 80.0844068197444 106.66101706037122 l -17.931891657450723 5.997543491369647 a39.90828565326379,39.90828565326379 0 0,0 -0.21228879791079097,-0.6533577384567685 l 18.032472706377764 -5.687986852935074" fill="#ffb510" stroke="none" /><path d="M 79.97269907076064 106.31721596034903 l -30.773393965022578 9.706858462696129 a53.26801632175897,53.26801632175897 0 0,0 -0.26830142897850345,-0.8768245937185407 l 30.93592216650721 -9.175706896425542" fill="#99ff23" stroke="none" /><path d="M 79.86692584326677 105.97154293290107 l -11.979225517521199 3.5530818057836564 a33.495048391992,33.495048391992 0 0,0 -0.15919297416081246,-0.5541716272099726 l 12.038611128568116 -3.346352703069088" fill="#ff5507" stroke="none" /><path d="M 79.76711848015287 105.62410040840567 l -28.503342773516938 7.923026760978865 a50.584031204685196,50.584031204685196 0 0,0 -0.22597072731900972,-0.8409211395279557 l 28.63550157717772 -7.43121468827537" fill="#baff1f" stroke="none" /><path d="M 79.67330655649465 105.27499134158121 l -9.011871675287985 2.3386757512090077 a30.31038320162768,30.31038320162768 0 0,0 -0.12670993830876334,-0.5061432174289417 l 9.050792927891806 -2.1832046943826744" fill="#ff2403" stroke="none" /><path d="M 79.58551787078972 104.9243191809786 l -31.772434411505483 7.664049825446806 a53.68371533593372,53.68371533593372 0 0,0 -0.2089560243002095,-0.9001770837980608 l 31.899651001736245 -7.1160040843001715" fill="#93ff23" stroke="none" /><path d="M 79.50377843672027 104.57218783832718 l -23.26396371590481 5.189601002543231 a44.83577073099448,44.83577073099448 0 0,0 -0.16154960437577529,-0.7547059690110378 l 23.349847359005025 -4.78838121411603" fill="#fff917" stroke="none" /><path d="M 79.4281124754447 104.21870165774334 l -26.47999505892274 5.430284358631196 a48.03105855374827,48.03105855374827 0 0,0 -0.15912018870637887,-0.8113504141113089 l 26.569545180604788 -4.973670217451933" fill="#daff1b" stroke="none" /><path d="M 79.35854240842038 103.8639653848113 l -37.757711271457836 7.0680323187122145 a59.41356324681602,59.41356324681602 0 0,0 -0.1795239029198142,-1.0068653862699097 l 37.87378161671684 -6.417048181709091" fill="#51ff2b" stroke="none" /><path d="M 79.29508885075956 103.50808413554451 l -15.65628385582733 2.652682767886418 a36.87941907127843,36.87941907127843 0 0,0 -0.10066017149240167,-0.6268109839708325 l 15.699625781681021 -2.382792554222372" fill="#ff880c" stroke="none" /><path d="M 79.23777060512086 103.15116336523772 l -40.954997568284774 6.215897411884377 a62.42401726599296,62.42401726599296 0 0,0 -0.1520944801319399,-1.0637484398004398 l 41.055926099433314 -5.510003500103537" fill="#30ff2f" stroke="none" /><path d="M 79.18660465613746 102.79330883721812 l -8.598062958902759 1.1539225027570061 a29.67514978473713,29.67514978473713 0 0,0 -0.0635874739612805,-0.506854731745097 l 8.616651942110888 -1.0057500167245004" fill="#ff1a02" stroke="none" /><path d="M 79.1416061653843 102.43462659150553 l -18.946083270265866 2.211418506161178 a40.07470689403222,40.07470689403222 0 0,0 -0.07407656617363144,-0.68585700271926 l 18.981342137940548 -1.884965181557136" fill="#ffb711" stroke="none" /><path d="M 79.10278846688536 102.07522291339032 l -18.63885346970074 1.8509539293486053 a39.73053360461326,39.73053360461326 0 0,0 -0.06172498566560632,-0.681130073359876 l 18.667953051643423 -1.5298424674401632" fill="#ffb210" stroke="none" /><path d="M 79.07016306316243 101.71520430193888 l -19.819834006699644 1.6242393409273397 a40.88627600858803,40.88627600858803 0 0,0 -0.05144552931174852,-0.7019333737954279 l 19.844856094675727 -1.282832830635151" fill="#ffc212" stroke="none" /><path d="M 79.04373962182676 101.35467743843564 l -15.17356594169661 0.9808661980188501 a36.205236002293134,36.205236002293134 0 0,0 -0.03484952078973621,-0.6222616042846706 l 15.188201813373878 -0.7195328773987418" fill="#ff7e0b" stroke="none" /><path d="M 79.0235259727143 100.99374915477108 l -36.526383905517854 1.7304177568516348 a57.56734973752543,57.56734973752543 0 0,0 -0.0383723863683018,-0.9902207882998575 l 36.55075842473736 -1.1014197215377803" fill="#66ff29" stroke="none" /><path d="M 79.0095281055655 100.63252640178507 l -14.315642930937491 0.4313872578894583 a35.32214116298153,35.32214116298153 0 0,0 -0.013082542847475629,-0.6078943592571537 l 14.320947536469975 -0.18490308284217577" fill="#ff710a" stroke="none" /><line stroke="#e1ed5e" stroke-width="0.3" x1="15.007084014347285" x2="10.007500721073583" y1="101.09737516637583" y2="101.16192664675087" /><path d="M 14.007167355692545 101.11028546245083 a86.0,86.0 0 0,1 10.666146001902534,-42.60595125391555" fill="none" id="id34" stroke="none" /><text fill="#e1ed5e" style="font-size:6.75px; font-family:Arial;" text-anchor="middle"><textPath startOffset="22.20632615414155" xlink:href="#id34">October</textPath></text><path d="M 79.00175016825051 100.2711162175752 l -31.512599251779402 0.4068708956013896 a52.51522577309157,52.51522577309157 0 0,0 -0.0038903847179790367,-0.9039883984269842 l 31.514933933786885 0.13562698102926987" fill="#a2ff22" stroke="none" /><path d="M 79.00019446554 99.90962569577889 l -27.424550166730285 -0.11802369483033359 a48.42480412765144,48.42480412765144 0 0,0 0.010761819818560375,-0.8335148048890282 l 27.418455339794008 0.5900747577798338" fill="#d5ff1c" stroke="none" /><path d="M 79.00486145842228 99.54816195383935 l -27.509788829925533 -0.5920403530841151 a48.51615876620092,48.51615876620092 0 0,0 0.025155179070706184,-0.8347779283093782 l 27.49552195639918 1.0654884288184876" fill="#d4ff1c" stroke="none" /><path d="M 79.01574976396665 99.18683210126434 l -43.54560388904852 -1.6874506744505076 a64.5782871145783,64.5782871145783 0 0,0 0.05260483233293202,-1.1104048681135557 l 43.51010544848209 2.436766649187072" fill="#32ff4b" stroke="none" /><path d="M 79.03285615573316 98.82574320788736 l -44.21080933725363 -2.4760092998199434 a65.28008902777621,65.28008902777621 0 0,0 0.07249014739557301,-1.1213904953107947 l 44.16163859885364 3.23665885938375" fill="#33ff55" stroke="none" /><path d="M 79.05617556472873 98.46500227214037 l -21.447638289561127 -1.5719228426584728 a42.50516518474387,42.50516518474387 0 0,0 0.05976128297224308,-0.7292390220403661 l 21.417402522769386 1.9408757819066174" fill="#ffd914" stroke="none" /><path d="M 79.08570108090925 98.10471618934814 l -30.00989486428812 -2.719539780687146 a51.13286721147469,51.13286721147469 0 0,0 0.08698157090013336,-0.8758925486289795 l 29.95863616770576 3.235707860020556" fill="#b3ff20" stroke="none" /><path d="M 79.12142395522702 97.74499172005258 l -41.99771301451189 -4.535998546236572 a63.24195995998246,63.24195995998246 0 0,0 0.12621181987066804,-1.0813057963923847 l 41.91341084163763 5.258248080953819" fill="#30ff3a" stroke="none" /><path d="M 79.16333360222342 97.38593545837743 l -38.20965070238514 -4.793592753375694 a59.509166938321286,59.509166938321286 0 0,0 0.13625899233951252,-1.0152877615720337 l 38.121475710987795 5.450598857012387" fill="#50ff2b" stroke="none" /><path d="M 79.21141760316559 97.0276538004421 l -27.112250388884142 -3.876502633346152 a48.3879790020346,48.3879790020346 0 0,0 0.12498869948777007,-0.8235193640419036 l 27.04150579595707 4.342621109780148" fill="#d6ff1c" stroke="none" /><path d="M 79.26566170972629 96.67025291283419 l -18.53833177763381 -2.977088314723098 a39.775856836141685,39.775856836141685 0 0,0 0.11438047384631941,-0.6750800313483774 l 18.48433944226727 3.295754134387303" fill="#ffb310" stroke="none" /><path d="M 79.32604984820605 96.31383870115002 l -27.286937028284182 -4.865255575219124 a48.7172806061083,48.7172806061083 0 0,0 0.15430450726644912,-0.8243008478932249 l 27.199146797107872 5.334234500574921" fill="#d2ff1c" stroke="none" /><path d="M 79.3925641242962 95.95851677861259 l -42.8123007124001 -8.396250559350484 a64.62785939906252,64.62785939906252 0 0,0 0.22349145966984074,-1.089823728726519 l 42.66142995681527 9.131949944240406" fill="#32ff4c" stroke="none" /><path d="M 79.46518482838121 95.60439243477599 l -6.965046627043598 -1.4909124523450636 a28.12282910488866,28.12282910488866 0 0,0 0.1054011668541524,-0.47249276391526185 l 6.938351073187408 1.6105833858102847" fill="#ff0100" stroke="none" /><path d="M 79.54389044137918 95.25157060432595 l -36.82472230949396 -8.548037611982961 a58.80382414766021,58.80382414766021 0 0,0 0.23736359556917316,-0.9840253447805515 l 36.67212591366397 9.180648188422909" fill="#58ff2a" stroke="none" /><path d="M 79.62865764111835 94.90015583598534 l -37.32887448759269 -9.345061280254095 a59.48083991861603,59.48083991861603 0 0,0 0.257194211811685,-0.9910742142323608 l 37.1624839439107 9.98623192003532" fill="#50ff2b" stroke="none" /><path d="M 79.71946130924805 94.55025226153421 l -20.427808033432747 -5.489321675798428 a42.15249378941334,42.15249378941334 0 0,0 0.19432947868735842,-0.6991065295026615 l 20.33029178417903 5.840139508720032" fill="#ffd413" stroke="none" /><path d="M 79.81627453868168 94.20196356495316 l -38.17213243966414 -10.965439215508948 a60.715897977765536,60.715897977765536 0 0,0 0.2972017268419778,-1.0020164760185124 l 37.97772481571045 11.620885078274" fill="#42ff2d" stroke="none" /><path d="M 79.91906864156998 93.8553929516997 l -28.198538551602997 -8.628531000042932 a50.48913568867257,50.48913568867257 0 0,0 0.261448411210772,-0.8288629107592402 l 28.04583465662402 9.112644077228587" fill="#bbff1f" stroke="none" /><path d="M 80.02781315780177 93.51064311812611 l -29.833343246203516 -9.693440825168466 a52.36863344611683,52.36863344611683 0 0,0 0.2859394872574204,-0.8549226718347872 l 29.66206646517432 10.205536599925576" fill="#a4ff21" stroke="none" /><path d="M 80.14247586403 93.16781622104843 l -11.949871905881835 -4.111475349941798 a33.63739166601095,33.63739166601095 0 0,0 0.19308971118720988,-0.5458906152663935 l 11.877329113884816 4.316563591634803" fill="#ff5808" stroke="none" /><path d="M 80.2630227832202 92.82701384747504 l -39.80253058780756 -14.465386345943001 a63.34960263486247,63.34960263486247 0 0,0 0.38129043301389615,-1.0216687948006185 l 39.54763556629204 15.14837827777296" fill="#31ff3b" stroke="none" /><path d="M 80.38941819471856 92.48833698450439 l -19.340322103914826 -7.408142384466317 a41.71059228201122,41.71059228201122 0 0,0 0.26259092085413505,-0.668265251412846 l 19.209937633179 7.739956640774926" fill="#ffce13" stroke="none" /><path d="M 80.52162464483688 92.15188598940014 l -19.72426080523505 -7.947184749844058 a42.265093692741765,42.265093692741765 0 0,0 0.2776983967295823,-0.6724686945199232 l 19.584540721619266 8.285528014817293" fill="#ffd614" stroke="none" /><path d="M 80.803312248108 91.48605970444005 l -30.563303767122402 -13.55515841438302 a54.43438135812322,54.43438135812322 0 0,0 0.38725573583033013,-0.853266681209125 l 30.32544571432872 14.079247104434216" fill="#8aff24" stroke="none" /><path d="M 81.10775173730289 90.83032412892265 l -33.70113247153758 -16.35742114729766 a58.46106720922651,58.46106720922651 0 0,0 0.4471992894866577,-0.9015264791345611 l 33.414573169097515 16.935107214931186" fill="#5bff2a" stroke="none" /><path d="M 81.26839172434947 90.50648371742162 l -10.363962758240069 -5.252642899077017 a32.61903530760671,32.61903530760671 0 0,0 0.2581417127400673,-0.4986476241569039 l 10.272011612339888 5.430263245494257" fill="#ff4806" stroke="none" /><path d="M 81.43458229118936 90.18545643968196 l -45.80489508027126 -24.21459862051872 a72.81153539191331,72.81153539191331 0 0,0 0.5952929004885289,-1.1029873352823012 l 45.38129408056426 24.999466939133494" fill="#3effb2" stroke="none" /><path d="M 81.6062741919709 89.86733742301443 l -36.32265135958122 -20.00927783578605 a62.46934049752138,62.46934049752138 0 0,0 0.5269507772684391,-0.9373866340127502 l 35.97284294102035 20.631547979733586" fill="#2fff2f" stroke="none" /><line stroke="#e1ed5e" stroke-width="0.3" x1="26.266209847984243" x2="21.928928074336255" y1="57.711370442889674" y2="55.22380399835377" /><path d="M 25.398753493254645 57.213857153982495 a86.0,86.0 0 0,1 29.58750427330803,-30.492523968695096" fill="none" id="id35" stroke="none" /><text fill="#e1ed5e" style="font-size:6.75px; font-family:Arial;" text-anchor="middle"><textPath startOffset="21.46611528233685" xlink:href="#id35">November</textPath></text><path d="M 81.78341655067845 89.55222093294921 l -34.7706356655742 -19.94204459170226 a61.083441058441345,61.083441058441345 0 0,0 0.5309614864419333,-0.9075852940238706 l 34.42221450466194 20.537609298080024" fill="#3eff2d" stroke="none" /><path d="M 81.96595687620814 89.24020034530311 l -15.504318591223676 -9.250469275193938 a39.05422600915008,39.05422600915008 0 0,0 0.3494129560608965,-0.5743430278133337 l 15.342789836876563 9.515980076214346" fill="#ffa80f" stroke="none" /><path d="M 82.15384107792192 88.93136811851018 l -11.35392927992913 -7.041989492345643 a34.360438843987815,34.360438843987815 0 0,0 0.31607088407317724,-0.49994823401677707 l 11.23103079960999 7.236385374076637" fill="#ff6309" stroke="none" /><path d="M 82.34701348167596 88.62581576622439 l -6.0250854830304625 -3.8820871605549474 a28.16744416092445,28.16744416092445 0 0,0 0.2661197949950149,-0.40531870520710045 l 5.957369052677527 3.985223929739715" fill="#ff0100" stroke="none" /><path d="M 82.54541684631803 88.32363383020206 l -27.144554019689444 -18.158540336318218 a53.65822101819899,53.65822101819899 0 0,0 0.5201667150021279,-0.7632804690642536 l 26.827962839018575 18.62309882865289" fill="#94ff23" stroke="none" /><path d="M 82.7489923806493 88.02491185347247 l -34.24177926759982 -23.769528949919962 a62.68320949629613,62.68320949629613 0 0,0 0.622914036765081,-0.8810677294027401 l 33.82755261103086 24.355423179654487" fill="#30ff32" stroke="none" /><path d="M 82.95767976084542 87.72973835380427 l -6.480453334046616 -4.6658469550422 a28.985386854913948,28.985386854913948 0 0,0 0.29501242198338,-0.40239661204370564 l 6.399178299549603 4.776706010757406" fill="#ff0f01" stroke="none" /><path d="M 83.17141714833178 87.43820079747576 l -17.59490280234445 -13.133823444264165 a42.95627297355021,42.95627297355021 0 0,0 0.44740811512458545,-0.5887366349141979 l 17.366218746995756 13.434744855059389" fill="#ffdf14" stroke="none" /><path d="M 83.6137871275137 86.86637796730984 l -6.523835023411603 -5.228882601969628 a29.3607198660087,29.3607198660087 0 0,0 0.31947470300502884,-0.39163821077007166 l 6.432861828330182 5.340404982347782" fill="#ff1502" stroke="none" /><path d="M 83.84228863543731 86.58626213691792 l -12.03369079101068 -9.99007657421233 a36.640055754768944,36.640055754768944 0 0,0 0.40703505375369575,-0.48180111817950727 l 11.85994512376986 10.195736642020954" fill="#ff850c" stroke="none" /><path d="M 84.07557802195018 86.31012108654704 l -14.287783561830242 -12.282896495250599 a39.84171715695642,39.84171715695642 0 0,0 0.4515548977326598,-0.516205307265245 l 14.074236800519738 12.527017358718787" fill="#ffb410" stroke="none" /><path d="M 84.31358615837235 86.03803664274999 l -11.257379288576276 -10.019824716638894 a36.07068265869313,36.07068265869313 0 0,0 0.41679907306916353,-0.460239946651485 l 11.083236574891068 10.212117450559935" fill="#ff7c0b" stroke="none" /><path d="M 84.5562425177563 85.77008943001954 l -20.231164324431113 -18.641037286051 a48.50978518676723,48.50978518676723 0 0,0 0.5711049572553509,-0.6092149492584118 l 19.907292045205306 18.986521652187463" fill="#d4ff1c" stroke="none" /><path d="M 84.80347519578584 85.50635884689758 l -5.75961631303255 -5.4932172385557045 a28.95918436168658,28.95918436168658 0 0,0 0.34714579037363386,-0.357764251956497 l 5.664206258955798 5.591545686062325" fill="#ff0e01" stroke="none" /><path d="M 85.05521093208273 85.24692304244772 l -11.110694117353816 -10.968165868398437 a36.61243691055631,36.61243691055631 0 0,0 0.4466093145293993,-0.4446914322008373 l 10.920249002657105 11.157793151249383" fill="#ff840c" stroke="none" /><path d="M 85.31137513191541 84.99185889309783 l -5.659746217198586 -5.7828605890490525 a29.09161317880869,29.09161317880869 0 0,0 0.36089774778215217,-0.34718334742751583 l 5.559365225804006 5.8794270232388826" fill="#ff1001" stroke="none" /><path d="M 85.57189188830299 84.74124197986013 l -9.955380000452983 -10.528527596927251 a35.48997875473522,35.48997875473522 0 0,0 0.4474984085019969,-0.4159010005642157 l 9.77267370815613 10.698333183566115" fill="#ff740a" stroke="none" /><path d="M 85.83668400450813 84.49514656593479 l -12.583493549439492 -13.775391527991443 a39.6575915288722,39.6575915288722 0 0,0 0.5079741133177955,-0.45606417447836617 l 12.344508448525726 13.989954711239088" fill="#ffb110" stroke="none" /><path d="M 86.10567301691215 84.25364557470407 l -5.502222831209201 -6.235634941701989 a29.31610480997291,29.31610480997291 0 0,0 0.38125762014879777,-0.33062285121806034 l 5.394071412413629 6.32942278633973" fill="#ff1402" stroke="none" /><path d="M 86.37877921826538 84.01681056812374 l -10.123013351509117 -11.878380257630502 a36.60677150661526,36.60677150661526 0 0,0 0.48310908663421004,-0.40458996658259855 l 9.917046727915798 12.050871381606914" fill="#ff840c" stroke="none" /><path d="M 87.22198572758235 83.33499621200491 l -5.357053318916027 -6.986634382224399 a29.804037724396082,29.804037724396082 0 0,0 0.40981097744997197,-0.3086611319427541 l 5.2359961877076655 7.077812103673008" fill="#ff1c02" stroke="none" /><path d="M 87.80319425747018 82.90503203632743 l -4.524393717510867 -6.341362426245148 a28.789930418947627,28.789930418947627 0 0,0 0.405895328123978,-0.2843556164124369 l 4.414567249803228 6.418302885421528" fill="#ff0b01" stroke="none" /><path d="M 88.39885842347998 82.49532879139004 l -4.595283628482285 -6.93370807487548 a29.318229336450802,29.318229336450802 0 0,0 0.4230662016458596,-0.2751740259024731 l 4.475250401052138 7.011781024937489" fill="#ff1402" stroke="none" /><path d="M 88.70189139769569 82.29822771554957 l -4.554498833149777 -7.135946736940472 a29.46552983891818,29.46552983891818 0 0,0 0.42988923846898763,-0.2691966016911667 l 4.4309904423085475 7.213287679954568" fill="#ff1602" stroke="none" /><path d="M 89.00827224532344 82.1063720568725 l -4.481772246775359 -7.295956277257041 a29.562549881408707,29.562549881408707 0 0,0 0.435889850600813,-0.2626187577821661 l 4.355520329956897 7.372021644497826" fill="#ff1802" stroke="none" /><line stroke="#e1ed5e" stroke-width="0.3" x1="56.762969772571076" x2="54.21961505331055" y1="26.818313649435495" y2="22.513508569990535" /><path d="M 56.25429882871897 25.957352633546506 a86.0,86.0 0 0,1 42.265352541879196,-11.944610805530505" fill="none" id="id36" stroke="none" /><text fill="#e1ed5e" style="font-size:6.75px; font-family:Arial;" text-anchor="middle"><textPath startOffset="22.20632615414155" xlink:href="#id36">December</textPath></text><path d="M 89.63071344664047 81.73862282372117 l -3.538759004057903 -6.232117569180035 a28.166735985431817,28.166735985431817 0 0,0 0.42367587558406994,-0.2357751660583988 l 3.4309590394017877 6.292108132798619" fill="#ff0100" stroke="none" /><path d="M 89.94658935756843 81.56283822128135 l -26.58518616934097 -48.755133531772394 a76.53228943019975,76.53228943019975 0 0,0 1.1620333135880292,-0.6207179523565868 l 25.74200780922464 49.20553021063073" fill="#43ffdd" stroke="none" /><path d="M 90.26544431104013 81.39251694778311 l -4.888998703106284 -9.345260679286412 a31.546857611762455,31.546857611762455 0 0,0 0.48332717076738807,-0.24757894939621636 l 4.7274110447501325 9.428032153995133" fill="#ff3705" stroke="none" /><path d="M 90.58718382345135 81.22770947309562 l -12.093893829650176 -24.119252337824115 a47.98148626926405,47.98148626926405 0 0,0 0.7414938545676621,-0.3638478141638964 l 11.676928708072086 24.32385531212284" fill="#dbff1b" stroke="none" /><path d="M 90.91171255644093 81.06846463323043 l -4.810833331512012 -10.021300704314763 a32.11623070783827,32.11623070783827 0 0,0 0.50043478373968,-0.23496084106363113 l 4.6376203364727235 10.102626528018401" fill="#ff4006" stroke="none" /><path d="M 91.56875222667455 80.76684994638697 l -5.9440765936469395 -13.559477805583361 a35.80511684895628,35.80511684895628 0 0,0 0.5666010420535271,-0.2425889965055761 l 5.709791793803104 13.659786330051723" fill="#ff780b" stroke="none" /><path d="M 91.90106846888425 80.62456947434976 l -6.558094353429643 -15.689217897120539 a38.00470992907004,38.00470992907004 0 0,0 0.6057518783273513,-0.2471014006935922 l 6.287058605513912 15.799780183997708" fill="#ff990e" stroke="none" /><path d="M 92.23578459929587 80.48803036053334 l -22.41996727773385 -56.342810994309325 a81.63965108305885,81.63965108305885 0 0,0 1.310187467549678,-0.5083323824256946 l 21.446796645184495 56.72038608062557" fill="#4aeaff" stroke="none" /></svg>