<?xml version="1.0" encoding="utf-8" ?>
<svg baseProfile="full" height="200mm" version="1.1" viewBox="0,0,200,200" width="200mm" xmlns="http://www.w3.org/2000/svg" xmlns:ev="http://www.w3.org/2001/xml-events" xmlns:xlink="http://www.w3.org/1999/xlink"><defs /><rect fill="#1a1a1a" height="200" width="200" x="0" y="0" /><text alignment-baseline="middle" fill="#e1ed5e" style="dominant-baseline: central; font-size:9.0px; font-family:Arial;" text-anchor="middle" x="100.0" y="100.0">2024</text><line stroke="#e1ed5e" stroke-width="0.3" x1="100.0" x2="100.0" y1="15.0" y2="10.0" /><path d="M 100.0 14.0 a86.0,86.0 0 0,1 42.35913384403234,11.155469271406648" fill="none" id="id37" stroke="none" /><text fill="#e1ed5e" style="font-size:6.75px; font-family:Arial;" text-anchor="middle"><textPath startOffset="22.145653131862478" xlink:href="#id37">January</textPath></text><path d="M 100.72087961077811 79.0123766808444 l 0.15347006606148414 -4.468113522849754 a25.470748428870692,25.470748428870692 0 0,0 0.436852735347426,0.01876033611744914 l -0.2301485620097464 4.464820618306475" fill="#ff0601" stroke="none" /><path d="M 101.44090949804482 79.04949213459386 l 0.8797752697927025 -12.791739338655228 a33.8219577223386,33.8219577223386 0 0,0 0.5788885839433199,0.04480963754449282 l -1.099232848511256 12.774751934115683" fill="#ff810b" stroke="none" /><path d="M 102.15924093988457 79.11130261209362 l 3.833793764011768 -37.0884769294739 a58.28609788611693,58.28609788611693 0 0,0 0.9943722051608282,0.11142147965021036 l -4.469901870773393 37.01719968931672" fill="#4fff2b" stroke="none" /><path d="M 102.51750503828377 79.15144685158666 l 0.9594901605631901 -7.945954944947555 a29.003675490382783,29.003675490382783 0 0,0 0.49378367783306254,0.06393018298911839 l -1.0957516602870443 7.9283131657580395" fill="#ff3b05" stroke="none" /><path d="M 102.87502721639298 79.19773525538626 l 2.1948979442156116 -15.881188137156263 a37.03214625785564,37.03214625785564 0 0,0 0.628973183601978,0.09243739810836195 l -2.4671962334252715 15.84116966574902" fill="#ffae10" stroke="none" /><path d="M 103.23170211078529 79.25015418208739 l 0.6800668124962395 -4.366516783240038 a25.419158255570366,25.419158255570366 0 0,0 0.4305793545219356,0.0708516689319238 l -0.7549236700712455 4.354199115812445" fill="#ff0500" stroke="none" /><path d="M 103.58742460773223 79.30868818359171 l 1.3664460022710394 -7.881297422204955 a28.998876404494382,28.998876404494382 0 0,0 0.4897568679390506,0.08925001599814747 l -1.5015376037611436 7.856679232275441" fill="#ff3b05" stroke="none" /><path d="M 104.29559338865022 79.4440306129975 l 2.4808258446811364 -11.871649735864374 a33.12808988764045,33.12808988764045 0 0,0 0.5556646820974559,0.121104531213774 l -2.6842529433977265 11.82731374651688" fill="#ff770b" stroke="none" /><path d="M 104.64783097203109 79.52079915486377 l 6.191944689553121 -27.282850792639596 a48.97667111026471,48.97667111026471 0 0,0 0.818301862354694,0.1931170113952533 l -6.6593787056477005 27.172537637598115" fill="#b7ff1f" stroke="none" /><path d="M 104.9986988182912 79.60360301121754 l 3.0804207781581585 -12.569167971053357 a33.94113502190059,33.94113502190059 0 0,0 0.5647072818368692,0.14354638277228468 l -3.295733353220422 12.514436356445804" fill="#ff830c" stroke="none" /><path d="M 105.3480935250658 79.69241777938227 l 1.0707390445442164 -4.065770555805641 a25.20439916206437,25.20439916206437 0 0,0 0.4174551812777158,0.1137792659979763 l -1.140375626756625 4.046790795663522" fill="#ff0200" stroke="none" /><path d="M 105.69591212413111 79.78721728523813 l 2.1784613062069154 -7.730590654362269 a29.031670158065133,29.031670158065133 0 0,0 0.4785248547168575,0.13929161111212077 l -2.3108461733053773 7.692055348947632" fill="#ff3c05" stroke="none" /><path d="M 106.72888874123014 80.10723608172694 l 12.34073838214979 -36.48320022131879 a59.51386402589982,59.51386402589982 0 0,0 0.9649584373388818,0.3356626351965406 l -12.96520259153369 36.26597915355366" fill="#42ff2d" stroke="none" /><path d="M 107.74402155503746 80.48000691201159 l 4.4347833209204275 -11.178550983601209 a33.026109312511906,33.026109312511906 0 0,0 0.5251867556738202,0.2135888814402086 l -4.626024537784688 11.100774845581707" fill="#ff760a" stroke="none" /><path d="M 108.07796709384702 80.6158196554323 l 3.023199568239987 -7.254578406616728 a28.859302989906684,28.859302989906684 0 0,0 0.45565393459439024,0.19449156982057253 l -3.1472885780048077 7.201612187136754" fill="#ff3905" stroke="none" /><path d="M 108.73861861582097 80.90454125486305 l 2.7944940734501174 -6.106473876372877 a27.715520853170826,27.715520853170826 0 0,0 0.4309252552138061,0.20169477813176315 l -2.898908042535428 6.057602866670581" fill="#ff2803" stroke="none" /><path d="M 109.06512990194946 81.05736502329252 l 5.271620771013684 -11.015659905708238 a33.212073890687485,33.212073890687485 0 0,0 0.5121614157261927,0.2505238131675142 l -5.459942436001945 10.923542342443504" fill="#ff780b" stroke="none" /><path d="M 109.71004243097381 81.37971332152246 l 3.710009165732767 -7.114431758337362 a29.02367168158446,29.02367168158446 0 0,0 0.43979318742948037,0.23416510085640257 l -3.831591168948807 7.049696189758387" fill="#ff3c05" stroke="none" /><path d="M 110.02825361518725 81.54914285379988 l 7.65477930687365 -14.083931748885787 a37.02974671491144,37.02974671491144 0 0,0 0.555897279189685,0.30834685001360007 l -7.895420774219435 13.950451983439041" fill="#ffae10" stroke="none" /><path d="M 110.34350942703115 81.72400993836675 l 3.2088320046912497 -5.6696986879452655 a27.514759093506,27.514759093506 0 0,0 0.40906262066662846,0.23617241415729176 l -3.3056870932182756 5.613779376511802" fill="#ff2503" stroke="none" /><line stroke="#e1ed5e" stroke-width="0.3" x1="143.13028292997686" x2="145.6673583964461" y1="26.7553504044142" y2="22.446841604673864" /><path d="M 143.63769802327073 25.89364864446614 a86.0,86.0 0 0,1 29.32050498858742,28.57503671076993" fill="none" id="id38" stroke="none" /><text fill="#e1ed5e" style="font-size:6.75px; font-family:Arial;" text-anchor="middle"><textPath startOffset="20.669276256404974" xlink:href="#id38">February</textPath></text><path d="M 110.65571695917076 81.90426304109057 l 2.272989633587348 -3.8600333208292623 a25.47954675299943,25.47954675299943 0 0,0 0.3749949180531195,0.22517367381176792 l -2.338917308197902 3.8204456464815735" fill="#ff0601" stroke="none" /><path d="M 110.96478420261332 82.08984904055464 l 7.072087438090039 -11.551723342115695 a34.54462007236717,34.54462007236717 0 0,0 0.5030944750219426,0.31396816112018655 l -7.269346041901693 11.428619384153963" fill="#ff8b0c" stroke="none" /><path d="M 111.27062007382361 82.28071324371311 l 2.62716415356315 -4.1303384097686475 a25.895067606170254,25.895067606170254 0 0,0 0.37303000021631644,0.2417935393196119 l -2.6976797860364736 4.084631028745141" fill="#ff0d01" stroke="none" /><path d="M 111.8722381534696 82.67804972795209 l 4.531392060023572 -6.611436437866774 a29.015273281279757,29.015273281279757 0 0,0 0.4084312958514818,0.28511676487728904 l -4.644218447048814 6.532674857184358" fill="#ff3c05" stroke="none" /><path d="M 112.16784306229584 82.88440491214696 l 2.3575630416263174 -3.3162076637557965 a25.068824985717008,25.068824985717008 0 0,0 0.3485987115924243,0.25235858402685557 l -2.4141427635927095 3.275248308355866" fill="#ff0000" stroke="none" /><path d="M 113.03279911837588 83.53348406188908 l 4.628120456300801 -5.847479007769079 a28.457379546753,28.457379546753 0 0,0 0.38044701835518563,0.3064611875555599 l -4.727818245011245 5.76716952642011" fill="#ff3304" stroke="none" /><path d="M 113.31354834802062 83.75963576809568 l 3.682967116803418 -4.492621040423581 a26.809293467910873,26.809293467910873 0 0,0 0.35340478642398326,0.2948228421116715 l -3.759546237389294 4.428736014400039" fill="#ff1b02" stroke="none" /><path d="M 113.86319453409587 84.22622945171908 l 41.5895836022876 -47.32131164484275 a84.0,84.0 0 0,0 1.0749398927064977,0.9612178804664522 l -42.39578852181747 46.600398234492914" fill="#4dd2ff" stroke="none" /><path d="M 114.13192950727249 84.46653392183569 l 3.3824050666044685 -3.7178556783540078 a26.026242620453246,26.026242620453246 0 0,0 0.32789376009197846,0.303493569171535 l -3.4457285980104118 3.6592443630500977" fill="#ff0f01" stroke="none" /><path d="M 114.65682725009322 84.96080404539774 l 3.3187902495450072 -3.4053711654964935 a25.755094267758523,25.755094267758523 0 0,0 0.3139767728743175,0.3112932268382086 l -3.376758942549287 3.3478979284296257" fill="#ff0b01" stroke="none" /><path d="M 115.16444852881244 85.47280134310134 l 5.316076338190429 -5.092680877474587 a28.36179775280899,28.36179775280899 0 0,0 0.33378346949327586,0.3544664776929407 l -5.402715641419965 5.000672939837152" fill="#ff3204" stroke="none" /><path d="M 115.41159269507618 85.73525988315684 l 3.5434042774262937 -3.2797220992315252 a25.828280327556655,25.828280327556655 0 0,0 0.2983809614650357,0.32797294530106424 l -3.599182939733207 3.2184115783727894" fill="#ff0c01" stroke="none" /><path d="M 115.6541949942343 86.00192230759917 l 6.164491412888532 -5.51232623354531 a29.26962483336507,29.26962483336507 0 0,0 0.3317069939249419,0.37742166847356184 l -6.258209470772065 5.40569228726045" fill="#ff3f05" stroke="none" /><path d="M 116.1254893667686 86.54754324733833 l 6.465243337242036 -5.393535936274734 a29.419596267377642,29.419596267377642 0 0,0 0.3201877287440267,0.39057696727125496 l -6.55687788522469 5.281756687304984" fill="#ff4206" stroke="none" /><path d="M 116.57777611688842 87.10902102172516 l 15.905635851170354 -12.368318642248436 a41.148562178632645,41.148562178632645 0 0,0 0.42882292702414826,0.5613429768754983 l -16.115610755548808 12.093454752132056" fill="#ffe515" stroke="none" /><path d="M 116.7966241395341 87.39550010848427 l 38.13451037979124 -28.616847525553826 a68.67771852980385,68.67771852980385 0 0,0 0.6995250139578816,0.9490400291027216 l -38.62013741333295 27.95800118718223" fill="#39ff8a" stroke="none" /><path d="M 117.21940702142032 87.97951657250589 l 3.651786642364057 -2.549230688413148 a25.45355170443725,25.45355170443725 0 0,0 0.2470330986602899,0.3604286736189617 l -3.695009477839672 2.4861672797241376" fill="#ff0601" stroke="none" /><line stroke="#e1ed5e" stroke-width="0.3" x1="172.87174338648825" x2="177.1583165268699" y1="56.24261187166439" y2="53.66864786411523" /><path d="M 173.72905801456457 55.72781907015455 a86.0,86.0 0 0,1 12.242430191666344,42.057860355516425" fill="none" id="id39" stroke="none" /><text fill="#e1ed5e" style="font-size:6.75px; font-family:Arial;" text-anchor="middle"><textPath startOffset="22.145653131862474" xlink:href="#id39">March</textPath></text><path d="M 118.18653347947321 89.5 l 25.05523147918588 -14.46564463911636 a49.93128927823271,49.93128927823271 0 0,0 0.4221967151085729,0.7459811414889527 l -25.299861559315833 14.033406727528288" fill="#acff20" stroke="none" /><path d="M 118.36410011445183 89.81374322990088 l 10.198702866837637 -5.657048560838517 a32.662578556465434,32.662578556465434 0 0,0 0.26776260914522654,0.49265304209602356 l -10.294310825598204 5.4811406852678894" fill="#ff710a" stroke="none" /><path d="M 118.53625476483649 90.13048839642627 l 7.067145694001651 -3.7628570234916396 a29.00647495715102,29.00647495715102 0 0,0 0.23024501537321024,0.44152517592136253 l -7.130698778349806 3.640985604465779" fill="#ff3b05" stroke="none" /><path d="M 118.70294669586156 90.45014215332178 l 7.8117125677706225 -3.988716097759412 a29.771129308703102,29.771129308703102 0 0,0 0.22850062884577937,0.4571543241945932 l -7.879033109828139 3.854029917401068" fill="#ff4706" stroke="none" /><path d="M 118.8641267826498 90.77261029715802 l 16.47189253687443 -8.057228056846453 a39.336907255760806,39.336907255760806 0 0,0 0.29150660460493427,0.6091366879522825 l -16.60777839943928 7.773278866829067" fill="#ffcd13" stroke="none" /><path d="M 119.16976305983485 91.42560881287824 l 17.294039529051542 -7.735403910042507 a39.94519139211579,39.94519139211579 0 0,0 0.274606295874709,0.6283529450894804 l -17.42427970694322 7.437388895177177" fill="#ffd513" stroke="none" /><path d="M 119.58574465831526 92.42381321644754 l 18.948676445091074 -7.329755112893385 a41.31693010855075,41.31693010855075 0 0,0 0.2502021785138547,0.6636910043150099 l -19.07170930741937 7.0033958283842175" fill="#ffe715" stroke="none" /><path d="M 119.71291397450082 92.76114493625339 l 36.71084425325627 -13.480730507972831 a60.107750904589594,60.107750904589594 0 0,0 0.34736506803914335,0.971641918222452 l -36.93684949133936 12.848553633369463" fill="#3cff2e" stroke="none" /><path d="M 119.83427380445688 93.10060997987247 l 28.668476732254213 -9.97238437912091 a51.353418396495904,51.353418396495904 0 0,0 0.28247945128043717,0.8351003044014826 l -28.835441605107015 9.478782400245267" fill="#9cff22" stroke="none" /><line stroke="#e1ed5e" stroke-width="0.3" x1="184.99686870605535" x2="189.99668451229388" y1="99.2704041080226" y2="99.22748670261217" /><path d="M 185.99683186730306 99.26182062694052 a86.0,86.0 0 0,1 -10.086455211305974,41.156179273409016" fill="none" id="id40" stroke="none" /><text fill="#e1ed5e" style="font-size:6.75px; font-family:Arial;" text-anchor="middle"><textPath startOffset="21.40746469413373" xlink:href="#id40">April</textPath></text><line stroke="#e1ed5e" stroke-width="0.3" x1="174.33088141563837" x2="178.70328620479359" y1="141.23008692659167" y2="143.65538615756765" /><path d="M 175.20536237346943 141.71514677278685 a86.0,86.0 0 0,1 -30.301960400862466,31.631185727798858" fill="none" id="id41" stroke="none" /><text fill="#e1ed5e" style="font-size:6.75px; font-family:Arial;" text-anchor="middle"><textPath startOffset="22.145653131862474" xlink:href="#id41">May</textPath></text><line stroke="#e1ed5e" stroke-width="0.3" x1="143.1302829299769" x2="145.66735839644613" y1="173.24464959558577" y2="177.55315839532614" /><path d="M 143.63769802327073 174.10635135553383 a86.0,86.0 0 0,1 -40.68552437913181,11.842963189579606" fill="none" id="id42" stroke="none" /><text fill="#e1ed5e" style="font-size:6.75px; font-family:Arial;" text-anchor="middle"><textPath startOffset="21.407464694133747" xlink:href="#id42">June</textPath></text><line stroke="#e1ed5e" stroke-width="0.3" x1="101.45913802915013" x2="101.54496967792366" y1="184.9874750549273" y2="189.98673829345242" /><path d="M 101.47630435890484 185.9873277026323 a86.0,86.0 0 0,1 -42.54439059252881,-10.42667462771756" fill="none" id="id43" stroke="none" /><text fill="#e1ed5e" style="font-size:6.75px; font-family:Arial;" text-anchor="middle"><textPath startOffset="22.145653131862474" xlink:href="#id43">July</textPath></text><line stroke="#e1ed5e" stroke-width="0.3" x1="58.13341422392154" x2="55.67067388415222" y1="173.97424548756322" y2="178.32567169271397" /><path d="M 57.64086615596768 174.84453072859336 a86.0,86.0 0 0,1 -31.369924170532247,-30.572349798747897" fill="none" id="id44" stroke="none" /><text fill="#e1ed5e" style="font-size:6.75px; font-family:Arial;" text-anchor="middle"><textPath startOffset="22.145653131862474" xlink:href="#id44">August</textPath></text><line stroke="#e1ed5e" stroke-width="0.3" x1="26.387840678322732" x2="22.057713659400548" y1="142.50000000000003" y2="145.00000000000006" /><path d="M 25.521815274538298 143.00000000000003 a86.0,86.0 0 0,1 -11.493303480769221,-40.785679425670985" fill="none" id="id45" stroke="none" /><text fill="#e1ed5e" style="font-size:6.75px; font-family:Arial;" text-anchor="middle"><textPath startOffset="21.40746469413373" xlink:href="#id45">September</textPath></text><line stroke="#e1ed5e" stroke-width="0.3" x1="15.003131293944662" x2="10.003315487706104" y1="100.72959589197737" y2="100.7725132973878" /><path d="M 14.003168132696942 100.73817937305945 a86.0,86.0 0 0,1 10.791469493833604,-42.45332614584628" fill="none" id="id46" stroke="none" /><text fill="#e1ed5e" style="font-size:6.75px; font-family:Arial;" text-anchor="middle"><textPath startOffset="22.145653131862435" xlink:href="#id46">October</textPath></text><line stroke="#e1ed5e" stroke-width="0.3" x1="26.387840678322718" x2="22.05771365940052" y1="57.49999999999999" y2="54.99999999999999" /><path d="M 25.521815274538284 56.99999999999999 a86.0,86.0 0 0,1 29.574782752854787,-30.34633250058573" fill="none" id="id47" stroke="none" /><text fill="#e1ed5e" style="font-size:6.75px; font-family:Arial;" text-anchor="middle"><textPath startOffset="21.40746469413373" xlink:href="#id47">November</textPath></text><line stroke="#e1ed5e" stroke-width="0.3" x1="56.869717070023135" x2="54.33264160355391" y1="26.7553504044142" y2="22.446841604673864" /><path d="M 56.362301976729285 25.89364864446614 a86.0,86.0 0 0,1 42.16139366436587,-11.88097634709845" fill="none" id="id48" stroke="none" /><text fill="#e1ed5e" style="font-size:6.75px; font-family:Arial;" text-anchor="middle"><textPath startOffset="22.145653131862474" xlink:href="#id48">December</textPath></text></svg>