<?xml version="1.0" encoding="utf-8" ?>
<svg baseProfile="full" height="200mm" version="1.1" viewBox="0,0,200,200" width="200mm" xmlns="http://www.w3.org/2000/svg" xmlns:ev="http://www.w3.org/2001/xml-events" xmlns:xlink="http://www.w3.org/1999/xlink"><defs /><rect fill="#1a1a1a" height="200" width="200" x="0" y="0" /><text alignment-baseline="middle" fill="#e1ed5e" style="dominant-baseline: central; font-size:9.0px; font-family:Arial;" text-anchor="middle" x="100.0" y="100.0">2024</text><line stroke="#e1ed5e" stroke-width="0.3" x1="100.0" x2="100.0" y1="15.0" y2="10.0" /><path d="M 100.0 14.0 a86.0,86.0 0 0,1 42.35913384403234,11.155469271406648" fill="none" id="id37" stroke="none" /><text fill="#e1ed5e" style="font-size:6.75px; font-family:Arial;" text-anchor="middle"><textPath startOffset="22.145653131862478" xlink:href="#id37">January</textPath></text><path d="M 100.72087961077811 79.0123766808444 l 0.13304646642305187 -3.8735027034787026 a24.8757869595844,24.8757869595844 0 0,0 0.42664845941066415,0.018322120602427577 l -0.19952068643455226 3.8706480144504445" fill="#ff0500" stroke="none" /><path d="M 101.44090949804482 79.04949213459386 l 0.7626959047858392 -11.089431066844005 a32.11562802676763,32.11562802676763 0 0,0 0.5496834507183702,0.04254897552671021 l -0.9529483502794428 11.07470432432224" fill="#ff700a" stroke="none" /><path d="M 102.15924093988457 79.11130261209362 l 3.323597404930735 -32.15278996819155 a53.32411178128026,53.32411178128026 0 0,0 0.9097197538218432,0.10193599590956055 l -3.875053060353375 32.090998211775016" fill="#82ff25" stroke="none" /><path d="M 102.51750503828377 79.15144685158666 l 0.8318024400893685 -6.888517447816261 a27.938556617064364,27.938556617064364 0 0,0 0.475650172140966,0.061582437631845 l -0.9499304341211262 6.873223413984019" fill="#ff3304" stroke="none" /><path d="M 102.87502721639298 79.19773525538626 l 1.902803739721567 -13.767739980002569 a34.89860878753192,34.89860878753192 0 0,0 0.5927360763681795,0.08711179123831495 l -2.1388649216974285 13.733047115465371" fill="#ff960d" stroke="none" /><path d="M 103.23170211078529 79.25015418208739 l 0.5895643929544151 -3.785426327726312 a24.8310623404068,24.8310623404068 0 0,0 0.420617499884494,0.06921244954226305 l -0.6544593958919795 3.7747478796883804" fill="#ff0500" stroke="none" /><path d="M 103.58742460773223 79.30868818359171 l 1.1846011201118074 -6.832464465307442 a27.934396187373423,27.934396187373423 0 0,0 0.47177905080405835,0.08597385884355396 l -1.3017149044669194 6.811122432532523" fill="#ff3304" stroke="none" /><path d="M 104.29559338865022 79.4440306129975 l 2.150680721760915 -10.291785808811277 a31.514099233952628,31.514099233952628 0 0,0 0.528592864599632,0.11520435459142066 l -2.327036002979681 10.253349996086136" fill="#ff6709" stroke="none" /><path d="M 104.64783097203109 79.52079915486377 l 5.367928628518223 -23.652083986552984 a45.253571585806114,45.253571585806114 0 0,0 0.7560963427566537,0.17843667814696434 l -5.7731571250147615 23.556451164759793" fill="#e1ff1b" stroke="none" /><path d="M 104.9986988182912 79.60360301121754 l 2.6704823301887313 -10.896479211499711 a32.21894536409263,32.21894536409263 0 0,0 0.5360537603844849,0.1362627696678126 l -2.8571413837986106 10.84903120999663" fill="#ff710a" stroke="none" /><path d="M 105.3480935250658 79.69241777938227 l 0.9282464652144622 -3.524703022673585 a24.644883111737254,24.644883111737254 0 0,0 0.40818803419298577,0.11125346385086049 l -0.9886159003421408 3.508249064678582" fill="#ff0200" stroke="none" /><path d="M 105.69591212413111 79.78721728523813 l 1.8885544684268252 -6.701813560918859 a27.962825790261512,27.962825790261512 0 0,0 0.46090724632459384,0.13416338207090858 l -2.0033217271330233 6.668406484545435" fill="#ff3404" stroke="none" /><path d="M 106.72888874123014 80.10723608172694 l 10.698448739434138 -31.62806270837561 a54.38848837721228,54.38848837721228 0 0,0 0.8818555409351139,0.3067551339820011 l -11.23981005241427 31.439749141825015" fill="#76ff27" stroke="none" /><path d="M 107.74402155503746 80.48000691201159 l 3.8446080420918527 -9.690923749926794 a31.425690103020163,31.425690103020163 0 0,0 0.499736619710254,0.2032385327038147 l -4.010399122992546 9.623497960643686" fill="#ff6609" stroke="none" /><path d="M 108.07796709384702 80.6158196554323 l 2.620876045527236 -6.289148412841932 a27.813397023861935,27.813397023861935 0 0,0 0.43914032826056043,0.18744289323639135 l -2.7284514489582268 6.243230869946139" fill="#ff3104" stroke="none" /><path d="M 108.73861861582097 80.90454125486305 l 2.4226063847769925 -5.293832161579968 a26.821827947521353,26.821827947521353 0 0,0 0.41702997806963843,0.19519108681461877 l -2.513125076718136 5.251464843194816" fill="#ff2303" stroke="none" /><path d="M 109.06512990194946 81.05736502329252 l 4.5700802371763345 -9.549710007848791 a31.58690675354407,31.58690675354407 0 0,0 0.4870998099833353,0.23826492594560358 l -4.733340296421737 9.469851331805966" fill="#ff6809" stroke="none" /><path d="M 109.71004243097381 81.37971332152246 l 3.2162859022952963 -6.167652300843559 a27.955891740776615,27.955891740776615 0 0,0 0.4236132103131079,0.22555017438276964 l -3.321687928394964 6.111531658738217" fill="#ff3304" stroke="none" /><path d="M 110.02825361518725 81.54914285379988 l 6.636091090361707 -12.20966016774885 a34.89652857268645,34.89652857268645 0 0,0 0.5238730212245767,0.2905835339528379 l -6.844708299742384 12.093943718362866" fill="#ff960d" stroke="none" /><path d="M 110.34350942703115 81.72400993836675 l 2.7818047553216756 -4.9151824552699726 a26.647783305450382,26.647783305450382 0 0,0 0.39617326965645555,0.22873074388188883 l -2.8657704928385286 4.8667048141119125" fill="#ff2003" stroke="none" /><line stroke="#e1ed5e" stroke-width="0.3" x1="143.13028292997686" x2="145.6673583964461" y1="26.7553504044142" y2="22.446841604673864" /><path d="M 143.63769802327073 25.89364864446614 a86.0,86.0 0 0,1 29.32050498858742,28.57503671076993" fill="none" id="id38" stroke="none" /><text fill="#e1ed5e" style="font-size:6.75px; font-family:Arial;" text-anchor="middle"><textPath startOffset="20.669276256404974" xlink:href="#id38">February</textPath></text><path d="M 110.65571695917076 81.90426304109057 l 1.970503087187499 -3.346345035166822 a24.883414414017786,24.883414414017786 0 0,0 0.36622134763711833,0.21990539686211233 l -2.0276571913820516 3.3120256377687882" fill="#ff0500" stroke="none" /><path d="M 110.96478420261332 82.08984904055464 l 6.130943108448116 -10.014434809387854 a32.742119397728274,32.742119397728274 0 0,0 0.47684355291787994,0.29758564421744704 l -6.301950790155708 9.907713368328862" fill="#ff780b" stroke="none" /><path d="M 111.27062007382361 82.28071324371311 l 2.2775445161068215 -3.5806782694090358 a25.243638284758298,25.243638284758298 0 0,0 0.36364587024983147,0.2357108596511781 l -2.3386760186136604 3.541053568053963" fill="#ff0b01" stroke="none" /><path d="M 111.8722381534696 82.67804972795209 l 3.9283602140503286 -5.731594952766757 a27.94861098881747,27.94861098881747 0 0,0 0.39341650491282937,0.27463527469468046 l -4.026171810136919 5.66331486226695" fill="#ff3304" stroke="none" /><path d="M 112.16784306229584 82.88440491214696 l 2.0438215745101793 -2.874890999336591 a24.527350972968215,24.527350972968215 0 0,0 0.34106915472996446,0.2469077655213022 l -2.092871739614112 2.839382462442214" fill="#ff0000" stroke="none" /><path d="M 113.03279911837588 83.53348406188908 l 4.012216119359563 -5.069303998051107 a27.46496103724575,27.46496103724575 0 0,0 0.3671793644490265,0.29577370473669956 l -4.098646254163849 4.999681999520999" fill="#ff2c04" stroke="none" /><path d="M 113.31354834802062 83.75963576809568 l 3.1928425745687825 -3.8947487920331447 a26.036200140882276,26.036200140882276 0 0,0 0.34321373523304566,0.2863211047508957 l -3.259230643963721 3.839365503370379" fill="#ff1702" stroke="none" /><path d="M 113.86319453409587 84.22622945171908 l 36.05489513553516 -41.023852158426955 a75.6160407678084,75.6160407678084 0 0,0 0.9676511755933109,0.8652796480487813 l -36.75381133795185 40.398876980494784" fill="#42ffd8" stroke="none" /><path d="M 114.13192950727249 84.46653392183569 l 2.9322789366811333 -3.223088211076357 a25.357356696310646,25.357356696310646 0 0,0 0.3194667457150605,0.29569365047227936 l -2.9871754537101585 3.1722768144717026" fill="#ff0d01" stroke="none" /><path d="M 114.65682725009322 84.96080404539774 l 2.8771298979199225 -2.9521887365758044 a25.122292418772563,25.122292418772563 0 0,0 0.3062623735268364,0.30364476213168945 l -2.927384191576721 2.9023639642154557" fill="#ff0901" stroke="none" /><path d="M 115.16444852881244 85.47280134310134 l 4.608619714466509 -4.414953435263339 a27.382099145901208,27.382099145901208 0 0,0 0.32225362209356295,0.3422221793089679 l -4.683729170296332 4.335189796009876" fill="#ff2b04" stroke="none" /><path d="M 115.41159269507618 85.73525988315684 l 3.0718525789323974 -2.8432608869636677 a25.18573897155939,25.18573897155939 0 0,0 0.29095800859507787,0.3198138197870313 l -3.120208288369353 2.7901094916189644" fill="#ff0a01" stroke="none" /><path d="M 115.6541949942343 86.00192230759917 l 5.344128798716269 -4.778752925345563 a28.169113762437263,28.169113762437263 0 0,0 0.31923511493104184,0.36323095960975277 l -5.425374977605901 4.686309687924512" fill="#ff3705" stroke="none" /><path d="M 116.1254893667686 86.54754324733833 l 5.6048570425494075 -4.675771088543183 a28.299127190279123,28.299127190279123 0 0,0 0.3079931205766159,0.37570152812256635 l -5.684296982364651 4.578867278722122" fill="#ff3805" stroke="none" /><path d="M 116.57777611688842 87.10902102172516 l 13.788934223578332 -10.722358653877544 a38.467217354935286,38.467217354935286 0 0,0 0.4008797359433182,0.5247644427622075 l -13.970965936875958 10.484073297874454" fill="#ffc712" stroke="none" /><path d="M 116.7966241395341 87.39550010848427 l 33.05961862798556 -24.80855414447308 a62.33282887206128,62.33282887206128 0 0,0 0.6348983909219478,0.8613616030521472 l -33.480619038491334 24.23738623215206" fill="#31ff3f" stroke="none" /><path d="M 117.21940702142032 87.97951657250589 l 3.1658115576935466 -2.209982336586043 a24.860878753191862,24.860878753191862 0 0,0 0.24128105912811085,0.35203627603972837 l -3.2032823536369825 2.155311325476266" fill="#ff0500" stroke="none" /><line stroke="#e1ed5e" stroke-width="0.3" x1="172.87174338648825" x2="177.1583165268699" y1="56.24261187166439" y2="53.66864786411523" /><path d="M 173.72905801456457 55.72781907015455 a86.0,86.0 0 0,1 12.242430191666344,42.057860355516425" fill="none" id="id39" stroke="none" /><text fill="#e1ed5e" style="font-size:6.75px; font-family:Arial;" text-anchor="middle"><textPath startOffset="22.145653131862474" xlink:href="#id39">March</textPath></text><path d="M 118.18653347947321 89.5 l 21.720913395461793 -12.540575195914418 a46.08115039182883,46.08115039182883 0 0,0 0.3896416576676641,0.6884594743562222 l -21.93298841815083 12.165858951459077" fill="#d6ff1c" stroke="none" /><path d="M 118.36410011445183 89.81374322990088 l 8.84147256434871 -4.904215790860765 a31.110537553931493,31.110537553931493 0 0,0 0.2550392245655177,0.4692434475340304 l -8.924357138529569 4.751717509852131" fill="#ff6109" stroke="none" /><path d="M 118.53625476483649 90.13048839642627 l 6.126659005327551 -3.262100834896088 a27.94098353438408,27.94098353438408 0 0,0 0.22178745238503622,0.4253066837200585 l -6.181754526687532 3.1564479080715313" fill="#ff3304" stroke="none" /><path d="M 118.70294669586156 90.45014215332178 l 6.772139874091455 -3.4579028731181225 a28.603878665140442,28.603878665140442 0 0,0 0.21954169741563243,0.4392304599840542 l -6.830501484718824 3.341140556970318" fill="#ff3d05" stroke="none" /><path d="M 118.8641267826498 90.77261029715802 l 14.279834195506238 -6.984982476638977 a36.89665514660562,36.89665514660562 0 0,0 0.2734230882243809,0.571349093775781 l -14.397636541690531 6.738820880798093" fill="#ffb210" stroke="none" /><path d="M 119.16976305983485 91.42560881287824 l 14.992570919980459 -6.705986274703905 a37.4239896099322,37.4239896099322 0 0,0 0.25727409997253087,0.5886934889750058 l -15.10547890196996 6.44763071595305" fill="#ffb911" stroke="none" /><path d="M 119.58574465831526 92.42381321644754 l 16.42701087652547 -6.354320699425986 a38.613179096592404,38.613179096592404 0 0,0 0.23382912292686625,0.6202595291345007 l -16.533670683266777 6.071392890097327" fill="#ffc912" stroke="none" /><path d="M 119.71291397450082 92.76114493625339 l 31.825412164389036 -11.68673217465528 a54.90334155146605,54.90334155146605 0 0,0 0.31728858070024885,0.8875126302191355 l -32.02134091513322 11.138684588055227" fill="#70ff27" stroke="none" /><path d="M 119.83427380445688 93.10060997987247 l 24.853312602535915 -8.645272250830528 a47.3140243902439,47.3140243902439 0 0,0 0.26025998005494594,0.7694123858646175 l -24.998058004163227 8.21735819049175" fill="#c7ff1e" stroke="none" /><path d="M 119.94978838288452 93.4421083053983 l 23.19808452669673 -7.6256711564323885 a45.4192953684952,45.4192953684952 0 0,0 0.23712177890103228,0.742780595117077 l -23.32557102137502 7.226321527623924" fill="#deff1b" stroke="none" /><path d="M 120.05942366710727 93.78553927170692 l 60.17827100132179 -18.643382184879226 a84.0,84.0 0 0,0 0.41489471998549066,1.3810495856371061 l -60.48944204131091 17.607594995651397" fill="#4dd2ff" stroke="none" /><path d="M 120.16314734710363 94.1308016681162 l 26.387567035598494 -7.68103618754012 a48.48275843092365,48.48275843092365 0 0,0 0.22574843941711834,0.8011015715645186 l -26.515533967090192 7.226926692072588" fill="#baff1f" stroke="none" /><path d="M 120.26092885502905 94.47779374421319 l 41.72661763938906 -11.372775187642215 a64.24870674473891,64.24870674473891 0 0,0 0.2808908154218622,1.0665881780976596 l -41.915697935615654 10.654806505171758" fill="#33ff57" stroke="none" /><path d="M 120.35273937422433 94.82641323984039 l 4.25060788088741 -1.0804879014487607 a25.38578629919873,25.38578629919873 0 0,0 0.10373414826967091,0.4232707243051458 l -4.268529555673371 1.0073613525355198" fill="#ff0d01" stroke="none" /><path d="M 120.43855184770803 95.1765574152323 l 9.718075193944122 -2.2934392848239513 a30.98503125825482,30.98503125825482 0 0,0 0.11772709279547276,0.5187272929632594 l -9.75601314829726 2.1262776579216656" fill="#ff5f08" stroke="none" /><path d="M 120.592083275326 95.88100663000786 l 48.73134094779384 -9.74763299035908 a70.69667936074669,70.69667936074669 0 0,0 0.22782411503244007,1.1920720391572674 l -48.891491355108435 8.909658386168497" fill="#3cffa2" stroke="none" /><path d="M 120.65975698304385 96.23510406497455 l 45.01335281339612 -8.202932356276587 a66.75467222858148,66.75467222858148 0 0,0 0.19576660344967942,1.129129745747351 l -45.14753423433803 7.429009577608643" fill="#37ff75" stroke="none" /><path d="M 120.7213421655516 96.59031103205396 l 26.582004418217146 -4.374058711378614 a47.93947565378181,47.93947565378181 0 0,0 0.12664812271170375,0.8131717990422395 l -26.653174033067113 3.9170987304049327" fill="#c0ff1e" stroke="none" /><path d="M 120.82617615685814 97.30363454192243 l 43.52337528281411 -5.63497229868968 a64.88663929734965,64.88663929734965 0 0,0 0.13353643714538932,1.1058732613195805 l -43.61369380621916 4.887005360446687" fill="#34ff5e" stroke="none" /><path d="M 120.86939407059847 97.66154086499901 l 22.728335760892485 -2.5467574287797428 a43.87057541604297,43.87057541604297 0 0,0 0.07743701291073096,0.7491328547161245 l -22.76870516628488 2.156220051780687" fill="#f2ff19" stroke="none" /><path d="M 120.9064616781168 98.02013634271609 l 9.74381570573056 -0.9227494779396778 a30.787410847935192,30.787410847935192 0 0,0 0.04531082551552157,0.526580475351264 l -9.758220153943823 0.7553479552127518" fill="#ff5d08" stroke="none" /><path d="M 120.93736805541906 98.37931529534042 l 9.620644113516278 -0.7446986995919699 a30.6494232631857,30.6494232631857 0 0,0 0.03610215829078516,0.5249174582134221 l -9.632010232972128 0.5794378172242137" fill="#ff5b08" stroke="none" /><path d="M 120.96210409425399 98.7389718711861 l 14.665005519624676 -0.88221031563941 a35.69151734613014,35.69151734613014 0 0,0 0.031541801515587664,0.6119025229424069 l -14.677988910596836 0.6303359993202725" fill="#ffa10e" stroke="none" /><line stroke="#e1ed5e" stroke-width="0.3" x1="184.99686870605535" x2="189.99668451229388" y1="99.2704041080226" y2="99.22748670261217" /><path d="M 185.99683186730306 99.26182062694052 a86.0,86.0 0 0,1 -10.086455211305974,41.156179273409016" fill="none" id="id40" stroke="none" /><text fill="#e1ed5e" style="font-size:6.75px; font-family:Arial;" text-anchor="middle"><textPath startOffset="21.40746469413373" xlink:href="#id40">April</textPath></text><line stroke="#e1ed5e" stroke-width="0.3" x1="174.33088141563837" x2="178.70328620479359" y1="141.23008692659167" y2="143.65538615756765" /><path d="M 175.20536237346943 141.71514677278685 a86.0,86.0 0 0,1 -30.301960400862466,31.631185727798858" fill="none" id="id41" stroke="none" /><text fill="#e1ed5e" style="font-size:6.75px; font-family:Arial;" text-anchor="middle"><textPath startOffset="22.145653131862474" xlink:href="#id41">May</textPath></text><line stroke="#e1ed5e" stroke-width="0.3" x1="143.1302829299769" x2="145.66735839644613" y1="173.24464959558577" y2="177.55315839532614" /><path d="M 143.63769802327073 174.10635135553383 a86.0,86.0 0 0,1 -40.68552437913181,11.842963189579606" fill="none" id="id42" stroke="none" /><text fill="#e1ed5e" style="font-size:6.75px; font-family:Arial;" text-anchor="middle"><textPath startOffset="21.407464694133747" xlink:href="#id42">June</textPath></text><line stroke="#e1ed5e" stroke-width="0.3" x1="101.45913802915013" x2="101.54496967792366" y1="184.9874750549273" y2="189.98673829345242" /><path d="M 101.47630435890484 185.9873277026323 a86.0,86.0 0 0,1 -42.54439059252881,-10.42667462771756" fill="none" id="id43" stroke="none" /><text fill="#e1ed5e" style="font-size:6.75px; font-family:Arial;" text-anchor="middle"><textPath startOffset="22.145653131862474" xlink:href="#id43">July</textPath></text><line stroke="#e1ed5e" stroke-width="0.3" x1="58.13341422392154" x2="55.67067388415222" y1="173.97424548756322" y2="178.32567169271397" /><path d="M 57.64086615596768 174.84453072859336 a86.0,86.0 0 0,1 -31.369924170532247,-30.572349798747897" fill="none" id="id44" stroke="none" /><text fill="#e1ed5e" style="font-size:6.75px; font-family:Arial;" text-anchor="middle"><textPath startOffset="22.145653131862474" xlink:href="#id44">August</textPath></text><line stroke="#e1ed5e" stroke-width="0.3" x1="26.387840678322732" x2="22.057713659400548" y1="142.50000000000003" y2="145.00000000000006" /><path d="M 25.521815274538298 143.00000000000003 a86.0,86.0 0 0,1 -11.493303480769221,-40.785679425670985" fill="none" id="id45" stroke="none" /><text fill="#e1ed5e" style="font-size:6.75px; font-family:Arial;" text-anchor="middle"><textPath startOffset="21.40746469413373" xlink:href="#id45">September</textPath></text><line stroke="#e1ed5e" stroke-width="0.3" x1="15.003131293944662" x2="10.003315487706104" y1="100.72959589197737" y2="100.7725132973878" /><path d="M 14.003168132696942 100.73817937305945 a86.0,86.0 0 0,1 10.791469493833604,-42.45332614584628" fill="none" id="id46" stroke="none" /><text fill="#e1ed5e" style="font-size:6.75px; font-family:Arial;" text-anchor="middle"><textPath startOffset="22.145653131862435" xlink:href="#id46">October</textPath></text><line stroke="#e1ed5e" stroke-width="0.3" x1="26.387840678322718" x2="22.05771365940052" y1="57.49999999999999" y2="54.99999999999999" /><path d="M 25.521815274538284 56.99999999999999 a86.0,86.0 0 0,1 29.574782752854787,-30.34633250058573" fill="none" id="id47" stroke="none" /><text fill="#e1ed5e" style="font-size:6.75px; font-family:Arial;" text-anchor="middle"><textPath startOffset="21.40746469413373" xlink:href="#id47">November</textPath></text><line stroke="#e1ed5e" stroke-width="0.3" x1="56.869717070023135" x2="54.33264160355391" y1="26.7553504044142" y2="22.446841604673864" /><path d="M 56.362301976729285 25.89364864446614 a86.0,86.0 0 0,1 42.16139366436587,-11.88097634709845" fill="none" id="id48" stroke="none" /><text fill="#e1ed5e" style="font-size:6.75px; font-family:Arial;" text-anchor="middle"><textPath startOffset="22.145653131862474" xlink:href="#id48">December</textPath></text></svg>