<?xml version="1.0" encoding="utf-8" ?>
<svg baseProfile="full" height="200mm" version="1.1" viewBox="0,0,200,200" width="200mm" xmlns="http://www.w3.org/2000/svg" xmlns:ev="http://www.w3.org/2001/xml-events" xmlns:xlink="http://www.w3.org/1999/xlink"><defs /><rect fill="#1a1a1a" height="200" width="200" x="0" y="0" /><text alignment-baseline="middle" fill="#e1ed5e" style="dominant-baseline: central; font-size:9.0px; font-family:Arial;" text-anchor="middle" x="100.0" y="100.0">2024</text><line stroke="#e1ed5e" stroke-width="0.3" x1="100.0" x2="100.0" y1="15.0" y2="10.0" /><path d="M 100.0 14.0 a86.0,86.0 0 0,1 42.35913384403234,11.155469271406648" fill="none" id="id37" stroke="none" /><text fill="#e1ed5e" style="font-size:6.75px; font-family:Arial;" text-anchor="middle"><textPath startOffset="22.145653131862478" xlink:href="#id37">January</textPath></text><path d="M 100.72087961077811 79.0123766808444 l 0.07251935360079668 -2.111321854531749 a23.11256692913386,23.11256692913386 0 0,0 0.396407200679193,0.017023430832370526 l -0.10875231488082596 2.109765855273548" fill="#ff0300" stroke="none" /><path d="M 101.44090949804482 79.04949213459386 l 0.4157210296226304 -6.044492532488513 a27.058771653543307,27.058771653543307 0 0,0 0.46313149978954704,0.03584930713202473 l -0.5194215241874109 6.036465458361435" fill="#ff3c05" stroke="none" /><path d="M 102.15924093988457 79.11130261209362 l 1.8115861466659882 -17.525452630521254 a38.61883464566929,38.61883464566929 0 0,0 0.6588448559789821,0.07382494033130663 l -2.112166904245767 17.491771929682976" fill="#ffd814" stroke="none" /><path d="M 102.51750503828377 79.15144685158666 l 0.4533887813828851 -3.7547095087441713 a24.781984251968503,24.781984251968503 0 0,0 0.4219099517919942,0.05462469019097713 l -0.517776555065671 3.7463732223527972" fill="#ff1b02" stroke="none" /><path d="M 102.87502721639298 79.19773525538626 l 1.0371571748100048 -7.504352657656473 a28.57568503937008,28.57568503937008 0 0,0 0.48534425921930785,0.07132889235776012 l -1.1658265396369947 7.48544269199983" fill="#ff5207" stroke="none" /><path d="M 103.23170211078529 79.25015418208739 l 0.32135260584186776 -2.0633142523098718 a23.088188976377953,23.088188976377953 0 0,0 0.3910946777457018,0.0643544803940762 l -0.35672478664064006 2.0574937734201275" fill="#ff0200" stroke="none" /><path d="M 103.58742460773223 79.30868818359171 l 0.6456880052126189 -3.724156829156195 a24.77971653543307,24.77971653543307 0 0,0 0.41850022702708245,0.07626468234038883 l -0.709522965790755 3.71252397288444" fill="#ff1b02" stroke="none" /><path d="M 104.29559338865022 79.4440306129975 l 1.1722669525687874 -5.609721733455463 a26.730897637795277,26.730897637795277 0 0,0 0.4483631802637288,0.09771866830620786 l -1.2683925494516504 5.588771607015537" fill="#ff3805" stroke="none" /><path d="M 104.64783097203109 79.52079915486377 l 2.925885405160264 -12.891990957223893 a34.21984251968504,34.21984251968504 0 0,0 0.5717448782972475,0.13493023449755795 l -3.146762437197397 12.839864579080107" fill="#ff9f0e" stroke="none" /><path d="M 104.9986988182912 79.60360301121754 l 1.4555941062864783 -5.939320676355561 a27.11508661417323,27.11508661417323 0 0,0 0.4511365588917661,0.11467714911449677 l -1.5573359584036388 5.913458295405797" fill="#ff3d05" stroke="none" /><path d="M 105.3480935250658 79.69241777938227 l 0.5059573203961012 -1.9212023566736016 a22.98670866141732,22.98670866141732 0 0,0 0.38072403827316836,0.10376802963594914 l -0.5388627596039623 1.9122338328935105" fill="#ff0100" stroke="none" /><path d="M 105.69591212413111 79.78721728523813 l 1.0293903549059622 -3.6529432194426317 a24.795212598425195,24.795212598425195 0 0,0 0.40869593246735153,0.11896542954290652 l -1.091946299754918 3.634734095597209" fill="#ff1c02" stroke="none" /><path d="M 106.72888874123014 80.10723608172694 l 5.8313806294414885 -17.23944066251023 a39.19899212598425,39.19899212598425 0 0,0 0.635572883835734,0.22108524138728833 l -6.126459285322241 17.13679698855435" fill="#ffe015" stroke="none" /><path d="M 107.74402155503746 80.48000691201159 l 2.0955723030958975 -5.282211132948475 a26.682708661417323,26.682708661417323 0 0,0 0.4243129295635966,0.17256437453345383 l -2.185939693849934 5.245459501835728" fill="#ff3705" stroke="none" /><path d="M 108.07796709384702 80.6158196554323 l 1.4285553145402188 -3.428012707594552 a24.71376377952756,24.71376377952756 0 0,0 0.3902008204673717,0.16655352748249666 l -1.4871912101780205 3.402984530452654" fill="#ff1a02" stroke="none" /><path d="M 108.73861861582097 80.90454125486305 l 1.3204848935600964 -2.885497802009808 a24.17329133858268,24.17329133858268 0 0,0 0.37585011642473515,0.17591683227169458 l -1.3698237238563364 2.8624047381675797" fill="#ff1202" stroke="none" /><path d="M 109.06512990194946 81.05736502329252 l 2.491003884687772 -5.205240059831179 a26.770582677165354,26.770582677165354 0 0,0 0.41282756291821204,0.20193464807628844 l -2.579991696868051 5.1617116616576695" fill="#ff3805" stroke="none" /><path d="M 109.71004243097381 81.37971332152246 l 1.753094094871789 -3.3617890810375237 a24.79143307086614,24.79143307086614 0 0,0 0.3756624417061222,0.2000190909373325 l -1.8105453523644708 3.3311995223776183" fill="#ff1c02" stroke="none" /><path d="M 110.02825361518725 81.54914285379988 l 3.6171200126338396 -6.65509341852862 a28.57455118110236,28.57455118110236 0 0,0 0.42896634907968995,0.23794040275455824 l -3.73083054986963 6.592020100340916" fill="#ff5207" stroke="none" /><path d="M 110.34350942703115 81.72400993836675 l 1.5162723830491558 -2.6791080144342474 a24.078425196850393,24.078425196850393 0 0,0 0.3579745575484136,0.20667670716361383 l -1.562039408457967 2.6526844099944618" fill="#ff1101" stroke="none" /><line stroke="#e1ed5e" stroke-width="0.3" x1="143.13028292997686" x2="145.6673583964461" y1="26.7553504044142" y2="22.446841604673864" /><path d="M 143.63769802327073 25.89364864446614 a86.0,86.0 0 0,1 29.32050498858742,28.57503671076993" fill="none" id="id38" stroke="none" /><text fill="#e1ed5e" style="font-size:6.75px; font-family:Arial;" text-anchor="middle"><textPath startOffset="20.669276256404974" xlink:href="#id38">February</textPath></text><path d="M 110.65571695917076 81.90426304109057 l 1.0740579136978317 -1.8239851489470813 a23.116724409448818,23.116724409448818 0 0,0 0.34022010907856287,0.20429240018396327 l -1.1052107793338288 1.805278748227197" fill="#ff0300" stroke="none" /><path d="M 110.96478420261332 82.08984904055464 l 3.34178007985699 -5.458546615923467 a27.400251968503937,27.400251968503937 0 0,0 0.3990466634366093,0.24903463134806583 l -3.4349908720833113 5.400376187733856" fill="#ff4106" stroke="none" /><path d="M 111.27062007382361 82.28071324371311 l 1.2414163302911223 -1.951712664989441 a23.313070866141732,23.313070866141732 0 0,0 0.3358351853913547,0.21768430972507566 l -1.2747371479394844 1.9301145135604707" fill="#ff0600" stroke="none" /><path d="M 111.8722381534696 82.67804972795209 l 2.141222920781442 -3.124108232642379 a24.787464566929135,24.787464566929135 0 0,0 0.3489188668257487,0.24357246744916938 l -2.194536878780952 3.0868909493880827" fill="#ff1b02" stroke="none" /><path d="M 112.16784306229584 82.88440491214696 l 1.1140214651590357 -1.5670107034764165 a22.922645669291338,22.922645669291338 0 0,0 0.3187546584715237,0.2307537910750723 l -1.1407571340045273 1.5476561410282694" fill="#ff0000" stroke="none" /><path d="M 113.03279911837588 83.53348406188908 l 2.186930080183173 -2.7631147149422217 a24.52384251968504,24.52384251968504 0 0,0 0.3278595188252622,0.26410042040802545 l -2.2340403693636945 2.7251660007407876" fill="#ff1802" stroke="none" /><path d="M 113.31354834802062 83.75963576809568 l 1.7403158902438463 -2.122902414691943 a23.74507086614173,23.74507086614173 0 0,0 0.313011669185368,0.26112546708022133 l -1.776501893591107 2.0927147636998513" fill="#ff0c01" stroke="none" /><path d="M 113.86319453409587 84.22622945171908 l 19.65236476900897 -22.360783572289698 a50.76944881889764,50.76944881889764 0 0,0 0.6496917365018315,0.5809583569779858 l -20.033321532334178 22.020129685428326" fill="#95ff23" stroke="none" /><path d="M 114.13192950727249 84.46653392183569 l 1.5982910240485997 -1.75680181480647 a23.375055118110236,23.375055118110236 0 0,0 0.29449255610224284,0.27257791340965715 l -1.6282133514648076 1.7291061552644378" fill="#ff0701" stroke="none" /><path d="M 114.65682725009322 84.96080404539774 l 1.56823105515058 -1.609143216199962 a23.246929133858266,23.246929133858266 0 0,0 0.28340008049685184,0.28097787214147546 l -1.5956230557773945 1.581985333829827" fill="#ff0500" stroke="none" /><path d="M 115.16444852881244 85.47280134310134 l 2.5120105153509953 -2.4064492497294987 a24.47867716535433,24.47867716535433 0 0,0 0.2880839171081308,0.30593513672899664 l -2.5529502661953862 2.362972653056007" fill="#ff1702" stroke="none" /><path d="M 115.41159269507618 85.73525988315684 l 1.6743681314524592 -1.5497701456076243 a23.28151181102362,23.28151181102362 0 0,0 0.26895944253482446,0.2956335421052504 l -1.7007252748291612 1.5207990279447021" fill="#ff0500" stroke="none" /><path d="M 115.6541949942343 86.00192230759917 l 2.912912882706655 -2.604744661628476 a24.907653543307088,24.907653543307088 0 0,0 0.2822736174314145,0.32117556038368966 l -2.9571975640966595 2.554356823433489" fill="#ff1d03" stroke="none" /><path d="M 116.1254893667686 86.54754324733833 l 3.0550274703134246 -2.548612571552632 a24.97851968503937,24.97851968503937 0 0,0 0.27185333927268107,0.3316168711780094 l -3.098327628824733 2.4957934186761275" fill="#ff1e03" stroke="none" /><path d="M 116.57777611688842 87.10902102172516 l 7.515904958784748 -5.844413155495751 a30.520818897637795,30.520818897637795 0 0,0 0.3180676602512066,0.41636077737789084 l -7.615124596390261 5.714531464876978" fill="#ff6d0a" stroke="none" /><path d="M 116.7966241395341 87.39550010848427 l 18.019735793411364 -13.52234567889162 a43.5291968503937,43.5291968503937 0 0,0 0.44337177597320504,0.6015189661227338 l -18.249209588968395 13.211020403500012" fill="#e9ff1a" stroke="none" /><path d="M 117.21940702142032 87.97951657250589 l 1.7255821515458873 -1.204590357242515 a23.10444094488189,23.10444094488189 0 0,0 0.22423438998624567,0.3271646763158675 l -1.7460062783474581 1.1747909458565986" fill="#ff0300" stroke="none" /><line stroke="#e1ed5e" stroke-width="0.3" x1="172.87174338648825" x2="177.1583165268699" y1="56.24261187166439" y2="53.66864786411523" /><path d="M 173.72905801456457 55.72781907015455 a86.0,86.0 0 0,1 12.242430191666344,42.057860355516425" fill="none" id="id39" stroke="none" /><text fill="#e1ed5e" style="font-size:6.75px; font-family:Arial;" text-anchor="middle"><textPath startOffset="22.145653131862474" xlink:href="#id39">March</textPath></text><path d="M 118.18653347947321 89.5 l 11.83937192325805 -6.835464566929135 a34.670929133858266,34.670929133858266 0 0,0 0.29316191513721673,0.517989013815299 l -11.954967203416643 6.631218783014718" fill="#ffa50f" stroke="none" /><path d="M 118.36410011445183 89.81374322990088 l 4.819202587515359 -2.673130438061916 a26.510929133858266,26.510929133858266 0 0,0 0.21733236840056347,0.39986707920223463 l -4.864380305531263 2.590008525385078" fill="#ff3405" stroke="none" /><path d="M 118.53625476483649 90.13048839642627 l 3.3394449529091252 -1.7780663424391083 a24.783307086614172,24.783307086614172 0 0,0 0.19672272930736462,0.37724177231100636 l -3.3694757511914344 1.7204783270236037" fill="#ff1b02" stroke="none" /><path d="M 118.70294669586156 90.45014215332178 l 3.6912758329236035 -1.8847917416724116 a25.144629921259842,25.144629921259842 0 0,0 0.19299112537940077,0.3861115303884801 l -3.723086871514741 1.821148355120181" fill="#ff2103" stroke="none" /><path d="M 118.8641267826498 90.77261029715802 l 7.783478759156594 -3.807289496198041 a29.66475590551181,29.66475590551181 0 0,0 0.21983101554542053,0.45936227379823 l -7.847689032661926 3.673114720334707" fill="#ff6108" stroke="none" /><path d="M 119.16976305983485 91.42560881287824 l 8.17196864495385 -3.6552176316430334 a29.952188976377954,29.952188976377954 0 0,0 0.20590863083875147,0.4711592434352055 l -8.233511157809572 3.5143963184319786" fill="#ff6509" stroke="none" /><path d="M 119.58574465831526 92.42381321644754 l 8.953835771714127 -3.4635360267989355 a30.600377952755906,30.600377952755906 0 0,0 0.18530614948912552,0.49154657721485373 l -9.011972605017693 3.309321169389924" fill="#ff6e0a" stroke="none" /><path d="M 119.71291397450082 92.76114493625339 l 17.3470095094577 -6.370062172991257 a39.47962204724409,39.47962204724409 0 0,0 0.228154296113473,0.6381881723967922 l -17.453803975615116 6.071339044213548" fill="#ffe315" stroke="none" /><path d="M 119.83427380445688 93.10060997987247 l 13.546742076136498 -4.712260101216098 a35.34292913385826,35.34292913385826 0 0,0 0.19441064568073413,0.5747405294471888 l -13.625638143389596 4.479017897294748" fill="#ffae10" stroke="none" /><path d="M 119.94978838288452 93.4421083053983 l 12.64453044024032 -4.156508307994428 a34.31017322834646,34.31017322834646 0 0,0 0.17912407588672882,0.5611036164774728 l -12.714019231904306 3.938835657825568" fill="#ffa00e" stroke="none" /><path d="M 120.05942366710727 93.78553927170692 l 32.80124178535339 -10.161908552167302 a55.33927559055118,55.33927559055118 0 0,0 0.27333301488501943,0.9098367098070039 l -32.97085112024204 9.597334238769575" fill="#63ff29" stroke="none" /><path d="M 120.16314734710363 94.1308016681162 l 14.383014866659693 -4.18668600737995 a35.97996850393701,35.97996850393701 0 0,0 0.16753217025828596,0.5945125699564429 l -14.452765528992561 3.9391655135204937" fill="#ffb610" stroke="none" /><path d="M 120.26092885502905 94.47779374421319 l 22.743838453659293 -6.19893430790204 a44.57348031496063,44.57348031496063 0 0,0 0.1948721128598414,0.7399611536071697 l -22.846900047323867 5.807592649922072" fill="#dcff1b" stroke="none" /><path d="M 120.35273937422433 94.82641323984039 l 2.3168697690343114 -0.5889392352397671 a23.390551181102364,23.390551181102364 0 0,0 0.09558100252369905,0.39000310739377325 l -2.3266382980743017 0.5490803032378989" fill="#ff0701" stroke="none" /><path d="M 120.43855184770803 95.1765574152323 l 5.297010512611847 -1.2500800579645441 a26.442519685039372,26.442519685039372 0 0,0 0.10046789828160656,0.44268009740006076 l -5.31768927245112 1.158965626625457" fill="#ff3304" stroke="none" /><path d="M 120.592083275326 95.88100663000786 l 26.561888042911175 -5.3131215176426805 a48.088062992125984,48.088062992125984 0 0,0 0.1549665485545886,0.8108504646680098 l -26.64918088374792 4.856368487941356" fill="#b3ff20" stroke="none" /><path d="M 120.65975698304385 96.23510406497455 l 24.535332182760666 -4.471154838616367 a45.93940157480315,45.93940157480315 0 0,0 0.1347231633467519,0.7770474048966084 l -24.60847016359965 4.049314400799166" fill="#ccff1d" stroke="none" /><path d="M 120.7213421655516 96.59031103205396 l 14.488996435974727 -2.3841588498298636 a35.683842519685044,35.683842519685044 0 0,0 0.0942707779888216,0.6052860199813881 l -14.527788706101814 2.1350846479170342" fill="#ffb210" stroke="none" /><path d="M 120.82617615685814 97.30363454192243 l 23.723193309008526 -3.071442328727407 a44.9211968503937,44.9211968503937 0 0,0 0.09244763859966589,0.765599066329713 l -23.772423033867856 2.663749585474281" fill="#d8ff1c" stroke="none" /><path d="M 120.86939407059847 97.66154086499901 l 12.388485482664553 -1.3881556382404938 a33.466015748031495,33.466015748031495 0 0,0 0.05907167318811495,0.5714648525929664 l -12.410489548334333 1.175286263364596" fill="#ff950d" stroke="none" /><path d="M 120.9064616781168 98.02013634271609 l 5.3110408384543275 -0.5029610892699654 a26.334803149606298,26.334803149606298 0 0,0 0.0387577791582122,0.450424143468748 l -5.318892240310281 0.41171589842555545" fill="#ff3204" stroke="none" /><path d="M 120.93736805541906 98.37931529534042 l 5.243903961470625 -0.40591133138434504 a26.259590551181102,26.259590551181102 0 0,0 0.030931345317308546,0.4497349724165236 l -5.250099267953 0.3158329348134873" fill="#ff3104" stroke="none" /><path d="M 120.96210409425399 98.7389718711861 l 7.993423271037236 -0.4808644945645847 a29.00787401574803,29.00787401574803 0 0,0 0.025635239760774756,0.4973168028496904 l -8.000500100254584 0.3435758983381637" fill="#ff5808" stroke="none" /><path d="M 120.98066250479742 99.09900007780936 l 18.62705225701515 -0.79992577118926 a39.64422047244094,39.64422047244094 0 0,0 0.023362363672019895,0.6801697277361589 l -18.638039307684018 0.4800497788889812" fill="#ffe515" stroke="none" /><path d="M 120.99303781780057 99.45929381324524 l 4.703385039818049 -0.1211425145703784 a25.704944881889762,25.704944881889762 0 0,0 0.007575086174004494,0.44121079321534895 l -4.704771557590719 0.040384805385963084" fill="#ff2904" stroke="none" /><line stroke="#e1ed5e" stroke-width="0.3" x1="184.99686870605535" x2="189.99668451229388" y1="99.2704041080226" y2="99.22748670261217" /><path d="M 185.99683186730306 99.26182062694052 a86.0,86.0 0 0,1 -10.086455211305974,41.156179273409016" fill="none" id="id40" stroke="none" /><text fill="#e1ed5e" style="font-size:6.75px; font-family:Arial;" text-anchor="middle"><textPath startOffset="21.40746469413373" xlink:href="#id40">April</textPath></text><path d="M 120.99922638620191 99.81974689727618 l 33.7314187481648 -0.28954366112403845 a54.73266141732284,54.73266141732284 0 0,0 0.0,0.9395935276957266 l -33.7314187481648 -0.28954366112403435" fill="#6aff28" stroke="none" /><path d="M 120.99922638620191 100.18025310272382 l 14.867924704971701 0.12762325191638135 a35.868472440944885,35.868472440944885 0 0,0 -0.010570214054860298,0.6156619767055699 l -14.863543059318172 -0.3828321445910222" fill="#ffb510" stroke="none" /><path d="M 120.99303781780057 100.54070618675476 l 22.54099688982809 0.5805761214613323 a43.54847244094488,43.54847244094488 0 0,0 -0.02566314177456797,0.7471543718226148 l -22.527709061056676 -0.9674367578480577" fill="#e8ff1a" stroke="none" /><path d="M 120.98066250479742 100.90099992219065 l 7.331384528448042 0.31484119665768184 a28.338141732283464,28.338141732283464 0 0,0 -0.025043374681216545,0.4858347784242878 l -7.324899564310253 -0.44064776845870024" fill="#ff4e07" stroke="none" /><path d="M 120.93736805541906 101.62068470465957 l 22.997850008661466 1.7801790392391603 a44.06664566929133,44.06664566929133 0 0,0 -0.06485430369048022,0.7537053160554327 l -22.963902082273243 -2.1747054026702504" fill="#e2ff1b" stroke="none" /><path d="M 120.9064616781168 101.97986365728391 l 18.25771410586747 1.7290245082994335 a39.33940157480315,39.33940157480315 0 0,0 -0.06943892845623481,0.6717586428961969 l -18.225342784929573 -2.042187673478562" fill="#ffe215" stroke="none" /><path d="M 120.86939407059847 102.33845913500097 l 2.4149339784371273 0.27059838935412933 a23.43004724409449,23.43004724409449 0 0,0 -0.048218940987013376,0.39932200279260394 l -2.40993295119045 -0.31201406907014184" fill="#ff0801" stroke="none" /><path d="M 120.7213421655516 103.40968896794604 l 2.3116533527679928 0.3803816795107042 a23.342740157480314,23.342740157480314 0 0,0 -0.06845556727760839,0.39483352069816086 l -2.30478296799815 -0.42000823312945307" fill="#ff0601" stroke="none" /><path d="M 120.65975698304385 103.76489593502545 l 8.077988219691832 1.4720785455735048 a29.211023622047243,29.211023622047243 0 0,0 -0.09413420355892226,0.4925499303484851 l -8.05152772385075 -1.6105310409553044" fill="#ff5b08" stroke="none" /><path d="M 120.592083275326 104.11899336999214 l 5.087564871307764 1.017655459825728 a26.188346456692912,26.188346456692912 0 0,0 -0.09196136273529422,0.44006841107642747 l -5.069345797748105 -1.1048403221875644" fill="#ff3004" stroke="none" /><path d="M 120.51834098615036 104.47187691870673 l 6.2368370918352065 1.3592896158387024 a27.38324409448819,27.38324409448819 0 0,0 -0.10404216447882839,0.4584289737613915 l -6.212584065798714 -1.4661529235391109" fill="#ff4106" stroke="none" /><path d="M 120.43855184770803 104.8234425847677 l 4.400932900895008 1.038608181492209 a25.521826771653544,25.521826771653544 0 0,0 -0.10429005157610524,0.4255389994978837 l -4.382455322802607 -1.1140030055981924" fill="#ff2603" stroke="none" /><path d="M 119.94978838288452 106.5578916946017 l 2.6442333686524737 0.8692120294244167 a23.783433070866142,23.783433070866142 0 0,0 -0.13082539260680834,0.3867620270931744 l -2.6289225544733004 -0.9144757309917515" fill="#ff0d01" stroke="none" /><path d="M 119.83427380445688 106.89939002012753 l 3.746245875201311 1.3031387818443803 a24.966425196850395,24.966425196850395 0 0,0 -0.14428195792858928,0.4035823151648229 l -3.7233237472287786 -1.3672560533901246" fill="#ff1e03" stroke="none" /><path d="M 119.58574465831526 107.57618678355244 l 10.19551470190833 3.9438441112995135 a31.93171653543307,31.93171653543307 0 0,0 -0.20214498603936126,0.5095374156975445 l -10.126311040902845 -4.118282544210622" fill="#ff800b" stroke="none" /><path d="M 119.4528033332814 107.91128576633889 l 3.4383978679173275 1.398366479391931 a24.71187401574803,24.71187401574803 0 0,0 -0.16318563138355363,0.3915861096773221 l -3.4138863919972886 -1.457185098510531" fill="#ff1a02" stroke="none" /><path d="M 119.31412917781788 108.2440532568976 l 2.1136479183931907 0.9021906110878005 a23.298141732283465,23.298141732283465 0 0,0 -0.16016487038610908,0.36648856751959696 l -2.097849165990116 -0.9383412483832422" fill="#ff0600" stroke="none" /><path d="M 119.16976305983485 108.57439118712176 l 4.414263819465592 1.9744440592779195 a25.835716535433072,25.835716535433072 0 0,0 -0.18455994485314614,0.40329678727110035 l -4.37971940975739 -2.049929828763709" fill="#ff2b04" stroke="none" /><path d="M 119.0197475246899 108.90220220490707 l 11.5636641823451 5.412378720971264 a33.767622047244096,33.767622047244096 0 0,0 -0.25023535237720773,0.5228956440359311 l -11.46904957200798 -5.610086867072299" fill="#ff990e" stroke="none" /><path d="M 118.8641267826498 109.22738970284198 l 9.332162031490581 4.564828090205034 a31.388787401574803,31.388787401574803 0 0,0 -0.2409165465506814,0.48199447669793466 l -9.252425571728168 -4.724354423066715" fill="#ff790b" stroke="none" /><path d="M 118.70294669586154 109.54985784667822 l 1.952175286616857 0.9967946111461939 a23.191937007874017,23.191937007874017 0 0,0 -0.18409089352637417,0.35301856163098305 l -1.9347763241155336 -1.0301594158816798" fill="#ff0400" stroke="none" /><line stroke="#e1ed5e" stroke-width="0.3" x1="174.33088141563837" x2="178.70328620479359" y1="141.23008692659167" y2="143.65538615756765" /><path d="M 175.20536237346943 141.71514677278685 a86.0,86.0 0 0,1 -30.301960400862466,31.631185727798858" fill="none" id="id41" stroke="none" /><text fill="#e1ed5e" style="font-size:6.75px; font-family:Arial;" text-anchor="middle"><textPath startOffset="22.145653131862474" xlink:href="#id41">May</textPath></text><path d="M 118.36410011445183 110.18625677009912 l 55.092300343355504 30.558770310297355 a84.0,84.0 0 0,0 -0.7102665399144867,1.254972919603509 l -54.559600438419636 -31.499999999999986" fill="#4dd2ff" stroke="none" /><path d="M 117.81537515405839 111.11811171558189 l 9.162834209719259 5.718286227152911 a31.80075590551181,31.80075590551181 0 0,0 -0.292994460030478,0.46063595625419806 l -9.063322058062893 -5.8747358580857805" fill="#ff7e0b" stroke="none" /><path d="M 117.01052211995028 112.31430620078461 l 7.53575697136587 5.455306906262546 a30.30311811023622,30.30311811023622 0 0,0 -0.3086559887662977,0.41875112786050345 l -7.440998963015744 -5.583864343391927" fill="#ff6a09" stroke="none" /><path d="M 116.79662413953412 112.60449989151573 l 7.495715524892112 5.624924671497472 a30.371527559055117,30.371527559055117 0 0,0 -0.3165118452870696,0.4143241656475065 l -7.398051702250737 -5.7527697503858555" fill="#ff6b09" stroke="none" /><path d="M 116.57777611688842 112.89097897827486 l 12.689513739290401 9.867442635509901 a37.07451968503938,37.07451968503938 0 0,0 -0.3949911724468355,0.4990584430430059 l -12.518256136202005 -10.083821022467589" fill="#ffc512" stroke="none" /><path d="M 116.35404254752997 113.17365903436017 l 7.325286549411065 5.9007323143782004 a30.406299212598427,30.406299212598427 0 0,0 -0.3309264952486374,0.403676516307874 l -7.2229132349238006 -6.025611112384568" fill="#ff6b09" stroke="none" /><path d="M 116.1254893667686 113.45245675266167 l 6.428719279429314 5.36306626822423 a29.37203149606299,29.37203149606299 0 0,0 -0.32631688708913126,0.3844004724788549 l -6.335707828833068 -5.472633523152642" fill="#ff5d08" stroke="none" /><path d="M 115.89218393027572 113.72728997021213 l 5.528120313384099 4.775058661854215 a28.30488188976378,28.30488188976378 0 0,0 -0.32077374884394205,0.36498164255950066 l -5.445335500581571 -4.869252582225009" fill="#ff4e07" stroke="none" /><path d="M 115.6541949942343 113.99807769240083 l 4.221314800424973 3.7747257244587917 a26.662866141732284,26.662866141732284 0 0,0 -0.3080225061014023,0.338570691806457 l -4.155894593481691 -3.8466339918229204" fill="#ff3705" stroke="none" /><path d="M 115.16444852881244 114.52719865689866 l 5.414578076276445 5.187043314361529 a28.498204724409447,28.498204724409447 0 0,0 -0.3414535453413258,0.3503614179357391 l -5.324737729784312 -5.279227424365005" fill="#ff5107" stroke="none" /><line stroke="#e1ed5e" stroke-width="0.3" x1="143.1302829299769" x2="145.66735839644613" y1="173.24464959558577" y2="177.55315839532614" /><path d="M 143.63769802327073 174.10635135553383 a86.0,86.0 0 0,1 -40.68552437913181,11.842963189579606" fill="none" id="id42" stroke="none" /><text fill="#e1ed5e" style="font-size:6.75px; font-family:Arial;" text-anchor="middle"><textPath startOffset="21.407464694133747" xlink:href="#id42">June</textPath></text><line stroke="#e1ed5e" stroke-width="0.3" x1="101.45913802915013" x2="101.54496967792366" y1="184.9874750549273" y2="189.98673829345242" /><path d="M 101.47630435890484 185.9873277026323 a86.0,86.0 0 0,1 -42.54439059252881,-10.42667462771756" fill="none" id="id43" stroke="none" /><text fill="#e1ed5e" style="font-size:6.75px; font-family:Arial;" text-anchor="middle"><textPath startOffset="22.145653131862474" xlink:href="#id43">July</textPath></text><line stroke="#e1ed5e" stroke-width="0.3" x1="58.13341422392154" x2="55.67067388415222" y1="173.97424548756322" y2="178.32567169271397" /><path d="M 57.64086615596768 174.84453072859336 a86.0,86.0 0 0,1 -31.369924170532247,-30.572349798747897" fill="none" id="id44" stroke="none" /><text fill="#e1ed5e" style="font-size:6.75px; font-family:Arial;" text-anchor="middle"><textPath startOffset="22.145653131862474" xlink:href="#id44">August</textPath></text><line stroke="#e1ed5e" stroke-width="0.3" x1="26.387840678322732" x2="22.057713659400548" y1="142.50000000000003" y2="145.00000000000006" /><path d="M 25.521815274538298 143.00000000000003 a86.0,86.0 0 0,1 -11.493303480769221,-40.785679425670985" fill="none" id="id45" stroke="none" /><text fill="#e1ed5e" style="font-size:6.75px; font-family:Arial;" text-anchor="middle"><textPath startOffset="21.40746469413373" xlink:href="#id45">September</textPath></text><line stroke="#e1ed5e" stroke-width="0.3" x1="15.003131293944662" x2="10.003315487706104" y1="100.72959589197737" y2="100.7725132973878" /><path d="M 14.003168132696942 100.73817937305945 a86.0,86.0 0 0,1 10.791469493833604,-42.45332614584628" fill="none" id="id46" stroke="none" /><text fill="#e1ed5e" style="font-size:6.75px; font-family:Arial;" text-anchor="middle"><textPath startOffset="22.145653131862435" xlink:href="#id46">October</textPath></text><line stroke="#e1ed5e" stroke-width="0.3" x1="26.387840678322718" x2="22.05771365940052" y1="57.49999999999999" y2="54.99999999999999" /><path d="M 25.521815274538284 56.99999999999999 a86.0,86.0 0 0,1 29.574782752854787,-30.34633250058573" fill="none" id="id47" stroke="none" /><text fill="#e1ed5e" style="font-size:6.75px; font-family:Arial;" text-anchor="middle"><textPath startOffset="21.40746469413373" xlink:href="#id47">November</textPath></text><line stroke="#e1ed5e" stroke-width="0.3" x1="56.869717070023135" x2="54.33264160355391" y1="26.7553504044142" y2="22.446841604673864" /><path d="M 56.362301976729285 25.89364864446614 a86.0,86.0 0 0,1 42.16139366436587,-11.88097634709845" fill="none" id="id48" stroke="none" /><text fill="#e1ed5e" style="font-size:6.75px; font-family:Arial;" text-anchor="middle"><textPath startOffset="22.145653131862474" xlink:href="#id48">December</textPath></text></svg>