<?xml version="1.0" encoding="utf-8" ?>
<svg baseProfile="full" height="200mm" version="1.1" viewBox="0,0,200,200" width="200mm" xmlns="http://www.w3.org/2000/svg" xmlns:ev="http://www.w3.org/2001/xml-events" xmlns:xlink="http://www.w3.org/1999/xlink"><defs /><rect fill="#1a1a1a" height="200" width="200" x="0" y="0" /><text alignment-baseline="middle" fill="#e1ed5e" style="dominant-baseline: central; font-size:9.0px; font-family:Arial;" text-anchor="middle" x="100.0" y="100.0">2024</text><line stroke="#e1ed5e" stroke-width="0.3" x1="100.0" x2="100.0" y1="15.0" y2="10.0" /><path d="M 100.0 14.0 a86.0,86.0 0 0,1 42.35913384403234,11.155469271406648" fill="none" id="id37" stroke="none" /><text fill="#e1ed5e" style="font-size:6.75px; font-family:Arial;" text-anchor="middle"><textPath startOffset="22.145653131862478" xlink:href="#id37">January</textPath></text><path d="M 100.72087961077811 79.0123766808444 l 0.2510424338459403 -7.3088265501025065 a28.31313666240927,28.31313666240927 0 0,0 0.4856029743994208,0.020853881141710155 l -0.37647116884619736 7.303440100534965" fill="#ff0701" stroke="none" /><path d="M 101.44090949804482 79.04949213459386 l 1.439114028124196 -20.92440212681182 a41.973832590885024,41.973832590885024 0 0,0 0.7184141352989462,0.05560979764067686 l -1.7980971581983758 20.896614562176087" fill="#ffd413" stroke="none" /><path d="M 102.15924093988457 79.11130261209362 l 6.271222408904954 -60.668388011796345 a81.99165135042522,81.99165135042522 0 0,0 1.3987935736819959,0.1567377375352579 l -7.311751884187747 60.55179451375412" fill="#4ae6ff" stroke="none" /><path d="M 102.51750503828377 79.15144685158666 l 1.5695096206091128 -12.997791164113151 a34.09220896545279,34.09220896545279 0 0,0 0.5804152764706172,0.07514637785777731 l -1.7924027189705216 12.968933190054976" fill="#ff6109" stroke="none" /><path d="M 102.87502721639298 79.19773525538626 l 3.590358277024448 -25.978043957573774 a47.224977415033806,47.224977415033806 0 0,0 0.8020935158184184,0.11788012521812335 l -4.035776898450549 25.912582759056768" fill="#e3ff1b" stroke="none" /><path d="M 103.23170211078529 79.25015418208739 l 1.112436008977214 -7.1426371853815915 a28.22874676801346,28.22874676801346 0 0,0 0.47817144219049107,0.07868292884687127 l -1.2348849542207756 7.122488258039052" fill="#ff0600" stroke="none" /><path d="M 103.58742460773223 79.30868818359171 l 2.235197644286853 -12.892026031587244 a34.084358742718294,34.084358742718294 0 0,0 0.5756446750108408,0.10490163552001405 l -2.456177052848748 12.851756222135865" fill="#ff6109" stroke="none" /><path d="M 104.29559338865022 79.4440306129975 l 4.058071870166241 -19.419342937299103 a40.83882122052273,40.83882122052273 0 0,0 0.6849984616590548,0.14929222650653687 l -4.3908327484444305 19.346819252658847" fill="#ffc412" stroke="none" /><path d="M 104.64783097203109 79.52079915486377 l 10.12862576394612 -44.62859397282032 a66.76352761596212,66.76352761596212 0 0,0 1.1154845306352543,0.263251311923012 l -10.893242448321258 44.44814651725108" fill="#35ff69" stroke="none" /><path d="M 104.9986988182912 79.60360301121754 l 5.038874024519013 -20.56032554001469 a42.168779788791625,42.168779788791625 0 0,0 0.7015975452070363,0.1783433524157704 l -5.3910768629514445 20.470796955763653" fill="#ffd714" stroke="none" /><path d="M 105.3480935250658 79.69241777938227 l 1.7514877177974768 -6.650684149570238 a27.87744930064484,27.87744930064484 0 0,0 0.4617283505364008,0.1258461151534697 l -1.8653974692685704 6.619637540272627" fill="#ff0000" stroke="none" /><path d="M 105.69591212413111 79.78721728523813 l 3.5634716422829533 -12.645503730742426 a34.138001931404006,34.138001931404006 0 0,0 0.5626917888501403,0.16379137897627824 l -3.780023443514698 12.582468657463632" fill="#ff6209" stroke="none" /><path d="M 106.72888874123014 80.10723608172694 l 20.186666223690402 -59.67829175481916 a84.0,84.0 0 0,0 1.3619769118199267,0.4737662697256382 l -21.208148907555344 59.32296705252493" fill="#4dd2ff" stroke="none" /><path d="M 107.74402155503746 80.48000691201159 l 7.254305852824886 -18.285589612438848 a40.672003987414726,40.672003987414726 0 0,0 0.6467730612400855,0.2630369734261287 l -7.567133375255411 18.158365382433423" fill="#ffc212" stroke="none" /><path d="M 108.07796709384702 80.6158196554323 l 4.9452730235282925 -11.866854993035867 a33.85604809819009,33.85604809819009 0 0,0 0.5345465734620335,0.2281661461068811 l -5.148254672160756 11.780214197269585" fill="#ff5e08" stroke="none" /><path d="M 108.73861861582097 80.90454125486305 l 4.5711623873669245 -9.988814779861679 a31.98507834646896,31.98507834646896 0 0,0 0.49730900322982163,0.2327657241151959 l -4.741960104468252 9.90887282417595" fill="#ff4106" stroke="none" /><path d="M 109.06512990194946 81.05736502329252 l 8.623183286686666 -18.019136526860215 a40.976200118376376,40.976200118376376 0 0,0 0.631891544405841,0.3090898188579907 l -8.931235080354574 17.868452957905006" fill="#ffc612" stroke="none" /><line stroke="#e1ed5e" stroke-width="0.3" x1="143.13028292997686" x2="145.6673583964461" y1="26.7553504044142" y2="22.446841604673864" /><path d="M 143.63769802327073 25.89364864446614 a86.0,86.0 0 0,1 29.32050498858742,28.57503671076993" fill="none" id="id38" stroke="none" /><text fill="#e1ed5e" style="font-size:6.75px; font-family:Arial;" text-anchor="middle"><textPath startOffset="20.669276256404974" xlink:href="#id38">February</textPath></text><line stroke="#e1ed5e" stroke-width="0.3" x1="172.87174338648825" x2="177.1583165268699" y1="56.24261187166439" y2="53.66864786411523" /><path d="M 173.72905801456457 55.72781907015455 a86.0,86.0 0 0,1 12.242430191666344,42.057860355516425" fill="none" id="id39" stroke="none" /><text fill="#e1ed5e" style="font-size:6.75px; font-family:Arial;" text-anchor="middle"><textPath startOffset="22.145653131862474" xlink:href="#id39">March</textPath></text><line stroke="#e1ed5e" stroke-width="0.3" x1="184.99686870605535" x2="189.99668451229388" y1="99.2704041080226" y2="99.22748670261217" /><path d="M 185.99683186730306 99.26182062694052 a86.0,86.0 0 0,1 -10.086455211305974,41.156179273409016" fill="none" id="id40" stroke="none" /><text fill="#e1ed5e" style="font-size:6.75px; font-family:Arial;" text-anchor="middle"><textPath startOffset="21.40746469413373" xlink:href="#id40">April</textPath></text><line stroke="#e1ed5e" stroke-width="0.3" x1="174.33088141563837" x2="178.70328620479359" y1="141.23008692659167" y2="143.65538615756765" /><path d="M 175.20536237346943 141.71514677278685 a86.0,86.0 0 0,1 -30.301960400862466,31.631185727798858" fill="none" id="id41" stroke="none" /><text fill="#e1ed5e" style="font-size:6.75px; font-family:Arial;" text-anchor="middle"><textPath startOffset="22.145653131862474" xlink:href="#id41">May</textPath></text><line stroke="#e1ed5e" stroke-width="0.3" x1="143.1302829299769" x2="145.66735839644613" y1="173.24464959558577" y2="177.55315839532614" /><path d="M 143.63769802327073 174.10635135553383 a86.0,86.0 0 0,1 -40.68552437913181,11.842963189579606" fill="none" id="id42" stroke="none" /><text fill="#e1ed5e" style="font-size:6.75px; font-family:Arial;" text-anchor="middle"><textPath startOffset="21.407464694133747" xlink:href="#id42">June</textPath></text><line stroke="#e1ed5e" stroke-width="0.3" x1="101.45913802915013" x2="101.54496967792366" y1="184.9874750549273" y2="189.98673829345242" /><path d="M 101.47630435890484 185.9873277026323 a86.0,86.0 0 0,1 -42.54439059252881,-10.42667462771756" fill="none" id="id43" stroke="none" /><text fill="#e1ed5e" style="font-size:6.75px; font-family:Arial;" text-anchor="middle"><textPath startOffset="22.145653131862474" xlink:href="#id43">July</textPath></text><line stroke="#e1ed5e" stroke-width="0.3" x1="58.13341422392154" x2="55.67067388415222" y1="173.97424548756322" y2="178.32567169271397" /><path d="M 57.64086615596768 174.84453072859336 a86.0,86.0 0 0,1 -31.369924170532247,-30.572349798747897" fill="none" id="id44" stroke="none" /><text fill="#e1ed5e" style="font-size:6.75px; font-family:Arial;" text-anchor="middle"><textPath startOffset="22.145653131862474" xlink:href="#id44">August</textPath></text><line stroke="#e1ed5e" stroke-width="0.3" x1="26.387840678322732" x2="22.057713659400548" y1="142.50000000000003" y2="145.00000000000006" /><path d="M 25.521815274538298 143.00000000000003 a86.0,86.0 0 0,1 -11.493303480769221,-40.785679425670985" fill="none" id="id45" stroke="none" /><text fill="#e1ed5e" style="font-size:6.75px; font-family:Arial;" text-anchor="middle"><textPath startOffset="21.40746469413373" xlink:href="#id45">September</textPath></text><line stroke="#e1ed5e" stroke-width="0.3" x1="15.003131293944662" x2="10.003315487706104" y1="100.72959589197737" y2="100.7725132973878" /><path d="M 14.003168132696942 100.73817937305945 a86.0,86.0 0 0,1 10.791469493833604,-42.45332614584628" fill="none" id="id46" stroke="none" /><text fill="#e1ed5e" style="font-size:6.75px; font-family:Arial;" text-anchor="middle"><textPath startOffset="22.145653131862435" xlink:href="#id46">October</textPath></text><line stroke="#e1ed5e" stroke-width="0.3" x1="26.387840678322718" x2="22.05771365940052" y1="57.49999999999999" y2="54.99999999999999" /><path d="M 25.521815274538284 56.99999999999999 a86.0,86.0 0 0,1 29.574782752854787,-30.34633250058573" fill="none" id="id47" stroke="none" /><text fill="#e1ed5e" style="font-size:6.75px; font-family:Arial;" text-anchor="middle"><textPath startOffset="21.40746469413373" xlink:href="#id47">November</textPath></text><line stroke="#e1ed5e" stroke-width="0.3" x1="56.869717070023135" x2="54.33264160355391" y1="26.7553504044142" y2="22.446841604673864" /><path d="M 56.362301976729285 25.89364864446614 a86.0,86.0 0 0,1 42.16139366436587,-11.88097634709845" fill="none" id="id48" stroke="none" /><text fill="#e1ed5e" style="font-size:6.75px; font-family:Arial;" text-anchor="middle"><textPath startOffset="22.145653131862474" xlink:href="#id48">December</textPath></text></svg>